<svg xmlns="http://www.w3.org/2000/svg" xmlns:xlink="http://www.w3.org/1999/xlink" width="1055.427" height="180.46" viewBox="0 0 1055.427 180.46">
  <defs>
    <clipPath id="clip-path">
      <rect id="Rechteck_3" data-name="Rechteck 3" width="1055.427" height="180.46" fill="none"/>
    </clipPath>
  </defs>
  <g id="Gruppe_5" data-name="Gruppe 5" transform="translate(0 0)">
    <path id="Pfad_1" data-name="Pfad 1" d="M56.024,66.442v45.291H33.483V1.8h66.984V22.211H56.024V46.453h44.653V66.442Z" transform="translate(65.394 3.516)" fill="#fff"/>
    <path id="Pfad_2" data-name="Pfad 2" d="M86.912,66.442v45.291H64.371V1.8h66.984V22.211H86.912V46.453h44.653V66.442Z" transform="translate(125.719 3.516)" fill="#fff"/>
    <rect id="Rechteck_1" data-name="Rechteck 1" width="22.753" height="109.933" transform="translate(281.303 5.318)" fill="#fff"/>
    <g id="Gruppe_2" data-name="Gruppe 2" transform="translate(0 0)">
      <g id="Gruppe_1" data-name="Gruppe 1" clip-path="url(#clip-path)">
        <path id="Pfad_3" data-name="Pfad 3" d="M172.614,114.206c-34.237,0-62.091-25.517-62.091-56.56,0-30.833,27.853-56.562,62.091-56.35,17.01,0,32.746,6.594,53.8,25.092L209.825,41.275c-15.737-13.823-25.73-18.926-37.211-18.926-21.052,0-38.7,15.946-38.7,35.3,0,19.564,17.647,35.51,38.7,35.51,11.481,0,21.049-4.89,37.424-19.351l16.584,15.1c-21.69,19.136-36.786,25.3-54.008,25.3" transform="translate(215.856 2.531)" fill="#fff"/>
        <rect id="Rechteck_2" data-name="Rechteck 2" width="22.753" height="109.933" transform="translate(460.116 5.318)" fill="#fff"/>
        <path id="Pfad_4" data-name="Pfad 4" d="M228.822,45.716s.213,6.807.213,8.717v60.815H206.281V0l87.608,74.422s-.213-5.315-.213-7.016V5.315h22.541v114.61Z" transform="translate(402.874 0.001)" fill="#fff"/>
        <path id="Pfad_5" data-name="Pfad 5" d="M311.991,22.425V111.73H289.664V22.425H249.479L249.266,1.8H352.179V22.425Z" transform="translate(486.826 3.518)" fill="#fff"/>
        <path id="Pfad_6" data-name="Pfad 6" d="M377.372,114.2c-34.447,0-62.091-25.514-62.091-56.56,0-30.83,27.853-56.347,62.091-56.347,34.657,0,62.3,25.517,62.3,56.56,0,30.833-27.646,56.347-62.3,56.347m0-91.857c-21.265,0-38.7,15.946-38.7,35.3,0,19.564,17.435,35.513,38.7,35.513,21.69,0,38.912-15.949,38.912-35.3,0-19.564-17.222-35.51-38.912-35.51" transform="translate(615.755 2.532)" fill="#03e0b6"/>
        <path id="Pfad_7" data-name="Pfad 7" d="M23.048,22.425H70.043V1.8H.508Z" transform="translate(0.992 3.518)" fill="#fff"/>
        <path id="Pfad_8" data-name="Pfad 8" d="M70.253,36.629V17.065H38.714v.009H.508V81.919H70.253V61.3h-47.2V36.629Z" transform="translate(0.992 33.329)" fill="#fff"/>
        <path id="Pfad_9" data-name="Pfad 9" d="M195.781,22.425h46.995V1.8H173.241Z" transform="translate(338.345 3.518)" fill="#fff"/>
        <path id="Pfad_10" data-name="Pfad 10" d="M242.986,36.629V17.065H211.447v.009H173.241V81.919h69.745V61.3h-47.2V36.629Z" transform="translate(338.346 33.329)" fill="#fff"/>
        <path id="Pfad_11" data-name="Pfad 11" d="M322.626,60.356V1.8H299.873V35.722Z" transform="translate(585.664 3.517)" fill="#03e0b6"/>
        <path id="Pfad_12" data-name="Pfad 12" d="M322.643,42.938V79.874H299.872V18.286Z" transform="translate(585.66 35.714)" fill="#fff"/>
      </g>
    </g>
    <rect id="Rechteck_4" data-name="Rechteck 4" width="3.242" height="30.883" transform="translate(0 149.045)" fill="#fff"/>
    <g id="Gruppe_4" data-name="Gruppe 4" transform="translate(0 0)">
      <g id="Gruppe_3" data-name="Gruppe 3" clip-path="url(#clip-path)">
        <path id="Pfad_13" data-name="Pfad 13" d="M36.665,81.839,21.56,64.652c-2.519-2.856-5.375-6.293-7.5-8.906l-.1.05c.1,2.856.1,5.711.1,8.517V81.355H10.814V50.472h2.274l14.331,16.36c2.082,2.371,4.937,5.714,6.969,8.28l.1-.05c-.1-2.758-.1-5.516-.1-8.133V50.472h3.242V81.839Z" transform="translate(21.12 98.575)" fill="#fff"/>
        <path id="Pfad_14" data-name="Pfad 14" d="M42.273,53.277V81.354H39.03V53.277h-10.6V50.471H52.921v2.805Z" transform="translate(55.523 98.574)" fill="#fff"/>
        <path id="Pfad_15" data-name="Pfad 15" d="M45.257,81.355V50.472H61.378v2.805H48.5V64.41H59.054v2.808H48.5V78.546H63.073v2.808Z" transform="translate(88.389 98.574)" fill="#fff"/>
        <path id="Pfad_16" data-name="Pfad 16" d="M59.824,81.355V50.472h3.242V78.546H77.445v2.808Z" transform="translate(116.839 98.574)" fill="#fff"/>
        <path id="Pfad_17" data-name="Pfad 17" d="M74.326,81.355V50.472h3.242V78.546H91.947v2.808Z" transform="translate(145.161 98.574)" fill="#fff"/>
        <rect id="Rechteck_5" data-name="Rechteck 5" width="3.242" height="30.883" transform="translate(262.794 149.046)" fill="#fff"/>
        <path id="Pfad_18" data-name="Pfad 18" d="M115.919,82.24c-8.617,0-16.558-6.1-16.558-15.976,0-10.017,8.088-15.973,16.363-15.973a18.611,18.611,0,0,1,9.73,2.374l-.679,2.9a16.884,16.884,0,0,0-8.711-2.371c-7.016,0-13.41,4.985-13.41,13.165,0,8.136,6.343,13.073,13.46,13.073A14.314,14.314,0,0,0,124.1,77.4V69.362h-8.18V66.7H127.2V78.9c-2.9,2.227-6.582,3.34-11.278,3.34" transform="translate(194.056 98.221)" fill="#fff"/>
        <path id="Pfad_19" data-name="Pfad 19" d="M118.174,81.355V50.472h16.121v2.805H121.417V64.41h10.554v2.808H121.417V78.546H135.99v2.808Z" transform="translate(230.798 98.574)" fill="#fff"/>
        <path id="Pfad_20" data-name="Pfad 20" d="M158.592,81.839l-15.1-17.187c-2.519-2.856-5.375-6.293-7.5-8.906l-.1.05c.1,2.856.1,5.711.1,8.517V81.355h-3.242V50.472h2.274l14.331,16.36c2.082,2.371,4.937,5.714,6.969,8.28l.1-.05c-.1-2.758-.1-5.516-.1-8.133V50.472h3.242V81.839Z" transform="translate(259.248 98.575)" fill="#fff"/>
        <path id="Pfad_21" data-name="Pfad 21" d="M164.2,53.277V81.354h-3.242V53.277h-10.6V50.471h24.492v2.805Z" transform="translate(293.648 98.574)" fill="#fff"/>
        <path id="Pfad_22" data-name="Pfad 22" d="M202.427,55.31a16.67,16.67,0,0,0-8.035-2.032c-6.875,0-13.168,4.84-13.168,12.875,0,7.988,6.2,12.878,13.168,12.878a15.773,15.773,0,0,0,8.23-1.937l-.34,3.05c-1.84,1.063-4.406,1.692-8.18,1.692-8.233,0-16.171-5.953-16.171-15.734,0-9.825,7.988-15.731,16.171-15.731a18.885,18.885,0,0,1,9,2.035Z" transform="translate(347.508 98.381)" fill="#fff"/>
        <path id="Pfad_23" data-name="Pfad 23" d="M210.882,82.239a15.885,15.885,0,0,1-16.171-16.02c0-9.538,7.651-15.929,16.171-15.929s16.168,6.39,16.168,15.929a15.883,15.883,0,0,1-16.168,16.02m0-29.043A12.773,12.773,0,0,0,198,66.316,12.88,12.88,0,1,0,210.882,53.2" transform="translate(380.278 98.219)" fill="#fff"/>
        <path id="Pfad_24" data-name="Pfad 24" d="M240.62,81.839l-15.1-17.187c-2.519-2.856-5.375-6.293-7.5-8.906l-.1.05c.1,2.856.1,5.711.1,8.517V81.355h-3.242V50.472h2.274l14.331,16.36c2.082,2.371,4.937,5.714,6.969,8.28l.1-.05c-.1-2.758-.1-5.516-.1-8.133V50.472h3.242V81.839Z" transform="translate(419.452 98.575)" fill="#fff"/>
        <path id="Pfad_25" data-name="Pfad 25" d="M259.25,81.839l-15.1-17.187c-2.519-2.856-5.375-6.293-7.5-8.906l-.1.05c.1,2.856.1,5.711.1,8.517V81.355H233.4V50.472h2.274L250,66.832c2.082,2.371,4.938,5.714,6.969,8.28l.1-.05c-.1-2.758-.1-5.516-.1-8.133V50.472h3.242V81.839Z" transform="translate(455.837 98.575)" fill="#fff"/>
        <path id="Pfad_26" data-name="Pfad 26" d="M252.029,81.355V50.472H268.15v2.805H255.271V64.41h10.554v2.808H255.271V78.546h14.573v2.808Z" transform="translate(492.222 98.574)" fill="#fff"/>
        <path id="Pfad_27" data-name="Pfad 27" d="M290.648,55.31a16.67,16.67,0,0,0-8.035-2.032c-6.875,0-13.168,4.84-13.168,12.875,0,7.988,6.2,12.878,13.168,12.878a15.773,15.773,0,0,0,8.23-1.937l-.34,3.05c-1.84,1.063-4.406,1.692-8.18,1.692-8.233,0-16.171-5.953-16.171-15.734,0-9.825,7.988-15.731,16.171-15.731a18.885,18.885,0,0,1,9,2.035Z" transform="translate(519.807 98.381)" fill="#fff"/>
        <path id="Pfad_28" data-name="Pfad 28" d="M296.563,53.277V81.354h-3.243V53.277h-10.6V50.471h24.492v2.805Z" transform="translate(552.161 98.574)" fill="#fff"/>
        <rect id="Rechteck_6" data-name="Rechteck 6" width="3.242" height="30.883" transform="translate(885.061 149.046)" fill="#fff"/>
        <path id="Pfad_29" data-name="Pfad 29" d="M326.257,82.239a15.886,15.886,0,0,1-16.174-16.02c0-9.538,7.651-15.929,16.174-15.929s16.165,6.39,16.165,15.929a15.882,15.882,0,0,1-16.165,16.02m0-29.043a12.774,12.774,0,0,0-12.881,13.12A12.882,12.882,0,1,0,326.257,53.2" transform="translate(605.604 98.219)" fill="#fff"/>
        <path id="Pfad_30" data-name="Pfad 30" d="M355.991,81.839l-15.1-17.187c-2.519-2.856-5.375-6.293-7.5-8.906l-.1.05c.1,2.856.1,5.711.1,8.517V81.355H330.14V50.472h2.274l14.331,16.36c2.082,2.371,4.938,5.714,6.969,8.28l.1-.05c-.1-2.758-.1-5.516-.1-8.133V50.472h3.242V81.839Z" transform="translate(644.776 98.575)" fill="#fff"/>
        <path id="Pfad_31" data-name="Pfad 31" d="M356.915,81.79a14.2,14.2,0,0,1-8.085-2.324l-.434-3.532a13.614,13.614,0,0,0,8.664,3.048c3.774,0,6.485-2.227,6.485-5.566,0-3.242-1.887-5.035-6.145-6.585-5.422-1.934-7.988-4.548-7.988-8.759,0-3.874,2.855-7.7,9-7.7a12.559,12.559,0,0,1,6.485,1.742l-.726,2.761a10.76,10.76,0,0,0-5.856-1.792c-3.774,0-5.809,2.371-5.809,4.793,0,2.613,1.742,4.308,5.567,5.711,5.422,1.984,8.711,4.453,8.711,9.586,0,5.23-3.821,8.617-9.872,8.617" transform="translate(680.428 98.381)" fill="#fff"/>
      </g>
    </g>
  </g>
</svg>
