<svg xmlns="http://www.w3.org/2000/svg" xmlns:xlink="http://www.w3.org/1999/xlink" width="141" height="141" viewBox="-0.5 0 141 141">
  <defs>
    <clipPath id="clip-path">
      <rect id="Rechteck_48" data-name="Rechteck 48" width="140" height="141" transform="translate(0 0)" fill="none"/>
    </clipPath>
  </defs>
  <g id="Gruppe_59" data-name="Gruppe 59" transform="translate(-0.307 -0.089)">
    <g id="Gruppe_46" data-name="Gruppe 46" transform="translate(0.307 0.089)" clip-path="url(#clip-path)">
      <path id="Pfad_60" data-name="Pfad 60" d="M80.331,32H36.394A4.394,4.394,0,0,0,32,36.394V58.362a4.394,4.394,0,0,0,4.394,4.394H80.331a4.394,4.394,0,0,0,4.394-4.394V36.394A4.394,4.394,0,0,0,80.331,32M75.937,53.969H40.787V40.787h35.15Z" transform="translate(-14.867 -14.553)" fill="#fff"/>
      <path id="Pfad_61" data-name="Pfad 61" d="M123.024,122.77a8.956,8.956,0,0,1-8.345,9.031,8.8,8.8,0,0,1-9.23-8.776V79.087A8.788,8.788,0,0,0,96.662,70.3H87.875V17.575A17.575,17.575,0,0,0,70.3,0H17.575A17.575,17.575,0,0,0,0,17.575V136.206A4.394,4.394,0,0,0,4.394,140.6H83.481a4.394,4.394,0,0,0,4.394-4.394V79.087h4.394a4.394,4.394,0,0,1,4.394,4.394v39.178a17.813,17.813,0,0,0,17.081,17.934,17.575,17.575,0,0,0,18.069-17.568V61.512h-8.787ZM79.087,70.3v61.512H8.787V17.575a8.8,8.8,0,0,1,8.787-8.787H70.3a8.8,8.8,0,0,1,8.787,8.787Z" transform="translate(-0.442 -0.128)" fill="#fff"/>
      <path id="Pfad_62" data-name="Pfad 62" d="M229.969,49.575V34.2a2.2,2.2,0,0,0-4.394,0V49.575h-8.787V34.2a2.2,2.2,0,0,0-4.394,0V49.575H208v8.787a13.181,13.181,0,0,0,26.362,0V49.575Z" transform="translate(-94.205 -14.553)" fill="#fff"/>
      <path id="Pfad_63" data-name="Pfad 63" d="M77.969,112,56,142.756h8.787l-4.394,26.362,21.969-30.756H73.575Z" transform="translate(-25.686 -50.616)" fill="#fff"/>
    </g>
  </g>
</svg>
