<svg xmlns="http://www.w3.org/2000/svg" xmlns:xlink="http://www.w3.org/1999/xlink" width="141" height="141" viewBox="0 0 141 141">
  <defs>
    <clipPath id="clip-path">
      <rect id="Rechteck_50" data-name="Rechteck 50" width="141" height="141" transform="translate(0 0)" fill="#fff"/>
    </clipPath>
  </defs>
  <g id="Gruppe_81" data-name="Gruppe 81" transform="translate(-0.145 -0.089)">
    <g id="Gruppe_48" data-name="Gruppe 48" transform="translate(0.144 0.089)" clip-path="url(#clip-path)">
      <path id="Pfad_64" data-name="Pfad 64" d="M118.018,0h9.1c2.5,1.1,3.362,3.119,3.05,5.791,1.957,0,3.739.107,5.5-.025,2.559-.191,4.417.7,5.509,3.058V11.03c-1.1,2.382-2.978,3.244-5.541,3.059-1.8-.131-3.62-.025-5.4-.025v8.272c1.851,0,3.636.106,5.4-.025,2.566-.191,4.442.682,5.54,3.058v2.206c-1.1,2.388-2.992,3.246-5.559,3.058-1.77-.13-3.557-.025-5.461-.025,0,.5.005.854,0,1.21-.05,2.961-1.676,4.569-4.646,4.578-1.976.007-3.955.06-5.928-.026A17.047,17.047,0,0,1,106.4,29.912c-1.752-2.214-2.922-4.888-4.487-7.582H80.408c-20.083,0-40.166-.038-60.249.015A12.038,12.038,0,0,0,8.3,33.548,11.9,11.9,0,0,0,18.407,46.3c3.44.445,6.968.189,10.453.32A1.819,1.819,0,0,0,30.7,45.564c4.237-6.937,10.454-10.3,18.576-10.278q21.3.049,42.6,0c8.243-.02,14.463,3.45,18.745,10.494q7.405,12.182,14.915,24.3a4.071,4.071,0,0,0,1.785,1.54,21.034,21.034,0,0,1,13.3,19.655c.024,7.353,0,14.706.007,22.059a12.54,12.54,0,0,1-4.223,9.526,2.56,2.56,0,0,0-.709,1.611c-.085,2.019-.007,4.043-.043,6.065a10.8,10.8,0,0,1-7.026,9.958c-.679.253-1.375.458-2.063.685H110.848c-.069-.057-.131-.144-.21-.166-6.121-1.731-8.888-5.374-8.89-11.714,0-1.08,0-2.16,0-3.211H39.426c0,1.532.024,2.992,0,4.452a10.8,10.8,0,0,1-7.027,9.954c-.678.253-1.375.458-2.063.685H14.614c-.294-.1-.582-.229-.883-.308a10.824,10.824,0,0,1-8.21-10.464c-.027-2.021.04-4.044-.039-6.063a2.355,2.355,0,0,0-.689-1.489,12.369,12.369,0,0,1-4.244-9.5C.556,106,.535,98.654.556,91.3A20.993,20.993,0,0,1,13.951,71.6a3.625,3.625,0,0,0,1.586-1.375c2.921-4.668,5.784-9.374,8.659-14.071.226-.37.415-.762.705-1.3-1.726,0-3.237.017-4.747,0A20.436,20.436,0,0,1,.789,40C.48,38.9.261,37.782,0,36.674V31.986c.226-.924.434-1.854.682-2.773C3.14,20.085,11.148,14.051,20.908,14.048q39.892-.015,79.784.015h1.772C103.8,9.03,106.512,5.055,110.993,2.6A48.591,48.591,0,0,1,118.018,0m14.317,110.417h-1.71c-5.559,0-11.118.01-16.677,0-3.148-.008-4.764-1.64-4.753-4.745a20.02,20.02,0,0,1,15.1-19.363,56.2,56.2,0,0,1,6.7-.85,17.625,17.625,0,0,0-.983-1.626,13.454,13.454,0,0,0-11.433-5.523q-47.963.014-95.926.006c-.413,0-.828-.014-1.24.017A13.3,13.3,0,0,0,10.8,84.359c-.264.392-.448.836-.733,1.377.421,0,.6.008.786,0A20.006,20.006,0,0,1,31.982,105.49c.033,3.308-1.538,4.917-4.849,4.924-5.559.011-11.118,0-16.677.007-.525,0-1.05.044-1.628.069,0,1.182-.037,2.192.007,3.2.109,2.5,2.069,4.052,5.088,4.053H127.216c.367,0,.737.013,1.1-.02a4.286,4.286,0,0,0,4-3.72c.095-1.133.017-2.279.017-3.584M25.454,69.937h90.217c-.227-.407-.371-.686-.534-.953q-5.9-9.629-11.8-19.256A12.182,12.182,0,0,0,92.23,43.56q-21.639.03-43.276,0a12.241,12.241,0,0,0-11.192,6.27c-2.5,4.12-5.031,8.222-7.548,12.332l-4.76,7.775M121.834,8.314C117.335,8,113.8,9.462,111.6,13.335a9.321,9.321,0,0,0,.5,10.527c2.326,3.347,5.68,4.564,9.737,4.2ZM13.8,126.059c0,1.557-.049,2.975.014,4.387a2.431,2.431,0,0,0,2.478,2.439q6.188.067,12.377,0a2.371,2.371,0,0,0,2.441-2.173c.106-1.533.025-3.078.025-4.653Zm96.234,0c0,1.559-.049,2.976.014,4.389a2.431,2.431,0,0,0,2.48,2.436q6.188.067,12.377,0a2.265,2.265,0,0,0,2.4-2.043,43.4,43.4,0,0,0,.042-4.783ZM22.964,102.081c-.967-4.559-6.673-8.665-11.112-8.112a3.394,3.394,0,0,0-2.946,2.86c-.137,1.721-.032,3.46-.032,5.252Zm109.391,0c0-1.573.021-2.991,0-4.407a3.461,3.461,0,0,0-3.959-3.71,11.475,11.475,0,0,0-9.913,7.042,7.411,7.411,0,0,0-.311,1.075Z" transform="translate(-0.788 -0.708)" fill="#fff"/>
      <path id="Pfad_65" data-name="Pfad 65" d="M129.949,232.5q15.572,0,31.143,0c4.2,0,6,2.793,4.259,6.591-1.681,3.669-3.346,7.346-5.059,11a12.086,12.086,0,0,1-11.673,7.489q-18.672.053-37.344,0A12.089,12.089,0,0,1,99.6,250.095c-1.754-3.736-3.468-7.491-5.172-11.25-1.566-3.455.3-6.341,4.1-6.344q15.709-.012,31.418,0m25.523,8.346H104.458c.911,2,1.779,3.853,2.608,5.727a4.289,4.289,0,0,0,4.335,2.759c4-.037,7.994-.011,11.991-.011q12.542,0,25.086.008c1.575,0,3.01-.383,3.78-1.8,1.151-2.12,2.1-4.348,3.215-6.681" transform="translate(-60.149 -147.725)" fill="#fff"/>
    </g>
  </g>
</svg>
