<svg xmlns="http://www.w3.org/2000/svg" xmlns:xlink="http://www.w3.org/1999/xlink" width="77" height="71" viewBox="0 0 77 71">
  <defs>
    <clipPath id="clip-path">
      <rect id="Rechteck_114" data-name="Rechteck 114" width="77" height="71" transform="translate(-0.005 -0.049)" fill="#fff"/>
    </clipPath>
  </defs>
  <g id="Gruppe_105" data-name="Gruppe 105" transform="translate(0.005 0.049)">
    <g id="Gruppe_104" data-name="Gruppe 104" clip-path="url(#clip-path)">
      <path id="Pfad_76" data-name="Pfad 76" d="M29.373,95.031A5.216,5.216,0,1,0,22,102.408l5.509,5.509-3.748,3.748-.439-.44a2.664,2.664,0,0,0-3.768,0l-6.184,6.184a2.664,2.664,0,0,0,0,3.768l.439.44L.646,134.776A2.208,2.208,0,0,0,3.769,137.9L16.927,124.74l.44.44a2.664,2.664,0,0,0,3.768,0L27.319,119a2.664,2.664,0,0,0,0-3.768l-.439-.44,3.748-3.748,8.04,8.04-3.748,3.749-.44-.44a2.664,2.664,0,0,0-3.768,0l-6.184,6.184a2.664,2.664,0,0,0,0,3.768l.44.439-7.256,7.257a2.208,2.208,0,0,0,3.123,3.123L28.09,135.9l.439.44a2.665,2.665,0,0,0,3.768,0l6.184-6.184a2.664,2.664,0,0,0,0-3.768l-.44-.44,3.749-3.748,5.509,5.509a5.216,5.216,0,1,0,7.377-7.377Z" transform="translate(0.001 -72.856)" fill="#fff"/>
      <path id="Pfad_77" data-name="Pfad 77" d="M185.867,5.22a17.823,17.823,0,0,0-25.2,0L146.609,19.274l7.691,7.691,8.856-8.856a3.125,3.125,0,0,1,4.42,0l5.4,5.4a3.126,3.126,0,0,1,0,4.42l-8.856,8.856,7.691,7.691,14.053-14.053a17.823,17.823,0,0,0,0-25.2" transform="translate(-114.235)" fill="#fff"/>
    </g>
  </g>
</svg>
