<svg xmlns="http://www.w3.org/2000/svg" xmlns:xlink="http://www.w3.org/1999/xlink" width="143.799" height="143.799" viewBox="0 -0.79 143.799 143.799">
  <defs>
    <clipPath id="clip-path">
      <rect id="Rechteck_104" data-name="Rechteck 104" width="143.799" height="142.219" fill="none"/>
    </clipPath>
  </defs>
  <g id="Gruppe_90" data-name="Gruppe 90" transform="translate(-8 -1.219)">
    <g id="Gruppe_89" data-name="Gruppe 89" transform="translate(8 1.219)" clip-path="url(#clip-path)">
      <path id="Pfad_72" data-name="Pfad 72" d="M134.37,76.913A21.186,21.186,0,0,0,122.6,71.026a29.192,29.192,0,0,0-2.2-8.5,29.569,29.569,0,0,0-6.435-9.444,30.288,30.288,0,0,0-39.144-2.865,106.1,106.1,0,0,0-8.065-20.492A89.057,89.057,0,0,0,54.893,12.105,47.312,47.312,0,0,0,40.814.718Q40.732.677,40.647.64L40.573.61,40.5.58,40.39.541,40.351.527C40.308.513,40.265.5,40.222.488L40.2.482c-.046-.013-.092-.024-.138-.035l-.016,0C40,.432,39.952.423,39.9.414l-.018,0L39.752.39l-.028,0L39.6.373l-.043,0L39.45.363l-.061,0h-.17l-.068,0-.1.006L39,.374l-.118.012-.034,0-.129.02-.024,0-.135.027-.022.005c-.045.01-.089.021-.133.034l-.027.008c-.042.012-.083.024-.125.038l-.044.015L38.105.58l-.077.031L37.957.64q-.084.037-.167.078A47.308,47.308,0,0,0,23.711,12.105,89.063,89.063,0,0,0,11.853,29.722,106.05,106.05,0,0,0,3.528,51.165,89.071,89.071,0,0,0,.357,74.093a38.2,38.2,0,0,0,11.4,27.242,39.015,39.015,0,0,0,24.206,11.137V132.42H12.6a3.3,3.3,0,1,0,0,6.6H128.32a3.3,3.3,0,1,0,0-6.6H96.051V112.611h23.367a21.2,21.2,0,0,0,14.952-6.121,20.755,20.755,0,0,0,0-29.576M16.479,96.666A31.629,31.629,0,0,1,7.033,74.093,82.551,82.551,0,0,1,9.982,52.853a99.5,99.5,0,0,1,7.809-20.115A82.4,82.4,0,0,1,28.744,16.444,43.953,43.953,0,0,1,39.3,7.416,43.95,43.95,0,0,1,49.86,16.444,82.381,82.381,0,0,1,60.813,32.738a99.477,99.477,0,0,1,7.809,20.115q.513,1.918.936,3.818a3.282,3.282,0,0,0,.183.835,79.654,79.654,0,0,1,1.83,16.588,31.63,31.63,0,0,1-9.445,22.573,32.133,32.133,0,0,1-8.36,5.971c-.075.033-.149.07-.222.109q-.824.4-1.674.756a32.252,32.252,0,0,1-9.229,2.338V93.069L59.466,76.428a3.276,3.276,0,0,0,0-4.669,3.364,3.364,0,0,0-4.721,0L42.64,83.731V66.657l7.924-7.837a3.276,3.276,0,0,0,0-4.669,3.364,3.364,0,0,0-4.721,0l-3.2,3.168V38.877a3.338,3.338,0,0,0-6.676,0V57.319l-7.654-7.57a3.364,3.364,0,0,0-4.721,0,3.276,3.276,0,0,0,0,4.669L35.964,66.657V83.731l-12.1-11.972a3.364,3.364,0,0,0-4.721,0,3.276,3.276,0,0,0,0,4.669L35.964,93.069V105.84a32.3,32.3,0,0,1-19.485-9.174m72.9,35.753H42.64V112.472a38.961,38.961,0,0,0,11.828-2.887l.338-.144a21.23,21.23,0,0,0,11.2,3.169H89.375Zm40.275-30.6a14.454,14.454,0,0,1-10.232,4.187H96.051V97.471l12.375-12.239a3.276,3.276,0,0,0,0-4.669,3.364,3.364,0,0,0-4.721,0l-7.654,7.57V74.093a3.338,3.338,0,0,0-6.676,0V88.133l-3.2-3.168a3.364,3.364,0,0,0-4.721,0,3.276,3.276,0,0,0,0,4.669l7.924,7.837v8.537H66.007a14.689,14.689,0,0,1-4.056-.565,38.993,38.993,0,0,0,4.895-4.108,38.2,38.2,0,0,0,11.4-27.242,85.451,85.451,0,0,0-1.713-16.685,23.577,23.577,0,0,1,32.706.339,22.835,22.835,0,0,1,6.84,16.346,3.32,3.32,0,0,0,3.338,3.3,14.454,14.454,0,0,1,10.232,4.187,14.21,14.21,0,0,1,0,20.238" transform="translate(1.441 1.418)" fill="#fff"/>
      <path id="Pfad_74" data-name="Pfad 74" d="M690.769,29.237a17.157,17.157,0,0,0,8.276,4.532,17.373,17.373,0,0,0,10.481-.907,17.056,17.056,0,0,0,5.436-3.624,16.849,16.849,0,0,0,3.664-5.376,16.791,16.791,0,0,0,0-13.172,16.85,16.85,0,0,0-3.664-5.376A17.163,17.163,0,0,0,707.1.879a17.367,17.367,0,0,0-10.893.809,17.053,17.053,0,0,0-5.436,3.624,16.847,16.847,0,0,0-3.664,5.376,16.791,16.791,0,0,0,0,13.172,16.847,16.847,0,0,0,3.664,5.376m22.358-11.962a10.219,10.219,0,0,1-10.263,10.15,10.368,10.368,0,0,1-2.315-.26,10.14,10.14,0,0,1,2.318-20.04,10.356,10.356,0,0,1,2.56.32,10.19,10.19,0,0,1,7.7,9.83" transform="translate(-576.23 -0.301)" fill="#fff"/>
      <path id="Pfad_75" data-name="Pfad 75" d="M702.867,34.549a17.532,17.532,0,0,1-6.8-1.359,17.408,17.408,0,0,1-5.549-3.7A17.2,17.2,0,0,1,686.776,24a17.148,17.148,0,0,1,0-13.453,17.2,17.2,0,0,1,3.742-5.49A17.515,17.515,0,0,1,702.864,0a17.521,17.521,0,0,1,6.8,1.359,17.412,17.412,0,0,1,5.549,3.7,17.2,17.2,0,0,1,3.741,5.49,17.148,17.148,0,0,1,0,13.453,17.2,17.2,0,0,1-3.741,5.49,17.515,17.515,0,0,1-12.346,5.058Zm0-33.835A16.8,16.8,0,0,0,691.02,5.566a16.491,16.491,0,0,0-3.587,5.263,16.434,16.434,0,0,0,0,12.891,16.491,16.491,0,0,0,3.587,5.263,16.8,16.8,0,0,0,8.1,4.438,17,17,0,0,0,3.743.415,16.8,16.8,0,0,0,11.844-4.852,16.493,16.493,0,0,0,3.587-5.263,16.434,16.434,0,0,0,0-12.891,16.494,16.494,0,0,0-3.587-5.263,16.7,16.7,0,0,0-5.323-3.549,16.808,16.808,0,0,0-6.524-1.3Zm0,27.068a10.644,10.644,0,0,1-8.269-3.924,10.456,10.456,0,0,1-2.348-6.583,10.576,10.576,0,0,1,10.62-10.507,10.643,10.643,0,0,1,8.348,4.022,10.323,10.323,0,0,1,2.269,6.485A10.576,10.576,0,0,1,702.864,27.782Zm0-20.3a9.861,9.861,0,0,0-9.906,9.793,9.74,9.74,0,0,0,2.188,6.132,9.93,9.93,0,0,0,7.716,3.661,9.861,9.861,0,0,0,9.906-9.793,9.616,9.616,0,0,0-2.114-6.041,9.929,9.929,0,0,0-7.789-3.752Z" transform="translate(-576.23 -0.301)" fill="#fff"/>
    </g>
  </g>
</svg>
