<svg xmlns="http://www.w3.org/2000/svg" xmlns:xlink="http://www.w3.org/1999/xlink" width="206.09" height="206.128" viewBox="0 0 206.09 206.128">
  <defs>
    <clipPath id="clip-path">
      <rect id="Rechteck_26" data-name="Rechteck 26" width="206.09" height="206.128" fill="#fff"/>
    </clipPath>
  </defs>
  <g id="Gruppe_56" data-name="Gruppe 56" transform="translate(0 0)">
    <g id="Gruppe_30" data-name="Gruppe 30" transform="translate(0 0)" clip-path="url(#clip-path)">
      <path id="Pfad_42" data-name="Pfad 42" d="M209.538,158.194a51.459,51.459,0,1,1-51.421-51.569,51.411,51.411,0,0,1,51.421,51.569" transform="translate(-55.034 -55.037)" fill="#fff"/>
      <path id="Pfad_43" data-name="Pfad 43" d="M313.871,72.95a9.445,9.445,0,0,1,2.807-6.98c2.7-2.764,5.4-5.534,8.189-8.2A10.144,10.144,0,0,1,339.4,71.9c-2.773,3.02-5.692,5.925-8.727,8.681a9.57,9.57,0,0,1-11.013,1.606c-3.874-1.752-5.754-4.974-5.793-9.235" transform="translate(-162.011 -28.367)" fill="#fff"/>
      <path id="Pfad_44" data-name="Pfad 44" d="M212.257,378.242c0,1.774.043,3.55-.009,5.323A10.126,10.126,0,0,1,192,383.488q-.109-5.442,0-10.887a10.126,10.126,0,0,1,20.245.077c.05,1.854.008,3.709.007,5.564" transform="translate(-99.078 -187.251)" fill="#fff"/>
      <path id="Pfad_45" data-name="Pfad 45" d="M212.241,15.411c0,1.855.058,3.712-.011,5.564a10.123,10.123,0,0,1-20.222,0q-.155-5.682,0-11.37a10.124,10.124,0,0,1,20.222,0c.071,1.933.012,3.871.012,5.806" transform="translate(-99.07 0.001)" fill="#fff"/>
      <path id="Pfad_46" data-name="Pfad 46" d="M15.355,192.056c1.855,0,3.711-.05,5.563.012a10.124,10.124,0,0,1,.113,20.223c-3.786.115-7.581.108-11.368.007a10.126,10.126,0,0,1,.128-20.236c1.853-.053,3.709-.009,5.564-.006" transform="translate(0 -99.124)" fill="#fff"/>
      <path id="Pfad_47" data-name="Pfad 47" d="M377.925,212.28c-1.854,0-3.711.056-5.563-.01a10.124,10.124,0,0,1-.061-20.224q5.679-.161,11.368,0a10.127,10.127,0,0,1,.062,20.227c-1.932.073-3.87.012-5.805.012" transform="translate(-187.218 -99.088)" fill="#fff"/>
      <path id="Pfad_48" data-name="Pfad 48" d="M84.783,73.828c-.58,4.4-2.333,7.586-6.091,9.4C74.9,85.049,71.062,84.8,67.839,82.04A82.506,82.506,0,0,1,59.463,73.7,10.122,10.122,0,0,1,73.884,59.634a73.65,73.65,0,0,1,7.953,8.073c1.392,1.705,1.99,4.059,2.946,6.12" transform="translate(-29.508 -29.524)" fill="#fff"/>
      <path id="Pfad_49" data-name="Pfad 49" d="M83.2,324.967a9.559,9.559,0,0,1-2.9,7.2c-2.094,2.125-4.175,4.267-6.337,6.323a10.675,10.675,0,0,1-15.018-.235c-4.005-4.222-3.71-10.429.738-14.676,2.274-2.172,4.515-4.394,6.936-6.393a9.631,9.631,0,0,1,10.868-1.3c3.774,1.778,5.605,4.925,5.71,9.077" transform="translate(-28.977 -162.484)" fill="#fff"/>
      <path id="Pfad_50" data-name="Pfad 50" d="M333.2,342.755a10.779,10.779,0,0,1-8.128-3.278q-2.745-2.895-5.436-5.841a9.642,9.642,0,0,1,.737-13.48,9.467,9.467,0,0,1,13.439-.148c2.166,2.165,4.441,4.241,6.42,6.568a9.594,9.594,0,0,1,1.422,10.846c-1.7,3.732-4.905,5.113-8.453,5.334" transform="translate(-163.746 -163.772)" fill="#fff"/>
    </g>
  </g>
</svg>
