<svg id="Gruppe_69" data-name="Gruppe 69" xmlns="http://www.w3.org/2000/svg" xmlns:xlink="http://www.w3.org/1999/xlink" width="217.957" height="217.957 140.923" viewBox="0 -38.517 217.957 217.957">
  <defs>
    <clipPath id="clip-path">
      <rect id="Rechteck_38" data-name="Rechteck 38" width="217.957" height="140.923" fill="#fff"/>
    </clipPath>
  </defs>
  <g id="Gruppe_40" data-name="Gruppe 40" clip-path="url(#clip-path)">
    <path id="Pfad_57" data-name="Pfad 57" d="M150.415,64.984a6.951,6.951,0,0,1-6.206,7.668,6.591,6.591,0,0,1-7.3-5.843,28.768,28.768,0,0,0-9.492-17.523A27.242,27.242,0,0,0,108.8,42.35a6.544,6.544,0,0,1-6.573-6.571,6.634,6.634,0,0,1,6.573-6.936,41.953,41.953,0,0,1,27.745,10.222,43.2,43.2,0,0,1,13.873,25.92M50.382,127.05H174.876a28.755,28.755,0,0,0,29.208-28.842A29.3,29.3,0,0,0,174.876,69h-2.19a7,7,0,0,1-7.666-6.206c-.73-12.412-9.492-26.65-18.62-35.047a57.072,57.072,0,0,0-69.365-4.016A53.12,53.12,0,0,0,56.223,50.017a6.866,6.866,0,0,1-6.936,4.016,36.517,36.517,0,0,0,1.1,73.018m124.495,13.873H50.382A50.483,50.483,0,0,1,0,90.541,49.418,49.418,0,0,1,14.6,55.493a49.623,49.623,0,0,1,30.666-14.6,65.374,65.374,0,0,1,24.1-28.477A70.167,70.167,0,0,1,108.8,0a68.8,68.8,0,0,1,46.366,17.523A70.236,70.236,0,0,1,177.8,55.493c22.271,1.1,40.16,20.081,40.16,42.715,0,23.366-19.349,42.715-43.08,42.715" transform="translate(0 0)" fill="#fff"/>
  </g>
</svg>
