<svg id="Gruppe_64" data-name="Gruppe 64" xmlns="http://www.w3.org/2000/svg" xmlns:xlink="http://www.w3.org/1999/xlink" width="58.535" height="58.535" viewBox="0 -6.1145 58.535 58.535">
  <defs>
    <clipPath id="clip-path">
      <rect id="Rechteck_34" data-name="Rechteck 34" width="58.535" height="46.306" fill="#fff"/>
    </clipPath>
  </defs>
  <g id="Gruppe_34" data-name="Gruppe 34" transform="translate(0 0)" clip-path="url(#clip-path)">
    <path id="Pfad_56" data-name="Pfad 56" d="M17.059,32.32a1.812,1.812,0,1,1,0-3.623h20a9.537,9.537,0,0,1,5.49,1.907,8.649,8.649,0,0,1,3.137,4.767A8.229,8.229,0,0,1,45.2,40.9a9.078,9.078,0,0,1-14.608,2.86,8.787,8.787,0,0,1-2.255-3.432,9.768,9.768,0,0,1-.392-4.1A1.882,1.882,0,0,1,30.1,34.7a1.824,1.824,0,0,1,1.569,2,4.247,4.247,0,0,0,.2,2.479,4.415,4.415,0,0,0,1.274,2,5.7,5.7,0,0,0,3.137,1.526,5.165,5.165,0,0,0,5.785-6.484A4.591,4.591,0,0,0,40.2,33.464a4.749,4.749,0,0,0-3.04-1.144Zm-15.2-7.342A1.9,1.9,0,0,1,0,23.166a1.837,1.837,0,0,1,1.863-1.812H49.706a5.246,5.246,0,0,0,3.138-1.144,5.053,5.053,0,0,0,1.863-2.765,4.885,4.885,0,0,0-.294-3.337,5.292,5.292,0,0,0-8.628-1.621,4.634,4.634,0,0,0-1.372,2,5.246,5.246,0,0,0-.2,2.479,1.8,1.8,0,0,1-1.569,2,1.724,1.724,0,0,1-2.059-1.526,8.4,8.4,0,0,1,.392-4.1,8.543,8.543,0,0,1,2.157-3.433,9.417,9.417,0,0,1,5.2-2.479,9.2,9.2,0,0,1,9.51,5.34,8.214,8.214,0,0,1,.392,5.53A8.649,8.649,0,0,1,55.1,23.071a9.3,9.3,0,0,1-5.49,1.907Zm7.549-7.437a1.734,1.734,0,0,1-1.765-1.716,1.755,1.755,0,0,1,1.765-1.812H30.1a5.942,5.942,0,0,0,3.137-1.144A5.054,5.054,0,0,0,35.1,10.1,4.885,4.885,0,0,0,34.8,6.767a4.671,4.671,0,0,0-2.255-2.479,5.688,5.688,0,0,0-3.333-.667,5.972,5.972,0,0,0-3.04,1.43,5.57,5.57,0,0,0-1.372,2.1,4.952,4.952,0,0,0-.2,2.384,1.836,1.836,0,0,1-3.627.572A8.4,8.4,0,0,1,21.373,6,8.545,8.545,0,0,1,23.53,2.571a8.821,8.821,0,0,1,5.2-2.479,8.578,8.578,0,0,1,5.686,1.145,8.9,8.9,0,0,1,3.823,4.2,8.211,8.211,0,0,1,.392,5.53A9.376,9.376,0,0,1,35.49,15.73,9.214,9.214,0,0,1,30,17.541Z" transform="translate(0 0)" fill="#fff"/>
  </g>
</svg>
