<svg id="Gruppe_61" data-name="Gruppe 61" xmlns="http://www.w3.org/2000/svg" xmlns:xlink="http://www.w3.org/1999/xlink" viewBox="-18.909 0 62.861 62.861">
  <defs>
    <clipPath id="clip-path">
      <rect id="Rechteck_33" data-name="Rechteck 33" width="25.043" height="62.861" fill="#fff"/>
    </clipPath>
  </defs>
  <g id="Gruppe_32" data-name="Gruppe 32" clip-path="url(#clip-path)">
    <path id="Pfad_54" data-name="Pfad 54" d="M19.655,63.022v-20.7a1.643,1.643,0,1,0-3.286,0V63.039a5.481,5.481,0,0,0-3.133,2.669,5.371,5.371,0,0,0,8.643,6.113,5.5,5.5,0,0,0,1.054-6.007,5.854,5.854,0,0,0-3.277-2.791" transform="translate(-5.546 -17.753)" fill="#fff" fill-rule="evenodd"/>
    <path id="Pfad_55" data-name="Pfad 55" d="M23.711,44.688a13.934,13.934,0,0,0-3.056-3.9V8.115a8.168,8.168,0,0,0-16.336,0V40.788a13.607,13.607,0,0,0-2.951,3.9A11.8,11.8,0,0,0,.1,51.75a12.245,12.245,0,0,0,4.216,8.01,12.534,12.534,0,0,0,17.074-.527,12.7,12.7,0,0,0,2.319-14.545m-5.164,11.7a8.574,8.574,0,0,1-11.488.632A8.745,8.745,0,0,1,4,51.328a8.5,8.5,0,0,1,.843-4.849,10.066,10.066,0,0,1,2.529-3.056,1.959,1.959,0,0,0,.949-1.581V8.115a4.216,4.216,0,0,1,8.432,0V41.842a2.036,2.036,0,0,0,.738,1.581,7.442,7.442,0,0,1,2.635,3.056,8.5,8.5,0,0,1-1.581,9.907" transform="translate(0 0)" fill="#fff" fill-rule="evenodd"/>
  </g>
</svg>
