<svg id="Gruppe_65" data-name="Gruppe 65" xmlns="http://www.w3.org/2000/svg" xmlns:xlink="http://www.w3.org/1999/xlink" width="57.248" height="57.258" viewBox="0 0 57.248 57.258">
  <defs>
    <clipPath id="clip-path">
      <rect id="Rechteck_26" data-name="Rechteck 26" width="57.248" height="57.258" fill="#fff"/>
    </clipPath>
  </defs>
  <g id="Gruppe_30" data-name="Gruppe 30" transform="translate(0 0)" clip-path="url(#clip-path)">
    <path id="Pfad_42" data-name="Pfad 42" d="M135.208,120.95a14.294,14.294,0,1,1-14.284-14.325,14.281,14.281,0,0,1,14.284,14.325" transform="translate(-92.29 -92.295)" fill="#fff"/>
    <path id="Pfad_43" data-name="Pfad 43" d="M313.87,59.954a2.623,2.623,0,0,1,.78-1.939c.75-.768,1.5-1.537,2.275-2.278a2.818,2.818,0,0,1,4.038,3.925c-.77.839-1.581,1.646-2.424,2.411a2.8,2.8,0,0,1-4.668-2.119" transform="translate(-271.687 -47.57)" fill="#fff"/>
    <path id="Pfad_44" data-name="Pfad 44" d="M197.589,367.065c0,.493.012.986,0,1.479a2.813,2.813,0,0,1-5.624-.021q-.03-1.512,0-3.024a2.813,2.813,0,0,1,5.624.021c.014.515,0,1.03,0,1.546" transform="translate(-166.15 -314.012)" fill="#fff"/>
    <path id="Pfad_45" data-name="Pfad 45" d="M197.573,4.28c0,.515.016,1.031,0,1.546a2.812,2.812,0,0,1-5.617,0q-.043-1.578,0-3.158a2.812,2.812,0,0,1,5.617,0c.02.537,0,1.075,0,1.613" transform="translate(-166.136 0.001)" fill="#fff"/>
    <path id="Pfad_46" data-name="Pfad 46" d="M4.265,192.042c.515,0,1.031-.014,1.545,0a2.812,2.812,0,0,1,.031,5.618c-1.052.032-2.106.03-3.158,0a2.813,2.813,0,0,1,.036-5.621c.515-.015,1.03,0,1.545,0" transform="translate(0 -166.227)" fill="#fff"/>
    <path id="Pfad_47" data-name="Pfad 47" d="M366.931,197.609c-.515,0-1.031.016-1.545,0a2.812,2.812,0,0,1-.017-5.618q1.578-.045,3.158,0a2.813,2.813,0,0,1,.017,5.619c-.537.02-1.075,0-1.613,0" transform="translate(-313.956 -166.167)" fill="#fff"/>
    <path id="Pfad_48" data-name="Pfad 48" d="M64.838,61.817a3.06,3.06,0,0,1-1.692,2.61,2.628,2.628,0,0,1-3.015-.329A22.916,22.916,0,0,1,57.8,61.783a2.812,2.812,0,0,1,4.006-3.909,20.456,20.456,0,0,1,2.209,2.243,7.824,7.824,0,0,1,.818,1.7" transform="translate(-49.484 -49.511)" fill="#fff"/>
    <path id="Pfad_49" data-name="Pfad 49" d="M63.656,317.614a2.655,2.655,0,0,1-.8,2c-.582.59-1.16,1.185-1.76,1.756a2.965,2.965,0,0,1-4.172-.065,2.807,2.807,0,0,1,.205-4.077c.632-.6,1.254-1.22,1.927-1.776a2.815,2.815,0,0,1,4.6,2.161" transform="translate(-48.593 -272.479)" fill="#fff"/>
    <path id="Pfad_50" data-name="Pfad 50" d="M321.666,324.357a3,3,0,0,1-2.258-.911q-.762-.8-1.51-1.623a2.678,2.678,0,0,1,.2-3.745,2.63,2.63,0,0,1,3.733-.041c.6.6,1.234,1.178,1.783,1.825a2.665,2.665,0,0,1,.395,3.013,2.544,2.544,0,0,1-2.348,1.482" transform="translate(-274.595 -274.639)" fill="#fff"/>
  </g>
</svg>
