<svg version="1.1" xmlns="http://www.w3.org/2000/svg" viewBox="0 0 2999.8170090731655 1876.0334796340644"
     width="2999.8170090731655" height="1876.0334796340644">
    <!-- svg-source:excalidraw -->

    <defs>
        <style>
            @font-face {
            font-family: "Virgil";
            src: url("https://excalidraw.com/Virgil.woff2");
            }
            @font-face {
            font-family: "Cascadia";
            src: url("https://excalidraw.com/Cascadia.woff2");
            }
        </style>
    </defs>
    <g stroke-linecap="round"
       transform="translate(315.7153026593353 361.280859966406) rotate(0 787.3893229166666 417.31710379464283)">
        <path d="M-0.21 0.27 C411.91 -3.03, 823.8 -3.08, 1575.23 0.69 M-0.26 -0.23 C563.89 -5.33, 1128.06 -5.42, 1575.01 -0.33 M1574.24 0.15 C1572.91 325.25, 1573.05 649.23, 1574.55 834.2 M1575.1 0.13 C1577.43 214.51, 1577.69 428.64, 1574.93 834.61 M1575.44 834.5 C1196.31 839.71, 819.4 839.28, -0.66 834.28 M1574.98 834.75 C961.61 837.33, 348.99 836.71, 0.25 834.74 M-0.71 834.33 C1.8 504.46, 1.36 172.79, 0.73 0.42 M-0.02 834.73 C-0.94 605.88, -0.66 377.61, 0.13 0.02"
              stroke="#000000" stroke-width="1" fill="none"></path>
    </g>
    <g transform="translate(320.12493187560506 326.9369859584695) rotate(0 18 12)">
        <text x="0" y="19" font-family="Cascadia, Segoe UI Emoji" font-size="20px" fill="#000000" text-anchor="start"
              style="white-space: pre;" direction="ltr">K8S
        </text>
    </g>
    <g stroke-linecap="round"
       transform="translate(677.9387649609225 1141.6458773275167) rotate(0 162 60.38736979166674)">
        <path d="M0.9 0.61 L322.35 -0.73 L323.68 121.12 L-0.76 121.95" stroke="none" stroke-width="0"
              fill="#ffffff"></path>
        <path d="M-0.44 0.13 C106.89 0.21, 214.27 0.77, 323.35 0.82 M-0.25 -0.54 C126.17 0.16, 252.05 -0.64, 323.47 0.55 M325.09 -0.41 C324.14 43.58, 323.37 87.42, 325.74 121.31 M324.57 -0.72 C323.59 44.72, 323.39 89.83, 323.16 120.22 M324.87 121.93 C252.31 120.55, 180.66 119.77, -0.57 122.1 M324.55 120.35 C249.76 120.85, 175.85 121.3, -0.51 121.29 M0.24 119.19 C0.29 74.44, -0.81 30.84, -0.69 -0.04 M0.63 119.99 C-0.48 92.67, -0.05 64.8, -0.37 0.02"
              stroke="#000000" stroke-width="1" fill="none"></path>
    </g>
    <g transform="translate(682.9387649609225 1178.0332471191834) rotate(0 157 24)">
        <text x="157" y="19" font-family="Cascadia, Segoe UI Emoji" font-size="20px" fill="#000000" text-anchor="middle"
              style="white-space: pre;" direction="ltr">nginx LB
        </text>
        <text x="157" y="43" font-family="Cascadia, Segoe UI Emoji" font-size="20px" fill="#000000" text-anchor="middle"
              style="white-space: pre;" direction="ltr">:80, :443, :1883, :8883
        </text>
    </g>
    <g stroke-linecap="round"
       transform="translate(1380.874048319057 1140.4425818166035) rotate(0 162.0000000000001 60.38736979166674)">
        <path d="M-1.71 1.86 L322.66 0.39 L323.65 120.77 L-0.07 121.78" stroke="none" stroke-width="0"
              fill="#ffffff"></path>
        <path d="M0.17 -1.1 C123.15 -0.84, 245.06 0.64, 323.52 -0.03 M0.44 -0.54 C74.28 -0.5, 148.7 -0.67, 323.74 0.01 M323.27 -0.32 C324.72 40.9, 325.54 83.4, 323.74 121.06 M324.31 -0.29 C324.4 26.2, 323.74 52.73, 324.81 121.07 M322.78 121.67 C228.52 122.6, 130.18 121.2, 1.18 120.52 M323.99 120.83 C229.5 121.81, 134.94 121.24, -0.12 120.29 M1.64 122 C-1.15 86.92, -0.8 53.91, -0.19 1.96 M-0.21 121.41 C-0.25 83.44, 1.54 44.33, 0.28 0.33"
              stroke="#000000" stroke-width="1" fill="none"></path>
    </g>
    <g transform="translate(1385.874048319057 1176.8299516082702) rotate(0 157.0000000000001 24)">
        <text x="157" y="19" font-family="Cascadia, Segoe UI Emoji" font-size="20px" fill="#000000" text-anchor="middle"
              style="white-space: pre;" direction="ltr">console/whitelabel LB
        </text>
        <text x="157" y="43" font-family="Cascadia, Segoe UI Emoji" font-size="20px" fill="#000000" text-anchor="middle"
              style="white-space: pre;" direction="ltr">:80, :443
        </text>
    </g>
    <g transform="translate(1246.1526631504066 1282.6582316181907) rotate(0 287.5 12)">
        <text x="0" y="19" font-family="Cascadia, Segoe UI Emoji" font-size="20px" fill="#000000" text-anchor="start"
              style="white-space: pre;" direction="ltr">console.lynus.io (or any other whitelabel domain)
        </text>
    </g>
    <g stroke-linecap="round"
       transform="translate(1483.2474672178669 1703.0495386618422) rotate(0 120 78.62630208333326)">
        <path d="M0.54 1.13 L238.34 0.17 L239.68 158.7 L-1.8 156.24" stroke="none" stroke-width="0"
              fill="#ffffff"></path>
        <path d="M0.68 0.54 C73.79 -2.24, 146.29 0.08, 239.05 -0.28 M0.47 -0.38 C84.37 -1.12, 169 -1.83, 240.48 -0.66 M240.76 1.28 C238.16 54.29, 240.45 107.22, 239.26 156.41 M240.87 -0.36 C240.98 50.67, 241.31 99.27, 240.09 156.69 M239.44 155.72 C152.36 154.79, 64.79 154.72, -1.48 155.83 M239.38 158.04 C162.18 158.33, 85 158.06, 0.45 157.39 M-1.96 155.55 C1.23 119.9, 1.37 84.21, 0.72 0.86 M0.04 156.83 C1 122.56, 2.31 86.71, -0.96 -0.89"
              stroke="#000000" stroke-width="1" fill="none"></path>
    </g>
    <g transform="translate(1488.2474672178669 1757.6758407451762) rotate(0 115 24)">
        <text x="115" y="19" font-family="Cascadia, Segoe UI Emoji" font-size="20px" fill="#000000" text-anchor="middle"
              style="white-space: pre;" direction="ltr">browser
        </text>
        <text x="115" y="43" font-family="Cascadia, Segoe UI Emoji" font-size="20px" fill="#000000" text-anchor="middle"
              style="white-space: pre;" direction="ltr">(console.lynus.io)
        </text>
    </g>
    <g stroke-linecap="round"
       transform="translate(1168.453630412312 1708.780875467398) rotate(0 120 78.62630208333326)">
        <path d="M1.98 0.39 L238.72 0.97 L238.97 155.37 L1.98 156.12" stroke="none" stroke-width="0"
              fill="#ffffff"></path>
        <path d="M0.3 -1.31 C70.79 0.46, 141.34 2.42, 238.78 -1.5 M-0.34 0.81 C53.21 1.5, 104.14 0.1, 240.23 0.47 M241.45 -1.8 C239.12 33.44, 238.42 66.93, 240.01 157.79 M240.51 0.73 C239.96 44.39, 239.58 87.85, 240.63 156.62 M241.6 157.5 C177.99 158.13, 116.89 156.72, 0.28 155.77 M240.66 156.6 C165.34 159.39, 90.86 159.3, 0.53 156.59 M0.53 155.92 C-1.13 124.04, 1.41 95.42, -1.08 0.72 M-0.2 157.66 C-1.26 97.74, -1.37 37.6, -0.16 0.25"
              stroke="#000000" stroke-width="1" fill="none"></path>
    </g>
    <g transform="translate(1173.453630412312 1763.407177550731) rotate(0 115 24)">
        <text x="115" y="19" font-family="Cascadia, Segoe UI Emoji" font-size="20px" fill="#000000" text-anchor="middle"
              style="white-space: pre;" direction="ltr">mobile app
        </text>
        <text x="115" y="43" font-family="Cascadia, Segoe UI Emoji" font-size="20px" fill="#000000" text-anchor="middle"
              style="white-space: pre;" direction="ltr">Lynus/Whitelabel
        </text>
    </g>
    <g transform="translate(500.5824126543748 1278.2011383642234) rotate(0 345.5 36)">
        <text x="345.5" y="19" font-family="Cascadia, Segoe UI Emoji" font-size="20px" fill="#000000"
              text-anchor="middle" style="white-space: pre;" direction="ltr">api.lynus.io, s3.lynus.io, mqtt.lynus.io,
            accounts.lynus.io
        </text>
        <text x="345.5" y="43" font-family="Cascadia, Segoe UI Emoji" font-size="20px" fill="#000000"
              text-anchor="middle" style="white-space: pre;" direction="ltr">mpc.lynus.io
        </text>
        <text x="345.5" y="67" font-family="Cascadia, Segoe UI Emoji" font-size="20px" fill="#000000"
              text-anchor="middle" style="white-space: pre;" direction="ltr">etc. (everything except console)
        </text>
    </g>
    <g stroke-linecap="round"
       transform="translate(882.1398903329466 1706.875183503112) rotate(0 120 78.62630208333326)">
        <path d="M1.74 -0.63 L238.7 -1.92 L239.74 156.14 L-0.3 156.01" stroke="none" stroke-width="0"
              fill="#ffffff"></path>
        <path d="M-1.48 0.54 C89.65 0.32, 179.56 -0.49, 240.78 1.63 M-0.35 0.55 C89.92 1.43, 180.8 1.27, 240.03 0.24 M240.47 -1.75 C241.4 53.19, 240.78 103.87, 239.96 157.98 M239.78 0.08 C237.75 43.03, 238.26 86.52, 239.03 157.81 M241.03 156.85 C169.2 156.99, 98.42 159.96, 1.32 156.47 M239.25 157.36 C156.18 156.64, 71.37 157.6, -0.5 156.93 M-0.97 156.23 C2.62 113.82, 1.45 70.04, 1.84 0.78 M0.71 157.87 C-0.21 124.33, 0.07 88.75, -0.43 0.16"
              stroke="#000000" stroke-width="1" fill="none"></path>
    </g>
    <g transform="translate(887.1398903329466 1761.5014855864456) rotate(0 115 24)">
        <text x="115" y="19" font-family="Cascadia, Segoe UI Emoji" font-size="20px" fill="#000000" text-anchor="middle"
              style="white-space: pre;" direction="ltr">PLC
        </text>
        <text x="115" y="43" font-family="Cascadia, Segoe UI Emoji" font-size="20px" fill="#000000" text-anchor="middle"
              style="white-space: pre;" direction="ltr">(beckhoff)
        </text>
    </g>
    <g stroke-linecap="round">
        <g transform="translate(1014.2531445908498 1699.8142646043025) rotate(0 -75.30791629050805 -171.84904298353092)">
            <path d="M-1.07 -0.48 C-34.75 -76.23, -65.7 -150.53, -150.13 -344.05 M-0.48 0.36 C-32.94 -80.57, -67.2 -159.56, -149.41 -343.83"
                  stroke="#000000" stroke-width="1" fill="none"></path>
        </g>
        <g transform="translate(1014.2531445908498 1699.8142646043025) rotate(0 -75.30791629050805 -171.84904298353092)">
            <path d="M-130.35 -323.02 C-134.51 -328.8, -135.92 -331.25, -150.58 -343.82 M-129.39 -321.64 C-133.67 -328, -137.87 -331.71, -149.4 -343.44"
                  stroke="#000000" stroke-width="1" fill="none"></path>
        </g>
        <g transform="translate(1014.2531445908498 1699.8142646043025) rotate(0 -75.30791629050805 -171.84904298353092)">
            <path d="M-149.1 -314.69 C-149.18 -322.45, -146.46 -326.73, -150.58 -343.82 M-148.15 -313.31 C-148 -321.53, -147.84 -327.16, -149.4 -343.44"
                  stroke="#000000" stroke-width="1" fill="none"></path>
        </g>
    </g>
    <g transform="translate(812.8044178627092 1506.5357427789056) rotate(66.11902807152491 153 12)">
        <text x="153" y="19" font-family="Cascadia, Segoe UI Emoji" font-size="20px" fill="#000000" text-anchor="middle"
              style="white-space: pre;" direction="ltr">mqtt.lynus.io (8883, 1883)
        </text>
    </g>
    <g stroke-linecap="round">
        <g transform="translate(1554.3542866048658 1677.7420919852543) rotate(0 -245.43916039466012 -158.89914640695588)">
            <path d="M-0.24 -0.76 C-127.96 -81.52, -254.9 -164.06, -491.15 -317.79 M0.28 0.32 C-153.71 -100.59, -307.27 -200.86, -490.03 -318.12"
                  stroke="#000000" stroke-width="1" fill="none"></path>
        </g>
        <g transform="translate(1554.3542866048658 1677.7420919852543) rotate(0 -245.43916039466012 -158.89914640695588)">
            <path d="M-461.39 -313.36 C-469.2 -313.42, -477.39 -315.98, -491.84 -316.89 M-460.09 -310.68 C-469.8 -312.93, -479.07 -316.62, -489.03 -317.72"
                  stroke="#000000" stroke-width="1" fill="none"></path>
        </g>
        <g transform="translate(1554.3542866048658 1677.7420919852543) rotate(0 -245.43916039466012 -158.89914640695588)">
            <path d="M-472.51 -296.11 C-477.57 -300.68, -482.89 -307.69, -491.84 -316.89 M-471.2 -293.43 C-477.47 -301.01, -483.27 -310.1, -489.03 -317.72"
                  stroke="#000000" stroke-width="1" fill="none"></path>
        </g>
    </g>
    <g stroke-linecap="round">
        <g transform="translate(1626.9677285170674 1683.0462214495399) rotate(0 13.642550662120584 -182.0911329592501)">
            <path d="M0.09 0.3 C6.95 -89.91, 13.4 -179.32, 27 -364 M-0.52 -0.35 C7.91 -110.71, 17.13 -222.1, 27.8 -364.49"
                  stroke="#000000" stroke-width="1" fill="none"></path>
        </g>
        <g transform="translate(1626.9677285170674 1683.0462214495399) rotate(0 13.642550662120584 -182.0911329592501)">
            <path d="M36.03 -335.11 C33.03 -341.99, 30.18 -347.92, 25.91 -364.23 M35.05 -336.15 C32.75 -344.09, 31.31 -353.81, 27.19 -365.02"
                  stroke="#000000" stroke-width="1" fill="none"></path>
        </g>
        <g transform="translate(1626.9677285170674 1683.0462214495399) rotate(0 13.642550662120584 -182.0911329592501)">
            <path d="M15.57 -336.67 C17.63 -343.37, 19.85 -348.92, 25.91 -364.23 M14.59 -337.72 C18.51 -345.27, 23.31 -354.52, 27.19 -365.02"
                  stroke="#000000" stroke-width="1" fill="none"></path>
        </g>
    </g>
    <g transform="translate(1503.2114739142976 1498.1462958543013) rotate(275.6639468395206 170.5 12)">
        <text x="170.5" y="19" font-family="Cascadia, Segoe UI Emoji" font-size="20px" fill="#000000"
              text-anchor="middle" style="white-space: pre;" direction="ltr">console (static, js/html/css)
        </text>
    </g>
    <g transform="translate(1164.9792690531858 1464.1250284931905) rotate(32.06739160326026 106 12)">
        <text x="106" y="19" font-family="Cascadia, Segoe UI Emoji" font-size="20px" fill="#000000" text-anchor="middle"
              style="white-space: pre;" direction="ltr">api requests, etc.
        </text>
    </g>
    <g stroke-linecap="round">
        <g transform="translate(1282.2807898713313 1690.2678236320794) rotate(0 -155.8040950313906 -165.03197938428139)">
            <path d="M-0.61 -0.46 C-107.46 -113.46, -214.98 -226.6, -312.07 -330.05 M0.46 0.01 C-122.17 -127.09, -242.22 -254.54, -311.61 -330.08"
                  stroke="#000000" stroke-width="1" fill="none"></path>
        </g>
        <g transform="translate(1282.2807898713313 1690.2678236320794) rotate(0 -155.8040950313906 -165.03197938428139)">
            <path d="M-286.2 -317.37 C-293.48 -321.26, -304.84 -326.73, -313.02 -330.5 M-283.94 -316.38 C-296.08 -321.54, -305.15 -326.09, -312.06 -330.55"
                  stroke="#000000" stroke-width="1" fill="none"></path>
        </g>
        <g transform="translate(1282.2807898713313 1690.2678236320794) rotate(0 -155.8040950313906 -165.03197938428139)">
            <path d="M-301.23 -303.4 C-303.5 -312, -309.71 -322.25, -313.02 -330.5 M-298.98 -302.41 C-305.39 -313.06, -308.63 -323.02, -312.06 -330.55"
                  stroke="#000000" stroke-width="1" fill="none"></path>
        </g>
    </g>
    <g transform="translate(1049.769199608741 1516.9865736320796) rotate(44.20049802005936 106 12)">
        <text x="106" y="19" font-family="Cascadia, Segoe UI Emoji" font-size="20px" fill="#000000" text-anchor="middle"
              style="white-space: pre;" direction="ltr">api requests, etc.
        </text>
    </g>
    <g stroke-linecap="round"
       transform="translate(343.90387222778907 393.65770458446053) rotate(0 158.00000000000006 49.5)">
        <path d="M0.98 -0.67 L317.4 -0.01 L317.26 99.8 L-1.53 100.74" stroke="none" stroke-width="0"
              fill="#15aabf"></path>
        <path d="M-0.37 -0.49 C117.62 0.22, 233.37 0.79, 316.2 1.15 M-0.63 0.6 C78.67 -0.62, 158.07 -1.02, 316.22 -0.63 M315.48 0.53 C317.13 23.1, 314.18 45.26, 316.23 100.77 M316.23 -0.3 C315.19 26.56, 316.52 51.91, 315.09 99.54 M315.08 99.1 C229.48 99.47, 140.46 99.44, -0.22 98.03 M316.26 99.45 C244.85 97.8, 173.43 98.74, -0.39 99.01 M1.88 98.2 C2.82 75.94, 2.21 48.65, -0.7 1.54 M-0.91 98.88 C0.64 73.68, 0.71 50.37, -0.49 -0.39"
              stroke="#000000" stroke-width="1" fill="none"></path>
    </g>
    <g transform="translate(348.90387222778907 419.15770458446053) rotate(0 153.00000000000006 24)">
        <text x="153" y="19" font-family="Cascadia, Segoe UI Emoji" font-size="20px" fill="#000000" text-anchor="middle"
              style="white-space: pre;" direction="ltr">Database
        </text>
        <text x="153" y="43" font-family="Cascadia, Segoe UI Emoji" font-size="20px" fill="#000000" text-anchor="middle"
              style="white-space: pre;" direction="ltr">(Postgres/TimescaleDB)
        </text>
    </g>
    <g stroke-linecap="round" transform="translate(485.5628194004081 510.7973995249369) rotate(0 86.49999999999994 50)">
        <path d="M-1.91 1.11 L173.2 -1.34 L171.15 98.71 L0.38 99.14" stroke="none" stroke-width="0"
              fill="#15aabf"></path>
        <path d="M-0.67 1.4 C43.47 0.41, 87.75 -2.38, 174.74 -1.77 M0.5 -0.36 C41.97 -0.09, 83.38 0.31, 172.93 0.07 M173.02 -0.79 C172.84 32.26, 171.7 63.96, 173.09 101.18 M173 0.3 C173.01 23.97, 174.39 48.94, 173.65 99.11 M171.07 99.89 C135.19 101.19, 100.47 99.49, -1.87 101.47 M173.36 100.09 C127.04 100.26, 81.21 101.18, -0.7 100.15 M1.57 99.86 C2.22 61.55, -1.52 23.18, 0.72 0.92 M-0.25 99.79 C0.17 70.06, -0.43 41.03, -0.81 0.23"
              stroke="#000000" stroke-width="1" fill="none"></path>
    </g>
    <g transform="translate(490.5628194004081 536.797399524937) rotate(0 81.49999999999994 24)">
        <text x="81.5" y="19" font-family="Cascadia, Segoe UI Emoji" font-size="20px" fill="#000000"
              text-anchor="middle" style="white-space: pre;" direction="ltr">In-Memory
        </text>
        <text x="81.5" y="43" font-family="Cascadia, Segoe UI Emoji" font-size="20px" fill="#000000"
              text-anchor="middle" style="white-space: pre;" direction="ltr">(Redis)
        </text>
    </g>
    <g stroke-linecap="round" transform="translate(856.0436601742176 888.8372060725558) rotate(0 118.5 48.5)">
        <path d="M-1.39 1.37 L235.57 -0.03 L235.03 95.42 L-0.65 97.43" stroke="none" stroke-width="0"
              fill="#15aabf"></path>
        <path d="M0.11 -1.08 C68.65 -2.77, 140.31 -0.08, 236.68 0.88 M-0.81 0.47 C70.27 0.62, 141.07 0.33, 236.45 -0.15 M236.95 1.96 C236.89 28.89, 237.9 58, 236.07 97.82 M236.36 -0.03 C236.24 35.88, 236.02 71.41, 237.68 97.47 M235.48 98.15 C169.78 94.43, 101.65 96.55, 1.33 96.42 M237.02 97.65 C179.78 99.29, 121.92 97.9, 0.17 96.54 M-1.2 96.26 C-0.33 72.59, -0.9 44.84, 1.17 -0.35 M0.36 97.04 C0.8 68.44, 0.49 41.72, 0.21 0.98"
              stroke="#000000" stroke-width="1" fill="none"></path>
    </g>
    <g transform="translate(861.0436601742176 913.3372060725558) rotate(0 113.5 24)">
        <text x="113.5" y="19" font-family="Cascadia, Segoe UI Emoji" font-size="20px" fill="#000000"
              text-anchor="middle" style="white-space: pre;" direction="ltr">Image storage
        </text>
        <text x="113.5" y="43" font-family="Cascadia, Segoe UI Emoji" font-size="20px" fill="#000000"
              text-anchor="middle" style="white-space: pre;" direction="ltr">(S3/Minio)
        </text>
    </g>
    <g stroke-linecap="round" transform="translate(1098.4707435075516 548.518195655889) rotate(0 131.5 48.5)">
        <path d="M0.26 -0.95 L262.7 0.33 L261.3 98.72 L-1.75 98.65" stroke="none" stroke-width="0"
              fill="#15aabf"></path>
        <path d="M0.79 0.68 C104.12 2.09, 206.1 1.18, 262.1 0.48 M-0.33 0.09 C73.19 1.47, 146.12 0.24, 263.39 0.73 M262.7 -1.84 C263.35 23.09, 263.18 42.11, 262.26 96.57 M263.02 0.49 C262.13 32.91, 262.6 67.16, 262.93 97.35 M264.04 95.58 C198.56 96.58, 134.75 96.5, 1.04 96.09 M262.96 97.01 C195.82 96.58, 129.96 95.58, -0.15 96.71 M1.66 95.69 C-0.26 70.4, -0.95 45.61, -1.69 -1.06 M0.01 96.98 C-0.06 61.16, 0.34 23.81, 0.6 0.66"
              stroke="#000000" stroke-width="1" fill="none"></path>
    </g>
    <g transform="translate(1103.4707435075516 573.018195655889) rotate(0 126.5 24)">
        <text x="126.5" y="19" font-family="Cascadia, Segoe UI Emoji" font-size="20px" fill="#000000"
              text-anchor="middle" style="white-space: pre;" direction="ltr">MQTT
        </text>
        <text x="126.5" y="43" font-family="Cascadia, Segoe UI Emoji" font-size="20px" fill="#000000"
              text-anchor="middle" style="white-space: pre;" direction="ltr">(Mosquitto Broker)
        </text>
    </g>
    <g stroke-linecap="round" transform="translate(347.10941538255054 890.3098623225558) rotate(0 119 48)">
        <path d="M-1.76 1.79 L237.85 -0.08 L237.63 95.83 L1.32 95.59" stroke="none" stroke-width="0"
              fill="#15aabf"></path>
        <path d="M0.73 -0.95 C90.44 -0.34, 180.95 -0.16, 237.94 -1.06 M0.25 0.69 C50.11 -1.54, 100.81 -1.05, 237.96 -0.66 M239.37 -0.08 C240.55 21.62, 239.15 45.71, 238.84 95.67 M238.19 0.37 C237.38 29.02, 237.69 59.19, 237.62 95.41 M239.53 97.43 C143.15 95.66, 51.42 95.2, 1.27 95.61 M237.53 96.64 C174.93 94.15, 109.68 95.22, -0.83 95.94 M-0.42 97.09 C1.43 68.31, -0.05 38.25, -1.03 -0.33 M0.38 96.3 C0.15 69.1, 0.86 43.22, -0.86 0.77"
              stroke="#000000" stroke-width="1" fill="none"></path>
    </g>
    <g transform="translate(352.10941538255054 914.3098623225558) rotate(0 114 24)">
        <text x="114" y="19" font-family="Cascadia, Segoe UI Emoji" font-size="20px" fill="#000000" text-anchor="middle"
              style="white-space: pre;" direction="ltr">Authentication
        </text>
        <text x="114" y="43" font-family="Cascadia, Segoe UI Emoji" font-size="20px" fill="#000000" text-anchor="middle"
              style="white-space: pre;" direction="ltr">(Keycloak)
        </text>
    </g>
    <g stroke-linecap="round"
       transform="translate(1916.6829830908841 365.1523102392226) rotate(0 49.501302083333485 40.41471354166663)">
        <path d="M-0.3 0.78 L99.04 1.05 L98.97 82.11 L-1.27 82.44" stroke="none" stroke-width="0" fill="#15aabf"></path>
        <path d="M1.36 -0.81 C23.62 1.7, 45.81 0.43, 98.68 -1.38 M-0.16 0.11 C39.37 -0.88, 77.75 -0.15, 98.64 0.86 M99.72 -1.57 C98.85 23.56, 98.97 46.78, 97.86 80.03 M99.62 0.25 C98.07 17.09, 97.41 32.8, 98.15 81.3 M100.1 81.49 C75.86 80.24, 48.3 82.66, 0.06 80.73 M99.19 80.42 C65.65 80.59, 32.08 81.27, 0.9 81.45 M-0.76 79.31 C0.8 51.92, -2.43 24.54, -1.06 -1.45 M-0.59 80.19 C-0.8 56.51, 0.04 33.33, 0.82 -0.15"
              stroke="#000000" stroke-width="1" fill="none"></path>
    </g>
    <g transform="translate(2038.2962643408841 395.8658519058892) rotate(0 135.5 12)">
        <text x="135.5" y="19" font-family="Cascadia, Segoe UI Emoji" font-size="20px" fill="#000000"
              text-anchor="middle" style="white-space: pre;" direction="ltr">= external dependencies
        </text>
    </g>
    <g stroke-linecap="round"
       transform="translate(1916.7143975361919 559.8235651995401) rotate(0 49.501302083333485 40.41471354166663)">
        <path d="M-1.48 1.95 L99.55 -1.33 L100.03 79.18 L-1.98 79.64" stroke="none" stroke-width="0"
              fill="#82c91e"></path>
        <path d="M1.5 -0.06 C33.68 -1.31, 69.4 1.7, 100.43 -0.32 M0.61 0.67 C23.57 0.59, 46.4 0.12, 99.97 -0.93 M97.84 0.69 C98.59 26.32, 99.5 56.17, 98.75 81.06 M98.67 0.67 C98.14 26.86, 99.48 52.56, 98.63 81.56 M97.11 80.03 C68.72 81.11, 36.69 81.15, 0.95 82.72 M98.11 81.25 C69.59 81.06, 40.5 80.2, 0.74 80.69 M1.16 79.32 C-0.02 57.94, 1.13 35.94, 0.52 -1.14 M-0.06 80.38 C0 48.99, 0.53 15.95, -0.56 -0.97"
              stroke="#000000" stroke-width="1" fill="none"></path>
    </g>
    <g transform="translate(2035.5386162861919 584.0800756162066) rotate(0 41.5 12)">
        <text x="41.5" y="19" font-family="Cascadia, Segoe UI Emoji" font-size="20px" fill="#000000"
              text-anchor="middle" style="white-space: pre;" direction="ltr">= lynus
        </text>
    </g>
    <g stroke-linecap="round"
       transform="translate(1916.2965433587424 459.94860747497324) rotate(0 49.501302083333485 40.41471354166663)">
        <path d="M-0.22 0.32 L99.41 0.43 L99.77 82.67 L-1.17 78.89" stroke="none" stroke-width="0"
              fill="#fab005"></path>
        <path d="M-1.81 -1.35 C35.91 0.63, 73.55 -0.32, 100.18 1.01 M0.21 0.29 C31.72 1.25, 65.37 0.4, 98.66 0.14 M100.29 -0.1 C99.67 21.37, 100.13 46.64, 100.79 79.35 M98.08 -0.44 C97.64 22.64, 98.09 45.29, 99.95 80.77 M97.93 80.73 C76.11 80.52, 52.06 82.09, 0.31 82.66 M98.6 80.55 C74.54 81.32, 50.61 79.77, 0.39 81.1 M0.68 79.04 C-0.43 55.1, -1.37 30.18, 1.35 1.65 M-0.34 81.37 C0.7 57.31, 1.26 35.37, -0.14 0.28"
              stroke="#000000" stroke-width="1" fill="none"></path>
    </g>
    <g transform="translate(2037.9931579420754 487.208373099973) rotate(0 117.5 12)">
        <text x="117.5" y="19" font-family="Cascadia, Segoe UI Emoji" font-size="20px" fill="#000000"
              text-anchor="middle" style="white-space: pre;" direction="ltr">= external providers
        </text>
    </g>
    <g stroke-linecap="round" transform="translate(615.5711224727879 895.6086732278145) rotate(0 108 43.5)">
        <path d="M1.44 -0.24 L216.87 0.36 L216.49 85.45 L-0.53 88.36" stroke="none" stroke-width="0"
              fill="#82c91e"></path>
        <path d="M-1.66 -0.55 C86.22 1.45, 169.02 0.84, 216.06 -0.26 M-0.33 0.6 C48.1 0.38, 95.99 -0.08, 216.17 -0.5 M217.13 1.3 C215.41 20.27, 217.37 38.7, 215.94 85.41 M216.59 0.96 C215.84 21.27, 215.87 42.67, 215.81 87.33 M214.96 86.98 C148.95 84.55, 81.11 85.6, -0.22 88.74 M215.51 86.23 C135.86 88.75, 57.47 89.18, -0.58 86.75 M1.11 88.55 C1.2 61.77, -1.43 33.79, -1.48 1.72 M0.33 86.12 C-0.63 67.33, 0.2 45.12, -0.07 -0.06"
              stroke="#000000" stroke-width="1" fill="none"></path>
    </g>
    <g transform="translate(620.5711224727879 927.1086732278145) rotate(0 103 12)">
        <text x="103" y="19" font-family="Cascadia, Segoe UI Emoji" font-size="20px" fill="#000000" text-anchor="middle"
              style="white-space: pre;" direction="ltr">api
        </text>
    </g>
    <g stroke-linecap="round"
       transform="translate(675.2251403299297 1081.4017349837663) rotate(0 163.6383928571429 21.244419642857224)">
        <path d="M1.93 -1.35 L326.1 -0.66 L329.16 41.6 L1.9 42.21" stroke="none" stroke-width="0" fill="#15aabf"></path>
        <path d="M-1.17 -1.33 C103.25 -0.75, 209.05 0.91, 326.87 -0.98 M-0.2 0.3 C118.28 1.2, 236.34 0.36, 327.6 -0.34 M329.22 1.38 C326.74 16.3, 328.65 35.14, 326.33 41.54 M326.35 -0.57 C327.49 12.2, 328.32 26.25, 326.39 42.79 M327.02 43.01 C243.13 41.32, 161.7 41.78, 0.53 41.99 M327.03 42.01 C209.42 40.24, 91.79 40.2, 0.56 41.84 M-0.46 44.43 C0.75 30.95, 1.37 21.25, 1.92 0.01 M0.94 41.75 C0.26 25.1, 1.25 10.51, -0.92 -0.55"
              stroke="#000000" stroke-width="1" fill="none"></path>
    </g>
    <g transform="translate(680.2251403299297 1090.6461546266237) rotate(0 158.5 12)">
        <text x="158.5" y="19" font-family="Cascadia, Segoe UI Emoji" font-size="20px" fill="#000000"
              text-anchor="middle" style="white-space: pre;" direction="ltr">nginx
        </text>
    </g>
    <g stroke-linecap="round" transform="translate(1381.470676044216 1082.0977915313858) rotate(0 162 21.5)">
        <path d="M-0.07 -1.91 L325.78 1 L322.54 42.91 L-0.97 44.78" stroke="none" stroke-width="0"
              fill="#82c91e"></path>
        <path d="M1.33 0.01 C73.34 0.08, 143.64 2.7, 322.97 -0.21 M-0.64 -0.38 C68.58 -2.71, 135.41 -2.47, 324.65 -0.31 M322.2 -1.62 C322.41 15.11, 322.89 32.05, 324.19 44.05 M324.47 -0.82 C324.63 15.01, 324.94 28.1, 324.47 42.04 M325.05 42.99 C198.18 44.01, 69.52 43.92, -1.17 43.13 M324.55 43.63 C250.5 41.39, 176.97 41.42, -0.37 43.57 M1.8 42.06 C-1.64 29.19, 1.04 13.62, -1.47 -0.14 M-0.95 42.25 C0.78 27.41, -0.08 13.27, -0.34 -0.8"
              stroke="#000000" stroke-width="1" fill="none"></path>
    </g>
    <g transform="translate(1386.470676044216 1091.5977915313858) rotate(0 157 12)">
        <text x="157" y="19" font-family="Cascadia, Segoe UI Emoji" font-size="20px" fill="#000000" text-anchor="middle"
              style="white-space: pre;" direction="ltr">console/whitelabel
        </text>
    </g>
    <g stroke-linecap="round">
        <g transform="translate(818.714435381755 1066.8971156881314) rotate(0 -26.57230689308733 -36.547277999731364)">
            <path d="M-1.64 -1.06 C-22.07 -26.77, -41.38 -54.33, -52.31 -72.83 M-0.63 -0.27 C-9.52 -13.6, -19.72 -28.77, -52.51 -70.97"
                  stroke="#000000" stroke-width="1" fill="none"></path>
        </g>
        <g transform="translate(818.714435381755 1066.8971156881314) rotate(0 -26.57230689308733 -36.547277999731364)">
            <path d="M-28.87 -55.87 C-38.73 -60.71, -47.93 -67.28, -53.08 -72.71 M-27.87 -55.08 C-31.48 -57.62, -36.38 -61.76, -53.28 -70.85"
                  stroke="#000000" stroke-width="1" fill="none"></path>
        </g>
        <g transform="translate(818.714435381755 1066.8971156881314) rotate(0 -26.57230689308733 -36.547277999731364)">
            <path d="M-45.17 -43.4 C-48.91 -53.07, -51.88 -64.41, -53.08 -72.71 M-44.17 -42.61 C-44.5 -47.81, -46.12 -54.45, -53.28 -70.85"
                  stroke="#000000" stroke-width="1" fill="none"></path>
        </g>
    </g>
    <g stroke-linecap="round">
        <g transform="translate(816.3321276839749 1074.9309698547981) rotate(0 -146.3416663036952 -36.12672017163857)">
            <path d="M-1.11 -1.28 C-86.84 -20.32, -176.75 -41.97, -293.25 -71.59 M0.69 -0.2 C-69.64 -17.26, -140.5 -33.51, -293.37 -72.05"
                  stroke="#000000" stroke-width="1" fill="none"></path>
        </g>
        <g transform="translate(816.3321276839749 1074.9309698547981) rotate(0 -146.3416663036952 -36.12672017163857)">
            <path d="M-265.05 -76.95 C-270.98 -73.13, -282.46 -72.08, -292.82 -70.87 M-262.59 -75.47 C-270 -75.32, -278.35 -73.19, -292.99 -71.51"
                  stroke="#000000" stroke-width="1" fill="none"></path>
        </g>
        <g transform="translate(816.3321276839749 1074.9309698547981) rotate(0 -146.3416663036952 -36.12672017163857)">
            <path d="M-270.01 -57.03 C-274.41 -59.21, -284.4 -64.13, -292.82 -70.87 M-267.55 -55.56 C-273.83 -60.17, -281.01 -62.78, -292.99 -71.51"
                  stroke="#000000" stroke-width="1" fill="none"></path>
        </g>
    </g>
    <g stroke-linecap="round">
        <g transform="translate(835.7055846413659 1070.5169073547981) rotate(0 76.40834485101345 -33.66293240462733)">
            <path d="M-0.05 1.74 C45.8 -18.97, 89.41 -39.32, 152.87 -69.07 M0.98 0.76 C36.66 -16.64, 72.12 -33.64, 152.18 -68.45"
                  stroke="#000000" stroke-width="1" fill="none"></path>
        </g>
        <g transform="translate(835.7055846413659 1070.5169073547981) rotate(0 76.40834485101345 -33.66293240462733)">
            <path d="M130.48 -45.94 C138.73 -52.31, 144.92 -58.77, 153.86 -68.67 M131.52 -46.93 C135.89 -52.57, 140.24 -58.03, 153.17 -68.05"
                  stroke="#000000" stroke-width="1" fill="none"></path>
        </g>
        <g transform="translate(835.7055846413659 1070.5169073547981) rotate(0 76.40834485101345 -33.66293240462733)">
            <path d="M122.2 -64.72 C132.76 -65.69, 141.35 -66.73, 153.86 -68.67 M123.23 -65.7 C129.52 -66.85, 135.85 -67.8, 153.17 -68.05"
                  stroke="#000000" stroke-width="1" fill="none"></path>
        </g>
    </g>
    <g stroke-linecap="round" transform="translate(1109.430978003541 890.9166469381319) rotate(0 108 43.5)">
        <path d="M-0.62 -1.93 L217.94 -1.46 L214.65 87.03 L0.08 86.26" stroke="none" stroke-width="0"
              fill="#82c91e"></path>
        <path d="M1.74 0.37 C58.3 -0.15, 118.32 1.35, 214.8 1.43 M0.35 -0.08 C68.01 -0.11, 133.82 0.03, 216.65 0.75 M216.61 -1.16 C215.38 16.38, 217.71 36.12, 217.95 85.71 M215.14 0.29 C215.95 28.66, 214.68 56.14, 216.24 87.5 M216.47 88.59 C134.7 86.34, 54.68 85.66, -1.21 88.56 M216.33 86.93 C162.43 88.74, 109.83 88.13, -0.22 86.98 M-1.4 85.21 C1.09 56.89, 1.43 30.65, 0.09 1.27 M-0.03 86.82 C-0.64 65.42, 0.12 44.65, 0.3 -0.48"
              stroke="#000000" stroke-width="1" fill="none"></path>
    </g>
    <g transform="translate(1114.430978003541 922.4166469381319) rotate(0 103 12)">
        <text x="103" y="19" font-family="Cascadia, Segoe UI Emoji" font-size="20px" fill="#000000" text-anchor="middle"
              style="white-space: pre;" direction="ltr">proxy
        </text>
    </g>
    <g stroke-linecap="round">
        <g transform="translate(861.7491683918013 1069.2994594381314) rotate(0 177.3307738199594 -35.96072972141394)">
            <path d="M-0.89 -1.15 C135.27 -27.21, 273.78 -53.14, 355.55 -71.42 M0.12 -0.5 C87.71 -15.59, 175.48 -33.06, 354.82 -69.93"
                  stroke="#000000" stroke-width="1" fill="none"></path>
        </g>
        <g transform="translate(861.7491683918013 1069.2994594381314) rotate(0 177.3307738199594 -35.96072972141394)">
            <path d="M327.85 -56.06 C337.4 -60.18, 350.87 -64.4, 356.15 -71.45 M329.45 -55.03 C335.25 -57.92, 341.51 -61.84, 354.99 -69.08"
                  stroke="#000000" stroke-width="1" fill="none"></path>
        </g>
        <g transform="translate(861.7491683918013 1069.2994594381314) rotate(0 177.3307738199594 -35.96072972141394)">
            <path d="M323.74 -76.17 C334.81 -72.57, 349.85 -69.07, 356.15 -71.45 M325.35 -75.13 C332.1 -73.02, 339.38 -71.96, 354.99 -69.08"
                  stroke="#000000" stroke-width="1" fill="none"></path>
        </g>
    </g>
    <g stroke-linecap="round" transform="translate(1121.7248148090962 740.2916469381314) rotate(0 108 43.5)">
        <path d="M-0.3 -1.79 L214.93 1.97 L215.54 86.98 L-0.18 86.02" stroke="none" stroke-width="0"
              fill="#82c91e"></path>
        <path d="M-0.97 -0.92 C85.36 0.5, 170.32 1.99, 216.24 0.66 M0.32 0.54 C72.98 -0.67, 148.06 0, 216.66 -0.21 M215.29 1.54 C215.27 28.43, 213.9 61.3, 214.34 87.04 M216.13 -0.05 C216.59 19.4, 215.39 36.86, 216.47 86.52 M214.67 88.22 C172.06 85.63, 123.52 84.11, -0.42 85.68 M215.9 86.6 C169.05 86.87, 121.04 87.62, 0.59 87.29 M0.57 86.66 C-1.43 59.56, 1.33 32.82, 0 0.01 M-0.64 87.55 C-0.04 57.01, 0.29 29.41, -0.91 -0.51"
              stroke="#000000" stroke-width="1" fill="none"></path>
    </g>
    <g transform="translate(1126.7248148090962 771.7916469381314) rotate(0 103 12)">
        <text x="103" y="19" font-family="Cascadia, Segoe UI Emoji" font-size="20px" fill="#000000" text-anchor="middle"
              style="white-space: pre;" direction="ltr">recorder
        </text>
    </g>
    <g stroke-linecap="round">
        <g transform="translate(1233.946461187592 882.8346156881314) rotate(0 2.225986205480467 -22.038754116743803)">
            <path d="M0.9 1.18 C2.52 -10.43, 0.53 -19.99, 5.38 -45.26 M-0.93 -0.75 C0.86 -13.51, 3.03 -26.95, 5.33 -43.71"
                  stroke="#000000" stroke-width="1" fill="none"></path>
        </g>
        <g transform="translate(1233.946461187592 882.8346156881314) rotate(0 2.225986205480467 -22.038754116743803)">
            <path d="M10.86 -20.56 C10.55 -26.81, 6.43 -30.98, 6.3 -44.3 M9.03 -22.5 C7.86 -28.24, 7.23 -34.63, 6.25 -42.74"
                  stroke="#000000" stroke-width="1" fill="none"></path>
        </g>
        <g transform="translate(1233.946461187592 882.8346156881314) rotate(0 2.225986205480467 -22.038754116743803)">
            <path d="M-4.34 -22.72 C-1.02 -28.42, -1.54 -32.08, 6.3 -44.3 M-6.17 -24.66 C-2.63 -29.67, 1.46 -35.39, 6.25 -42.74"
                  stroke="#000000" stroke-width="1" fill="none"></path>
        </g>
    </g>
    <g stroke-linecap="round">
        <g transform="translate(1234.2951273090962 724.8919073547981) rotate(0 1.0131721807022132 -34.51656640848768)">
            <path d="M-0.12 -1.77 C0.15 -24.41, 1.84 -49.23, 2.14 -69.45 M0.09 0.42 C1.7 -25.85, 2.43 -50.79, 1.82 -68.89"
                  stroke="#000000" stroke-width="1" fill="none"></path>
        </g>
        <g transform="translate(1234.2951273090962 724.8919073547981) rotate(0 1.0131721807022132 -34.51656640848768)">
            <path d="M12.28 -42.58 C7.63 -50.53, 4.77 -60.68, 1.98 -69.81 M12.48 -40.4 C9.03 -51.34, 5.03 -61.05, 1.66 -69.25"
                  stroke="#000000" stroke-width="1" fill="none"></path>
        </g>
        <g transform="translate(1234.2951273090962 724.8919073547981) rotate(0 1.0131721807022132 -34.51656640848768)">
            <path d="M-8.24 -42.35 C-5.44 -50.4, -0.86 -60.63, 1.98 -69.81 M-8.04 -40.17 C-3.77 -51.34, -0.04 -61.14, 1.66 -69.25"
                  stroke="#000000" stroke-width="1" fill="none"></path>
        </g>
    </g>
    <g transform="translate(321.8407875949906 10) rotate(0 773.5 132.00000000000003)">
        <text x="0" y="19" font-family="Cascadia, Segoe UI Emoji" font-size="20px" fill="#000000" text-anchor="start"
              style="white-space: pre;" direction="ltr">Q/A
        </text>
        <text x="0" y="43" font-family="Cascadia, Segoe UI Emoji" font-size="20px" fill="#000000" text-anchor="start"
              style="white-space: pre;" direction="ltr"></text>
        <text x="0" y="67" font-family="Cascadia, Segoe UI Emoji" font-size="20px" fill="#000000" text-anchor="start"
              style="white-space: pre;" direction="ltr">1) You don't define fixed ip addresses in kubernetes for
            internal services
        </text>
        <text x="0" y="91" font-family="Cascadia, Segoe UI Emoji" font-size="20px" fill="#000000" text-anchor="start"
              style="white-space: pre;" direction="ltr">(even LoadBalancer gets an ip assigned automatically).
            Everything works through DNS.
        </text>
        <text x="0" y="115" font-family="Cascadia, Segoe UI Emoji" font-size="20px" fill="#000000" text-anchor="start"
              style="white-space: pre;" direction="ltr">Usually kube-proxy is used, but exoscale uses calico (see
            exoscale docs)
        </text>
        <text x="0" y="139" font-family="Cascadia, Segoe UI Emoji" font-size="20px" fill="#000000" text-anchor="start"
              style="white-space: pre;" direction="ltr">2) all microservices have their own github repository with a
            deployment.yaml,
        </text>
        <text x="0" y="163" font-family="Cascadia, Segoe UI Emoji" font-size="20px" fill="#000000" text-anchor="start"
              style="white-space: pre;" direction="ltr">where the exposed port is shown. For every lynus service it is
            usually 8000
        </text>
        <text x="0" y="187" font-family="Cascadia, Segoe UI Emoji" font-size="20px" fill="#000000" text-anchor="start"
              style="white-space: pre;" direction="ltr">3) Everything runs over tcp/ip
        </text>
        <text x="0" y="211" font-family="Cascadia, Segoe UI Emoji" font-size="20px" fill="#000000" text-anchor="start"
              style="white-space: pre;" direction="ltr"></text>
        <text x="0" y="235" font-family="Cascadia, Segoe UI Emoji" font-size="20px" fill="#000000" text-anchor="start"
              style="white-space: pre;" direction="ltr">In general, the deployment.yaml of each repository/microservice
            will explain a lot regarding networking, environment variables, etc.
        </text>
        <text x="0" y="259" font-family="Cascadia, Segoe UI Emoji" font-size="20px" fill="#000000" text-anchor="start"
              style="white-space: pre;" direction="ltr">And if you want to know how the stuff is built, simply inspect
            the Dockerfile
        </text>
    </g>
    <g stroke-linecap="round" transform="translate(34.3450813697923 695.0182601686502) rotate(0 116 36.5)">
        <path d="M0.8 -0.19 L231.78 -1.96 L230.16 71.65 L0.42 73.65" stroke="none" stroke-width="0"
              fill="#fab005"></path>
        <path d="M1.11 -1.27 C70.96 -1.02, 141.23 -1.56, 231.85 0.24 M0.07 -0.44 C71.29 -0.37, 143.95 -0.11, 231.6 -0.39 M230.1 1.19 C231.85 23.71, 233.01 48.22, 230.21 71.4 M232.39 -0.08 C233.08 18.32, 233.07 39.33, 232.11 72.06 M230.64 72.09 C153.51 73.74, 72.45 74.73, -0.04 71.41 M232.65 73.2 C141.95 72.6, 50.6 71.51, 0.82 73.27 M0.24 71.78 C0.1 57.7, -0.92 39.82, -1.83 1.65 M0.82 73.43 C-0.16 46.92, -0.43 22.07, -0.22 0.75"
              stroke="#000000" stroke-width="1" fill="none"></path>
    </g>
    <g transform="translate(39.3450813697923 719.5182601686502) rotate(0 111 12)">
        <text x="111" y="19" font-family="Cascadia, Segoe UI Emoji" font-size="20px" fill="#000000" text-anchor="middle"
              style="white-space: pre;" direction="ltr">OpenWeatherMap
        </text>
    </g>
    <g stroke-linecap="round" transform="translate(32.02346678645904 620.6918712797615) rotate(0 117 28.5)">
        <path d="M0.47 -1.51 L233.49 0.57 L235.42 56.36 L1.23 58.09" stroke="none" stroke-width="0"
              fill="#fab005"></path>
        <path d="M-1.66 -1.55 C78.4 0.57, 159.62 0.38, 233.28 -1.1 M0.27 -0.38 C83.01 -0.39, 165.14 -1.05, 234.71 -0.66 M234.35 1 C235.12 15.68, 232.47 30.84, 234.27 55.55 M233.19 0.61 C235.22 12.46, 233.73 25.85, 233.23 56.01 M233.87 58.55 C139.35 58.34, 46.17 56.17, -0.13 55.56 M233.67 56.62 C158.03 56.05, 80.99 56.01, 0.69 57.65 M-0.89 58.93 C2.15 38.58, 1.7 22.09, -0.98 -1.18 M0.07 57.16 C-0.62 42.59, 0.81 27.8, 0.36 -0.57"
              stroke="#000000" stroke-width="1" fill="none"></path>
    </g>
    <g transform="translate(37.02346678645904 637.1918712797615) rotate(0 112 12)">
        <text x="112" y="19" font-family="Cascadia, Segoe UI Emoji" font-size="20px" fill="#000000" text-anchor="middle"
              style="white-space: pre;" direction="ltr">Twilio SendGrid
        </text>
    </g>
    <g stroke-linecap="round" transform="translate(144.3882671336812 1239.6786334325393) rotate(0 117 42.5)">
        <path d="M0.79 1.29 L233.83 -1.25 L232.72 83.8 L-0.85 83.24" stroke="none" stroke-width="0"
              fill="#fab005"></path>
        <path d="M0.85 0.89 C66 -0.5, 136.83 0.23, 232.95 0.47 M-0.39 0.02 C81.05 2.05, 161.62 2.05, 233.98 -0.76 M233.99 -1.83 C234.66 26.3, 236.07 52.06, 232.64 86.63 M234.83 0.59 C234.18 25.53, 234.38 48.6, 233.76 85.84 M232.78 85.29 C149.4 82.49, 62.22 84.21, -0.07 84.47 M234.33 85.02 C169.98 84.43, 106.08 84.54, -0.35 85.24 M-0.8 86.2 C0.72 63.12, 0.76 40.02, -1.87 0.56 M0.15 85.53 C-0.23 52.53, 0.39 19.66, 0.39 0.06"
              stroke="#000000" stroke-width="1" fill="none"></path>
    </g>
    <g transform="translate(149.3882671336812 1258.1786334325393) rotate(0 112 24)">
        <text x="112" y="19" font-family="Cascadia, Segoe UI Emoji" font-size="20px" fill="#000000" text-anchor="middle"
              style="white-space: pre;" direction="ltr">TheNounProject
        </text>
        <text x="112" y="43" font-family="Cascadia, Segoe UI Emoji" font-size="20px" fill="#000000" text-anchor="middle"
              style="white-space: pre;" direction="ltr">(icons proxy)
        </text>
    </g>
    <g stroke-linecap="round" transform="translate(2150.6436924809036 845.8860832093253) rotate(0 116 36.5)">
        <path d="M0.39 1.53 L231.51 -0.38 L232.27 74.97 L-0.77 72.88" stroke="none" stroke-width="0"
              fill="#fab005"></path>
        <path d="M-1.65 0.66 C49.82 0.06, 100.82 -0.16, 232.99 -0.58 M-0.27 0.6 C83.12 1.54, 167.03 0.8, 232.09 0.42 M230.07 0.31 C233.11 22.79, 231.18 42.82, 233.18 71.32 M231.57 0.98 C231.98 21.86, 231.98 43.14, 231.12 72.03 M231.4 73.57 C156.64 70.69, 80.53 71.31, -0.69 74.41 M232.55 73.23 C145.42 71.79, 58.88 70.64, 0.35 72.73 M1.52 71.05 C2.22 54.83, -0.62 40.51, -1.22 -0.08 M0.5 73.21 C0.76 45.38, -0.78 19.31, -0.8 -0.15"
              stroke="#000000" stroke-width="1" fill="none"></path>
    </g>
    <g transform="translate(2155.6436924809036 870.3860832093253) rotate(0 111 12)">
        <text x="111" y="19" font-family="Cascadia, Segoe UI Emoji" font-size="20px" fill="#000000" text-anchor="middle"
              style="white-space: pre;" direction="ltr">MeteoTest API
        </text>
    </g>
    <g stroke-linecap="round">
        <g transform="translate(669.0199015582846 1095.9718812003964) rotate(0 -139.78698511461096 94.45212394789849)">
            <path d="M1.22 -0.2 C-91.63 60.72, -182.36 122.81, -280.8 188.35 M0.17 -0.21 C-87.85 59.97, -175.3 119.22, -279.49 189.12"
                  stroke="#000000" stroke-width="1" fill="none"></path>
        </g>
        <g transform="translate(669.0199015582846 1095.9718812003964) rotate(0 -139.78698511461096 94.45212394789849)">
            <path d="M-260 164.58 C-268.32 171.42, -272.94 179.91, -280.72 188.44 M-261.57 164.55 C-267.9 172.29, -273.46 180.3, -278.77 189.59"
                  stroke="#000000" stroke-width="1" fill="none"></path>
        </g>
        <g transform="translate(669.0199015582846 1095.9718812003964) rotate(0 -139.78698511461096 94.45212394789849)">
            <path d="M-248.54 181.6 C-260.66 182.87, -269.03 185.81, -280.72 188.44 M-250.12 181.58 C-260.02 184.07, -269.15 186.77, -278.77 189.59"
                  stroke="#000000" stroke-width="1" fill="none"></path>
        </g>
    </g>
    <g stroke-linecap="round">
        <g transform="translate(700.8070109332846 887.4748108878962) rotate(0 -251.87914987578995 -55.30815484076743)">
            <path d="M-0.09 0.73 C-128.83 -27.99, -256.4 -56.78, -503.23 -111.35 M-0.01 0.29 C-150.18 -32.8, -301.54 -65.51, -503.75 -110.75"
                  stroke="#000000" stroke-width="1" fill="none"></path>
        </g>
        <g transform="translate(700.8070109332846 887.4748108878962) rotate(0 -251.87914987578995 -55.30815484076743)">
            <path d="M-474.22 -112.83 C-483.2 -113.07, -489.18 -113.61, -502.02 -112.22 M-474.03 -113.91 C-482.1 -114.08, -492.22 -111.79, -503.33 -110.73"
                  stroke="#000000" stroke-width="1" fill="none"></path>
        </g>
        <g transform="translate(700.8070109332846 887.4748108878962) rotate(0 -251.87914987578995 -55.30815484076743)">
            <path d="M-478.67 -92.79 C-486.51 -98.13, -491.35 -103.77, -502.02 -112.22 M-478.48 -93.88 C-485.06 -100.06, -493.85 -103.76, -503.33 -110.73"
                  stroke="#000000" stroke-width="1" fill="none"></path>
        </g>
    </g>
    <g stroke-linecap="round">
        <g transform="translate(727.5485473916178 885.4744853670629) rotate(0 -225.03276083121705 -115.47641091831025)">
            <path d="M0.69 0.71 C-117.43 -62.73, -234.63 -122.06, -450.76 -231.42 M0.04 -0.29 C-154.36 -81.32, -308.78 -160.68, -450.07 -231.67"
                  stroke="#000000" stroke-width="1" fill="none"></path>
        </g>
        <g transform="translate(727.5485473916178 885.4744853670629) rotate(0 -225.03276083121705 -115.47641091831025)">
            <path d="M-418.55 -226.31 C-428.35 -230.97, -434.9 -228.61, -451.59 -230.24 M-420.19 -228.82 C-430.54 -230.48, -440.21 -230.85, -449.86 -230.85"
                  stroke="#000000" stroke-width="1" fill="none"></path>
        </g>
        <g transform="translate(727.5485473916178 885.4744853670629) rotate(0 -225.03276083121705 -115.47641091831025)">
            <path d="M-427.81 -208 C-435.12 -217.38, -439.24 -219.8, -451.59 -230.24 M-429.45 -210.51 C-436.57 -218.39, -443.05 -225.05, -449.86 -230.85"
                  stroke="#000000" stroke-width="1" fill="none"></path>
        </g>
    </g>
    <g stroke-linecap="round"
       transform="translate(1646.8356567666183 892.7954489087294) rotate(0 106.5 43.06361607142844)">
        <path d="M-0.16 0 L211.23 -1.82 L212.12 85.82 L-0.68 88.08" stroke="none" stroke-width="0"
              fill="#82c91e"></path>
        <path d="M-1.64 -0.09 C71.34 -1.27, 143.88 -1.94, 211.47 -0.64 M0.15 0.35 C81.91 -1.46, 164.59 -2, 212.34 0.05 M212.91 1.05 C215.24 27.66, 212.62 51.65, 214.83 86.58 M212.88 0.6 C212.45 23.14, 213.92 46.09, 213.71 86.11 M211.84 85.08 C157.75 86.08, 104.59 83.48, 0.69 85.87 M213.53 86.42 C138.44 86.5, 64.59 86.37, 0.55 85.7 M1.07 86.58 C-0.82 58.22, -0.92 33.52, 0.01 0.89 M-0.71 86.38 C0.28 61.68, -0.73 36.49, 0.76 0.54"
              stroke="#000000" stroke-width="1" fill="none"></path>
    </g>
    <g transform="translate(1651.8356567666183 923.8590649801579) rotate(0 101.5 12)">
        <text x="101.5" y="19" font-family="Cascadia, Segoe UI Emoji" font-size="20px" fill="#000000"
              text-anchor="middle" style="white-space: pre;" direction="ltr">empa*
        </text>
    </g>
    <g stroke-linecap="round">
        <g transform="translate(881.0230424750473 1079.6160404265866) rotate(0 427.91122073343627 -42.54114108660383)">
            <path d="M0.31 -0.12 C319.18 -28.8, 637.98 -60.06, 855.57 -84.97 M0.25 -0.2 C249.28 -23.52, 498.76 -48.3, 855.4 -84.66"
                  stroke="#000000" stroke-width="1" fill="none"></path>
        </g>
        <g transform="translate(881.0230424750473 1079.6160404265866) rotate(0 427.91122073343627 -42.54114108660383)">
            <path d="M829.17 -71.9 C839.35 -75.81, 848.94 -79.94, 856.07 -85.49 M829 -72.1 C836.38 -74.53, 844.89 -78.61, 855.62 -84.72"
                  stroke="#000000" stroke-width="1" fill="none"></path>
        </g>
        <g transform="translate(881.0230424750473 1079.6160404265866) rotate(0 427.91122073343627 -42.54114108660383)">
            <path d="M827.1 -92.31 C838.17 -88.6, 848.53 -85.11, 856.07 -85.49 M826.94 -92.51 C834.91 -89, 844.02 -87.13, 855.62 -84.72"
                  stroke="#000000" stroke-width="1" fill="none"></path>
        </g>
    </g>
    <g stroke-linecap="round">
        <g transform="translate(1873.7013561713798 927.8200301460404) rotate(0 130.3917285390121 -13.860420698050007)">
            <path d="M0.68 -1.32 C76.74 -7.71, 156.42 -14.74, 260.5 -26.55 M0.29 -0.05 C91.88 -10.2, 183.92 -19.89, 259.9 -27.67"
                  stroke="#000000" stroke-width="1" fill="none"></path>
        </g>
        <g transform="translate(1873.7013561713798 927.8200301460404) rotate(0 130.3917285390121 -13.860420698050007)">
            <path d="M233.78 -16.21 C239.96 -19.01, 250.8 -21.5, 260.62 -26.62 M233.28 -14.63 C242.76 -18.66, 252.74 -23.32, 259.88 -28.02"
                  stroke="#000000" stroke-width="1" fill="none"></path>
        </g>
        <g transform="translate(1873.7013561713798 927.8200301460404) rotate(0 130.3917285390121 -13.860420698050007)">
            <path d="M231.66 -36.62 C238.29 -33.33, 249.77 -29.74, 260.62 -26.62 M231.17 -35.04 C241.46 -31.89, 252.19 -29.35, 259.88 -28.02"
                  stroke="#000000" stroke-width="1" fill="none"></path>
        </g>
    </g>
    <g transform="translate(2145.8170090731655 930.8724113343246) rotate(0 422 48)">
        <text x="0" y="19" font-family="Cascadia, Segoe UI Emoji" font-size="20px" fill="#000000" text-anchor="start"
              style="white-space: pre;" direction="ltr">* empa has nothing to do with empa.ch anymore, the name
        </text>
        <text x="0" y="43" font-family="Cascadia, Segoe UI Emoji" font-size="20px" fill="#000000" text-anchor="start"
              style="white-space: pre;" direction="ltr">is just historical. Empa is used to interact with mqtt or the
            database,
        </text>
        <text x="0" y="67" font-family="Cascadia, Segoe UI Emoji" font-size="20px" fill="#000000" text-anchor="start"
              style="white-space: pre;" direction="ltr">because it's a pain to handle that in python (ml part), golang
            is better
        </text>
        <text x="0" y="91" font-family="Cascadia, Segoe UI Emoji" font-size="20px" fill="#000000" text-anchor="start"
              style="white-space: pre;" direction="ltr">suited for that
        </text>
    </g>
    <g stroke-linecap="round" transform="translate(597.1729597631008 660.58055442821) rotate(0 54.5 43.5)">
        <path d="M0.54 -1.48 L110.58 -1.23 L109.87 86.63 L-1.73 85.16" stroke="none" stroke-width="0"
              fill="#82c91e"></path>
        <path d="M-1.03 0.08 C27.45 -0.25, 51.54 -0.03, 110.1 -1.43 M-0.69 0.99 C32.86 0.19, 65.13 0.83, 109.99 0.4 M109.22 1.87 C109.71 33.62, 110.88 67.71, 107.4 85.42 M108.27 -0.84 C109.51 24.8, 109.81 50.35, 109.02 86.38 M109.61 87.61 C76.2 84.88, 42.09 88.1, 0.8 85.85 M108.62 87.05 C72.66 86.84, 37.56 88.47, -0.35 86.9 M-0.92 85.16 C1 55.97, 1.59 25.11, 1.17 -0.01 M-0.67 86 C-0.28 66.19, -0.31 44.39, 0.42 0.11"
              stroke="#000000" stroke-width="1" fill="none"></path>
    </g>
    <g transform="translate(602.1729597631008 692.08055442821) rotate(0 49.5 12)">
        <text x="49.5" y="19" font-family="Cascadia, Segoe UI Emoji" font-size="20px" fill="#000000"
              text-anchor="middle" style="white-space: pre;" direction="ltr">rule
        </text>
    </g>
    <g stroke-linecap="round" transform="translate(737.0215460726245 662.0100559163052) rotate(0 82 43.5)">
        <path d="M-0.64 -0.02 L162.67 1.97 L164.06 85.75 L1.67 88.04" stroke="none" stroke-width="0"
              fill="#82c91e"></path>
        <path d="M1.89 -0.37 C40.39 2.62, 81.06 -0.63, 165.14 -1.27 M0.48 0.88 C42.48 1.4, 83.41 -0.16, 163.54 -0.64 M162.69 0.33 C163.03 30.29, 163.97 65.83, 165.83 88.54 M163.45 -0.42 C164.7 30.95, 164.06 60.29, 163.87 86.59 M165.39 85.43 C123.67 85.92, 80.7 87.14, 1.02 85.45 M164.57 87.47 C101.41 86.75, 37.44 86.2, -0.99 86.01 M1.09 86.85 C1.44 59.8, 0.54 31.05, -0.4 -0.25 M-0.76 87.83 C1.3 57.67, -0.13 27.66, -0.97 -0.34"
              stroke="#000000" stroke-width="1" fill="none"></path>
    </g>
    <g transform="translate(742.0215460726245 693.5100559163052) rotate(0 77 12)">
        <text x="77" y="19" font-family="Cascadia, Segoe UI Emoji" font-size="20px" fill="#000000" text-anchor="middle"
              style="white-space: pre;" direction="ltr">connectivity
        </text>
    </g>
    <g stroke-linecap="round" transform="translate(1353.3183590686565 894.4858743686866) rotate(0 63.5 43.5)">
        <path d="M0.43 -1.36 L128.25 0.41 L126.64 88.26 L0.42 87.69" stroke="none" stroke-width="0"
              fill="#82c91e"></path>
        <path d="M-0.32 1.36 C31.7 2.66, 62.57 2.18, 125.16 1.5 M-0.9 0.65 C44.26 -0.15, 89.29 1.15, 126.53 0.61 M128.56 1.93 C128.54 16.66, 127.82 36.16, 127.53 86.07 M127.85 -0.83 C128.43 33.98, 128.37 69.25, 126.37 86.79 M128.66 86.71 C74.92 86.19, 24.79 85.41, 1.31 87.44 M127.05 86.13 C100.33 86.04, 74.15 86.37, -0.2 87.22 M-1.06 85.22 C-0.71 51.58, -0.27 16.25, 0.26 -1.46 M0.46 87.73 C-0.32 55.51, 0.94 25.03, -0.31 0.36"
              stroke="#000000" stroke-width="1" fill="none"></path>
    </g>
    <g transform="translate(1358.3183590686565 913.9858743686866) rotate(0 58.5 24)">
        <text x="58.5" y="19" font-family="Cascadia, Segoe UI Emoji" font-size="20px" fill="#000000"
              text-anchor="middle" style="white-space: pre;" direction="ltr">admin
        </text>
        <text x="58.5" y="43" font-family="Cascadia, Segoe UI Emoji" font-size="20px" fill="#000000"
              text-anchor="middle" style="white-space: pre;" direction="ltr">console
        </text>
    </g>
    <g stroke-linecap="round">
        <g transform="translate(840.2966576797676 1075.8721590909086) rotate(0 291.742061636597 -43.44734052461058)">
            <path d="M0.57 0.25 C182.33 -28.41, 362.86 -55.91, 583.58 -86.37 M-0.11 0.32 C184.88 -26.03, 368.88 -53.55, 583.6 -87.22"
                  stroke="#000000" stroke-width="1" fill="none"></path>
        </g>
        <g transform="translate(840.2966576797676 1075.8721590909086) rotate(0 291.742061636597 -43.44734052461058)">
            <path d="M558.74 -72.14 C566.97 -76.16, 572.23 -81.6, 583.38 -85.32 M557.02 -71.95 C566.38 -76.53, 573.36 -81.04, 583.41 -87.44"
                  stroke="#000000" stroke-width="1" fill="none"></path>
        </g>
        <g transform="translate(840.2966576797676 1075.8721590909086) rotate(0 291.742061636597 -43.44734052461058)">
            <path d="M555.6 -92.42 C564.78 -90.15, 571.02 -89.27, 583.38 -85.32 M553.88 -92.23 C564.2 -90.39, 572.17 -88.48, 583.41 -87.44"
                  stroke="#000000" stroke-width="1" fill="none"></path>
        </g>
    </g>
    <g stroke-linecap="round" transform="translate(1494.9589023361532 894.1100316783904) rotate(0 63.5 43.5)">
        <path d="M-1.91 -1.63 L125.74 -1.03 L127.65 85.31 L-0.58 88.68" stroke="none" stroke-width="0"
              fill="#82c91e"></path>
        <path d="M-1.12 1.1 C26.18 0.85, 52.46 2.11, 127.82 -1.54 M0.93 0.15 C40.59 -0.5, 81.1 -0.54, 126.73 -0.36 M125.57 -0.59 C126.49 25.18, 126.38 48.04, 128.16 86.08 M127.5 0.53 C126.93 18.04, 126.82 37.26, 126.87 86.89 M126.32 85.62 C81.99 87.79, 37.84 89.97, -0.71 88.48 M127.8 86.34 C89.49 86.34, 51.43 86.46, -0.43 87.76 M0.82 86.83 C-0.4 55.51, 0.74 23.8, 0.81 1.05 M0.43 87.3 C0.76 65.92, -0.73 43.09, -0.98 0.79"
              stroke="#000000" stroke-width="1" fill="none"></path>
    </g>
    <g transform="translate(1499.9589023361532 925.6100316783904) rotate(0 58.5 12)">
        <text x="58.5" y="19" font-family="Cascadia, Segoe UI Emoji" font-size="20px" fill="#000000"
              text-anchor="middle" style="white-space: pre;" direction="ltr">mpc/ml
        </text>
    </g>
    <g stroke-linecap="round">
        <g transform="translate(839.2112246666002 1072.8734245355333) rotate(0 356.02689396201504 -39.36573368114023)">
            <path d="M-0.49 -0.22 C273.18 -30.25, 546.82 -60.65, 712.48 -78.03 M-0.03 -0.39 C155.96 -17.39, 311.71 -34.78, 712.54 -78.51"
                  stroke="#000000" stroke-width="1" fill="none"></path>
        </g>
        <g transform="translate(839.2112246666002 1072.8734245355333) rotate(0 356.02689396201504 -39.36573368114023)">
            <path d="M684.42 -65.8 C694.54 -69.4, 704.64 -75.32, 712.47 -77.93 M685.57 -66.22 C691.97 -67.89, 697.16 -71.44, 712.63 -79.14"
                  stroke="#000000" stroke-width="1" fill="none"></path>
        </g>
        <g transform="translate(839.2112246666002 1072.8734245355333) rotate(0 356.02689396201504 -39.36573368114023)">
            <path d="M682.18 -86.2 C693.16 -81.96, 704.12 -80.05, 712.47 -77.93 M683.34 -86.62 C690.43 -83.83, 696.1 -82.9, 712.63 -79.14"
                  stroke="#000000" stroke-width="1" fill="none"></path>
        </g>
    </g>
    <g stroke-linecap="round">
        <g transform="translate(661.3150193094575 765.3008798926762) rotate(0 17.46611423417926 60.60519534070045)">
            <path d="M-1.07 -1.91 C6.43 32.03, 19.1 63.35, 36 120.82 M-0.68 -0.14 C12.16 45.79, 25.06 89.79, 34.98 123.12"
                  stroke="#000000" stroke-width="1" fill="none"></path>
        </g>
        <g transform="translate(661.3150193094575 765.3008798926762) rotate(0 17.46611423417926 60.60519534070045)">
            <path d="M16.08 97.09 C19.9 105.53, 28.15 111.29, 36.18 121.56 M16.46 98.85 C24.03 108.65, 30.68 116.44, 35.16 123.86"
                  stroke="#000000" stroke-width="1" fill="none"></path>
        </g>
        <g transform="translate(661.3150193094575 765.3008798926762) rotate(0 17.46611423417926 60.60519534070045)">
            <path d="M35.76 91.27 C34.42 101.3, 37.55 108.58, 36.18 121.56 M36.14 93.03 C36.4 105.08, 35.79 115.01, 35.16 123.86"
                  stroke="#000000" stroke-width="1" fill="none"></path>
        </g>
    </g>
    <g stroke-linecap="round">
        <g transform="translate(826.8814255594575 763.2110361426762) rotate(0 -28.216638669992562 56.56900558434427)">
            <path d="M-0.52 1.7 C-13.95 26.49, -25.19 49.16, -55.6 111.21 M-0.3 0.48 C-13.5 23.99, -24.38 48.78, -56.14 112.66"
                  stroke="#000000" stroke-width="1" fill="none"></path>
        </g>
        <g transform="translate(826.8814255594575 763.2110361426762) rotate(0 -28.216638669992562 56.56900558434427)">
            <path d="M-53.43 84.53 C-54.58 91.22, -53.93 95.73, -54.79 112.03 M-53.21 83.31 C-54.45 89.22, -53.63 96.13, -55.33 113.48"
                  stroke="#000000" stroke-width="1" fill="none"></path>
        </g>
        <g transform="translate(826.8814255594575 763.2110361426762) rotate(0 -28.216638669992562 56.56900558434427)">
            <path d="M-35.01 93.58 C-40.19 98.25, -43.62 100.76, -54.79 112.03 M-34.79 92.36 C-40.02 96.21, -43.21 101.15, -55.33 113.48"
                  stroke="#000000" stroke-width="1" fill="none"></path>
        </g>
    </g>
    <g transform="translate(670.9409736314037 761.7687079206264) rotate(0 71 12)">
        <text x="0" y="19" font-family="Cascadia, Segoe UI Emoji" font-size="20px" fill="#000000" text-anchor="start"
              style="white-space: pre;" direction="ltr">notification
        </text>
    </g>
    <g transform="translate(361.176613250134 720.4037472714933) rotate(27.113477622256415 117.5 12)">
        <text x="0" y="19" font-family="Cascadia, Segoe UI Emoji" font-size="20px" fill="#000000" text-anchor="start"
              style="white-space: pre;" direction="ltr">notification (email)
        </text>
    </g>
    <g transform="translate(364.0825131899353 799.5319942926935) rotate(12.824242390656433 88.5 12)">
        <text x="0" y="19" font-family="Cascadia, Segoe UI Emoji" font-size="20px" fill="#000000" text-anchor="start"
              style="white-space: pre;" direction="ltr">general weather
        </text>
    </g>
    <g transform="translate(1908.07383404356 854.059415547654) rotate(354.81514622804735 94 24)">
        <text x="0" y="19" font-family="Cascadia, Segoe UI Emoji" font-size="20px" fill="#000000" text-anchor="start"
              style="white-space: pre;" direction="ltr">specific weather
        </text>
        <text x="0" y="43" font-family="Cascadia, Segoe UI Emoji" font-size="20px" fill="#000000" text-anchor="start"
              style="white-space: pre;" direction="ltr">for ml
        </text>
    </g>
    <g transform="translate(670.5014754126082 415.144609000035) rotate(0 228.5 36)">
        <text x="0" y="19" font-family="Cascadia, Segoe UI Emoji" font-size="20px" fill="#000000" text-anchor="start"
              style="white-space: pre;" direction="ltr">used by: recorder, rule, connectivity,
        </text>
        <text x="0" y="43" font-family="Cascadia, Segoe UI Emoji" font-size="20px" fill="#000000" text-anchor="start"
              style="white-space: pre;" direction="ltr">api, admin-console, empa,
        </text>
        <text x="0" y="67" font-family="Cascadia, Segoe UI Emoji" font-size="20px" fill="#000000" text-anchor="start"
              style="white-space: pre;" direction="ltr">keycloak, mpc, report
        </text>
    </g>
    <g transform="translate(669.1467662112193 526.0571524028128) rotate(0 176 36)">
        <text x="0" y="19" font-family="Cascadia, Segoe UI Emoji" font-size="20px" fill="#000000" text-anchor="start"
              style="white-space: pre;" direction="ltr">used by: api, proxy, recorder,
        </text>
        <text x="0" y="43" font-family="Cascadia, Segoe UI Emoji" font-size="20px" fill="#000000" text-anchor="start"
              style="white-space: pre;" direction="ltr">rule, connectivity,
        </text>
        <text x="0" y="67" font-family="Cascadia, Segoe UI Emoji" font-size="20px" fill="#000000" text-anchor="start"
              style="white-space: pre;" direction="ltr">empa, report
        </text>
    </g>
    <g stroke-linecap="round">
        <g transform="translate(1626.8680428729253 938.440026906781) rotate(0 9.752749925092985 0.6002506559573249)">
            <path d="M-0.37 1.42 C2.15 -1.18, 7.15 -0.32, 17.82 1.31 M-0.13 0.65 C3.69 0.05, 9.23 -0.56, 19.88 0.53"
                  stroke="#000000" stroke-width="1" fill="none"></path>
        </g>
        <g transform="translate(1626.8680428729253 938.440026906781) rotate(0 9.752749925092985 0.6002506559573249)">
            <path d="M10.48 3.89 C11.67 2, 14.09 1.85, 19.21 1 M10.61 3.51 C12.44 2.56, 15.13 1.6, 20.24 0.61"
                  stroke="#000000" stroke-width="1" fill="none"></path>
        </g>
        <g transform="translate(1626.8680428729253 938.440026906781) rotate(0 9.752749925092985 0.6002506559573249)">
            <path d="M10.93 -2.65 C12.03 -3.19, 14.36 -2, 19.21 1 M11.06 -3.03 C12.76 -2.49, 15.35 -1.95, 20.24 0.61"
                  stroke="#000000" stroke-width="1" fill="none"></path>
        </g>
    </g>
    <g transform="translate(10 1339.5483224740601) rotate(0 246.5 12)">
        <text x="0" y="19" font-family="Cascadia, Segoe UI Emoji" font-size="20px" fill="#000000" text-anchor="start"
              style="white-space: pre;" direction="ltr">icons you can select as project/room image
        </text>
    </g>
    <g stroke-linecap="round">
        <g transform="translate(1756.3084500135283 875.613384365294) rotate(0 -188.4924837561573 -136.64829756069116)">
            <path d="M0.46 -0.71 C-110.89 -82.75, -223.01 -163.77, -377.44 -273.29 M-0.1 0.08 C-136.66 -99.55, -272.51 -199.02, -377.44 -273.38"
                  stroke="#000000" stroke-width="1" fill="none"></path>
        </g>
        <g transform="translate(1756.3084500135283 875.613384365294) rotate(0 -188.4924837561573 -136.64829756069116)">
            <path d="M-347.55 -266.87 C-355.58 -268.21, -364.08 -270.18, -377.91 -273.69 M-348.77 -265.12 C-359.76 -267.69, -369.02 -272.17, -377.91 -273.89"
                  stroke="#000000" stroke-width="1" fill="none"></path>
        </g>
        <g transform="translate(1756.3084500135283 875.613384365294) rotate(0 -188.4924837561573 -136.64829756069116)">
            <path d="M-359.5 -250.19 C-363.9 -256.39, -368.85 -263.32, -377.91 -273.69 M-360.72 -248.44 C-367.38 -256.96, -372.31 -267.47, -377.91 -273.89"
                  stroke="#000000" stroke-width="1" fill="none"></path>
        </g>
    </g>
    <g stroke-linecap="round">
        <g transform="translate(916.6398612238459 704.6172906152942) rotate(0 88.7644557081752 -52.19172469243324)">
            <path d="M-0.45 -1.16 C67.06 -36.89, 130.46 -75.24, 177.49 -103.33 M0.51 -0.5 C44.74 -27.4, 90.71 -53.84, 177.98 -103.89"
                  stroke="#000000" stroke-width="1" fill="none"></path>
        </g>
        <g transform="translate(916.6398612238459 704.6172906152942) rotate(0 88.7644557081752 -52.19172469243324)">
            <path d="M158.14 -82.26 C167.36 -88.97, 171.55 -97.13, 178.33 -103.41 M159.22 -81.51 C163.11 -86.51, 168.4 -92.06, 178.87 -104.03"
                  stroke="#000000" stroke-width="1" fill="none"></path>
        </g>
        <g transform="translate(916.6398612238459 704.6172906152942) rotate(0 88.7644557081752 -52.19172469243324)">
            <path d="M147.92 -100.05 C161.05 -100.03, 169.05 -101.55, 178.33 -103.41 M149 -99.3 C155.66 -99.79, 163.58 -100.74, 178.87 -104.03"
                  stroke="#000000" stroke-width="1" fill="none"></path>
        </g>
    </g>
    <g stroke-linecap="round">
        <g transform="translate(671.0756251127345 647.5643392264053) rotate(0 203.9599931926773 -28.671316636788447)">
            <path d="M0.76 -0.13 C118.62 -19.17, 235.71 -35.79, 408.05 -56.3 M-0.46 -0.12 C104.75 -12.13, 208.36 -26.82, 408.38 -57.22"
                  stroke="#000000" stroke-width="1" fill="none"></path>
        </g>
        <g transform="translate(671.0756251127345 647.5643392264053) rotate(0 203.9599931926773 -28.671316636788447)">
            <path d="M383.42 -43.14 C390.22 -48.9, 395.38 -53.09, 407.92 -55.45 M381.18 -43.12 C389.45 -45.45, 394.92 -49.22, 408.52 -57.14"
                  stroke="#000000" stroke-width="1" fill="none"></path>
        </g>
        <g transform="translate(671.0756251127345 647.5643392264053) rotate(0 203.9599931926773 -28.671316636788447)">
            <path d="M380.38 -63.43 C388.17 -63.33, 394.21 -61.63, 407.92 -55.45 M378.14 -63.42 C387.13 -60.53, 393.38 -59.12, 408.52 -57.14"
                  stroke="#000000" stroke-width="1" fill="none"></path>
        </g>
    </g>
    <g stroke-linecap="round" transform="translate(872.1086267248384 764.4012377879133) rotate(0 108 43.5)">
        <path d="M1.66 -1.91 L215.44 1.17 L214.81 86.37 L-0.34 85.82" stroke="none" stroke-width="0"
              fill="#82c91e"></path>
        <path d="M0.4 -0.17 C68.02 2.64, 138.36 2.91, 215.1 -0.23 M-0.78 -0.33 C64.47 -0.06, 130.5 -1.14, 215.75 0.17 M215.91 -1.41 C216.13 24.22, 217.49 44.78, 214.49 88.11 M215.15 -0.66 C215.94 24.99, 216.25 49.14, 216.19 87.42 M215.2 87.95 C168.44 87.65, 123.33 89.72, 1.11 88.38 M215.96 86.51 C166.01 88.27, 114.63 87.55, -0.34 87.24 M0.34 86.39 C0.85 60.74, 1.35 31.98, -0.41 0.16 M0.18 87.05 C0.41 53.85, -1.19 19.73, 0.68 0.97"
              stroke="#000000" stroke-width="1" fill="none"></path>
    </g>
    <g transform="translate(877.1086267248384 795.9012377879133) rotate(0 103 12)">
        <text x="103" y="19" font-family="Cascadia, Segoe UI Emoji" font-size="20px" fill="#000000" text-anchor="middle"
              style="white-space: pre;" direction="ltr">report
        </text>
    </g>
    <g stroke-linecap="round">
        <g transform="translate(866.6857751623384 839.1951831004133) rotate(0 -31.746876996941864 22.51219936925918)">
            <path d="M-0.29 0.82 C-13.44 7.99, -29.3 21.14, -64.33 44.6 M0.84 0.42 C-18.96 13.22, -36 25.74, -64.21 44.41"
                  stroke="#000000" stroke-width="1" fill="none"></path>
        </g>
        <g transform="translate(866.6857751623384 839.1951831004133) rotate(0 -31.746876996941864 22.51219936925918)">
            <path d="M-46.85 20.97 C-48.97 23.97, -53.91 32.56, -64.27 45.25 M-45.71 20.58 C-52.21 27.91, -55.98 34.87, -64.15 45.06"
                  stroke="#000000" stroke-width="1" fill="none"></path>
        </g>
        <g transform="translate(866.6857751623384 839.1951831004133) rotate(0 -31.746876996941864 22.51219936925918)">
            <path d="M-35.39 37.99 C-40.09 36.91, -47.72 41.52, -64.27 45.25 M-34.25 37.6 C-43.98 40.07, -51.01 42.18, -64.15 45.06"
                  stroke="#000000" stroke-width="1" fill="none"></path>
        </g>
    </g>
</svg>