<?xml version="1.0" encoding="UTF-8"?>
<svg id="Layer_2" data-name="Layer 2" xmlns="http://www.w3.org/2000/svg" viewBox="0 0 424.63 198.01">
  <defs>
    <style>
      .cls-1 {
        fill: #fff;
      }

      .cls-2 {
        fill: #72bf44;
      }
    </style>
  </defs>
  <g>
    <path class="cls-2" d="M104.24,74.02c6.08,3.24,9.12,8.5,9.12,15.78v24.72c0,1.36.32,2.48.96,3.36.64.88,1.6,1.32,2.88,1.32h4.32v13.8c-.24.16-.86.42-1.86.78-1,.36-2.42.72-4.26,1.08-1.84.36-3.96.54-6.36.54-4.64,0-8.46-.7-11.46-2.1-3-1.4-5.06-3.34-6.18-5.82-3.04,2.4-6.44,4.32-10.2,5.76-3.76,1.44-8.16,2.16-13.2,2.16-14.88,0-22.32-5.92-22.32-17.76,0-6.16,1.66-10.86,4.98-14.1,3.32-3.24,8.1-5.46,14.34-6.66,6.24-1.2,14.4-1.8,24.48-1.8v-3.12c0-2.48-.86-4.36-2.58-5.64-1.72-1.28-3.94-1.92-6.66-1.92-2.48,0-4.62.44-6.42,1.32-1.8.88-2.7,2.28-2.7,4.2v.48h-23.52c-.08-.4-.12-.96-.12-1.68,0-6,2.86-10.76,8.58-14.28,5.72-3.52,13.9-5.28,24.54-5.28,9.68,0,17.56,1.62,23.64,4.86ZM74.42,108.58c-3.24,1.48-4.86,3.46-4.86,5.94,0,4,2.72,6,8.16,6,3.12,0,5.86-.84,8.22-2.52,2.36-1.68,3.54-3.76,3.54-6.24v-5.4c-6.8,0-11.82.74-15.06,2.22Z"/>
    <path class="cls-2" d="M169.4,133.96l-2.04-9c-4.64,6.96-11.36,10.44-20.16,10.44s-15.16-2.8-19.8-8.4c-4.64-5.6-6.96-13.88-6.96-24.84s2.32-19.1,6.96-24.66c4.64-5.56,11.24-8.34,19.8-8.34,7.28,0,13.2,2.44,17.76,7.32v-29.52h23.88v87h-19.44ZM144.32,99.16v6.36c0,8.16,3.44,12.24,10.32,12.24,3.52,0,6.16-1.24,7.92-3.72,1.76-2.48,2.64-5.72,2.64-9.72v-3.96c0-4-.88-7.26-2.64-9.78-1.76-2.52-4.4-3.78-7.92-3.78-6.88,0-10.32,4.12-10.32,12.36Z"/>
    <path class="cls-2" d="M252.31,74.02c6.08,3.24,9.12,8.5,9.12,15.78v24.72c0,1.36.32,2.48.96,3.36.64.88,1.6,1.32,2.88,1.32h4.32v13.8c-.24.16-.86.42-1.86.78-1,.36-2.42.72-4.26,1.08-1.84.36-3.96.54-6.36.54-4.64,0-8.46-.7-11.46-2.1-3-1.4-5.06-3.34-6.18-5.82-3.04,2.4-6.44,4.32-10.2,5.76-3.76,1.44-8.16,2.16-13.2,2.16-14.88,0-22.32-5.92-22.32-17.76,0-6.16,1.66-10.86,4.98-14.1,3.32-3.24,8.1-5.46,14.34-6.66,6.24-1.2,14.4-1.8,24.48-1.8v-3.12c0-2.48-.86-4.36-2.58-5.64-1.72-1.28-3.94-1.92-6.66-1.92-2.48,0-4.62.44-6.42,1.32-1.8.88-2.7,2.28-2.7,4.2v.48h-23.52c-.08-.4-.12-.96-.12-1.68,0-6,2.86-10.76,8.58-14.28,5.72-3.52,13.9-5.28,24.54-5.28,9.68,0,17.56,1.62,23.64,4.86ZM222.49,108.58c-3.24,1.48-4.86,3.46-4.86,5.94,0,4,2.72,6,8.16,6,3.12,0,5.86-.84,8.22-2.52,2.36-1.68,3.54-3.76,3.54-6.24v-5.4c-6.8,0-11.82.74-15.06,2.22Z"/>
    <path class="cls-2" d="M372.37,75.34c3.62,4.12,5.44,9.98,5.44,17.58v41.04h-24.04v-38.16c0-2.72-.66-4.9-1.99-6.54-1.33-1.64-3.2-2.46-5.62-2.46-2.82,0-5.12.96-6.89,2.88-1.77,1.92-2.66,4.28-2.66,7.08v37.2h-24.04v-38.16c0-2.72-.66-4.9-1.99-6.54-1.33-1.64-3.2-2.46-5.62-2.46-2.82,0-5.11.96-6.88,2.88-1.77,1.92-2.66,4.28-2.66,7.08v37.2h-24.04v-63.36h19.69l1.57,9.48c2.42-3.36,5.62-6.02,9.6-7.98,3.99-1.96,8.19-2.94,12.62-2.94,9.58,0,16.02,3.64,19.32,10.92,2.5-3.36,5.7-6.02,9.6-7.98,3.91-1.96,7.99-2.94,12.26-2.94,7.25,0,12.68,2.06,16.31,6.18Z"/>
  </g>
  <g>
    <path class="cls-1" d="M259.33,145.21h5.17l-.35,1.95h-5.17l-.45,2.59h5.68l-.35,1.97h-8.18l1.95-11.04h8.02l-.35,1.95h-5.52l-.45,2.58Z"/>
    <path class="cls-1" d="M275.99,151.73h-3.35l-2.85-7.91-1.39,7.91h-2.5l1.95-11.04h3.22l2.93,8.15,1.42-8.15h2.51l-1.95,11.04Z"/>
    <path class="cls-1" d="M282.18,145.21h5.17l-.35,1.95h-5.17l-.45,2.59h5.68l-.35,1.97h-8.18l1.95-11.04h8.02l-.35,1.95h-5.52l-.45,2.58Z"/>
    <path class="cls-1" d="M296.2,146.44c.98.37,1.3,1.28,1.3,3.23,0,.88.11,1.55.34,2.05h-2.72c-.08-.56-.11-1.14-.13-2.59,0-1.04-.34-1.68-1.07-1.73-.3-.02-.58-.02-.88-.02h-1.01l-.77,4.34h-2.5l1.95-11.04h4.19c.66,0,1.09.02,1.65.08,1.38.16,2.48.87,2.48,2.4,0,1.75-1.06,2.83-2.83,3.28ZM296.29,143.79c0-.77-.5-1.06-1.18-1.12-.22-.02-.5-.03-.85-.03h-1.41l-.51,2.91h1.33c.35,0,.61,0,.85-.02.93-.08,1.78-.53,1.78-1.75Z"/>
    <path class="cls-1" d="M310.95,144.28l-.02.16h-2.51v-.16c-.02-1.36-.7-1.97-2.03-1.97-1.94,0-3.65,1.79-3.65,4.87,0,2,.94,2.91,2.24,2.91s2.31-.75,2.85-2.16h-2.26l.35-1.95h4.64l-1.02,5.75h-1.99l.11-1.73-.69,1.14c-.72.58-1.57.82-2.77.82-2.58,0-4.15-1.65-4.15-4.48,0-4.43,3.2-7.01,6.67-7.01,3.07,0,4.37,1.65,4.21,3.83Z"/>
    <path class="cls-1" d="M317.46,151.73h-2.51l.75-4.26-2.69-6.79h2.67l1.66,4.67,3.15-4.67h2.8l-5.11,6.87-.74,4.18Z"/>
    <path class="cls-1" d="M334.66,143.99h-2.53c.06-1.02-.42-1.68-1.47-1.68-.9,0-1.57.48-1.57,1.39,0,.67.54,1.1,2.08,1.47,2.02.5,2.93,1.5,2.93,2.98,0,2.46-2.29,3.79-4.85,3.79s-4.29-1.15-4.07-3.54h2.53c.02,1.14.82,1.68,1.83,1.68s1.86-.56,1.86-1.46c0-.62-.51-1.14-1.78-1.47-2.02-.51-3.23-1.26-3.23-2.9,0-2.43,2.18-3.81,4.55-3.81,2.75,0,3.84,1.54,3.73,3.54Z"/>
    <path class="cls-1" d="M338.55,148.6l-1.55,3.12h-2.69l5.86-11.04h3.28l1.92,11.04h-2.72l-.45-3.12h-3.65ZM341.36,142.95l-1.84,3.68h2.37l-.53-3.68Z"/>
    <path class="cls-1" d="M348.64,151.73l-1.92-11.04h2.72l1.2,9.11,4.45-9.11h2.69l-5.86,11.04h-3.28Z"/>
    <path class="cls-1" d="M360.96,145.21h5.17l-.35,1.95h-5.17l-.45,2.59h5.68l-.35,1.97h-8.18l1.95-11.04h8.02l-.35,1.95h-5.52l-.45,2.58Z"/>
    <path class="cls-1" d="M374.98,146.44c.98.37,1.3,1.28,1.3,3.23,0,.88.11,1.55.34,2.05h-2.72c-.08-.56-.11-1.14-.13-2.59,0-1.04-.34-1.68-1.07-1.73-.3-.02-.58-.02-.88-.02h-1.01l-.77,4.34h-2.5l1.95-11.04h4.19c.66,0,1.09.02,1.65.08,1.38.16,2.48.87,2.48,2.4,0,1.75-1.06,2.83-2.83,3.28ZM375.07,143.79c0-.77-.5-1.06-1.18-1.12-.22-.02-.5-.03-.85-.03h-1.41l-.51,2.91h1.33c.35,0,.61,0,.85-.02.93-.08,1.78-.53,1.78-1.75Z"/>
  </g>
  <path class="cls-2" d="M382.21,70.53c0,2.51-1.75,4.28-4.28,4.28s-4.28-1.77-4.28-4.28,1.77-4.28,4.28-4.28,4.28,1.77,4.28,4.28ZM381.17,70.53c0-1.94-1.33-3.3-3.24-3.3s-3.24,1.37-3.24,3.3,1.35,3.28,3.24,3.28,3.24-1.37,3.24-3.28ZM379.54,71.44c.06.55.16.88.26,1.1h-1.2c-.06-.25-.1-.53-.14-.9-.04-.37-.27-.49-.59-.49h-.43v1.39h-1.06v-4.2h1.47c.2,0,.37,0,.55.02.84.08,1.37.45,1.37,1.14,0,.55-.37.88-.84,1.02.41.1.57.47.61.92ZM378.6,69.73c0-.31-.16-.45-.41-.51-.12-.02-.2-.02-.39-.02h-.37v1.08h.37c.16,0,.27,0,.39-.02.29-.06.41-.24.41-.53Z"/>
</svg>