<?xml version="1.0" encoding="utf-8"?>
<!-- Generator: Adobe Illustrator 26.5.0, SVG Export Plug-In . SVG Version: 6.00 Build 0)  -->
<svg version="1.1" id="Ebene_1" xmlns="http://www.w3.org/2000/svg" x="0px"
     y="0px"
     viewBox="0 0 226.4 112.4" style="enable-background:new 0 0 226.4 112.4;" xml:space="preserve">
<style type="text/css">
	.st0{fill:#FFFFFF;}
	.st1{fill:#FFCC00;}
</style>
    <g id="logo">
</g>
    <g id="Ebene_1_00000063606864619759992150000010526921731380505005_">
	<path class="st0" d="M73.8,28.1C73.8,12.7,61.4,0.2,46,0l0,0H6C2.7,0,0,2.7,0,6v94.3c0,3.3,2.7,6.1,6,6.1h45.6V55.6
		C64.3,52.9,73.8,41.6,73.8,28.1z"/>
        <g>
		<circle class="st1" cx="51.6" cy="78.3" r="28.1"/>
	</g>
        <g>
		<polygon class="st0" points="109.5,96 118.6,96 118.6,92.7 109.5,92.7 109.5,86.4 119.2,86.4 119.2,83.2 109.5,83.2 108.9,83.2 
			105.8,83.2 105.8,105.9 108.9,105.9 109.5,105.9 119.5,105.9 119.5,102.6 109.5,102.6 		"/>
            <path class="st0" d="M132.8,88.6h-0.2c-1.4,0-2.5,0.3-3.4,0.9s-1.6,1.4-2,2.6c-0.1,0.3-0.2,0.7-0.3,1.1v-4H124v16.7h3.6v-10
			c0-1.2,0.4-2.2,1.1-2.9c0.7-0.7,1.7-1.1,2.9-1.1s2.1,0.4,2.7,1.1c0.7,0.7,1,1.7,1,2.8v10.1h3.6v-9.6c0-2.5-0.5-4.4-1.5-5.7
			C136.4,89.3,134.8,88.6,132.8,88.6z"/>
            <path class="st0" d="M155.6,89.7c-1.2-0.8-2.7-1.2-4.5-1.2c-1.4,0-2.6,0.2-3.6,0.7s-1.9,1.1-2.6,2s-1.2,1.7-1.5,2.8
			s-0.5,2.1-0.5,3.2v0.6c0,1.1,0.2,2.1,0.5,3.1s0.9,1.9,1.5,2.8s1.6,1.5,2.6,2s2.3,0.8,3.8,0.8c1.4,0,2.6-0.2,3.6-0.7
			c1.1-0.4,1.9-1.1,2.6-2s1.1-1.8,1.4-3h-3.4c-0.2,0.7-0.6,1.3-1.4,1.8c-0.7,0.5-1.7,0.8-2.9,0.8s-2.1-0.2-2.9-0.8s-1.3-1.2-1.6-2.1
			c-0.3-0.7-0.4-1.4-0.5-2.2h12.9v-1.5c0-1.4-0.3-2.8-0.9-4.1C157.7,91.6,156.8,90.5,155.6,89.7z M148.4,92.4
			c0.7-0.5,1.6-0.8,2.7-0.8c1,0,1.9,0.2,2.6,0.7c0.7,0.4,1.2,1.1,1.6,1.9c0.2,0.5,0.4,1.1,0.4,1.7h-9.3c0.1-0.5,0.2-1,0.4-1.4
			C147.1,93.6,147.7,92.9,148.4,92.4z"/>
            <path class="st0" d="M167.4,90.7c-0.8,0.9-1.2,2.1-1.5,3.5v-5.1H163v16.7h3.6v-8.9c0-1.6,0.4-2.8,1.3-3.6c0.8-0.8,2-1.3,3.6-1.3
			h1.1v-3.1H172C170.1,88.9,168.5,89.5,167.4,90.7z"/>
            <path class="st0" d="M188.8,92.4c-0.1-0.1-0.1-0.2-0.2-0.3c-0.6-1.1-1.4-2-2.5-2.6s-2.2-0.9-3.6-0.9c-1.2,0-2.3,0.2-3.2,0.6
			c-1,0.4-1.8,1-2.5,1.8s-1.2,1.6-1.6,2.7s-0.6,2.1-0.6,3.3v0.6c0,1.2,0.2,2.2,0.6,3.3c0.4,1,0.9,1.9,1.6,2.7
			c0.7,0.8,1.5,1.4,2.4,1.8c0.9,0.4,2,0.6,3.2,0.6c1.3,0,2.4-0.3,3.4-0.8s1.8-1.4,2.4-2.5c0,0,0-0.1,0.1-0.1v1.5
			c0,1.2-0.2,2.2-0.6,3c-0.4,0.8-1.1,1.4-1.9,1.7c-0.9,0.4-2,0.6-3.5,0.6c-0.7,0-1.5,0-2.3-0.1s-1.6-0.2-2.4-0.3v3.1
			c0.7,0.1,1.5,0.2,2.3,0.2s1.6,0.1,2.4,0.1c2.2,0,4.1-0.3,5.5-0.9s2.4-1.5,3.1-2.8c0.6-1.2,1-2.9,1-4.9V89.1h-3.1V92.4L188.8,92.4z
			 M188.2,97.7c0,1.1-0.2,2-0.7,2.7s-1.1,1.3-1.8,1.7c-0.8,0.4-1.6,0.6-2.5,0.6c-1,0-1.8-0.2-2.6-0.7c-0.8-0.4-1.4-1.1-1.8-1.9
			c-0.4-0.8-0.6-1.8-0.6-3c0-1.1,0.2-2.1,0.6-2.9c0.4-0.8,1-1.5,1.8-2s1.6-0.7,2.6-0.7c0.9,0,1.7,0.2,2.4,0.6s1.4,0.9,1.8,1.6
			c0.5,0.7,0.7,1.6,0.7,2.6v1.4H188.2z"/>
            <polygon class="st0"
                     points="195.2,89.1 195.2,91.9 197.7,91.9 197.7,105.9 201.3,105.9 201.3,91.9 201.3,89.1 197.7,89.1 		"/>
            <path class="st0" d="M218.3,89.7c-1.2-0.8-2.7-1.2-4.5-1.2c-1.4,0-2.6,0.2-3.6,0.7c-1.1,0.5-1.9,1.1-2.6,2s-1.2,1.7-1.5,2.8
			c-0.3,1-0.5,2.1-0.5,3.2v0.6c0,1.1,0.2,2.1,0.5,3.1s0.9,1.9,1.5,2.8c0.7,0.8,1.6,1.5,2.6,2s2.3,0.8,3.8,0.8c1.3,0,2.6-0.2,3.6-0.7
			c1.1-0.4,1.9-1.1,2.6-2s1.1-1.8,1.4-3h-3.4c-0.2,0.7-0.6,1.3-1.4,1.8c-0.7,0.5-1.7,0.8-2.9,0.8s-2.1-0.2-2.9-0.8s-1.3-1.2-1.6-2.1
			c-0.3-0.7-0.4-1.4-0.5-2.2h12.9v-1.5c0-1.4-0.3-2.8-0.9-4.1C220.4,91.6,219.5,90.5,218.3,89.7z M211.1,92.4
			c0.7-0.5,1.6-0.8,2.7-0.8c1,0,1.9,0.2,2.6,0.7c0.7,0.4,1.2,1.1,1.6,1.9c0.2,0.5,0.4,1.1,0.4,1.7h-9.3c0.1-0.5,0.2-1,0.4-1.4
			C209.9,93.6,210.4,92.9,211.1,92.4z"/>
            <circle class="st0" cx="199" cy="84.7" r="2.1"/>
	</g>
        <g>
		<path class="st0" d="M118.7,61.4c0.6-0.3,1.1-0.7,1.5-1.2c0.6-0.8,1-1.9,1-3.3v-0.4c0-2-0.6-3.5-1.9-4.6s-3.2-1.6-5.7-1.6h-4.1
			h-0.6h-3.1v22.9h3.1h0.6h5c1.7,0,3.1-0.2,4.2-0.7c1.1-0.5,2-1.2,2.6-2.1s0.9-2.1,0.9-3.4v-0.4c0-1.4-0.3-2.6-1-3.4
			C120.5,62.3,119.7,61.8,118.7,61.4z M114,53.3c1.2,0,2,0.3,2.6,0.9s0.8,1.4,0.8,2.5c0,1-0.3,1.8-0.8,2.4c-0.6,0.6-1.4,0.9-2.6,0.9
			h-4.5v-6.8L114,53.3L114,53.3z M117.5,69.1c-0.6,0.6-1.5,0.9-2.6,0.9h-5.4v-7h5.4c1.1,0,2,0.3,2.6,0.9s0.9,1.5,0.9,2.6
			C118.4,67.7,118.1,68.5,117.5,69.1z"/>
            <path class="st0" d="M138.1,56.9c-1.2-0.8-2.7-1.2-4.5-1.2c-1.4,0-2.6,0.2-3.6,0.7s-1.9,1.1-2.6,2s-1.2,1.7-1.5,2.8
			c-0.3,1-0.5,2.1-0.5,3.2V65c0,1.1,0.2,2.1,0.5,3.2c0.3,1,0.9,1.9,1.5,2.8s1.6,1.5,2.6,2s2.3,0.7,3.8,0.7c1.4,0,2.6-0.2,3.6-0.7
			c1.1-0.4,1.9-1.1,2.6-2s1.1-1.8,1.4-3H138c-0.2,0.7-0.6,1.3-1.4,1.8c-0.7,0.5-1.7,0.8-2.9,0.8s-2.1-0.2-2.9-0.8
			c-0.7-0.5-1.3-1.2-1.6-2.1c-0.3-0.7-0.4-1.4-0.5-2.2h12.9V64c0-1.4-0.3-2.8-0.9-4.1C140.2,58.7,139.3,57.7,138.1,56.9z
			 M130.9,59.6c0.7-0.5,1.6-0.7,2.7-0.7c1,0,1.9,0.2,2.6,0.7c0.7,0.4,1.2,1.1,1.6,1.9c0.2,0.5,0.4,1.1,0.4,1.7h-9.3
			c0.1-0.5,0.2-1,0.4-1.4C129.7,60.7,130.2,60.1,130.9,59.6z"/>
            <path class="st0" d="M156.9,64.7c-1.1-0.8-2.6-1.4-4.5-1.6l-1.6-0.2c-0.9-0.1-1.6-0.3-2-0.7c-0.4-0.3-0.6-0.8-0.6-1.4
			s0.3-1.2,0.8-1.6s1.3-0.6,2.4-0.6c1.1,0,1.9,0.2,2.5,0.7s0.9,1,0.9,1.6h3.3c0-1.7-0.7-3-1.9-3.9s-2.8-1.3-4.8-1.3
			c-1.3,0-2.4,0.2-3.4,0.6s-1.8,1-2.3,1.8s-0.8,1.7-0.8,2.8c0,1.4,0.5,2.5,1.5,3.3s2.4,1.3,4.1,1.5l1.6,0.2c1.2,0.1,2,0.4,2.5,0.7
			s0.7,0.8,0.7,1.5s-0.3,1.2-1,1.7s-1.6,0.7-2.7,0.7c-1.4,0-2.4-0.3-2.9-0.8c-0.6-0.5-0.9-1.1-1-1.7h-3.4c0.1,1.7,0.7,3,2,3.9
			c1.2,0.9,3,1.4,5.3,1.4c1.4,0,2.6-0.2,3.7-0.7c1.1-0.4,1.9-1.1,2.5-1.9s0.9-1.8,0.9-2.8C158.5,66.7,158,65.5,156.9,64.7z"/>
            <path class="st0" d="M173.7,64.7c-1.1-0.8-2.6-1.4-4.5-1.6l-1.6-0.2c-0.9-0.1-1.6-0.3-2-0.7c-0.4-0.3-0.6-0.8-0.6-1.4
			s0.3-1.2,0.8-1.6s1.3-0.6,2.4-0.6c1.1,0,1.9,0.2,2.5,0.7s0.9,1,0.9,1.6h3.3c0-1.7-0.7-3-1.9-3.9s-2.8-1.3-4.8-1.3
			c-1.3,0-2.4,0.2-3.4,0.6s-1.8,1-2.3,1.8s-0.8,1.7-0.8,2.8c0,1.4,0.5,2.5,1.5,3.3s2.4,1.3,4.1,1.5l1.6,0.2c1.2,0.1,2,0.4,2.5,0.7
			s0.7,0.8,0.7,1.5s-0.3,1.2-1,1.7s-1.6,0.7-2.7,0.7c-1.4,0-2.4-0.3-2.9-0.8c-0.6-0.5-0.9-1.1-1-1.7h-3.4c0.1,1.7,0.7,3,2,3.9
			c1.2,0.9,3,1.4,5.3,1.4c1.4,0,2.6-0.2,3.7-0.7c1.1-0.4,1.9-1.1,2.5-1.9s0.9-1.8,0.9-2.8C175.4,66.7,174.8,65.5,173.7,64.7z"/>
            <path class="st0" d="M191,56.9c-1.2-0.8-2.7-1.2-4.5-1.2c-1.4,0-2.6,0.2-3.6,0.7c-1.1,0.5-1.9,1.1-2.6,2s-1.2,1.7-1.5,2.8
			c-0.3,1-0.5,2.1-0.5,3.2V65c0,1.1,0.2,2.1,0.5,3.2c0.3,1,0.9,1.9,1.5,2.8c0.7,0.8,1.6,1.5,2.6,2s2.3,0.7,3.8,0.7
			c1.3,0,2.6-0.2,3.6-0.7s1.9-1.1,2.6-2s1.1-1.8,1.4-3h-3.4c-0.2,0.7-0.6,1.3-1.4,1.8c-0.7,0.5-1.7,0.8-2.9,0.8s-2.1-0.2-2.9-0.8
			s-1.3-1.2-1.6-2.1c-0.3-0.7-0.4-1.4-0.5-2.2h12.9V64c0-1.4-0.3-2.8-0.9-4.1C193.1,58.7,192.2,57.7,191,56.9z M183.8,59.6
			c0.7-0.5,1.6-0.7,2.7-0.7c1,0,1.9,0.2,2.6,0.7c0.7,0.4,1.2,1.1,1.6,1.9c0.2,0.5,0.4,1.1,0.4,1.7h-9.3c0.1-0.5,0.2-1,0.4-1.4
			C182.5,60.7,183,60.1,183.8,59.6z"/>
            <path class="st0" d="M202.8,57.9c-0.8,0.9-1.2,2.1-1.5,3.5v-5.1h-2.9V73h3.6v-8.9c0-1.6,0.4-2.8,1.3-3.6s2-1.3,3.6-1.3h1.1V56
			h-0.6C205.4,56.1,203.9,56.7,202.8,57.9z"/>
            <path class="st0" d="M226.4,64c0-1.4-0.3-2.8-0.9-4.1c-0.6-1.2-1.5-2.3-2.7-3.1s-2.7-1.2-4.5-1.2c-1.4,0-2.6,0.2-3.6,0.7
			c-1.1,0.5-1.9,1.1-2.6,2s-1.2,1.7-1.5,2.8c-0.3,1-0.5,2.1-0.5,3.2v0.6c0,1.1,0.2,2.1,0.5,3.2c0.3,1,0.9,1.9,1.5,2.8
			c0.7,0.8,1.6,1.5,2.6,2s2.3,0.7,3.8,0.7c1.3,0,2.6-0.2,3.6-0.7s1.9-1.1,2.6-2s1.1-1.8,1.4-3h-3.4c-0.2,0.7-0.6,1.3-1.4,1.8
			c-0.7,0.5-1.7,0.8-2.9,0.8s-2.1-0.2-2.9-0.8s-1.3-1.2-1.6-2.1c-0.3-0.7-0.4-1.4-0.5-2.2h12.9L226.4,64L226.4,64z M215.6,59.6
			c0.7-0.5,1.6-0.7,2.7-0.7c1,0,1.9,0.2,2.6,0.7c0.7,0.4,1.2,1.1,1.6,1.9c0.2,0.5,0.4,1.1,0.4,1.7h-9.3c0.1-0.5,0.2-1,0.4-1.4
			C214.3,60.7,214.9,60.1,215.6,59.6z"/>
	</g>
</g>
</svg>
