<svg id="Gruppe_1035" data-name="Gruppe 1035" xmlns="http://www.w3.org/2000/svg"
     width="120.111" height="39.707" viewBox="0 0 120.111 39.707">
    <defs>
        <clipPath id="clip-path">
            <rect id="Rechteck_1808" data-name="Rechteck 1808" width="120.112" height="39.707" fill="none"/>
        </clipPath>
    </defs>
    <path id="Pfad_5419" data-name="Pfad 5419" d="M26.35,59.979l-.966-.966-1.246-3.274,2.512,1.347-.658,1.358Z"
          transform="translate(-18.761 -43.322)" fill="#ffbc00"/>
    <g id="Gruppe_1034" data-name="Gruppe 1034">
        <g id="Gruppe_1033" data-name="Gruppe 1033" clip-path="url(#clip-path)">
            <path id="Pfad_5420" data-name="Pfad 5420"
                  d="M30.124,36.505a11.571,11.571,0,0,1-3.254.213,11.39,11.39,0,0,1-3.231-.7,10.17,10.17,0,0,1-2.894-1.678c-.212-.185-.421-.374-.629-.565l-.566-.619-.141-.155-.128-.166-.256-.333c-.084-.112-.174-.22-.252-.336l-.228-.354a11.056,11.056,0,0,1-1.71-6.384,8.478,8.478,0,0,1,.215-1.659,14.775,14.775,0,0,1,.46-1.581,7.714,7.714,0,0,1,1.645-2.814,8.959,8.959,0,0,0-1.227,2.941,14.953,14.953,0,0,0-.3,1.562,8.733,8.733,0,0,0-.094,1.558,11.6,11.6,0,0,0,.482,3.079A10.728,10.728,0,0,0,19.3,31.34l.206.329c.07.109.153.209.23.313l.233.311.117.156.129.145.519.583.564.529A10.408,10.408,0,0,0,23.9,35.382a12.565,12.565,0,0,0,3.021.9,15.034,15.034,0,0,0,3.2.219"
                  transform="translate(-13.074 -15.064)" fill="#ffbc00"/>
            <path id="Pfad_5421" data-name="Pfad 5421"
                  d="M44.258,2.624a6.013,6.013,0,0,0-.4,1.415c-.052.239-.067.485-.1.726-.017.244-.033.487-.045.73a12.979,12.979,0,0,0,.257,2.9,20.836,20.836,0,0,0,1.949,5.472,14.262,14.262,0,0,0,.706,1.266l.381.615.417.589A14.7,14.7,0,0,0,49.3,18.513a13.273,13.273,0,0,0,2.265,1.746,11.084,11.084,0,0,0,1.26.665c.218.091.436.186.657.263.11.041.221.08.331.113s.228.067.318.089l-.487.453c-.119-1.069-.309-2.154-.512-3.224s-.459-2.135-.736-3.193-.626-2.094-1.006-3.12a23.526,23.526,0,0,0-1.4-2.976A18.2,18.2,0,0,1,51.7,12.173a29.419,29.419,0,0,1,1.241,3.089c.353,1.053.644,2.125.906,3.2s.463,2.167.623,3.282l.082.57-.569-.117c-.151-.031-.27-.061-.4-.1s-.251-.074-.374-.116c-.249-.077-.484-.18-.723-.277a11.965,11.965,0,0,1-1.365-.7c-.219-.133-.44-.26-.646-.411s-.427-.281-.622-.446l-.6-.477-.56-.519a16.706,16.706,0,0,1-3.483-4.937,20.757,20.757,0,0,1-1.1-2.8c-.086-.236-.142-.482-.209-.724s-.132-.484-.191-.729c-.089-.5-.207-.984-.254-1.486a14.228,14.228,0,0,1-.119-1.5l.013-.753c.013-.251.039-.5.059-.75s.071-.5.113-.743c.059-.244.1-.491.175-.729a5.7,5.7,0,0,1,.565-1.377"
                  transform="translate(-33.681 -2.039)" fill="#ffbc00"/>
            <path id="Pfad_5422" data-name="Pfad 5422"
                  d="M20.184,26.67a13.71,13.71,0,0,1,1.363-2.613,16.457,16.457,0,0,1,6.692-5.791,11.935,11.935,0,0,1,2.867-.953,16.406,16.406,0,0,1,2.986-.321,24.262,24.262,0,0,1,2.981.131,24.907,24.907,0,0,1,2.942.505l.442.105-.179.406a6.121,6.121,0,0,1-.334.637c-.118.2-.241.4-.37.588-.256.384-.534.75-.823,1.1a16.869,16.869,0,0,1-1.9,1.96,19.675,19.675,0,0,1-2.159,1.649,21.481,21.481,0,0,1-2.345,1.342c.752-.492,1.482-1.014,2.179-1.571a22.385,22.385,0,0,0,1.992-1.774,18.763,18.763,0,0,0,1.732-2c.262-.352.511-.714.737-1.087a9.037,9.037,0,0,0,.593-1.131l.263.511a27.154,27.154,0,0,0-5.723-.492,18.263,18.263,0,0,0-2.838.294,12.512,12.512,0,0,0-2.7.845,17.431,17.431,0,0,0-4.785,3.126,18.032,18.032,0,0,0-3.607,4.531"
                  transform="translate(-15.688 -13.204)" fill="#0061ad"/>
            <path id="Pfad_5423" data-name="Pfad 5423" d="M47.092,83.511l1.185.84h1.185l-.593-.84Z"
                  transform="translate(-36.602 -64.908)" fill="#ffbc00"/>
            <path id="Pfad_5424" data-name="Pfad 5424" d="M99.349,36.9l-.36,2.357,1.784,1.7.847-2.028-.847-3.559Z"
                  transform="translate(-76.938 -27.491)" fill="#0061ad"/>
            <path id="Pfad_5425" data-name="Pfad 5425" d="M60.472,81.47l1.075,1.952,2.485-.4-1.408-.584-.538-1.389Z"
                  transform="translate(-47.001 -62.992)" fill="#ffbc00"/>
            <path id="Pfad_5426" data-name="Pfad 5426" d="M70.074,0V1.8h2.752Z" transform="translate(-54.464 0)"
                  fill="#0061ad"/>
            <path id="Pfad_5427" data-name="Pfad 5427" d="M30.547,12.315l-1.254,1.574-.3,1.29.775-.988Z"
                  transform="translate(-22.538 -9.572)" fill="#ffbc00"/>
            <path id="Pfad_5428" data-name="Pfad 5428" d="M60.478,1.23H61.91l.206.628Z"
                  transform="translate(-47.006 -0.956)" fill="#0061ad"/>
            <path id="Pfad_5429" data-name="Pfad 5429"
                  d="M26.514,71.39l3.359-7.854L30.907,61.9l-1.365-1.664L25.2,60.2l-4.3.744.364-1.76,2.513-1.8,1.451-.753,2-3.016-.44-2.056.243-.914,1.747.114.372-1.3h.368l-.191-1.129.162-1.348-1.007-1.264-1.871-.1-.634.419a7.207,7.207,0,0,1-.441,3.461l-.289.849-.863.036-1.6-.611-1.467.688-3.4.043-1.711.7-2.535-.643-2.921.1-.658-.914-2.3-.1-.027,1.582,1.474.906,1.2-.166,3.409,1.15,2.332-.045,2.386.545.572.008-1.72,2.351-1.241,3.375,0,.009-.005-.019-1.191.77L13.9,62.1l-.147,1.677-2.6,4.669-.1,2.07-.55-1.479-8.068.545-.667-.617-.962.228v.662L1,70.306,0,72.613l.289.523,1.778.1.378-.914-.815-.074.815-1.237,7.506,1.706.84.37h2.124l2.914-3.63,1.855-3.684,3.606-.613,3.528-.473,2.824-1.473-2.031,1.691-.293,6.613-.542,1.074.542.586,1.112-.149,1.509.208h2.058V72.7l-1.056-.2Z"
                  transform="translate(0 -35.458)" fill="#fff"/>
            <path id="Pfad_5430" data-name="Pfad 5430"
                  d="M80.825,0a8.444,8.444,0,0,1,2.242.631,9.919,9.919,0,0,1,2.042,1.178,9.819,9.819,0,0,1,.917.759,11.631,11.631,0,0,1,.813.876,10.067,10.067,0,0,1,1.3,2.008c.091.178.16.364.24.546s.164.362.224.552a11.118,11.118,0,0,1,.341,1.143,10.1,10.1,0,0,1,.3,2.357,9.29,9.29,0,0,1-1.058,4.53,12.878,12.878,0,0,0,.363-4.493,11.489,11.489,0,0,0-.421-2.178c-.09-.358-.229-.7-.35-1.051-.058-.175-.144-.341-.214-.511s-.142-.342-.227-.505l-.257-.487-.128-.244L86.8,4.877l-.294-.466c-.1-.151-.221-.293-.328-.443a10.858,10.858,0,0,0-.706-.85c-.268-.254-.515-.532-.8-.77a12.287,12.287,0,0,0-1.806-1.33A12.683,12.683,0,0,0,80.825,0"
                  transform="translate(-62.82)" fill="#0061ad"/>
            <path id="Pfad_5431" data-name="Pfad 5431"
                  d="M170.87,153.058a2.09,2.09,0,0,1-.359,1.288,1.147,1.147,0,0,1-.966.476,1.248,1.248,0,0,1-1.1-.539l-.016.475h-.359V149.83h.382v1.96a1.207,1.207,0,0,1,1.084-.568,1.158,1.158,0,0,1,.974.47A2.115,2.115,0,0,1,170.87,153Zm-.385-.067a1.81,1.81,0,0,0-.266-1.06.869.869,0,0,0-.751-.374,1.057,1.057,0,0,0-.626.181,1.1,1.1,0,0,0-.388.531v1.566a1.029,1.029,0,0,0,1.02.654.861.861,0,0,0,.743-.376,1.931,1.931,0,0,0,.268-1.123"
                  transform="translate(-130.632 -116.453)" fill="#fff"/>
            <path id="Pfad_5432" data-name="Pfad 5432"
                  d="M185.039,159.68a1.508,1.508,0,0,1-.8-.218,1.487,1.487,0,0,1-.557-.608,1.9,1.9,0,0,1-.2-.874v-.138a2.04,2.04,0,0,1,.194-.9,1.545,1.545,0,0,1,.541-.63,1.333,1.333,0,0,1,.751-.229,1.254,1.254,0,0,1,1,.431,1.751,1.751,0,0,1,.371,1.179v.215h-2.477v.074a1.452,1.452,0,0,0,.339.983,1.077,1.077,0,0,0,.852.393,1.247,1.247,0,0,0,.544-.112,1.2,1.2,0,0,0,.428-.359l.241.183a1.4,1.4,0,0,1-1.229.613m-.071-3.273a.96.96,0,0,0-.73.318,1.467,1.467,0,0,0-.361.854h2.082v-.042a1.276,1.276,0,0,0-.286-.815.885.885,0,0,0-.706-.315"
                  transform="translate(-142.61 -121.311)" fill="#fff"/>
            <path id="Pfad_5433" data-name="Pfad 5433"
                  d="M201.136,158.734a.547.547,0,0,0-.229-.459,1.767,1.767,0,0,0-.691-.271,3.117,3.117,0,0,1-.717-.225.953.953,0,0,1-.379-.31.772.772,0,0,1-.123-.442.826.826,0,0,1,.343-.679,1.386,1.386,0,0,1,.879-.268,1.428,1.428,0,0,1,.932.287.922.922,0,0,1,.351.749h-.385a.623.623,0,0,0-.255-.507,1.151,1.151,0,0,0-1.251-.033.519.519,0,0,0-.229.438.473.473,0,0,0,.191.4,2.017,2.017,0,0,0,.7.262,3.283,3.283,0,0,1,.757.253.981.981,0,0,1,.374.324.891.891,0,0,1-.233,1.161,1.514,1.514,0,0,1-.926.263,1.556,1.556,0,0,1-.984-.294.9.9,0,0,1-.377-.743h.385a.668.668,0,0,0,.284.524,1.161,1.161,0,0,0,.692.188,1.091,1.091,0,0,0,.648-.176.53.53,0,0,0,.247-.446"
                  transform="translate(-154.577 -121.311)" fill="#fff"/>
            <path id="Pfad_5434" data-name="Pfad 5434"
                  d="M213.717,152.379v.889h.719v.315h-.719V155.9a.725.725,0,0,0,.1.43.4.4,0,0,0,.348.141,2.392,2.392,0,0,0,.311-.032l.016.312a1.256,1.256,0,0,1-.411.054.685.685,0,0,1-.574-.229,1.08,1.08,0,0,1-.18-.675v-2.317h-.638v-.315h.638v-.889Z"
                  transform="translate(-165.313 -118.434)" fill="#fff"/>
            <path id="Pfad_5435" data-name="Pfad 5435"
                  d="M231.541,156.144l.013.565a1.286,1.286,0,0,1,.481-.472,1.321,1.321,0,0,1,.642-.157.974.974,0,0,1,1.043.674,1.3,1.3,0,0,1,.5-.5,1.378,1.378,0,0,1,.687-.175q1.117,0,1.139,1.219v2.317h-.385v-2.288a1.035,1.035,0,0,0-.2-.69.816.816,0,0,0-.643-.225,1.024,1.024,0,0,0-.7.268.948.948,0,0,0-.318.637v2.3h-.385V157.3a.952.952,0,0,0-.21-.666.836.836,0,0,0-.637-.22.968.968,0,0,0-.623.207,1.215,1.215,0,0,0-.385.614v2.381h-.385v-3.472Z"
                  transform="translate(-179.675 -121.311)" fill="#fff"/>
            <path id="Pfad_5436" data-name="Pfad 5436"
                  d="M256.45,157.828a2.043,2.043,0,0,1,.194-.9A1.458,1.458,0,0,1,258,156.08a1.429,1.429,0,0,1,1.123.486,1.874,1.874,0,0,1,.43,1.288v.08a2.057,2.057,0,0,1-.194.906,1.45,1.45,0,0,1-.547.621,1.5,1.5,0,0,1-.805.218,1.429,1.429,0,0,1-1.121-.486,1.868,1.868,0,0,1-.432-1.288Zm.385.106a1.575,1.575,0,0,0,.323,1.022,1.091,1.091,0,0,0,1.688,0,1.629,1.629,0,0,0,.322-1.054v-.074a1.768,1.768,0,0,0-.147-.728,1.188,1.188,0,0,0-.414-.512,1.059,1.059,0,0,0-.61-.181,1.026,1.026,0,0,0-.837.4,1.629,1.629,0,0,0-.324,1.054Z"
                  transform="translate(-199.322 -121.311)" fill="#fff"/>
            <path id="Pfad_5437" data-name="Pfad 5437"
                  d="M273.229,152.99a2.093,2.093,0,0,1,.361-1.288,1.162,1.162,0,0,1,.98-.48,1.207,1.207,0,0,1,1.072.555v-1.948h.382v4.928h-.359l-.016-.462a1.24,1.24,0,0,1-1.084.526,1.157,1.157,0,0,1-.967-.483,2.1,2.1,0,0,1-.368-1.3Zm.388.067a1.811,1.811,0,0,0,.266,1.048.862.862,0,0,0,.751.383,1.034,1.034,0,0,0,1.007-.626v-1.63a1.026,1.026,0,0,0-1-.677.871.871,0,0,0-.754.38,1.934,1.934,0,0,0-.27,1.121"
                  transform="translate(-212.363 -116.452)" fill="#fff"/>
            <path id="Pfad_5438" data-name="Pfad 5438"
                  d="M290.21,150.966a.258.258,0,0,1,.071-.183.252.252,0,0,1,.193-.075.257.257,0,0,1,.194.075.255.255,0,0,1,.072.183.249.249,0,0,1-.072.182.261.261,0,0,1-.194.074.255.255,0,0,1-.193-.074.252.252,0,0,1-.071-.182m.452,4.474h-.385v-3.472h.385Z"
                  transform="translate(-225.562 -117.136)" fill="#fff"/>
            <path id="Pfad_5439" data-name="Pfad 5439"
                  d="M296.157,154.522v-3.157h-.574v-.314h.574v-.42a1.142,1.142,0,0,1,.271-.818.992.992,0,0,1,.756-.286,1.475,1.475,0,0,1,.407.054l-.029.318a1.49,1.49,0,0,0-.35-.039.627.627,0,0,0-.494.2.815.815,0,0,0-.177.561v.431h.828v.314h-.828v3.157Z"
                  transform="translate(-229.738 -116.217)" fill="#fff"/>
            <path id="Pfad_5440" data-name="Pfad 5440"
                  d="M306.587,150.966a.257.257,0,0,1,.071-.183.252.252,0,0,1,.192-.075.252.252,0,0,1,.266.258.249.249,0,0,1-.072.182.261.261,0,0,1-.194.074.255.255,0,0,1-.192-.074.251.251,0,0,1-.071-.182m.452,4.474h-.385v-3.472h.385Z"
                  transform="translate(-238.29 -117.136)" fill="#fff"/>
            <path id="Pfad_5441" data-name="Pfad 5441"
                  d="M313.888,159.356a1.013,1.013,0,0,0,.672-.226.8.8,0,0,0,.294-.586h.369a1.087,1.087,0,0,1-.2.579,1.248,1.248,0,0,1-.486.409,1.468,1.468,0,0,1-.65.147,1.341,1.341,0,0,1-1.083-.475,1.918,1.918,0,0,1-.4-1.277v-.115a2.171,2.171,0,0,1,.18-.908,1.386,1.386,0,0,1,.515-.609,1.422,1.422,0,0,1,.785-.215,1.339,1.339,0,0,1,.942.34,1.24,1.24,0,0,1,.4.9h-.369a.929.929,0,0,0-.969-.908.956.956,0,0,0-.807.376,1.7,1.7,0,0,0-.287,1.052v.112a1.66,1.66,0,0,0,.287,1.036.963.963,0,0,0,.81.372"
                  transform="translate(-242.813 -121.311)" fill="#fff"/>
            <path id="Pfad_5442" data-name="Pfad 5442"
                  d="M330.059,159.616a1.813,1.813,0,0,1-.074-.485,1.34,1.34,0,0,1-.515.406,1.577,1.577,0,0,1-.663.143,1.163,1.163,0,0,1-.81-.279.909.909,0,0,1-.31-.706.93.93,0,0,1,.422-.8,2.029,2.029,0,0,1,1.176-.3h.7V157.2a.761.761,0,0,0-.229-.586.949.949,0,0,0-.669-.213,1.047,1.047,0,0,0-.664.205.61.61,0,0,0-.263.494l-.385,0a.892.892,0,0,1,.385-.717,1.481,1.481,0,0,1,.946-.3,1.353,1.353,0,0,1,.916.29,1.042,1.042,0,0,1,.345.81v1.643a2.042,2.042,0,0,0,.106.754v.039Zm-1.206-.276a1.288,1.288,0,0,0,.688-.186,1.1,1.1,0,0,0,.441-.5v-.764H329.3a1.721,1.721,0,0,0-.9.21.631.631,0,0,0-.324.56.621.621,0,0,0,.217.485.816.816,0,0,0,.563.192"
                  transform="translate(-254.691 -121.311)" fill="#fff"/>
            <path id="Pfad_5443" data-name="Pfad 5443"
                  d="M343.4,152.379v.889h.719v.315H343.4V155.9a.725.725,0,0,0,.1.43.4.4,0,0,0,.348.141,2.4,2.4,0,0,0,.311-.032l.016.312a1.254,1.254,0,0,1-.411.054.685.685,0,0,1-.574-.229,1.08,1.08,0,0,1-.18-.675v-2.317h-.639v-.315h.639v-.889Z"
                  transform="translate(-266.108 -118.434)" fill="#fff"/>
            <path id="Pfad_5444" data-name="Pfad 5444"
                  d="M353.671,150.966a.258.258,0,0,1,.07-.183.252.252,0,0,1,.192-.075.252.252,0,0,1,.266.258.249.249,0,0,1-.072.182.261.261,0,0,1-.194.074.255.255,0,0,1-.192-.074.252.252,0,0,1-.07-.182m.452,4.474h-.385v-3.472h.385Z"
                  transform="translate(-274.886 -117.136)" fill="#fff"/>
            <path id="Pfad_5445" data-name="Pfad 5445"
                  d="M359.432,157.828a2.042,2.042,0,0,1,.194-.9,1.458,1.458,0,0,1,1.352-.847,1.429,1.429,0,0,1,1.123.486,1.874,1.874,0,0,1,.43,1.288v.08a2.057,2.057,0,0,1-.194.906,1.45,1.45,0,0,1-.547.621,1.5,1.5,0,0,1-.805.218,1.429,1.429,0,0,1-1.121-.486,1.868,1.868,0,0,1-.431-1.288Zm.385.106a1.575,1.575,0,0,0,.323,1.022,1.091,1.091,0,0,0,1.688,0,1.629,1.629,0,0,0,.322-1.054v-.074A1.765,1.765,0,0,0,362,157.1a1.186,1.186,0,0,0-.414-.512,1.059,1.059,0,0,0-.61-.181,1.026,1.026,0,0,0-.838.4,1.63,1.63,0,0,0-.324,1.054Z"
                  transform="translate(-279.363 -121.311)" fill="#fff"/>
            <path id="Pfad_5446" data-name="Pfad 5446"
                  d="M377.268,156.144l.013.593a1.376,1.376,0,0,1,.488-.489,1.267,1.267,0,0,1,.645-.168,1.042,1.042,0,0,1,.831.314,1.42,1.42,0,0,1,.276.943v2.278h-.382v-2.281a1.059,1.059,0,0,0-.2-.693.773.773,0,0,0-.621-.228.971.971,0,0,0-.63.223,1.307,1.307,0,0,0-.406.6v2.378H376.9v-3.472Z"
                  transform="translate(-292.942 -121.311)" fill="#fff"/>
            <path id="Pfad_5447" data-name="Pfad 5447"
                  d="M401.742,158.734a.547.547,0,0,0-.229-.459,1.769,1.769,0,0,0-.691-.271,3.116,3.116,0,0,1-.717-.225.953.953,0,0,1-.379-.31.773.773,0,0,1-.123-.442.826.826,0,0,1,.343-.679,1.386,1.386,0,0,1,.879-.268,1.428,1.428,0,0,1,.932.287.922.922,0,0,1,.351.749h-.385a.622.622,0,0,0-.255-.507,1.151,1.151,0,0,0-1.251-.033.519.519,0,0,0-.229.438.473.473,0,0,0,.191.4,2.019,2.019,0,0,0,.7.262,3.286,3.286,0,0,1,.757.253.981.981,0,0,1,.374.324.891.891,0,0,1-.233,1.161,1.514,1.514,0,0,1-.926.263,1.556,1.556,0,0,1-.984-.294.9.9,0,0,1-.377-.743h.385a.668.668,0,0,0,.284.524,1.161,1.161,0,0,0,.692.188,1.091,1.091,0,0,0,.648-.176.53.53,0,0,0,.247-.446"
                  transform="translate(-310.496 -121.311)" fill="#fff"/>
            <path id="Pfad_5448" data-name="Pfad 5448"
                  d="M414.926,159.288l1.014-2.92h.414l-1.482,4.062-.077.18a.933.933,0,0,1-.882.632,1.071,1.071,0,0,1-.3-.045l0-.317.2.019a.712.712,0,0,0,.457-.139,1.061,1.061,0,0,0,.3-.48l.17-.469-1.309-3.443h.42Z"
                  transform="translate(-321.331 -121.535)" fill="#fff"/>
            <path id="Pfad_5449" data-name="Pfad 5449"
                  d="M430.693,158.734a.547.547,0,0,0-.229-.459,1.769,1.769,0,0,0-.691-.271,3.116,3.116,0,0,1-.717-.225.953.953,0,0,1-.379-.31.773.773,0,0,1-.123-.442.826.826,0,0,1,.343-.679,1.386,1.386,0,0,1,.879-.268,1.428,1.428,0,0,1,.932.287.922.922,0,0,1,.351.749h-.385a.622.622,0,0,0-.255-.507,1.151,1.151,0,0,0-1.251-.033.519.519,0,0,0-.229.438.473.473,0,0,0,.191.4,2.018,2.018,0,0,0,.7.262,3.286,3.286,0,0,1,.757.253.982.982,0,0,1,.374.324.891.891,0,0,1-.233,1.161,1.514,1.514,0,0,1-.926.263,1.556,1.556,0,0,1-.983-.294.9.9,0,0,1-.377-.743h.385a.668.668,0,0,0,.284.524,1.161,1.161,0,0,0,.692.188,1.091,1.091,0,0,0,.648-.176.53.53,0,0,0,.247-.446"
                  transform="translate(-332.997 -121.311)" fill="#fff"/>
            <path id="Pfad_5450" data-name="Pfad 5450"
                  d="M443.273,152.379v.889h.719v.315h-.719V155.9a.725.725,0,0,0,.1.43.4.4,0,0,0,.348.141,2.4,2.4,0,0,0,.311-.032l.016.312a1.254,1.254,0,0,1-.411.054.685.685,0,0,1-.575-.229,1.08,1.08,0,0,1-.18-.675v-2.317h-.639v-.315h.639v-.889Z"
                  transform="translate(-343.732 -118.434)" fill="#fff"/>
            <path id="Pfad_5451" data-name="Pfad 5451"
                  d="M454.248,159.68a1.506,1.506,0,0,1-.8-.218,1.487,1.487,0,0,1-.557-.608,1.894,1.894,0,0,1-.2-.874v-.138a2.04,2.04,0,0,1,.194-.9,1.543,1.543,0,0,1,.54-.63,1.333,1.333,0,0,1,.751-.229,1.253,1.253,0,0,1,1,.431,1.75,1.75,0,0,1,.371,1.179v.215h-2.477v.074a1.452,1.452,0,0,0,.339.983,1.076,1.076,0,0,0,.852.393,1.249,1.249,0,0,0,.544-.112,1.2,1.2,0,0,0,.428-.359l.241.183a1.4,1.4,0,0,1-1.229.613m-.07-3.273a.96.96,0,0,0-.73.318,1.467,1.467,0,0,0-.361.854h2.082v-.042a1.274,1.274,0,0,0-.285-.815.886.886,0,0,0-.706-.315"
                  transform="translate(-351.848 -121.311)" fill="#fff"/>
            <path id="Pfad_5452" data-name="Pfad 5452"
                  d="M469.163,156.144l.013.565a1.286,1.286,0,0,1,.481-.472,1.321,1.321,0,0,1,.642-.157.974.974,0,0,1,1.043.674,1.306,1.306,0,0,1,.5-.5,1.379,1.379,0,0,1,.687-.175q1.117,0,1.139,1.219v2.317h-.385v-2.288a1.035,1.035,0,0,0-.2-.69.816.816,0,0,0-.643-.225,1.025,1.025,0,0,0-.7.268.946.946,0,0,0-.317.637v2.3h-.385V157.3a.951.951,0,0,0-.21-.666.836.836,0,0,0-.637-.22.968.968,0,0,0-.622.207,1.213,1.213,0,0,0-.385.614v2.381h-.385v-3.472Z"
                  transform="translate(-364.364 -121.311)" fill="#fff"/>
            <path id="Pfad_5453" data-name="Pfad 5453"
                  d="M496.485,158.734a.547.547,0,0,0-.229-.459,1.768,1.768,0,0,0-.691-.271,3.115,3.115,0,0,1-.717-.225.953.953,0,0,1-.379-.31.772.772,0,0,1-.123-.442.826.826,0,0,1,.343-.679,1.386,1.386,0,0,1,.879-.268,1.428,1.428,0,0,1,.932.287.922.922,0,0,1,.351.749h-.385a.622.622,0,0,0-.255-.507,1.151,1.151,0,0,0-1.251-.033.519.519,0,0,0-.229.438.473.473,0,0,0,.191.4,2.018,2.018,0,0,0,.7.262,3.282,3.282,0,0,1,.757.253.981.981,0,0,1,.374.324.891.891,0,0,1-.233,1.161,1.514,1.514,0,0,1-.926.263,1.555,1.555,0,0,1-.983-.294.9.9,0,0,1-.377-.743h.385a.668.668,0,0,0,.284.524,1.161,1.161,0,0,0,.692.188,1.091,1.091,0,0,0,.648-.176.53.53,0,0,0,.247-.446"
                  transform="translate(-384.133 -121.311)" fill="#fff"/>
            <path id="Pfad_5454" data-name="Pfad 5454"
                  d="M185.409,20.388a13.206,13.206,0,0,1-2.27,8.137,7.249,7.249,0,0,1-6.1,3.01,7.88,7.88,0,0,1-6.931-3.4l-.1,3h-2.27V0h2.412V12.383A7.623,7.623,0,0,1,177,8.8a7.316,7.316,0,0,1,6.151,2.969q2.259,2.969,2.26,8.259Zm-2.432-.425a11.425,11.425,0,0,0-1.682-6.7,5.484,5.484,0,0,0-4.742-2.361,6.674,6.674,0,0,0-3.952,1.145,6.962,6.962,0,0,0-2.452,3.354v9.89a6.5,6.5,0,0,0,6.445,4.135,5.443,5.443,0,0,0,4.692-2.372q1.692-2.37,1.692-7.093"
                  transform="translate(-130.371)" fill="#fff"/>
            <path id="Pfad_5455" data-name="Pfad 5455"
                  d="M272.873,39.889l.081,3.567a8.124,8.124,0,0,1,3.04-2.979,8.343,8.343,0,0,1,4.053-.993q5.188,0,6.587,4.256a8.231,8.231,0,0,1,3.141-3.151,8.7,8.7,0,0,1,4.337-1.1q7.053,0,7.195,7.7V61.818h-2.432V47.368a6.537,6.537,0,0,0-1.267-4.357,5.157,5.157,0,0,0-4.063-1.419,6.459,6.459,0,0,0-4.418,1.692,5.981,5.981,0,0,0-2.006,4.023V61.818h-2.432V47.185a6.008,6.008,0,0,0-1.327-4.205,5.284,5.284,0,0,0-4.023-1.388,6.116,6.116,0,0,0-3.932,1.307,7.664,7.664,0,0,0-2.432,3.881V61.818h-2.432V39.889Z"
                  transform="translate(-210.275 -30.688)" fill="#fff"/>
            <path id="Pfad_5456" data-name="Pfad 5456"
                  d="M445.456,56.245a3.456,3.456,0,0,0-1.449-2.9,11.187,11.187,0,0,0-4.368-1.713,19.7,19.7,0,0,1-4.53-1.419,6.031,6.031,0,0,1-2.391-1.956,4.878,4.878,0,0,1-.78-2.8,5.218,5.218,0,0,1,2.168-4.287,8.763,8.763,0,0,1,5.553-1.692,9.019,9.019,0,0,1,5.888,1.814,5.823,5.823,0,0,1,2.219,4.733h-2.432a3.929,3.929,0,0,0-1.611-3.2,7.273,7.273,0,0,0-7.9-.213,3.283,3.283,0,0,0-1.449,2.767,2.99,2.99,0,0,0,1.206,2.543,12.746,12.746,0,0,0,4.4,1.652,20.682,20.682,0,0,1,4.783,1.6,6.2,6.2,0,0,1,2.361,2.047,5.629,5.629,0,0,1-1.469,7.337,9.566,9.566,0,0,1-5.847,1.662,9.822,9.822,0,0,1-6.212-1.854,5.707,5.707,0,0,1-2.381-4.691h2.432a4.217,4.217,0,0,0,1.793,3.313,7.333,7.333,0,0,0,4.368,1.185,6.89,6.89,0,0,0,4.094-1.114,3.345,3.345,0,0,0,1.56-2.817"
                  transform="translate(-335.151 -30.688)" fill="#fff"/>
            <path id="Pfad_5457" data-name="Pfad 5457"
                  d="M512.994,8.575a3.755,3.755,0,1,1-3.743-3.654,3.671,3.671,0,0,1,3.743,3.654m-6.572,0a2.831,2.831,0,0,0,2.852,2.918,2.8,2.8,0,0,0,2.785-2.9,2.82,2.82,0,1,0-5.636-.022m2.25,1.916h-.846V6.837a7.417,7.417,0,0,1,1.4-.111,2.275,2.275,0,0,1,1.27.268,1.013,1.013,0,0,1,.356.8.936.936,0,0,1-.757.847v.045a1.079,1.079,0,0,1,.668.891,2.791,2.791,0,0,0,.267.914h-.914a3.133,3.133,0,0,1-.289-.891c-.067-.4-.29-.579-.758-.579h-.4Zm.022-2.072h.4c.468,0,.847-.156.847-.535,0-.334-.245-.557-.78-.557a2.03,2.03,0,0,0-.468.045Z"
                  transform="translate(-392.882 -3.825)" fill="#fff"/>
        </g>
    </g>
</svg>
