<svg width="377" height="65" viewBox="0 0 377 65" fill="none" xmlns="http://www.w3.org/2000/svg">
    <g clip-path="url(#clip0_2_151)">
        <path d="M43.371 24.989V41.167H35.319V1.89899H59.246V9.18999H43.371V17.849H59.321V24.989H43.371Z"
              fill="#15202D"/>
        <path d="M75.952 24.989V41.167H67.9V1.89899H91.829V9.18999H75.952V17.849H91.902V24.989H75.952Z" fill="#15202D"/>
        <path d="M108.609 1.89899H100.482V41.167H108.609V1.89899Z" fill="#15202D"/>
        <path d="M138.76 41.698C126.53 41.698 116.581 32.583 116.581 21.498C116.581 10.485 126.53 1.29799 138.76 1.36999C144.836 1.36999 150.46 3.72499 157.976 10.333L152.052 15.65C146.431 10.712 142.861 8.88999 138.76 8.88999C131.24 8.88999 124.936 14.59 124.936 21.498C124.936 28.486 131.236 34.182 138.76 34.182C142.86 34.182 146.279 32.435 152.128 27.27L158.052 32.663C150.304 39.498 144.912 41.701 138.76 41.701"
              fill="#15202D"/>
        <path d="M172.481 1.89999H164.354V41.168H172.481V1.89999Z" fill="#15202D"/>
        <path d="M225.643 16.33C225.643 16.33 225.719 18.761 225.719 19.444V41.167H217.592V0L248.886 26.584C248.886 26.584 248.81 24.684 248.81 24.078V1.9H256.861V42.838L225.643 16.33Z"
              fill="#15202D"/>
        <path d="M285.339 9.26699V41.167H277.367V9.26699H263.009L262.933 1.89899H299.694V9.26699H285.339Z"
              fill="#15202D"/>
        <path d="M354.746 41.697C342.446 41.697 332.567 32.583 332.567 21.497C332.567 10.485 342.516 1.37 354.746 1.37C367.126 1.37 377.001 10.485 377.001 21.57C377.001 32.583 367.126 41.697 354.746 41.697ZM354.746 8.885C347.146 8.885 340.922 14.585 340.922 21.493C340.922 28.481 347.15 34.178 354.746 34.178C362.494 34.178 368.646 28.478 368.646 21.569C368.646 14.581 362.494 8.885 354.746 8.885"
              fill="#03E0B6"/>
        <path d="M8.58701 9.26699H25.374V1.89899H0.536011L8.58701 9.26699Z" fill="#15202D"/>
        <path d="M25.449 24.989V18.001H14.183H0.536011V41.167H25.449V33.8H8.58801V24.989H25.449Z" fill="#15202D"/>
        <path d="M190.791 9.26699H207.578V1.89899H182.74L190.791 9.26699Z" fill="#15202D"/>
        <path d="M207.653 24.989V18.001H196.387H182.74V41.167H207.653V33.8H190.791V24.989H207.653Z" fill="#15202D"/>
        <path d="M324.442 22.815V1.89899H316.314V14.016L324.442 22.815Z" fill="#03E0B6"/>
        <path d="M324.447 28.095V41.288H316.313V19.288L324.447 28.095Z" fill="#15202D"/>
        <path d="M1.158 53.239H0V64.27H1.158V53.239Z" fill="#15202D"/>
        <path d="M20.641 64.444L15.241 58.305C14.341 57.285 13.321 56.057 12.561 55.124L12.526 55.142C12.561 56.162 12.561 57.182 12.561 58.184V64.268H11.407V53.24H12.219L17.338 59.084C18.082 59.931 19.102 61.125 19.827 62.042L19.862 62.024C19.827 61.039 19.827 60.054 19.827 59.124V53.24H20.985V64.44L20.641 64.444Z"
              fill="#15202D"/>
        <path d="M34.933 54.242V64.268H33.775V54.242H29.988V53.242H38.737V54.242H34.933Z" fill="#15202D"/>
        <path d="M47.738 64.268V53.24H53.496V54.24H48.896V58.218H52.666V59.218H48.896V63.268H54.102V64.268H47.738Z"
              fill="#15202D"/>
        <path d="M63.104 64.268V53.24H64.262V63.268H69.398V64.268H63.104Z" fill="#15202D"/>
        <path d="M78.401 64.268V53.24H79.559V63.268H84.695V64.268H78.401Z" fill="#15202D"/>
        <path d="M95.028 53.239H93.87V64.27H95.028V53.239Z" fill="#15202D"/>
        <path d="M110.723 64.458C109.958 64.487 109.196 64.3621 108.481 64.0907C107.765 63.8193 107.112 63.4069 106.559 62.878C106.007 62.3491 105.566 61.7145 105.263 61.012C104.96 60.3094 104.802 59.5531 104.797 58.7881C104.793 58.0231 104.942 57.265 105.236 56.5588C105.53 55.8525 105.963 55.2126 106.509 54.6769C107.055 54.1413 107.704 53.7209 108.415 53.4408C109.127 53.1606 109.888 53.0263 110.653 53.046C111.867 53.0057 113.07 53.299 114.129 53.894L113.886 54.931C112.945 54.3714 111.869 54.0786 110.774 54.084C110.15 54.0724 109.531 54.1853 108.952 54.4161C108.372 54.647 107.845 54.9911 107.4 55.4284C106.956 55.8656 106.603 56.3872 106.362 56.9626C106.122 57.538 105.998 58.1556 106 58.7792C106.001 59.4028 106.126 60.0199 106.369 60.5944C106.612 61.1688 106.967 61.689 107.413 62.1246C107.859 62.5601 108.388 62.9023 108.968 63.1309C109.549 63.3595 110.168 63.47 110.792 63.456C111.793 63.4984 112.785 63.2456 113.644 62.729V59.858H110.722V58.908H114.748V63.268C113.579 64.1091 112.159 64.5295 110.72 64.461"
              fill="#15202D"/>
        <path d="M124.653 64.268V53.24H130.411V54.24H125.811V58.218H129.581V59.218H125.811V63.268H131.017V64.268H124.653Z"
              fill="#15202D"/>
        <path d="M149.253 64.444L143.853 58.305C142.953 57.285 141.933 56.057 141.173 55.124L141.138 55.142C141.173 56.162 141.173 57.182 141.173 58.184V64.268H140.015V53.24H140.827L145.946 59.084C146.69 59.931 147.71 61.125 148.435 62.042L148.47 62.024C148.435 61.039 148.435 60.054 148.435 59.124V53.24H149.593V64.44L149.253 64.444Z"
              fill="#15202D"/>
        <path d="M163.544 54.242V64.268H162.386V54.242H158.599V53.242H167.344V54.242H163.544Z" fill="#15202D"/>
        <path d="M196.438 54.899C195.558 54.4193 194.57 54.1696 193.568 54.173C192.348 54.173 191.178 54.6576 190.315 55.5203C189.453 56.383 188.968 57.553 188.968 58.773C188.968 59.993 189.453 61.163 190.315 62.0257C191.178 62.8884 192.348 63.373 193.568 63.373C194.593 63.4142 195.609 63.175 196.508 62.681L196.387 63.771C195.482 64.2238 194.475 64.4307 193.465 64.371C192.713 64.3934 191.964 64.2647 191.263 63.9924C190.561 63.7201 189.922 63.3097 189.382 62.7857C188.842 62.2617 188.413 61.6346 188.119 60.9416C187.826 60.2487 187.675 59.5039 187.675 58.7515C187.675 57.9991 187.826 57.2544 188.119 56.5614C188.413 55.8684 188.842 55.2413 189.382 54.7173C189.922 54.1933 190.561 53.7829 191.263 53.5106C191.964 53.2383 192.713 53.1096 193.465 53.132C194.581 53.1046 195.686 53.3544 196.681 53.859L196.438 54.899Z"
              fill="#15202D"/>
        <path d="M211.163 64.458C210.038 64.4446 208.942 64.0989 208.013 63.4644C207.083 62.8298 206.363 61.9348 205.941 60.8917C205.519 59.8487 205.414 58.7041 205.641 57.602C205.868 56.4999 206.415 55.4893 207.214 54.6974C208.014 53.9054 209.029 53.3674 210.133 53.151C211.237 52.9345 212.381 53.0493 213.42 53.4809C214.459 53.9125 215.348 54.6416 215.973 55.5766C216.599 56.5116 216.935 57.6108 216.938 58.736C216.945 59.4937 216.799 60.2451 216.511 60.9457C216.222 61.6464 215.796 62.2821 215.258 62.8155C214.72 63.3488 214.08 63.7689 213.377 64.051C212.673 64.3331 211.921 64.4715 211.163 64.458V64.458ZM211.163 54.084C210.233 54.0667 209.318 54.3269 208.536 54.8313C207.754 55.3357 207.139 56.0615 206.771 56.9163C206.403 57.771 206.298 58.716 206.469 59.6309C206.64 60.5457 207.079 61.389 207.731 62.0532C208.383 62.7174 209.218 63.1725 210.129 63.3606C211.041 63.5486 211.987 63.461 212.849 63.1089C213.711 62.7569 214.448 62.1563 214.967 61.3838C215.486 60.6112 215.763 59.7017 215.763 58.771C215.78 58.1583 215.673 57.5485 215.449 56.978C215.224 56.4076 214.888 55.8881 214.458 55.4507C214.029 55.0132 213.516 54.6668 212.95 54.432C212.384 54.1971 211.776 54.0788 211.163 54.084"
              fill="#15202D"/>
        <path d="M235.775 64.444L230.375 58.305C229.475 57.285 228.455 56.057 227.695 55.124L227.66 55.142C227.695 56.162 227.695 57.182 227.695 58.184V64.268H226.537V53.24H227.349L232.468 59.084C233.212 59.931 234.232 61.125 234.957 62.042L234.992 62.024C234.957 61.039 234.957 60.054 234.957 59.124V53.24H236.115V64.44L235.775 64.444Z"
              fill="#15202D"/>
        <path d="M255.43 64.444L250.03 58.305C249.13 57.285 248.11 56.057 247.35 55.124L247.315 55.142C247.35 56.162 247.35 57.182 247.35 58.184V64.268H246.197V53.24H247.009L252.128 59.084C252.872 59.931 253.892 61.125 254.617 62.042L254.652 62.024C254.617 61.039 254.617 60.054 254.617 59.124V53.24H255.775V64.44L255.43 64.444Z"
              fill="#15202D"/>
        <path d="M265.847 64.268V53.24H271.605V54.24H267.005V58.218H270.775V59.218H267.005V63.268H272.211V64.268H265.847Z"
              fill="#15202D"/>
        <path d="M289.493 54.899C288.613 54.4192 287.626 54.1695 286.623 54.173C285.403 54.173 284.233 54.6576 283.37 55.5203C282.508 56.383 282.023 57.553 282.023 58.773C282.023 59.993 282.508 61.163 283.37 62.0257C284.233 62.8884 285.403 63.373 286.623 63.373C287.648 63.4142 288.664 63.175 289.563 62.681L289.442 63.771C288.537 64.2238 287.53 64.4307 286.52 64.371C285.768 64.3934 285.019 64.2647 284.318 63.9924C283.616 63.7201 282.977 63.3097 282.437 62.7857C281.897 62.2617 281.468 61.6346 281.174 60.9416C280.881 60.2487 280.73 59.5039 280.73 58.7515C280.73 57.9991 280.881 57.2544 281.174 56.5614C281.468 55.8684 281.897 55.2413 282.437 54.7173C282.977 54.1933 283.616 53.7829 284.318 53.5106C285.019 53.2383 285.768 53.1096 286.52 53.132C287.636 53.1046 288.741 53.3544 289.736 53.859L289.493 54.899Z"
              fill="#15202D"/>
        <path d="M303.165 54.242V64.268H302.007V54.242H298.22V53.242H306.969V54.242H303.165Z" fill="#15202D"/>
        <path d="M317.303 53.239H316.145V64.27H317.303V53.239Z" fill="#15202D"/>
        <path d="M332.861 64.458C331.736 64.4446 330.64 64.099 329.711 63.4646C328.782 62.8302 328.062 61.9354 327.64 60.8926C327.218 59.8498 327.113 58.7055 327.34 57.6036C327.566 56.5017 328.114 55.4913 328.913 54.6994C329.712 53.9076 330.727 53.3696 331.831 53.1531C332.935 52.9366 334.078 53.0512 335.117 53.4825C336.156 53.9139 337.044 54.6427 337.67 55.5775C338.296 56.5122 338.632 57.6111 338.635 58.736C338.641 59.4936 338.496 60.2448 338.207 60.9453C337.919 61.6459 337.493 62.2815 336.955 62.8148C336.417 63.3481 335.777 63.7682 335.074 64.0505C334.371 64.3327 333.619 64.4712 332.861 64.458V64.458ZM332.861 54.084C331.93 54.0667 331.016 54.3269 330.234 54.8313C329.452 55.3357 328.837 56.0615 328.469 56.9163C328.101 57.771 327.996 58.716 328.167 59.6309C328.338 60.5457 328.777 61.389 329.429 62.0532C330.081 62.7174 330.916 63.1725 331.827 63.3606C332.739 63.5486 333.685 63.461 334.547 63.1089C335.408 62.7569 336.146 62.1563 336.665 61.3838C337.184 60.6112 337.461 59.7017 337.461 58.771C337.478 58.1583 337.371 57.5485 337.147 56.978C336.922 56.4076 336.586 55.8881 336.156 55.4507C335.727 55.0132 335.214 54.6668 334.648 54.4319C334.082 54.1971 333.474 54.0788 332.861 54.084"
              fill="#15202D"/>
        <path d="M357.475 64.444L352.075 58.305C351.175 57.285 350.155 56.057 349.395 55.124L349.36 55.142C349.395 56.162 349.395 57.182 349.395 58.184V64.268H348.241V53.24H349.053L354.172 59.084C354.916 59.931 355.936 61.125 356.661 62.042L356.696 62.024C356.661 61.039 356.661 60.054 356.661 59.124V53.24H357.819V64.44L357.475 64.444Z"
              fill="#15202D"/>
        <path d="M370.54 64.362C369.516 64.3833 368.509 64.0939 367.652 63.532L367.502 62.262C368.376 62.9726 369.47 63.3575 370.597 63.351C370.882 63.385 371.171 63.3594 371.445 63.2758C371.72 63.1923 371.974 63.0527 372.192 62.8658C372.409 62.6789 372.586 62.4488 372.71 62.1901C372.834 61.9314 372.903 61.6498 372.913 61.363C372.913 60.205 372.239 59.563 370.713 59.011C368.776 58.32 367.86 57.387 367.86 55.882C367.86 54.498 368.88 53.132 371.076 53.132C371.89 53.1254 372.691 53.3404 373.392 53.754L373.132 54.74C372.511 54.3285 371.785 54.1062 371.04 54.1C370.79 54.0684 370.536 54.0882 370.294 54.1583C370.052 54.2284 369.827 54.3473 369.633 54.5077C369.438 54.6681 369.279 54.8665 369.164 55.0908C369.049 55.3151 368.981 55.5606 368.965 55.812C368.965 56.746 369.587 57.351 370.953 57.852C372.89 58.561 374.065 59.443 374.065 61.276C374.065 63.144 372.7 64.354 370.539 64.354"
              fill="#15202D"/>
    </g>
    <defs>
        <clipPath id="clip0_2_151">
            <rect width="377" height="64.461" fill="white"/>
        </clipPath>
    </defs>
</svg>
