<svg xmlns="http://www.w3.org/2000/svg" viewBox="0 0 425.2 131.81"><defs><style>.cls-1{fill:#404251;}.cls-2{fill:#a5cc79;}.cls-3{fill:#73b73d;}.cls-4{fill:#639d34;}.cls-5{fill:#fff;}</style></defs><g id="RZ"><rect class="cls-1" width="425.2" height="131.81"/><polygon class="cls-2" points="115.35 68.73 68.47 41.67 94 26.93 115.35 39.25 115.35 68.73"/><polygon class="cls-3" points="89.82 78.31 68.47 90.64 68.47 120.12 115.35 93.05 115.35 68.73 89.82 53.99 89.82 78.31"/><polygon class="cls-2" points="21.59 63.62 68.47 90.69 42.94 105.43 21.59 93.1 21.59 63.62"/><polygon class="cls-3" points="47.12 54.04 68.47 41.72 68.47 12.23 21.59 39.3 21.59 63.62 47.12 78.36 47.12 54.04"/><polygon class="cls-4" points="89.82 63.86 115.35 68.73 89.82 53.99 89.82 63.86"/><polygon class="cls-4" points="47.12 68.5 21.59 63.62 47.12 78.36 47.12 68.5"/><path class="cls-5" d="M139.65,49.49h20.59v9.69H139.65V69.24h26.13V78.9H126.93V30.38l39,.24v9.53H139.65Z"/><path class="cls-5" d="M208.07,78.9H196.46V54.05c0-4-13.61-1.65-13.61-.43V78.9H171V42.48h10.26l.61,3.61a38.59,38.59,0,0,1,17.2-4.35,9.08,9.08,0,0,1,9,6.7Z"/><path class="cls-5" d="M310.18,39.07V30H322v9.1Z"/><path class="cls-5" d="M310.18,44.15h-5.11V53h5.11V78.9H322V44.15Z"/><path class="cls-5" d="M292.42,63.77a12.12,12.12,0,0,0,8.18-11.46V42.53A12.13,12.13,0,0,0,288.48,30.4H257.24V78.9h12V64.44H279l8.44,14.46h13.88ZM288,51.87a3.23,3.23,0,0,1-3.23,3.23H269.26V39.74h15.55A3.23,3.23,0,0,1,288,43Z"/><path class="cls-5" d="M250.07,65.64c0-5.57.38-10.77-.11-15.88-.47-4.88-4.56-8-9.67-8.11-5.33-.11-10.67-.09-16,0-5.53.11-9.57,3.68-9.82,9.12-.29,6.59-.32,13.22-.07,19.82.2,5.54,4.07,9.1,9.76,9.1a241.27,241.27,0,0,0,24.57-1.54V69.83s-12.12.66-18,.84c-3.84.12-5-.6-4.64-5ZM226,52.06a2,2,0,0,1,2-1.53h8.21a2,2,0,0,1,2,1.6v5H226Z"/><path class="cls-5" d="M364.62,65.32c0-5.57.38-10.76-.11-15.88-.47-4.88-4.56-8-9.67-8.1-5.33-.11-10.67-.1-16,0-5.53.11-9.57,3.68-9.82,9.12-.29,6.6-.31,13.22-.07,19.82.2,5.55,4.07,9.1,9.76,9.1a241.27,241.27,0,0,0,24.57-1.54V69.52s-12.12.65-18,.83c-3.84.12-5-.59-4.65-5ZM340.56,51.74a2,2,0,0,1,2-1.53h8.21a2,2,0,0,1,2,1.6v5H340.58Z"/><path class="cls-5" d="M383.47,55.92a2.85,2.85,0,0,1-2.84-3.13c.14-1.48,1.47-2.14,3-2.14H403.1V41.9h-25a9.69,9.69,0,0,0-9.69,9.7v4a9.7,9.7,0,0,0,9.69,9.7h10.12l3.47-.07c1.66,0,3,1,2.84,2.7a2.94,2.94,0,0,1-3,2.57L370,69.44v8.74l27,1.07a9.7,9.7,0,0,0,9.7-9.7v-4a9.7,9.7,0,0,0-9.7-9.7H388.3Z"/><path class="cls-5" d="M178.11,101.26H171V88.53h7.08v1.31h-5.6V94h5.28v1.29h-5.28V100h5.6Z"/><path class="cls-5" d="M182.41,101.26h-1.48V88.53H188v1.31h-5.61V94.5h5.27v1.3h-5.27Z"/><path class="cls-5" d="M191.61,101.26h-1.48V88.53h7.08v1.31h-5.6V94.5h5.27v1.3h-5.27Z"/><path class="cls-5" d="M199.33,101.26V88.53h1.48v12.73Z"/><path class="cls-5" d="M209.75,89.66a4.77,4.77,0,0,0-1.9.36,3.88,3.88,0,0,0-1.42,1,4.54,4.54,0,0,0-.9,1.65,7,7,0,0,0-.32,2.18,7.19,7.19,0,0,0,.5,2.78,4,4,0,0,0,1.5,1.82,4.47,4.47,0,0,0,2.49.64,9.1,9.1,0,0,0,1.61-.14c.5-.1,1-.22,1.46-.36v1.29a7.63,7.63,0,0,1-1.46.38,10.62,10.62,0,0,1-1.82.13,6,6,0,0,1-3.24-.81,4.88,4.88,0,0,1-1.95-2.27,8.59,8.59,0,0,1-.65-3.47,8.12,8.12,0,0,1,.41-2.64,5.86,5.86,0,0,1,1.18-2.07,5.3,5.3,0,0,1,1.92-1.35,6.78,6.78,0,0,1,2.6-.47,8.79,8.79,0,0,1,1.87.19,6.93,6.93,0,0,1,1.61.55l-.59,1.25a10.29,10.29,0,0,0-1.33-.48A5.68,5.68,0,0,0,209.75,89.66Z"/><path class="cls-5" d="M215.53,101.26V88.53H217v12.73Z"/><path class="cls-5" d="M227.59,101.26h-7.08V88.53h7.08v1.31H222V94h5.28v1.29H222V100h5.6Z"/><path class="cls-5" d="M240.36,101.26h-1.71l-6.93-10.69h-.07c0,.28,0,.61.06,1s0,.75.06,1.16,0,.82,0,1.25v7.31h-1.38V88.53h1.7L239,99.18h.06c0-.2,0-.49,0-.86s0-.78,0-1.21,0-.84,0-1.21V88.53h1.39Z"/><path class="cls-5" d="M249.27,89.66a4.75,4.75,0,0,0-1.89.36,3.91,3.91,0,0,0-1.43,1,4.86,4.86,0,0,0-.9,1.65,7.91,7.91,0,0,0,.19,5,4,4,0,0,0,1.49,1.82,4.53,4.53,0,0,0,2.5.64,9.07,9.07,0,0,0,1.6-.14q.75-.15,1.47-.36v1.29a7.83,7.83,0,0,1-1.46.38,10.7,10.7,0,0,1-1.82.13,6,6,0,0,1-3.24-.81,4.88,4.88,0,0,1-1.95-2.27,8.59,8.59,0,0,1-.65-3.47,8.13,8.13,0,0,1,.4-2.64,5.88,5.88,0,0,1,1.19-2.07,5.26,5.26,0,0,1,1.91-1.35,6.86,6.86,0,0,1,2.61-.47,8.76,8.76,0,0,1,1.86.19,6.85,6.85,0,0,1,1.62.55l-.59,1.25a11,11,0,0,0-1.34-.48A5.63,5.63,0,0,0,249.27,89.66Z"/><path class="cls-5" d="M258.3,94.91l3.39-6.38h1.59L259,96.32v4.94h-1.48V96.39l-4.24-7.86h1.62Z"/><path class="cls-5" d="M275.25,101.26,271,90h-.07c0,.24.05.53.06.88s0,.71.05,1.11,0,.82,0,1.23v8.05h-1.37V88.53h2.19l4,10.58h.06L280,88.53h2.18v12.73h-1.46V93.11c0-.38,0-.76,0-1.14s0-.74.05-1.07,0-.64.05-.89h-.07l-4.33,11.25Z"/><path class="cls-5" d="M293.66,101.26l-1.57-4H287l-1.55,4h-1.5l5-12.78h1.33l4.94,12.78Zm-2-5.36-1.49-4-.17-.51-.24-.74c-.08-.26-.15-.46-.2-.62-.06.24-.12.48-.19.71s-.13.45-.19.65-.12.37-.17.51l-1.51,4Z"/><path class="cls-5" d="M307.05,94.77a7.45,7.45,0,0,1-.78,3.59,5.07,5.07,0,0,1-2.27,2.17,8.19,8.19,0,0,1-3.6.73H297V88.53h3.84a7.38,7.38,0,0,1,3.34.71,5,5,0,0,1,2.16,2.1A7,7,0,0,1,307.05,94.77Zm-1.56,0a6.15,6.15,0,0,0-.57-2.82,3.58,3.58,0,0,0-1.67-1.66,6.05,6.05,0,0,0-2.69-.55h-2.13V100h1.8a5.45,5.45,0,0,0,3.95-1.29A5.24,5.24,0,0,0,305.49,94.82Z"/><path class="cls-5" d="M317,101.26h-7.08V88.53H317v1.31h-5.6V94h5.28v1.29h-5.28V100H317Z"/><path class="cls-5" d="M331.49,101.26h-7.08V88.53h7.08v1.31h-5.6V94h5.28v1.29h-5.28V100h5.6Z"/><path class="cls-5" d="M342.29,101.26l-1.56-4h-5.1l-1.56,4h-1.5l5-12.78h1.33l4.95,12.78Zm-2-5.36-1.48-4c0-.1-.1-.27-.17-.51l-.24-.74c-.08-.26-.15-.46-.2-.62-.06.24-.12.48-.19.71s-.13.45-.2.65-.12.37-.16.51l-1.52,4Z"/><path class="cls-5" d="M352.76,97.87a3.23,3.23,0,0,1-.56,1.93,3.5,3.5,0,0,1-1.57,1.21,6.14,6.14,0,0,1-2.38.42,11.78,11.78,0,0,1-1.36-.07,9.5,9.5,0,0,1-1.19-.2,5.72,5.72,0,0,1-.94-.32V99.42a10.4,10.4,0,0,0,1.59.5,8.44,8.44,0,0,0,2,.23,4.49,4.49,0,0,0,1.61-.26,2.11,2.11,0,0,0,1-.74,1.94,1.94,0,0,0,.34-1.16A2,2,0,0,0,351,96.9a2.64,2.64,0,0,0-1-.8,13,13,0,0,0-1.81-.77,9.14,9.14,0,0,1-1.43-.63,4.22,4.22,0,0,1-1-.78,3,3,0,0,1-.64-1,3.79,3.79,0,0,1-.21-1.31,2.92,2.92,0,0,1,.52-1.75,3.25,3.25,0,0,1,1.44-1.11,5.33,5.33,0,0,1,2.11-.39,8.62,8.62,0,0,1,1.88.19,8,8,0,0,1,1.59.52L352,90.33a8.61,8.61,0,0,0-1.46-.48,6.41,6.41,0,0,0-1.59-.19,3.76,3.76,0,0,0-1.38.23,2,2,0,0,0-.86.68,1.83,1.83,0,0,0-.29,1,2,2,0,0,0,.28,1.12,2.49,2.49,0,0,0,.91.79,11.53,11.53,0,0,0,1.65.71,13.22,13.22,0,0,1,1.9.87,3.37,3.37,0,0,1,1.19,1.11A3.06,3.06,0,0,1,352.76,97.87Z"/><path class="cls-5" d="M358.6,94.91,362,88.53h1.59l-4.24,7.79v4.94h-1.48V96.39l-4.24-7.86h1.61Z"/></g></svg>