<?xml version="1.0" encoding="utf-8"?>
<!-- Generator: Adobe Illustrator 25.4.2, SVG Export Plug-In . SVG Version: 6.00 Build 0)  -->
<svg version="1.1" id="Ebene_1" xmlns="http://www.w3.org/2000/svg" xmlns:xlink="http://www.w3.org/1999/xlink" x="0px" y="0px"
	 viewBox="0 0 425.2 131.8" style="enable-background:new 0 0 425.2 131.8;" xml:space="preserve">
<style type="text/css">
	.st0{fill:#A5CC79;}
	.st1{fill:#73B73D;}
	.st2{fill:#639D34;}
	.st3{fill:#404251;}
</style>
<g id="RZ">
	<polygon class="st0" points="115.3,68.7 68.5,41.7 94,26.9 115.3,39.3 	"/>
	<polygon class="st1" points="89.8,78.3 68.5,90.6 68.5,120.1 115.3,93.1 115.3,68.7 89.8,54 	"/>
	<polygon class="st0" points="21.6,63.6 68.5,90.7 42.9,105.4 21.6,93.1 	"/>
	<polygon class="st1" points="47.1,54 68.5,41.7 68.5,12.2 21.6,39.3 21.6,63.6 47.1,78.4 	"/>
	<polygon class="st2" points="89.8,63.9 115.3,68.7 89.8,54 	"/>
	<polygon class="st2" points="47.1,68.5 21.6,63.6 47.1,78.4 	"/>
	<path class="st3" d="M139.6,49.5h20.6v9.7h-20.6v10.1h26.1v9.7h-38.8V30.4l39,0.2v9.5h-26.3V49.5z"/>
	<path class="st3" d="M208.1,78.9h-11.6V54.1c0-4-13.6-1.7-13.6-0.4v25.3H171V42.5h10.3l0.6,3.6c5.3-2.8,11.2-4.3,17.2-4.3
		c4.2-0.1,7.9,2.7,9,6.7L208.1,78.9z"/>
	<path class="st3" d="M310.2,39.1V30H322v9.1L310.2,39.1z"/>
	<path class="st3" d="M310.2,44.2h-5.1V53h5.1v25.9H322V44.2H310.2z"/>
	<path class="st3" d="M292.4,63.8c4.9-1.7,8.2-6.3,8.2-11.5v-9.8c0-6.7-5.4-12.1-12.1-12.1h-31.2v48.5h12V64.4h9.8l8.4,14.5h13.9
		L292.4,63.8z M288,51.9c0,1.8-1.4,3.2-3.2,3.2l0,0h-15.5V39.7h15.5c1.8,0,3.2,1.5,3.2,3.3V51.9z"/>
	<path class="st3" d="M250.1,65.6c0-5.6,0.4-10.8-0.1-15.9c-0.5-4.9-4.6-8-9.7-8.1c-5.3-0.1-10.7-0.1-16,0c-5.5,0.1-9.6,3.7-9.8,9.1
		c-0.3,6.6-0.3,13.2-0.1,19.8c0.2,5.5,4.1,9.1,9.8,9.1c8.2-0.1,16.4-0.6,24.6-1.5v-8.3c0,0-12.1,0.7-18,0.8c-3.8,0.1-5-0.6-4.6-5
		L250.1,65.6z M226,52.1c0.2-0.9,1.1-1.6,2-1.5h8.2c1,0,1.8,0.7,2,1.6v5H226V52.1z"/>
	<path class="st3" d="M364.6,65.3c0-5.6,0.4-10.8-0.1-15.9c-0.5-4.9-4.6-8-9.7-8.1c-5.3-0.1-10.7-0.1-16,0c-5.5,0.1-9.6,3.7-9.8,9.1
		c-0.3,6.6-0.3,13.2-0.1,19.8c0.2,5.6,4.1,9.1,9.8,9.1c8.2-0.1,16.4-0.6,24.6-1.5v-8.3c0,0-12.1,0.7-18,0.8c-3.8,0.1-5-0.6-4.6-5
		L364.6,65.3z M340.6,51.7c0.2-0.9,1.1-1.6,2-1.5h8.2c1,0,1.8,0.7,2,1.6v5h-12.2L340.6,51.7z"/>
	<path class="st3" d="M383.5,55.9c-1.6,0-2.9-1.3-2.9-2.8c0-0.1,0-0.2,0-0.3c0.1-1.5,1.5-2.1,3-2.1h19.5v-8.7h-25
		c-5.4,0-9.7,4.3-9.7,9.7c0,0,0,0,0,0v4c0,5.4,4.3,9.7,9.7,9.7h10.1l3.5-0.1c1.7,0,3,1,2.8,2.7c-0.2,1.5-1.5,2.6-3,2.6L370,69.4v8.7
		l27,1.1c5.4,0,9.7-4.3,9.7-9.7v0v-4c0-5.4-4.3-9.7-9.7-9.7l0,0h-8.7L383.5,55.9z"/>
	<path class="st3" d="M178.1,101.3H171V88.5h7.1v1.3h-5.6V94h5.3v1.3h-5.3v4.7h5.6L178.1,101.3z"/>
	<path class="st3" d="M182.4,101.3h-1.5V88.5h7.1v1.3h-5.6v4.7h5.3v1.3h-5.3L182.4,101.3z"/>
	<path class="st3" d="M191.6,101.3h-1.5V88.5h7.1v1.3h-5.6v4.7h5.3v1.3h-5.3V101.3z"/>
	<path class="st3" d="M199.3,101.3V88.5h1.5v12.7L199.3,101.3z"/>
	<path class="st3" d="M209.8,89.7c-0.7,0-1.3,0.1-1.9,0.4c-0.5,0.2-1,0.6-1.4,1c-0.4,0.5-0.7,1-0.9,1.7c-0.2,0.7-0.3,1.4-0.3,2.2
		c0,1,0.2,1.9,0.5,2.8c0.3,0.7,0.8,1.4,1.5,1.8c0.7,0.5,1.6,0.7,2.5,0.6c0.5,0,1.1,0,1.6-0.1c0.5-0.1,1-0.2,1.5-0.4v1.3
		c-0.5,0.2-1,0.3-1.5,0.4c-0.6,0.1-1.2,0.1-1.8,0.1c-1.1,0-2.3-0.2-3.2-0.8c-0.9-0.5-1.6-1.3-1.9-2.3c-0.5-1.1-0.7-2.3-0.6-3.5
		c0-0.9,0.1-1.8,0.4-2.6c0.2-0.8,0.6-1.5,1.2-2.1c0.5-0.6,1.2-1,1.9-1.3c0.8-0.3,1.7-0.5,2.6-0.5c0.6,0,1.3,0.1,1.9,0.2
		c0.6,0.1,1.1,0.3,1.6,0.6l-0.6,1.2c-0.4-0.2-0.9-0.4-1.3-0.5C210.8,89.7,210.3,89.6,209.8,89.7z"/>
	<path class="st3" d="M215.5,101.3V88.5h1.5v12.7L215.5,101.3z"/>
	<path class="st3" d="M227.6,101.3h-7.1V88.5h7.1v1.3H222V94h5.3v1.3H222v4.7h5.6L227.6,101.3z"/>
	<path class="st3" d="M240.4,101.3h-1.7l-6.9-10.7h-0.1c0,0.3,0,0.6,0.1,1s0,0.8,0.1,1.2s0,0.8,0,1.2v7.3h-1.4V88.5h1.7l6.9,10.7
		h0.1c0-0.2,0-0.5,0-0.9s0-0.8,0-1.2s0-0.8,0-1.2v-7.4h1.4L240.4,101.3z"/>
	<path class="st3" d="M249.3,89.7c-0.6,0-1.3,0.1-1.9,0.4c-0.5,0.2-1,0.6-1.4,1c-0.4,0.5-0.7,1-0.9,1.7c-0.5,1.6-0.4,3.4,0.2,5
		c0.3,0.7,0.8,1.4,1.5,1.8c0.8,0.5,1.6,0.7,2.5,0.6c0.5,0,1.1,0,1.6-0.1c0.5-0.1,1-0.2,1.5-0.4v1.3c-0.5,0.2-1,0.3-1.5,0.4
		c-0.6,0.1-1.2,0.1-1.8,0.1c-1.1,0-2.3-0.2-3.2-0.8c-0.9-0.5-1.6-1.3-1.9-2.3c-0.5-1.1-0.7-2.3-0.6-3.5c0-0.9,0.1-1.8,0.4-2.6
		c0.3-0.8,0.7-1.5,1.2-2.1c0.5-0.6,1.2-1,1.9-1.3c0.8-0.3,1.7-0.5,2.6-0.5c0.6,0,1.2,0.1,1.9,0.2c0.6,0.1,1.1,0.3,1.6,0.6l-0.6,1.2
		c-0.4-0.2-0.9-0.3-1.3-0.5C250.3,89.7,249.8,89.7,249.3,89.7z"/>
	<path class="st3" d="M258.3,94.9l3.4-6.4h1.6l-4.3,7.8v4.9h-1.5v-4.9l-4.2-7.9h1.6L258.3,94.9z"/>
	<path class="st3" d="M275.2,101.3L271,90h-0.1c0,0.2,0,0.5,0.1,0.9s0,0.7,0,1.1s0,0.8,0,1.2v8.1h-1.4V88.5h2.2l4,10.6h0.1l4.1-10.6
		h2.2v12.7h-1.5v-8.1c0-0.4,0-0.8,0-1.1s0-0.7,0-1.1s0-0.6,0-0.9h-0.1l-4.3,11.2H275.2z"/>
	<path class="st3" d="M293.7,101.3l-1.6-4H287l-1.5,4H284l5-12.8h1.3l4.9,12.8H293.7z M291.7,95.9l-1.5-4l-0.2-0.5l-0.2-0.7
		c-0.1-0.3-0.1-0.5-0.2-0.6c-0.1,0.2-0.1,0.5-0.2,0.7s-0.1,0.4-0.2,0.7s-0.1,0.4-0.2,0.5l-1.5,4H291.7z"/>
	<path class="st3" d="M307,94.8c0,1.2-0.2,2.5-0.8,3.6c-0.5,0.9-1.3,1.7-2.3,2.2c-1.1,0.5-2.4,0.8-3.6,0.7H297V88.5h3.8
		c1.2,0,2.3,0.2,3.3,0.7c0.9,0.5,1.7,1.2,2.2,2.1C306.9,92.4,307.1,93.6,307,94.8z M305.5,94.8c0-1-0.2-1.9-0.6-2.8
		c-0.4-0.7-0.9-1.3-1.7-1.7c-0.8-0.4-1.8-0.6-2.7-0.6h-2.1V100h1.8c1.4,0.1,2.9-0.4,4-1.3C305.1,97.6,305.6,96.2,305.5,94.8
		L305.5,94.8z"/>
	<path class="st3" d="M317,101.3h-7.1V88.5h7.1v1.3h-5.6V94h5.3v1.3h-5.3v4.7h5.6V101.3z"/>
	<path class="st3" d="M331.5,101.3h-7.1V88.5h7.1v1.3h-5.6V94h5.3v1.3h-5.3v4.7h5.6V101.3z"/>
	<path class="st3" d="M342.3,101.3l-1.6-4h-5.1l-1.6,4h-1.5l5-12.8h1.3l5,12.8H342.3z M340.3,95.9l-1.5-4c0-0.1-0.1-0.3-0.2-0.5
		l-0.2-0.7c-0.1-0.3-0.1-0.5-0.2-0.6c-0.1,0.2-0.1,0.5-0.2,0.7s-0.1,0.4-0.2,0.7s-0.1,0.4-0.2,0.5l-1.5,4H340.3z"/>
	<path class="st3" d="M352.8,97.9c0,0.7-0.2,1.4-0.6,1.9c-0.4,0.5-0.9,1-1.6,1.2c-0.8,0.3-1.6,0.4-2.4,0.4c-0.5,0-0.9,0-1.4-0.1
		c-0.4,0-0.8-0.1-1.2-0.2c-0.3-0.1-0.6-0.2-0.9-0.3v-1.4c0.5,0.2,1,0.4,1.6,0.5c0.7,0.2,1.3,0.2,2,0.2c0.5,0,1.1-0.1,1.6-0.3
		c0.4-0.1,0.7-0.4,1-0.7c0.2-0.3,0.4-0.7,0.3-1.2c0-0.4-0.1-0.8-0.3-1.1c-0.3-0.3-0.6-0.6-1-0.8c-0.6-0.3-1.2-0.6-1.8-0.8
		c-0.5-0.2-1-0.4-1.4-0.6c-0.4-0.2-0.7-0.5-1-0.8c-0.3-0.3-0.5-0.6-0.6-1c-0.1-0.4-0.2-0.9-0.2-1.3c0-0.6,0.2-1.2,0.5-1.8
		c0.4-0.5,0.9-0.9,1.4-1.1c0.7-0.3,1.4-0.4,2.1-0.4c0.6,0,1.3,0.1,1.9,0.2c0.5,0.1,1.1,0.3,1.6,0.5l-0.4,1.3c-0.5-0.2-1-0.4-1.5-0.5
		c-0.5-0.1-1.1-0.2-1.6-0.2c-0.5,0-0.9,0.1-1.4,0.2c-0.3,0.1-0.6,0.4-0.9,0.7c-0.2,0.3-0.3,0.6-0.3,1c0,0.4,0.1,0.8,0.3,1.1
		c0.2,0.3,0.5,0.6,0.9,0.8c0.5,0.3,1.1,0.5,1.6,0.7c0.7,0.2,1.3,0.5,1.9,0.9c0.5,0.3,0.9,0.6,1.2,1.1
		C352.6,96.7,352.8,97.3,352.8,97.9z"/>
	<path class="st3" d="M358.6,94.9l3.4-6.4h1.6l-4.2,7.8v4.9h-1.5v-4.9l-4.2-7.9h1.6L358.6,94.9z"/>
</g>
</svg>
