<svg width="964" height="303" viewBox="0 0 964 303" fill="none" xmlns="http://www.w3.org/2000/svg">
    <path d="M375.565 184.076V50.6385H345.091V212.241H458.674V184.076H375.565Z" fill="white"/>
    <path d="M552.172 98.4269L484.956 259.71H482.95L482.915 259.798H513.85L583.339 98.4269H552.172Z" fill="white"/>
    <path d="M508.487 146.801L491.456 98.4275H458.675L493.339 183.774L508.487 146.801Z" fill="white"/>
    <path d="M661.831 96.5801C647.517 96.5801 635.975 102.352 624.432 113.664L622.584 98.1961H597.421V212.24H625.355V154.064C625.355 136.749 637.129 122.205 654.443 122.205C672.451 122.205 681.916 135.364 681.916 152.679V212.24H710.08V152.448C710.08 116.665 688.611 96.5801 661.831 96.5801Z"
          fill="white"/>
    <path d="M815.121 98.4269V156.603C815.121 173.918 803.348 188.462 786.033 188.462C768.025 188.462 758.561 175.303 758.561 157.988V98.4269H730.396V158.219C730.396 193.542 750.249 214.087 777.491 214.087C793.42 214.087 804.271 208.547 816.045 197.004L817.892 212.471H843.056V98.4269H815.121Z"
          fill="white"/>
    <path d="M914.622 142.29C900.078 141.366 893.383 137.212 893.383 129.824C893.383 122.668 900.77 118.512 914.161 118.512C925.01 118.512 934.245 121.052 942.325 128.669L958.023 110.201C944.865 98.6583 931.475 95.1943 913.698 95.1943C892.921 95.1943 865.679 104.429 865.679 130.748C865.679 156.604 891.305 164.453 912.775 166.069C928.935 166.992 935.399 170.224 935.399 178.073C935.399 186.385 925.473 191.925 914.853 191.694C902.155 191.464 883.687 184.769 875.607 175.765L861.755 195.85C878.377 213.164 896.385 216.165 914.391 216.165C946.942 216.165 963.334 198.85 963.334 178.766C963.334 148.524 936.091 143.676 914.622 142.29Z"
          fill="white"/>
    <path d="M159.391 0.826477V16.8451C230.106 20.9825 286.365 79.8158 286.365 151.56C286.365 225.985 225.826 286.524 151.401 286.524C79.6555 286.524 20.8221 230.265 16.6848 159.552H0.666138C4.82214 239.092 70.8475 302.506 151.401 302.506C234.634 302.506 302.346 234.793 302.346 151.56C302.346 71.0078 238.931 4.98248 159.391 0.826477Z"
          fill="white"/>
    <path d="M143.409 16.8446V0.825958C66.5143 4.85796 4.69826 66.6753 0.66626 143.569H16.6849C20.6623 75.5006 75.3409 20.8219 143.409 16.8446Z"
          fill="white"/>
    <path d="M151.684 41.742C90.9683 41.742 41.5816 91.1287 41.5816 151.845C41.5816 209.879 86.6883 257.542 143.694 261.662V245.626C95.5323 241.559 57.5643 201.035 57.5643 151.845C57.5643 99.954 99.7936 57.7247 151.684 57.7247C200.875 57.7247 241.4 95.6927 245.467 143.853H261.503C257.383 86.8487 209.719 41.742 151.684 41.742Z"
          fill="white"/>
    <path d="M159.676 245.626V261.662C214.034 257.737 257.578 214.194 261.502 159.836H245.466C241.613 205.368 205.208 241.773 159.676 245.626Z"
          fill="white"/>
    <path d="M159.391 80.6684V96.7937C186.135 100.664 206.753 123.75 206.753 151.56C206.753 182.087 181.927 206.914 151.401 206.914C123.59 206.914 100.505 186.295 96.6328 159.551H80.5088C84.5048 195.139 114.765 222.896 151.401 222.896C190.735 222.896 222.735 190.895 222.735 151.56C222.735 114.924 194.979 84.6644 159.391 80.6684Z"
          fill="white"/>
    <path d="M143.409 96.793V80.6677C110.449 84.3624 84.2023 110.609 80.5089 143.569H96.6329C100.132 119.417 119.257 100.292 143.409 96.793Z"
          fill="white"/>
</svg>