<svg xmlns="http://www.w3.org/2000/svg" width="296" height="46.47"
     viewBox="0 0 296 46.47">
    <defs>
        <clipPath id="clip-path">
            <path id="Pfad_196" data-name="Pfad 196" d="M0,6.358H296v-46.47H0Z" transform="translate(0 0)" fill="#fff"/>
        </clipPath>
    </defs>
    <g id="logo" transform="translate(0 40.111)" clip-path="url(#clip-path)">
        <path id="Pfad_193" data-name="Pfad 193"
              d="M1.038-13.542a.2.2,0,0,0-.225.225V-2.156c0,.165.074.24.225.24H2.944c.15,0,.226-.075.226-.24V-6.648H7.811a.21.21,0,0,0,.24-.225V-8.4a.21.21,0,0,0-.24-.226H3.17v-2.856H8.278a.2.2,0,0,0,.226-.226v-1.606a.2.2,0,0,0-.226-.225H1.038Zm13.82-.09c-1.742,0-2.042.165-2.492,1.8L9.676-2.156c-.03.181.031.24.2.24h1.907c.15,0,.165-.059.21-.24l.872-3.125h4.026l.856,3.125c.045.181.059.24.2.24h1.922c.151,0,.226-.059.2-.24l-2.643-9.675c-.452-1.635-.737-1.8-2.555-1.8m0,1.982c.3,0,.316.075.421.436l1.082,3.982H13.386l1.1-3.982c.09-.36.12-.436.375-.436m11.568-1.982c-2.659,0-4.205.645-4.205,2.867v.33c0,1.743.54,2.6,1.787,3.065l2.93,1.1c.782.3,1.083.6,1.083,1.247v.2c0,.66-.466.931-1.368.931H22.385c-.2,0-.285.089-.285.27v1.14a.282.282,0,0,0,.255.33,23.121,23.121,0,0,0,3.71.316c2.6,0,4.326-.66,4.326-2.883v-.42A2.77,2.77,0,0,0,28.3-8.165l-2.81-1.1c-.676-.257-.888-.6-.888-1.129v-.21c0-.66.466-.976,1.383-.976h3.561c.2,0,.285-.075.285-.271v-1.215c0-.136-.089-.212-.27-.271a15.361,15.361,0,0,0-3.14-.3m5.965.09a.2.2,0,0,0-.225.225v1.606a.2.2,0,0,0,.225.226H35.53v9.329c0,.165.075.24.226.24h1.906c.15,0,.226-.075.226-.24v-9.329h3.139a.21.21,0,0,0,.24-.226v-1.606a.21.21,0,0,0-.24-.225H32.39Zm15.474,0a.2.2,0,0,0-.225.225V-2.156c0,.165.075.24.225.24h1.907c.149,0,.225-.075.225-.24V-6.648h4.643a.21.21,0,0,0,.24-.225V-8.4a.211.211,0,0,0-.24-.226H50v-2.856H55.1a.2.2,0,0,0,.226-.226v-1.606a.2.2,0,0,0-.226-.225H47.864Zm14.542-.09c-3.832,0-4.867,1.351-4.867,5.918,0,4.538,1.035,5.873,4.867,5.873s4.866-1.335,4.866-5.873c0-4.566-1.036-5.918-4.866-5.918m0,2.057c2.074,0,2.479.916,2.479,3.861,0,2.915-.406,3.817-2.479,3.817s-2.481-.9-2.481-3.817c0-2.944.407-3.861,2.481-3.861m12.138-2.057c-1.232,0-2.674.045-4,.165-.181.015-.226.045-.226.21v11.1c0,.2.045.24.226.24h1.906c.181,0,.226-.045.226-.24V-6.123h1.382l2.466,3.877a.589.589,0,0,0,.6.33h1.892c.226,0,.3-.135.181-.3L76.649-6.272c1.7-.33,2.3-1.231,2.3-3.5,0-3-1.112-3.86-4.4-3.86m-.24,2.057c1.789,0,2.254.36,2.254,1.863,0,1.532-.465,1.773-2.254,1.773H72.68v-3.636Zm20.46-1.967c-.149,0-.18.06-.225.241L92.931-4.693c-.075.376-.15.45-.346.45-.24,0-.286-.074-.375-.45l-1.983-8.2a.286.286,0,0,0-.3-.24H88.154a.3.3,0,0,0-.314.24l-1.969,8.2c-.091.376-.15.45-.391.45-.2,0-.255-.074-.346-.45L83.528-13.3c-.03-.181-.075-.241-.211-.241h-2c-.151,0-.226.06-.2.241l1.862,9.674c.316,1.591.615,1.787,2.253,1.787,1.862,0,2.073-.2,2.449-1.787L89.04-9.306l1.338,5.678c.39,1.591.585,1.787,2.464,1.787,1.637,0,1.937-.2,2.237-1.787L96.957-13.3c.031-.181-.045-.241-.211-.241Zm8.73-.09c-1.742,0-2.044.165-2.494,1.8L98.311-2.156c-.031.181.029.24.2.24h1.907c.149,0,.165-.059.21-.24l.872-3.125h4.025l.856,3.125c.046.181.061.24.2.24h1.923c.15,0,.226-.059.2-.24l-2.644-9.675c-.45-1.635-.736-1.8-2.553-1.8m0,1.982c.3,0,.316.075.42.436l1.082,3.982h-2.973l1.1-3.982c.089-.36.12-.436.375-.436m11.928-1.982c-1.232,0-2.675.045-4,.165-.179.015-.226.045-.226.21v11.1c0,.2.046.24.226.24h1.906c.181,0,.226-.045.226-.24V-6.123h1.383L117.4-2.246a.59.59,0,0,0,.6.33H119.9c.225,0,.3-.135.18-.3l-2.552-4.056c1.7-.33,2.3-1.231,2.3-3.5,0-3-1.11-3.86-4.4-3.86m-.24,2.057c1.789,0,2.255.36,2.255,1.863,0,1.532-.466,1.773-2.255,1.773h-1.623v-3.636Zm12.273-2.057c-1.472,0-3.035.045-4.356.165-.18.015-.225.045-.225.21V-2.185c0,.149.045.179.225.194,1.321.106,2.883.151,4.356.151,3.531,0,4.867-1.726,4.867-5.888s-1.336-5.9-4.867-5.9m-.12,2.057c1.908,0,2.6,1.172,2.6,3.846s-.66,3.832-2.479,3.832h-2.224v-7.678h2.1"
              transform="translate(0.129 4.197)" fill="#fff"/>
        <path id="Pfad_194" data-name="Pfad 194"
              d="M27.3-30.537v-1.9c0-4.339-1.557-7.576-8-7.576H.813v22.117H7.592v-5.561H21.07c4.795,0,6.23-3.786,6.23-7.086M20.336-31.3a2.066,2.066,0,0,1-2.2,2.355H7.592v-5.565h9.964c2.048,0,2.78.856,2.78,2.354v.856Zm40,13.411V-23.2H42.925v-3.548H60.34V-31.33H42.925v-3.55H60.342v-5.128h-24.2v22.116Zm38.939,0V-40.008H92.5v16.072h-.061L79.695-40.008H69.188v22.116h6.779v-16.07h.061l12.744,16.07H99.279Zm33.041,0V-23.2H114.9v-3.548H132.32V-31.33H114.9v-3.55H132.32v-5.128H108.127v22.116Zm38.48-7.7v-6.724c0-5.468-2.382-7.7-9.162-7.7h-20.47V-17.89h20.47c6.78,0,9.162-2.23,9.162-7.7m-6.779-1.957c0,3.148-1.131,3.974-4.035,3.974H147.945V-34.512h12.041c2.9,0,4.035.826,4.035,3.974v2.995Zm39.821,9.652V-23.2H186.427v-3.548h17.415V-31.33H186.427v-3.55h17.415v-5.128h-24.2v22.116Zm35.943-14.146v-1.406c0-3.97-1.4-6.565-6.627-6.565H212.687V-17.89h6.78v-5.745h10.666c2.108,0,2.782.764,2.782,3.086v2.659h6.779v-3.76c0-3.635-1.68-4.521-3.7-4.887V-26.6c3.115-.732,3.787-2.473,3.787-5.438m-6.6.583c0,1.59-.672,2.324-2.505,2.324H219.467v-5.381h10.6c2.139,0,3.116.367,3.116,2.324v.733"
              transform="translate(0.129 0.016)" fill="#fff"/>
        <path id="Pfad_195" data-name="Pfad 195"
              d="M260.975-29.052l-21.722-11.06v9.3l-18.277-9.3v22.118l18.277-9.3v9.3l21.722-11.058"
              transform="translate(35.028 0)" fill="#fff"/>
    </g>
</svg>
