<?xml version="1.0" encoding="utf-8"?>
<!-- Generator: Adobe Illustrator 27.2.0, SVG Export Plug-In . SVG Version: 6.00 Build 0)  -->
<svg xmlns:xlink="http://www.w3.org/1999/xlink" version="1.1" id="Ebene_1" xmlns="http://www.w3.org/2000/svg" x="0px"
     y="0px"
     viewBox="0 0 540.8 50.5" style="enable-background:new 0 0 540.8 50.5;" xml:space="preserve">
<style type="text/css">
	.st0{clip-path:url(#SVGID_00000090260483014588934050000005498001618711607699_);}
	.st1{fill:#74BB20;}
</style>
    <g>
	<defs>
		<rect id="SVGID_1_" width="540.8" height="50.5"/>
	</defs>
        <clipPath id="SVGID_00000029032889653108941680000015751644229402453132_">
		<use xlink:href="#SVGID_1_" style="overflow:visible;"/>
	</clipPath>
        <g style="clip-path:url(#SVGID_00000029032889653108941680000015751644229402453132_);">
		<path class="st1" d="M113.5,18.1l-5.7,12.7c-1.5,3.3-5.3,5.9-8.6,5.9H80.8c-3.3,0-4.8-2.7-3.3-5.9l5.7-12.7
			c1.5-3.3,5.3-5.9,8.6-5.9h18.5C113.5,12.2,115,14.9,113.5,18.1 M50.1,16.4l-0.7,1.5c-1,2.3-3.7,4.1-6,4.1H30.1l4.4-9.8h13.3
			C50.1,12.2,51.1,14.1,50.1,16.4 M216.4,0h-13.1c-1.5,0-3.2,1.2-3.9,2.7l-13,29.2l-2.6-29.4c-0.1-1.1-1.3-2.5-2.6-2.5h-9.1
			c-1.7,0-3.3,1.4-3.9,2.5l-17,28.3l-2.5-28.2c-0.1-1.5-1.4-2.7-2.9-2.7H86.4C80.6,0,74,3.6,69.8,8.8C70.1,3.7,66.8,0,61,0H24.2
			c-1.5,0-3.2,1.2-3.9,2.7l-20,45c-0.7,1.5,0,2.7,1.5,2.7h13.1c1.5,0,3.2-1.2,3.9-2.7l5.9-13.3h21c5,0,10.7-2.8,14.9-6.9l-3.1,7
			c-3.9,8.7,0,15.8,8.8,15.8h37.5c7.5,0,16.3-6.1,19.7-13.6l8.3-18.6l2.6,29.6c0.1,1.5,1.4,2.7,2.9,2.7H151c1.4,0,3.2-1.1,4.1-2.5
			l16.4-27.3l2.4,27.3c0.1,1.4,1.4,2.5,2.8,2.5H194c1.5,0,3.2-1.2,3.9-2.7l20.1-45C218.6,1.2,217.9,0,216.4,0 M308.6,12.2h-13.3
			L291,22h13.3c2.3,0,5-1.9,6-4.1l0.7-1.5C312,14.1,310.9,12.2,308.6,12.2 M376.5,39.4l-3.7,8.3c-0.7,1.5-2.4,2.7-3.9,2.7h-59.7
			c-1.5,0-3.4-1.2-4.3-2.7l-8-13.3h-11.5l-5.9,13.3c-0.7,1.5-2.4,2.7-3.9,2.7H206c-1.5,0-2.1-1.2-1.5-2.7l20-45
			c0.7-1.5,2.4-2.7,3.9-2.7h42.2c1.5,0,2.1,1.2,1.5,2.7l-3.2,7.1c-0.7,1.5-2.4,2.7-3.9,2.7h-26.4l-2.7,6h26.5c1.5,0,2.1,1.2,1.5,2.7
			l-3.2,7.1c-0.7,1.5-2.4,2.7-3.9,2.7h-26.4l-2.6,5.9H266l15.2-34.1c0.6-1.5,2.4-2.7,3.9-2.7h36.8c7.5,0,10.9,6.1,7.6,13.6l-3.2,7.1
			c-2.2,5-6.9,9.3-11.9,11.7l7.4,12.3l18.8-42.1c0.7-1.5,2.4-2.7,3.9-2.7h13.1c1.5,0,2.1,1.2,1.5,2.7l-15.2,34.1H375
			C376.5,36.8,377.1,37.9,376.5,39.4 M400.5,0c-1.5,0-3.2,1.2-3.9,2.7l-20,45c-0.7,1.5,0,2.7,1.5,2.7h13.1c1.5,0,3.2-1.2,3.9-2.7
			l20-45c0.7-1.5,0-2.7-1.5-2.7L400.5,0L400.5,0z M480.8,2.8l-20,45c-0.7,1.5-2.4,2.7-3.9,2.7h-17.5c-1.4,0-2.6-1.1-2.8-2.5l-2.7-31
			l-13.8,30.9c-0.7,1.5-2.4,2.7-3.9,2.7h-13.1c-1.5,0-2.1-1.2-1.5-2.7l20-45c0.7-1.5,2.4-2.7,3.9-2.7H444c1.4,0,2.6,1.1,2.8,2.5
			l2.6,29.4l13-29.2c0.7-1.5,2.4-2.7,3.9-2.7h13.1C480.8,0.1,481.5,1.2,480.8,2.8 M539.2,0.1h-16.6c-1.6,0-3.3,0.2-5.3,1.6
			l-16.9,11.7l4.7-10.6c0.7-1.5,0-2.7-1.5-2.7h-13.1c-1.5,0-3.2,1.2-3.9,2.7l-20,45c-0.7,1.5,0,2.7,1.5,2.7h13.1
			c1.5,0,3.2-1.2,3.9-2.7l5.4-12.1l6.3-4.2l10.1,16.9c0.8,1.4,2.6,2.1,4.1,2.1h12.4c1.3,0,2.4-1.2,1.6-2.5l-15.2-25.2l30.4-20.5
			C541.4,1.6,540.8,0.1,539.2,0.1"/>
	</g>
</g>
</svg>
