<?xml version="1.0" encoding="UTF-8" standalone="no"?>
<svg
        xmlns:dc="http://purl.org/dc/elements/1.1/"
        xmlns:cc="http://creativecommons.org/ns#"
        xmlns:rdf="http://www.w3.org/1999/02/22-rdf-syntax-ns#"
        xmlns:sodipodi="http://sodipodi.sourceforge.net/DTD/sodipodi-0.dtd"
        xmlns:inkscape="http://www.inkscape.org/namespaces/inkscape"
        xmlns="http://www.w3.org/2000/svg"
        width="387.65549"
        height="39.026001"
        viewBox="0 0 387.6555 39.026001"
        version="1.1"
        id="svg1465"
        sodipodi:docname="dash-logo-white.svg"
        inkscape:version="1.0.1 (c497b03c, 2020-09-10)">
    <sodipodi:namedview
            pagecolor="#ffffff"
            bordercolor="#666666"
            borderopacity="1"
            objecttolerance="10"
            gridtolerance="10"
            guidetolerance="10"
            inkscape:pageopacity="0"
            inkscape:pageshadow="2"
            inkscape:window-width="1792"
            inkscape:window-height="989"
            id="namedview2870"
            showgrid="false"
            fit-margin-top="0"
            fit-margin-left="0"
            fit-margin-right="0"
            fit-margin-bottom="0"
            inkscape:zoom="2.223434"
            inkscape:cx="153.20271"
            inkscape:cy="43.630038"
            inkscape:window-x="0"
            inkscape:window-y="199"
            inkscape:window-maximized="1"
            inkscape:current-layer="svg1465"/>
    <metadata
            id="metadata1469">
        <rdf:RDF>
            <cc:Work
                    rdf:about="">
                <dc:format>image/svg+xml</dc:format>
                <dc:type
                        rdf:resource="http://purl.org/dc/dcmitype/StillImage"/>
                <dc:title></dc:title>
            </cc:Work>
        </rdf:RDF>
    </metadata>
    <defs
            id="defs1444">
        <style
                id="style1442">
            .cls-1, .cls-2 {
            fill: #fff;
            }

            .cls-2, .cls-4 {
            font-size: 34px;
            }

            .cls-2 {
            font-family: Roboto-Bold, Roboto;
            font-weight: 700;
            }

            .cls-3 {
            letter-spacing: -0.007em;
            }

            .cls-4 {
            fill: #e30613;
            font-family: Roboto-Light, Roboto;
            font-weight: 300;
            }
        </style>
    </defs>
    <g
            id="Gruppe_6"
            data-name="Gruppe 6"
            transform="translate(-184.989,-182.095)">
        <g
                id="Gruppe_5"
                data-name="Gruppe 5"
                transform="translate(190.753,188.172)">
            <path
                    id="Pfad_15"
                    data-name="Pfad 15"
                    class="cls-1"
                    d="m 202.371,186.1 h -0.946 a 1.445,1.445 0 0 0 -1.445,1.446 v 1.254 a 11.376,11.376 0 0 0 -3.158,1.309 l -0.632,-0.632 a 1.855,1.855 0 0 0 -2.55,0 l -1.339,1.338 a 1.806,1.806 0 0 0 0,2.553 l 0.638,0.611 a 11.408,11.408 0 0 0 -1.32,3.174 h -0.89 a 1.8,1.8 0 0 0 -1.8,1.8 v 1.893 a 1.807,1.807 0 0 0 1.8,1.8 h 0.89 a 11.424,11.424 0 0 0 1.309,3.16 l -0.63,0.629 a 1.807,1.807 0 0 0 0,2.551 l 1.353,1.352 a 1.865,1.865 0 0 0 2.537,-0.015 l 0.63,-0.63 a 10.741,10.741 0 0 0 3.163,1.307 v 1.266 a 1.448,1.448 0 0 0 1.445,1.445 h 0.946 a 0.955,0.955 0 0 0 0.681,-0.281 0.97,0.97 0 0 0 0.282,-0.681 v -8.27 a 0.607,0.607 0 0 0 -0.469,-0.591 4.083,4.083 0 0 1 -2.312,-1.483 0.618,0.618 0 0 0 -0.85,-0.105 0.612,0.612 0 0 0 -0.105,0.848 5.342,5.342 0 0 0 2.527,1.788 v 7.564 h -0.7 a 0.24,0.24 0 0 1 -0.237,-0.235 v -1.445 a 0.959,0.959 0 0 0 -0.744,-0.937 10.068,10.068 0 0 1 -3.152,-1.307 0.992,0.992 0 0 0 -1.187,0.137 l -0.768,0.768 a 0.591,0.591 0 0 1 -0.421,0.167 v 0 a 0.609,0.609 0 0 1 -0.433,-0.175 l -1.326,-1.332 a 0.58,0.58 0 0 1 -0.171,-0.418 0.587,0.587 0 0 1 0.173,-0.42 l 0.768,-0.768 a 0.959,0.959 0 0 0 0.282,-0.681 0.977,0.977 0 0 0 -0.146,-0.51 10.166,10.166 0 0 1 -1.313,-3.176 0.963,0.963 0 0 0 -0.931,-0.718 h -1.085 a 0.6,0.6 0 0 1 -0.594,-0.594 v -1.893 a 0.584,0.584 0 0 1 0.174,-0.418 0.591,0.591 0 0 1 0.42,-0.177 h 1.085 a 0.962,0.962 0 0 0 0.6,-0.206 0.924,0.924 0 0 0 0.325,-0.481 l 0.018,-0.058 a 10.2,10.2 0 0 1 1.317,-3.168 0.962,0.962 0 0 0 -0.148,-1.171 l -0.768,-0.766 a 0.6,0.6 0 0 1 0,-0.841 l 1.336,-1.338 a 0.618,0.618 0 0 1 0.842,0 l 0.768,0.766 a 0.984,0.984 0 0 0 1.19,0.139 10.081,10.081 0 0 1 3.152,-1.307 0.958,0.958 0 0 0 0.741,-0.937 v -1.45 a 0.229,0.229 0 0 1 0.072,-0.167 0.233,0.233 0 0 1 0.165,-0.07 h 0.7 v 7.567 a 5.351,5.351 0 0 0 -3.522,3.945 0.605,0.605 0 0 0 0.917,0.636 0.609,0.609 0 0 0 0.266,-0.389 4.086,4.086 0 0 1 3.082,-3.145 0.6,0.6 0 0 0 0.466,-0.588 v -8.271 a 0.963,0.963 0 0 0 -0.964,-0.964 z"
                    transform="translate(-188.93,-186.104)"/>
            <path
                    id="Pfad_16"
                    data-name="Pfad 16"
                    class="cls-1"
                    d="m 202.591,186.889 h -1.673 a 1.379,1.379 0 0 0 -0.984,0.409 1.4,1.4 0 0 0 -0.409,0.984 v 1.674 a 1.39,1.39 0 0 0 1.393,1.392 h 1.673 a 1.39,1.39 0 0 0 1.393,-1.392 v -1.674 a 1.4,1.4 0 0 0 -1.393,-1.393 z m -1.857,1.393 a 0.187,0.187 0 0 1 0.184,-0.184 h 1.673 a 0.192,0.192 0 0 1 0.133,0.057 0.181,0.181 0 0 1 0.051,0.127 v 1.674 a 0.185,0.185 0 0 1 -0.184,0.184 h -1.673 a 0.172,0.172 0 0 1 -0.13,-0.057 0.177,0.177 0 0 1 -0.054,-0.127 z"
                    transform="translate(-184.034,-185.741)"/>
            <path
                    id="Pfad_17"
                    data-name="Pfad 17"
                    class="cls-1"
                    d="m 202.591,191.206 h -1.673 a 1.4,1.4 0 0 0 -1.393,1.393 v 1.673 a 1.389,1.389 0 0 0 0.408,0.983 1.372,1.372 0 0 0 0.985,0.411 h 1.673 a 1.368,1.368 0 0 0 0.984,-0.408 1.394,1.394 0 0 0 0.409,-0.986 V 192.6 a 1.373,1.373 0 0 0 -0.408,-0.984 1.4,1.4 0 0 0 -0.985,-0.41 z m -1.857,1.393 a 0.177,0.177 0 0 1 0.053,-0.127 0.179,0.179 0 0 1 0.132,-0.057 h 1.673 a 0.189,0.189 0 0 1 0.13,0.053 0.185,0.185 0 0 1 0.054,0.132 v 1.673 a 0.18,0.18 0 0 1 -0.051,0.129 0.191,0.191 0 0 1 -0.133,0.056 h -1.673 a 0.178,0.178 0 0 1 -0.13,-0.056 0.176,0.176 0 0 1 -0.054,-0.129 z"
                    transform="translate(-184.034,-183.746)"/>
            <path
                    id="Pfad_18"
                    data-name="Pfad 18"
                    class="cls-1"
                    d="m 207.084,189.872 v 0 a 1.494,1.494 0 0 0 -1.04,-0.431 h -1.515 a 1.481,1.481 0 0 0 -1.04,0.433 1.46,1.46 0 0 0 -0.433,1.043 v 1.513 a 1.451,1.451 0 0 0 0.431,1.04 1.483,1.483 0 0 0 1.041,0.434 h 1.515 a 1.478,1.478 0 0 0 1.472,-1.474 v -1.513 a 1.465,1.465 0 0 0 -0.431,-1.045 z m -2.818,1.043 a 0.258,0.258 0 0 1 0.08,-0.187 0.253,0.253 0 0 1 0.183,-0.079 h 1.515 a 0.266,0.266 0 0 1 0.186,0.08 0.259,0.259 0 0 1 0.077,0.186 v 1.513 a 0.266,0.266 0 0 1 -0.073,0.183 0.277,0.277 0 0 1 -0.19,0.082 h -1.515 a 0.259,0.259 0 0 1 -0.183,-0.076 0.266,0.266 0 0 1 -0.08,-0.189 z"
                    transform="translate(-182.401,-184.563)"/>
            <path
                    id="Pfad_19"
                    data-name="Pfad 19"
                    class="cls-1"
                    d="m 206.044,198.792 h -1.515 a 1.481,1.481 0 0 0 -1.04,0.433 1.459,1.459 0 0 0 -0.433,1.041 v 1.515 a 1.456,1.456 0 0 0 0.431,1.04 1.482,1.482 0 0 0 1.041,0.433 h 1.515 a 1.478,1.478 0 0 0 1.472,-1.472 v -1.515 a 1.469,1.469 0 0 0 -0.433,-1.043 1.488,1.488 0 0 0 -1.038,-0.432 z m -1.778,1.474 a 0.27,0.27 0 0 1 0.077,-0.187 0.26,0.26 0 0 1 0.186,-0.077 h 1.515 a 0.254,0.254 0 0 1 0.184,0.077 0.262,0.262 0 0 1 0.079,0.187 v 1.515 a 0.27,0.27 0 0 1 -0.075,0.184 0.274,0.274 0 0 1 -0.189,0.079 h -1.515 a 0.259,0.259 0 0 1 -0.184,-0.076 0.27,0.27 0 0 1 -0.079,-0.187 z"
                    transform="translate(-182.401,-180.24)"/>
            <path
                    id="Pfad_20"
                    data-name="Pfad 20"
                    class="cls-1"
                    d="m 202.591,196.242 h -1.673 a 1.4,1.4 0 0 0 -1.393,1.393 v 1.673 a 1.393,1.393 0 0 0 1.393,1.393 h 1.673 a 1.393,1.393 0 0 0 1.393,-1.393 v -1.673 a 1.393,1.393 0 0 0 -1.393,-1.393 z m -1.857,1.393 a 0.185,0.185 0 0 1 0.184,-0.184 h 1.673 a 0.192,0.192 0 0 1 0.133,0.057 0.179,0.179 0 0 1 0.051,0.127 v 1.673 a 0.18,0.18 0 0 1 -0.053,0.129 0.185,0.185 0 0 1 -0.132,0.056 h -1.668 a 0.177,0.177 0 0 1 -0.135,-0.057 0.172,0.172 0 0 1 -0.054,-0.127 z"
                    transform="translate(-184.034,-181.419)"/>
            <path
                    id="Pfad_21"
                    data-name="Pfad 21"
                    class="cls-1"
                    d="m 202.591,200.558 h -1.673 a 1.4,1.4 0 0 0 -1.393,1.393 v 1.674 a 1.4,1.4 0 0 0 1.393,1.393 h 1.673 a 1.374,1.374 0 0 0 0.984,-0.408 1.394,1.394 0 0 0 0.409,-0.986 v -1.674 a 1.367,1.367 0 0 0 -0.408,-0.983 1.4,1.4 0 0 0 -0.985,-0.409 z m -1.857,1.393 a 0.18,0.18 0 0 1 0.054,-0.129 0.183,0.183 0 0 1 0.13,-0.057 h 1.673 a 0.185,0.185 0 0 1 0.13,0.056 0.176,0.176 0 0 1 0.054,0.13 v 1.674 a 0.185,0.185 0 0 1 -0.051,0.129 0.2,0.2 0 0 1 -0.133,0.056 h -1.673 a 0.178,0.178 0 0 1 -0.13,-0.056 0.18,0.18 0 0 1 -0.054,-0.129 z"
                    transform="translate(-184.034,-179.424)"/>
            <path
                    id="Pfad_22"
                    data-name="Pfad 22"
                    class="cls-1"
                    d="m 206.125,194.018 h -1.675 a 1.4,1.4 0 0 0 -1.393,1.393 v 1.674 a 1.4,1.4 0 0 0 1.393,1.393 h 1.674 a 1.4,1.4 0 0 0 1.392,-1.393 v -1.674 a 1.4,1.4 0 0 0 -1.392,-1.393 z m -1.858,1.393 a 0.178,0.178 0 0 1 0.054,-0.13 0.182,0.182 0 0 1 0.13,-0.056 h 1.674 a 0.174,0.174 0 0 1 0.126,0.054 0.189,0.189 0 0 1 0.057,0.132 v 1.674 a 0.193,0.193 0 0 1 -0.054,0.13 0.185,0.185 0 0 1 -0.129,0.054 h -1.675 a 0.183,0.183 0 0 1 -0.129,-0.053 0.185,0.185 0 0 1 -0.056,-0.132 z"
                    transform="translate(-182.401,-182.447)"/>
        </g>
        <path
                id="Pfad_23"
                data-name="Pfad 23"
                class="cls-1"
                d="m 204.5,181.948 a 19.513,19.513 0 1 0 19.515,19.514 19.536,19.536 0 0 0 -19.515,-19.514 z m 1.063,37.849 c -0.371,0.028 -0.743,0.028 -1.37,0.028 a 18.364,18.364 0 1 1 1.37,-0.028 z"
                transform="translate(0,0.147)"/>
        <g
                aria-label="TSG"
                transform="translate(231.016,213.629)"
                id="TSG"
                style="font-weight:700;font-size:34px;font-family:Roboto-Bold, Roboto;fill:#ffffff"
                class="cls-2">
            <path
                    d="M 22.495117,-19.938477 H 14.775391 V 0 H 8.4003906 V -19.938477 H 0.68066406 v -4.78125 H 22.495117 Z"
                    style="letter-spacing:-0.007em"
                    id="path2032"/>
            <path
                    d="m 45.881141,-7.7695312 q 0,3.6523437 -3.104493,5.9433593 -3.08789,2.27441409 -8.40039,2.27441409 -3.071289,0 -5.362305,-0.53125 -2.274414,-0.54785156 -4.266601,-1.37792969 v -5.9267578 h 0.697265 q 1.975586,1.5771484 4.416016,2.4238281 2.457031,0.8466797 4.714844,0.8466797 0.581054,0 1.527343,-0.099609 0.946289,-0.099609 1.543946,-0.3320312 0.730468,-0.2988281 1.195312,-0.7470703 0.481445,-0.4482422 0.481445,-1.328125 0,-0.8134766 -0.697265,-1.3945313 -0.680664,-0.5976562 -2.008789,-0.9130859 -1.394532,-0.3320313 -2.955078,-0.6142578 -1.543946,-0.2988282 -2.905274,-0.747071 -3.121094,-1.012695 -4.499023,-2.739258 -1.361328,-1.743164 -1.361328,-4.316406 0,-3.453125 3.08789,-5.627929 3.104492,-2.191407 7.96875,-2.191407 2.44043,0 4.814453,0.481446 2.390625,0.464843 4.133789,1.178711 v 5.694335 h -0.680664 q -1.49414,-1.195312 -3.668945,-1.992187 -2.158203,-0.813477 -4.416016,-0.813477 -0.796875,0 -1.59375,0.116211 -0.780273,0.09961 -1.510742,0.398438 -0.647461,0.249023 -1.112304,0.763672 -0.464844,0.498047 -0.464844,1.145508 0,0.979492 0.74707,1.510742 0.74707,0.514648 2.822266,0.946289 1.361328,0.282226 2.606445,0.547851 1.261719,0.265625 2.706055,0.730469 2.838867,0.929688 4.183593,2.540039 1.361329,1.59375 1.361329,4.1503908 z"
                    id="path2034"/>
            <path
                    d="m 72.128211,-1.4111328 q -1.660156,0.64746093 -4.399414,1.29492186 -2.739258,0.63085938 -5.461914,0.63085938 -6.308594,0 -9.87793,-3.41992184 -3.569336,-3.4365235 -3.569336,-9.4794926 0,-5.760742 3.602539,-9.280273 3.602539,-3.536133 10.043946,-3.536133 2.440429,0 4.648437,0.448242 2.208008,0.431641 4.914063,1.743164 v 5.793946 h -0.713868 q -0.464843,-0.348633 -1.361328,-0.979492 -0.896484,-0.647461 -1.726562,-1.095704 -0.962891,-0.53125 -2.257813,-0.913086 -1.27832,-0.381835 -2.722656,-0.381835 -1.693359,0 -3.071289,0.498046 -1.37793,0.498047 -2.473633,1.527344 -1.045898,0.996094 -1.660156,2.540039 -0.597656,1.527344 -0.597656,3.536133 0,4.1005859 2.174804,6.2753906 2.174805,2.1748047 6.424805,2.1748047 0.365234,0 0.796875,-0.016602 0.448242,-0.016602 0.813477,-0.049805 V -8.948243 h -4.930665 v -4.665039 h 11.405274 z"
                    id="path2036"/>
        </g>
        <g
                aria-label=" Digital Services"
                transform="translate(297.54,213.629)"
                id="_Digital_Services"
                style="font-weight:300;font-size:34px;font-family:Roboto-Light, Roboto;fill:#e30613"
                class="cls-4">
            <path
                    d="m 36.158203,-12.334961 q 0,3.3701172 -1.477539,6.1093751 -1.460937,2.7392578 -3.901367,4.25 -1.69336,1.0458984 -3.785156,1.51074215 Q 24.918945,0 21.515625,0 h -6.242187 v -24.719727 h 6.175781 q 3.61914,0 5.74414,0.53125 2.141602,0.514649 3.619141,1.427735 2.523437,1.577148 3.93457,4.200195 1.411133,2.623047 1.411133,6.225586 z m -3.436523,-0.04981 q 0,-2.905273 -1.012696,-4.897461 -1.012695,-1.992187 -3.021484,-3.137695 -1.460938,-0.830078 -3.104492,-1.145508 -1.643555,-0.332031 -3.934571,-0.332031 h -3.08789 v 19.0751954 h 3.08789 q 2.374024,0 4.13379,-0.3486328 1.776367,-0.3486329 3.253906,-1.2949219 1.842773,-1.1787109 2.755859,-3.1044922 0.929688,-1.9257813 0.929688,-4.8144535 z"
                    id="path2039"/>
            <path
                    d="m 44.608398,-21.648437 h -3.519531 v -3.237305 h 3.519531 z M 44.40918,0 h -3.121094 v -18.543945 h 3.121094 z"
                    id="path2041"/>
            <path
                    d="m 65.65918,-2.1083984 q 0,4.7148437 -2.141602,6.9228515 -2.141601,2.2080078 -6.59082,2.2080078 -1.477539,0 -2.888672,-0.2158203 -1.394531,-0.1992187 -2.755859,-0.5810547 v -3.1875 h 0.166015 q 0.763672,0.2988282 2.423828,0.7304688 1.660157,0.4482422 3.320313,0.4482422 1.59375,0 2.639648,-0.381836 1.045899,-0.3818359 1.626953,-1.0625 Q 62.040039,2.125 62.289062,1.2119141 62.538086,0.29882813 62.538086,-0.83007813 V -2.5234375 q -1.411133,1.1289063 -2.706055,1.69335937 -1.27832,0.54785157 -3.270508,0.54785157 -3.320312,0 -5.279296,-2.39062504 -1.942383,-2.4072265 -1.942383,-6.7734375 0,-2.3906249 0.664062,-4.1171879 0.680664,-1.743164 1.842774,-3.004882 1.079101,-1.178711 2.623047,-1.826172 1.543945,-0.664063 3.071289,-0.664063 1.610351,0 2.689453,0.332032 1.095703,0.315429 2.307617,0.979492 l 0.199219,-0.796875 H 65.65918 Z M 62.538086,-5.0966797 V -15.207031 q -1.245117,-0.564453 -2.324219,-0.796875 -1.0625,-0.249024 -2.125,-0.249024 -2.573242,0 -4.050781,1.726563 -1.477539,1.726562 -1.477539,5.0136717 0,3.1210937 1.095703,4.7314453 1.095703,1.6103516 3.635742,1.6103516 1.361328,0 2.722656,-0.5146485 1.37793,-0.53125 2.523438,-1.4111328 z"
                    id="path2043"/>
            <path
                    d="m 75.155273,-21.648437 h -3.519531 v -3.237305 h 3.519531 z M 74.956055,0 h -3.121094 v -18.543945 h 3.121094 z"
                    id="path2045"/>
            <path
                    d="m 90.793945,-0.16601562 q -0.879883,0.23242187 -1.925781,0.38183593 -1.029297,0.14941407 -1.842773,0.14941407 -2.838868,0 -4.316407,-1.52734378 -1.477539,-1.5273437 -1.477539,-4.8974609 v -9.8613277 h -2.108398 v -2.623047 h 2.108398 v -5.329102 h 3.121094 v 5.329102 h 6.441406 v 2.623047 h -6.441406 v 8.4501949 q 0,1.4609375 0.06641,2.2910156 0.06641,0.8134766 0.464844,1.5273437 0.365234,0.6640625 0.996094,0.9794922 0.647461,0.2988282 1.958984,0.2988282 0.763672,0 1.59375,-0.2158204 0.830078,-0.2324218 1.195313,-0.3818359 h 0.166015 z"
                    id="path2047"/>
            <path
                    d="m 108.98926,0 h -3.10449 v -1.9755859 q -0.41504,0.2822265 -1.12891,0.796875 -0.69727,0.49804684 -1.36133,0.79687496 Q 102.61426,0 101.60156,0.24902344 q -1.01269,0.265625 -2.374021,0.265625 -2.506836,0 -4.25,-1.66015624 -1.743164,-1.6601563 -1.743164,-4.2333984 0,-2.1083985 0.896484,-3.4033204 0.913086,-1.3115234 2.589844,-2.0585934 1.693359,-0.747071 4.067387,-1.012696 2.37402,-0.265625 5.09668,-0.398437 v -0.481445 q 0,-1.0625 -0.38184,-1.759766 -0.36523,-0.697266 -1.0625,-1.095703 -0.66406,-0.381836 -1.59375,-0.514649 -0.92969,-0.132812 -1.94238,-0.132812 -1.228519,0 -2.739261,0.332031 -1.510742,0.31543 -3.121094,0.929688 H 94.87793 v -3.170899 q 0.913086,-0.249023 2.639648,-0.547851 1.726563,-0.298828 3.403322,-0.298828 1.95898,0 3.40332,0.332031 1.46094,0.315429 2.52344,1.095703 1.04589,0.763672 1.59375,1.975586 0.54785,1.211914 0.54785,3.004883 z m -3.10449,-4.5654297 v -5.1630859 q -1.42774,0.083008 -3.37012,0.2490234 -1.92578,0.1660156 -3.054689,0.4814453 -1.344727,0.381836 -2.174805,1.1953125 -0.830078,0.796875 -0.830078,2.2080078 0,1.59375 0.962891,2.4072266 0.96289,0.796875 2.938481,0.796875 1.64355,0 3.00488,-0.6308594 1.36133,-0.6474609 2.52344,-1.5439453 z"
                    id="path2049"/>
            <path
                    d="m 118.18652,0 h -3.12109 v -25.832031 h 3.12109 z"
                    id="path2051"/>
            <path
                    d="m 154.56055,-7.0556641 q 0,1.444336 -0.68067,2.8554688 -0.66406,1.4111328 -1.87597,2.390625 -1.32813,1.06249999 -3.1045,1.66015624 -1.75976,0.59765625 -4.25,0.59765625 -2.67285,0 -4.81445,-0.49804688 -2.125,-0.49804687 -4.33301,-1.47753901 v -4.1171875 h 0.23242 q 1.87598,1.5605468 4.33301,2.4072265 2.45703,0.8466797 4.61524,0.8466797 3.05468,0 4.74804,-1.1455078 1.70996,-1.1455078 1.70996,-3.0546875 0,-1.6435547 -0.81347,-2.4238281 -0.79688,-0.7802735 -2.44043,-1.2119146 -1.24512,-0.332031 -2.70606,-0.547851 -1.44433,-0.21582 -3.07129,-0.547852 -3.2871,-0.697265 -4.88085,-2.374023 -1.57715,-1.693359 -1.57715,-4.399414 0,-3.104492 2.62304,-5.080078 2.62305,-1.992188 6.65723,-1.992188 2.60645,0 4.78125,0.498047 2.17481,0.498047 3.85156,1.228516 v 3.884765 h -0.23242 q -1.41113,-1.195312 -3.71875,-1.975586 -2.29101,-0.796875 -4.69824,-0.796875 -2.63965,0 -4.25,1.095704 -1.59375,1.095703 -1.59375,2.822265 0,1.543946 0.79687,2.423828 0.79688,0.879883 2.80567,1.344727 1.0625,0.232422 3.02148,0.564453 1.95899,0.332031 3.32031,0.680664 2.75586,0.730469 4.1504,2.208008 1.39453,1.4775389 1.39453,4.1337889 z"
                    id="path2053"/>
            <path
                    d="M 175.11328,-8.9482422 H 161.4502 q 0,1.709961 0.51464,2.9882813 0.51465,1.2617187 1.41114,2.0751953 0.86328,0.796875 2.04199,1.1953125 1.19531,0.3984375 2.62305,0.3984375 1.89257,0 3.80175,-0.7470703 1.92578,-0.7636719 2.73926,-1.4941407 h 0.16602 v 3.4033204 q -1.57715,0.66406245 -3.22071,1.11230464 -1.64355,0.44824219 -3.45312,0.44824219 -4.61524,0 -7.20508,-2.49023443 -2.58984,-2.5068359 -2.58984,-7.1054687 0,-4.5488285 2.47363,-7.2216795 2.49023,-2.672852 6.54102,-2.672852 3.75195,0 5.77734,2.191407 2.04199,2.191406 2.04199,6.225585 z m -3.03808,-2.3906248 q -0.0166,-2.457031 -1.24512,-3.801758 -1.21192,-1.344727 -3.70215,-1.344727 -2.50684,0 -4.00098,1.477539 -1.47754,1.47754 -1.67675,3.668946 z"
                    id="path2055"/>
            <path
                    d="M 191.41602,-15.140625 H 191.25 q -0.69727,-0.166016 -1.36133,-0.232422 -0.64746,-0.08301 -1.54394,-0.08301 -1.44434,0 -2.78907,0.647461 -1.34472,0.63086 -2.58984,1.643555 V 0 h -3.12109 v -18.543945 h 3.12109 v 2.739257 q 1.85938,-1.49414 3.27051,-2.108398 1.42773,-0.630859 2.90527,-0.630859 0.81348,0 1.17871,0.0498 0.36524,0.0332 1.09571,0.149414 z"
                    id="path2057"/>
            <path
                    d="M 210.4248,-18.543945 202.9209,0 h -3.1377 l -7.4541,-18.543945 h 3.38672 l 5.74414,14.7587887 5.69434,-14.7587887 z"
                    id="path2059"/>
            <path
                    d="m 217.8623,-21.648437 h -3.51953 v -3.237305 h 3.51953 z M 217.66309,0 h -3.1211 v -18.543945 h 3.1211 z"
                    id="path2061"/>
            <path
                    d="M 237.58496,-1.1621094 Q 236.02441,-0.41503906 234.61328,0 q -1.39453,0.41503906 -2.97168,0.41503906 -2.00879,0 -3.68555,-0.58105468 -1.67675,-0.59765625 -2.87207,-1.79296878 -1.21191,-1.1953125 -1.87597,-3.0214843 -0.66406,-1.8261719 -0.66406,-4.2666016 0,-4.5488277 2.49023,-7.1386717 2.50684,-2.589844 6.60742,-2.589844 1.59375,0 3.1211,0.448242 1.54394,0.448242 2.82226,1.095703 v 3.469727 h -0.16601 q -1.42774,-1.112305 -2.95508,-1.709961 -1.51075,-0.597656 -2.95508,-0.597656 -2.65625,0 -4.2002,1.792968 -1.52734,1.776368 -1.52734,5.2294927 0,3.3535156 1.49414,5.1630859 1.51074,1.7929688 4.2334,1.7929688 0.94629,0 1.92578,-0.2490235 0.97949,-0.2490234 1.75977,-0.6474609 0.68066,-0.3486328 1.27832,-0.7304688 0.59765,-0.3984374 0.94629,-0.680664 h 0.16601 z"
                    id="path2063"/>
            <path
                    d="m 257.125,-8.9482422 h -13.66309 q 0,1.709961 0.51465,2.9882813 0.51465,1.2617187 1.41114,2.0751953 0.86328,0.796875 2.04199,1.1953125 1.19531,0.3984375 2.62304,0.3984375 1.89258,0 3.80176,-0.7470703 1.92578,-0.7636719 2.73926,-1.4941407 h 0.16602 v 3.4033204 q -1.57715,0.66406245 -3.22071,1.11230464 -1.64355,0.44824219 -3.45312,0.44824219 -4.61524,0 -7.20508,-2.49023443 -2.58984,-2.5068359 -2.58984,-7.1054687 0,-4.5488285 2.47363,-7.2216795 2.49023,-2.672852 6.54101,-2.672852 3.75196,0 5.77735,2.191407 2.04199,2.191406 2.04199,6.225585 z m -3.03809,-2.3906248 q -0.0166,-2.457031 -1.24511,-3.801758 -1.21192,-1.344727 -3.70215,-1.344727 -2.50684,0 -4.00098,1.477539 -1.47754,1.47754 -1.67676,3.668946 z"
                    id="path2065"/>
            <path
                    d="m 275.10449,-5.3457031 q 0,2.540039 -2.1084,4.1669922 -2.09179,1.62695309 -5.72754,1.62695309 -2.05859,0 -3.78515,-0.48144531 -1.70996,-0.49804688 -2.87207,-1.07910158 v -3.5029297 h 0.16601 q 1.47754,1.1123047 3.28711,1.7763672 1.80957,0.6474609 3.46973,0.6474609 2.05859,0 3.2207,-0.6640625 1.16211,-0.6640625 1.16211,-2.0917968 0,-1.0957031 -0.63086,-1.6601563 -0.63086,-0.5644531 -2.42383,-0.9628906 -0.66406,-0.1494141 -1.74316,-0.3486328 -1.0625,-0.1992188 -1.94238,-0.4316406 -2.44043,-0.647461 -3.46973,-1.8925781 -1.01269,-1.261719 -1.01269,-3.087891 0,-1.145508 0.46484,-2.158203 0.48144,-1.012695 1.44434,-1.80957 0.92968,-0.780274 2.35742,-1.228516 1.44433,-0.464843 3.2207,-0.464843 1.66016,0 3.35352,0.415039 1.70996,0.398437 2.83886,0.979492 v 3.336914 h -0.16601 q -1.19531,-0.879883 -2.90528,-1.477539 -1.70996,-0.614258 -3.35351,-0.614258 -1.70996,0 -2.88867,0.664062 -1.17871,0.647461 -1.17871,1.942383 0,1.145508 0.71386,1.726563 0.69727,0.581054 2.25782,0.946289 0.86328,0.199219 1.92578,0.398437 1.0791,0.199219 1.79297,0.365235 2.1748,0.4980466 3.35351,1.7099606 1.17871,1.2285157 1.17871,3.2539063 z"
                    id="path2067"/>
        </g>
    </g>
</svg>
