<svg xmlns="http://www.w3.org/2000/svg" width="373" height="58.558"
     viewBox="0 0 373 58.558">
    <defs>
        <clipPath id="clip-path">
            <path id="Pfad_192" data-name="Pfad 192" d="M0,18.447H373V-40.111H0Z" transform="translate(0 0)"/>
        </clipPath>
    </defs>
    <g id="logo" transform="translate(0 40.111)" clip-path="url(#clip-path)">
        <path id="Pfad_189" data-name="Pfad 189"
              d="M1.1-13.518a.25.25,0,0,0-.283.283V.829c0,.208.093.3.283.3H3.5c.19,0,.284-.095.284-.3V-4.832H9.631a.265.265,0,0,0,.3-.283V-7.044a.265.265,0,0,0-.3-.284H3.783v-3.6h6.437a.251.251,0,0,0,.284-.284v-2.024a.251.251,0,0,0-.284-.283H1.1Zm17.414-.113c-2.2,0-2.573.208-3.141,2.269L11.981.829c-.038.228.039.3.247.3h2.4c.19,0,.207-.075.264-.3l1.1-3.938h5.073L22.146.829c.056.228.075.3.246.3h2.421c.19,0,.285-.075.247-.3L21.73-11.363c-.57-2.061-.929-2.269-3.219-2.269m0,2.5c.38,0,.4.095.531.549L20.4-5.567H16.657l1.381-5.018c.114-.454.152-.549.473-.549m14.577-2.5c-3.35,0-5.3.813-5.3,3.613V-9.6c0,2.2.681,3.275,2.252,3.863l3.692,1.384c.986.378,1.365.757,1.365,1.571v.247c0,.832-.587,1.173-1.724,1.173H28c-.247,0-.359.113-.359.341V.412a.355.355,0,0,0,.321.416,29.136,29.136,0,0,0,4.675.4c3.275,0,5.451-.832,5.451-3.633v-.529a3.491,3.491,0,0,0-2.63-3.807L31.914-8.124c-.852-.324-1.118-.758-1.118-1.422v-.264c0-.832.587-1.23,1.743-1.23h4.487c.247,0,.359-.095.359-.341v-1.531c0-.172-.113-.267-.341-.341a19.358,19.358,0,0,0-3.957-.378m7.517.113a.251.251,0,0,0-.283.283v2.024a.251.251,0,0,0,.283.284h3.956V.829c0,.208.095.3.285.3h2.4c.19,0,.284-.095.284-.3V-10.927h3.956a.265.265,0,0,0,.3-.284v-2.024a.265.265,0,0,0-.3-.283H40.6Zm19.5,0a.251.251,0,0,0-.283.283V.829c0,.208.095.3.283.3h2.4c.188,0,.283-.095.283-.3V-4.832h5.85a.265.265,0,0,0,.3-.283V-7.044a.266.266,0,0,0-.3-.284h-5.85v-3.6h6.436a.252.252,0,0,0,.285-.284v-2.024a.252.252,0,0,0-.285-.283H60.1Zm18.325-.113c-4.829,0-6.133,1.7-6.133,7.457,0,5.719,1.3,7.4,6.133,7.4s6.132-1.682,6.132-7.4c0-5.754-1.305-7.457-6.132-7.457m0,2.592c2.613,0,3.124,1.155,3.124,4.865,0,3.673-.511,4.81-3.124,4.81S75.3-2.5,75.3-6.175c0-3.71.513-4.865,3.126-4.865m15.3-2.592c-1.552,0-3.37.057-5.035.208-.228.018-.285.057-.285.264V.829c0,.246.056.3.285.3h2.4c.228,0,.284-.057.284-.3v-5h1.741L96.224.715a.743.743,0,0,0,.755.416h2.384c.284,0,.379-.17.228-.378L96.376-4.358c2.137-.416,2.894-1.551,2.894-4.41,0-3.785-1.4-4.864-5.546-4.864m-.3,2.592c2.254,0,2.84.454,2.84,2.348,0,1.931-.586,2.234-2.84,2.234H91.375V-11.04ZM119.2-13.518c-.188,0-.227.075-.283.3L116.894-2.368c-.095.474-.19.567-.436.567-.3,0-.36-.093-.472-.567l-2.5-10.336a.361.361,0,0,0-.38-.3h-2.233a.378.378,0,0,0-.4.3L108-2.368c-.115.474-.19.567-.493.567-.246,0-.321-.093-.436-.567l-2.024-10.847c-.038-.228-.095-.3-.266-.3h-2.517c-.19,0-.284.075-.246.3l2.347,12.19c.4,2.005.776,2.252,2.839,2.252,2.347,0,2.612-.247,3.086-2.252l1.7-7.155,1.686,7.155c.491,2.005.737,2.252,3.1,2.252,2.062,0,2.441-.247,2.819-2.252l2.367-12.19c.039-.228-.056-.3-.266-.3Zm11-.113c-2.2,0-2.575.208-3.143,2.269L123.674.829c-.039.228.036.3.246.3h2.4c.188,0,.208-.075.264-.3l1.1-3.938h5.072L133.837.829c.058.228.076.3.246.3h2.424c.19,0,.284-.075.246-.3L133.42-11.363c-.568-2.061-.927-2.269-3.217-2.269m0,2.5c.377,0,.4.095.529.549L132.1-5.567h-3.746l1.381-5.018c.113-.454.151-.549.473-.549m15.031-2.5c-1.553,0-3.37.057-5.035.208-.226.018-.284.057-.284.264V.829c0,.246.058.3.284.3h2.4c.228,0,.285-.057.285-.3v-5h1.742L147.734.715a.743.743,0,0,0,.756.416h2.385c.283,0,.378-.17.227-.378l-3.216-5.112c2.137-.416,2.894-1.551,2.894-4.41,0-3.785-1.4-4.864-5.546-4.864m-.3,2.592c2.254,0,2.841.454,2.841,2.348,0,1.931-.587,2.234-2.841,2.234h-2.045V-11.04ZM160.4-13.632c-1.856,0-3.824.057-5.489.208-.227.018-.283.057-.283.264V.792c0,.187.056.226.283.244,1.664.133,3.633.19,5.489.19,4.45,0,6.133-2.176,6.133-7.42,0-5.226-1.684-7.438-6.133-7.438m-.151,2.592c2.4,0,3.275,1.476,3.275,4.847,0,3.389-.832,4.829-3.124,4.829h-2.8V-11.04h2.652"
              transform="translate(0.374 12.177)" fill="#ed1834"/>
        <path id="Pfad_190" data-name="Pfad 190"
              d="M34.189-28.073v-2.389c0-5.467-1.962-9.546-10.082-9.546H.813v27.871H9.355v-7.007H26.339c6.042,0,7.85-4.77,7.85-8.929m-8.774-.964c0,1.657-.77,2.967-2.771,2.967H9.355v-7.013H21.912c2.581,0,3.5,1.078,3.5,2.967v1.078Zm50.41,16.9v-6.694H53.88V-23.3H75.825v-5.77H53.88v-4.473H75.827v-6.462H45.337v27.87Zm49.068,0v-27.87h-8.543v20.252h-.077L100.215-40.008H86.975v27.87h8.543V-32.389h.076l16.059,20.251h13.241Zm41.636,0v-6.694H144.584V-23.3H166.53v-5.77H144.584v-4.473H166.53v-6.462H136.043v27.87Zm48.489-9.7v-8.473c0-6.891-3-9.7-11.546-9.7h-25.8v27.871h25.8c8.544,0,11.546-2.81,11.546-9.7M206.477-24.3c0,3.967-1.425,5.008-5.084,5.008H186.219V-33.082h15.174c3.659,0,5.084,1.041,5.084,5.008V-24.3Zm50.18,12.163v-6.694H234.711V-23.3h21.946v-5.77H234.711v-4.473h21.946v-6.462h-30.49v27.87ZM301.95-29.964v-1.771c0-5-1.77-8.273-8.351-8.273H267.8v27.871h8.544v-7.24h13.44c2.657,0,3.506.962,3.506,3.889v3.35h8.542v-4.738c0-4.58-2.117-5.7-4.657-6.159v-.078c3.925-.923,4.772-3.116,4.772-6.852m-8.312.734c0,2-.847,2.928-3.157,2.928H276.347v-6.781H289.71c2.7,0,3.927.462,3.927,2.929v.924"
              transform="translate(0.374 0.047)" fill="#222c37"/>
        <path id="Pfad_191" data-name="Pfad 191"
              d="M271.381-26.175,244.008-40.111v11.725L220.976-40.111V-12.24l23.031-11.723V-12.24l27.373-13.935"
              transform="translate(101.623 0)" fill="#ed1834"/>
    </g>
</svg>
