<?xml version="1.0" encoding="utf-8"?>
<!-- Generator: Adobe Illustrator 28.1.0, SVG Export Plug-In . SVG Version: 6.00 Build 0)  -->
<svg version="1.1" id="Ebene_1" xmlns="http://www.w3.org/2000/svg" xmlns:xlink="http://www.w3.org/1999/xlink" x="0px" y="0px"
	 viewBox="0 0 446.2 95.4" style="enable-background:new 0 0 446.2 95.4;" xml:space="preserve">
<style type="text/css">
	.st0{fill:#FF8E01;}
</style>
<g>
	<g>
		<path class="st0" d="M0,42.3V17.8C0,6.9,5.2,0.4,20,0.4h19.1c1.1,0,1.7,0.6,1.7,1.7v5.1c0,1.1-0.6,1.7-1.7,1.7H20.7
			c-7.5,0-11,2.4-11,9.1v7.6h27.8c1.1,0,1.7,0.6,1.7,1.7v5.1c0,1.1-0.6,1.7-1.7,1.7H9.7v8.1c0,6.8,3.6,9.1,11,9.1h18.5
			c1.1,0,1.7,0.6,1.7,1.7V58c0,1.1-0.6,1.7-1.7,1.7H20C5.2,59.7,0,53.2,0,42.3z"/>
		<path class="st0" d="M57,58V17.8C57,6.9,62.2,0.4,77,0.4h18.3C96.4,0.4,97,1,97,2.1v5.1c0,1.1-0.6,1.7-1.7,1.7H77.7
			c-7.5,0-11,2.4-11,9.1v9.3h26.9c1.1,0,1.7,0.6,1.7,1.7V34c0,1.1-0.6,1.7-1.7,1.7H66.7V58c0,1.1-0.6,1.7-1.7,1.7h-6.3
			C57.6,59.7,57,59.1,57,58z"/>
		<path class="st0" d="M113.2,58V17.8c0-10.8,5.2-17.4,20-17.4h18.3c1.1,0,1.7,0.6,1.7,1.7v5.1c0,1.1-0.6,1.7-1.7,1.7h-17.6
			c-7.5,0-11,2.4-11,9.1v9.3h26.9c1.1,0,1.7,0.6,1.7,1.7V34c0,1.1-0.6,1.7-1.7,1.7h-26.9V58c0,1.1-0.6,1.7-1.7,1.7h-6.3
			C113.7,59.7,113.2,59.1,113.2,58z"/>
		<path class="st0" d="M168.1,42.3V17.8c0-10.8,5.2-17.4,20-17.4h19.1c1.1,0,1.7,0.6,1.7,1.7v5.1c0,1.1-0.6,1.7-1.7,1.7h-18.5
			c-7.5,0-11,2.4-11,9.1v7.6h27.8c1.1,0,1.7,0.6,1.7,1.7v5.1c0,1.1-0.6,1.7-1.7,1.7h-27.8v8.1c0,6.8,3.6,9.1,11,9.1h18.5
			c1.1,0,1.7,0.6,1.7,1.7V58c0,1.1-0.6,1.7-1.7,1.7h-19.1C173.3,59.7,168.1,53.2,168.1,42.3z"/>
		<path class="st0" d="M223.9,42.8V17.4c0-10.8,5.2-17.4,19.1-17.4h8.4c12.4,0,18.3,6.2,18.3,16.7c0,1.1-0.6,1.7-1.7,1.7h-6.2
			c-1,0-1.8-0.6-1.8-1.7c0-5.8-4.1-8-9.3-8h-7c-6.6,0-10.2,2.4-10.2,8.8v25.1c0,6.5,3.6,8.8,10.2,8.8h7c5.3,0,9.3-2,9.3-7.8
			c0-1.1,0.8-1.7,1.8-1.7h6.2c1.1,0,1.7,0.6,1.7,1.7c0,10.4-5.9,16.5-18.3,16.5h-8.4C229.1,60.1,223.9,53.6,223.9,42.8z"/>
		<path class="st0" d="M300.1,58V8.9h-16.2c-1.1,0-1.7-0.6-1.7-1.7V2.1c0-1.1,0.6-1.7,1.7-1.7h42c1.1,0,1.7,0.6,1.7,1.7v5.1
			c0,1.1-0.6,1.7-1.7,1.7h-16.2V58c0,1.1-0.6,1.7-1.7,1.7h-6.3C300.7,59.7,300.1,59.1,300.1,58z"/>
	</g>
	<g>
		<path class="st0" d="M336.6,58l6.9-40.6C346.1,2,348.6,0,359.8,0h3.3c11.3,0,14.1,2,16.6,17.4l6.8,40.6c0.3,1.6-0.6,1.7-1.7,1.7
			h-4.8c-0.8,0-1.4-0.1-2.1-0.5l-26.5-13.1c-0.9-0.5-1.3-0.8-1-2.1l0.8-4.6c0.3-1.3,1.1-1.7,2.2-1.1l22,10.9l-5.2-31.7
			c-1.6-9.6-3.6-9.7-7.7-9.7h-1.9c-3.9,0-5.8,0.1-7.5,9.7L346.2,58c-0.3,1.7-0.6,1.7-1.7,1.7h-6.3C337.2,59.7,336.3,59.7,336.6,58z"
			/>
		<path class="st0" d="M399.7,44.7c0-1.1,0.6-1.7,1.7-1.7h6c1.1,0,1.9,0.6,1.9,1.7c0,5.8,4.1,7.5,10.9,7.5h5.5
			c6.8,0,10.8-1.9,10.8-9.2c0-5.7-1.8-6.4-11.3-7.6l-4.6-0.6c-16.9-2.2-20.2-8.6-20.2-17.5c0-10.6,6.7-17.3,19.3-17.3h6.2
			c12.4,0,18.9,5.5,18.9,15.6c0,1.1-0.6,1.7-1.7,1.7h-6c-1.1,0-1.9-0.6-1.9-1.7c0-5.6-3.6-7.7-10.1-7.7h-4.7
			c-6.5,0-10.3,2.2-10.3,9.4c0,5.5,1.5,7.5,10.5,8.7l4.6,0.6c14.8,1.9,21,3.7,21,16.4c0,11.7-6.3,17.1-19.2,17.1h-8.1
			C405.9,60.1,399.7,54.8,399.7,44.7z"/>
	</g>
	<g>
		<path d="M3.8,80h9.7v1.9H5.8v4.5h7.1v1.9H5.8v4.8h8V95H3.8V80z"/>
		<path d="M28.4,80h9.4v1.9h-7.4v4.7h6.9v1.9h-6.9V95h-2V80z"/>
		<path d="M52.2,80h9.4v1.9h-7.4v4.7h6.9v1.9h-6.9V95h-2V80z"/>
		<path d="M76,80h2v15h-2V80z"/>
		<path d="M103.9,83.2c-0.4-0.6-1-1-1.6-1.3s-1.3-0.4-2-0.4c-0.8,0-1.6,0.2-2.3,0.5c-0.7,0.3-1.3,0.8-1.8,1.3s-0.9,1.2-1.1,1.9
			s-0.4,1.5-0.4,2.4c0,0.8,0.1,1.5,0.4,2.2c0.3,0.7,0.6,1.3,1.1,1.9c0.5,0.5,1.1,1,1.8,1.3c0.7,0.3,1.5,0.5,2.4,0.5
			c0.9,0,1.6-0.2,2.3-0.5c0.6-0.4,1.2-0.8,1.7-1.5l1.7,1.3c-0.1,0.2-0.3,0.4-0.6,0.7s-0.7,0.6-1.1,0.9s-1,0.5-1.7,0.8
			s-1.4,0.3-2.3,0.3c-1.2,0-2.3-0.2-3.2-0.7c-1-0.5-1.8-1-2.4-1.8s-1.2-1.6-1.5-2.5c-0.4-0.9-0.5-1.9-0.5-2.8c0-1.2,0.2-2.2,0.6-3.2
			c0.4-1,0.9-1.8,1.6-2.5c0.7-0.7,1.5-1.3,2.5-1.7c1-0.4,2-0.6,3.2-0.6c1,0,2,0.2,2.9,0.6c1,0.4,1.7,1,2.3,1.8L103.9,83.2z"/>
		<path d="M120.1,80h2v15h-2V80z"/>
		<path d="M137.6,80h9.7v1.9h-7.6v4.5h7.1v1.9h-7.1v4.8h8V95h-10.1V80z"/>
		<path d="M162.2,80h2.7l8.3,12.3h0V80h2v15h-2.6l-8.3-12.3h0V95h-2V80z"/>
		<path d="M193.8,81.9H189V80h11.7v1.9h-4.8V95h-2V81.9z"/>
		<path d="M232.4,91.9c0.4,0.6,0.8,1,1.4,1.2c0.6,0.3,1.2,0.4,1.8,0.4c0.3,0,0.7-0.1,1-0.2c0.4-0.1,0.7-0.3,1-0.5
			c0.3-0.2,0.5-0.5,0.7-0.8s0.3-0.7,0.3-1.1c0-0.6-0.2-1-0.6-1.3s-0.8-0.6-1.4-0.8s-1.1-0.4-1.8-0.6c-0.6-0.2-1.2-0.5-1.8-0.8
			c-0.5-0.3-1-0.8-1.4-1.4c-0.4-0.6-0.5-1.3-0.5-2.3c0-0.4,0.1-0.9,0.3-1.4s0.5-0.9,0.9-1.4c0.4-0.4,0.9-0.8,1.6-1
			c0.6-0.3,1.4-0.4,2.3-0.4c0.8,0,1.6,0.1,2.4,0.3c0.7,0.2,1.4,0.7,2,1.4l-1.7,1.5c-0.3-0.4-0.6-0.7-1.1-1c-0.5-0.2-1-0.4-1.6-0.4
			c-0.6,0-1,0.1-1.4,0.2s-0.7,0.3-0.9,0.6c-0.2,0.2-0.4,0.5-0.5,0.8s-0.1,0.5-0.1,0.7c0,0.6,0.2,1.1,0.5,1.5
			c0.4,0.3,0.8,0.6,1.4,0.8c0.5,0.2,1.1,0.4,1.8,0.6s1.2,0.4,1.8,0.7c0.5,0.3,1,0.7,1.4,1.2s0.6,1.2,0.6,2.1c0,0.7-0.1,1.4-0.4,1.9
			c-0.3,0.6-0.6,1.1-1.1,1.5c-0.5,0.4-1,0.7-1.7,0.9c-0.6,0.2-1.3,0.3-2,0.3c-1,0-1.9-0.2-2.7-0.5c-0.9-0.3-1.5-0.9-2.1-1.6
			L232.4,91.9z"/>
		<path d="M262.3,95.4c-1.1,0-2.2-0.2-3.2-0.6s-1.8-1-2.5-1.7c-0.7-0.7-1.2-1.5-1.6-2.5c-0.4-1-0.6-2-0.6-3.1s0.2-2.2,0.6-3.1
			c0.4-1,0.9-1.8,1.6-2.5s1.5-1.3,2.5-1.7s2-0.6,3.2-0.6c1.1,0,2.2,0.2,3.2,0.6s1.8,1,2.5,1.7s1.2,1.5,1.6,2.5c0.4,1,0.6,2,0.6,3.1
			s-0.2,2.2-0.6,3.1c-0.4,1-0.9,1.8-1.6,2.5c-0.7,0.7-1.5,1.3-2.5,1.7S263.4,95.4,262.3,95.4z M262.3,93.5c0.9,0,1.6-0.2,2.3-0.5
			c0.7-0.3,1.3-0.7,1.8-1.3s0.9-1.2,1.1-1.9c0.3-0.7,0.4-1.5,0.4-2.3s-0.1-1.6-0.4-2.3c-0.3-0.7-0.6-1.4-1.1-1.9
			c-0.5-0.5-1.1-1-1.8-1.3c-0.7-0.3-1.5-0.5-2.3-0.5c-0.9,0-1.6,0.2-2.3,0.5c-0.7,0.3-1.3,0.7-1.8,1.3c-0.5,0.5-0.9,1.2-1.1,1.9
			c-0.3,0.7-0.4,1.5-0.4,2.3s0.1,1.6,0.4,2.3c0.3,0.7,0.6,1.4,1.1,1.9s1.1,1,1.8,1.3C260.7,93.3,261.4,93.5,262.3,93.5z"/>
		<path d="M284.7,80h2v13.1h6.9V95h-8.9V80z"/>
		<path d="M309.1,80v9.2c0,0.5,0.1,0.9,0.2,1.4c0.1,0.5,0.3,1,0.6,1.4c0.3,0.4,0.7,0.8,1.2,1c0.5,0.3,1.1,0.4,1.8,0.4
			s1.3-0.1,1.8-0.4s0.9-0.6,1.2-1c0.3-0.4,0.5-0.9,0.6-1.4c0.1-0.5,0.2-1,0.2-1.4V80h2v9.5c0,0.9-0.1,1.7-0.4,2.4
			c-0.3,0.7-0.7,1.3-1.2,1.9c-0.5,0.5-1.1,0.9-1.8,1.2c-0.7,0.3-1.5,0.4-2.3,0.4c-0.8,0-1.6-0.1-2.3-0.4c-0.7-0.3-1.3-0.7-1.8-1.2
			c-0.5-0.5-0.9-1.1-1.2-1.9c-0.3-0.7-0.4-1.5-0.4-2.4V80H309.1z"/>
		<path d="M337,81.9h-4.8V80h11.7v1.9H339V95h-2V81.9z"/>
		<path d="M357.7,80h2v15h-2V80z"/>
		<path d="M382.1,95.4c-1.1,0-2.2-0.2-3.2-0.6s-1.8-1-2.5-1.7c-0.7-0.7-1.2-1.5-1.6-2.5c-0.4-1-0.6-2-0.6-3.1s0.2-2.2,0.6-3.1
			c0.4-1,0.9-1.8,1.6-2.5s1.5-1.3,2.5-1.7s2-0.6,3.2-0.6c1.1,0,2.2,0.2,3.2,0.6s1.8,1,2.5,1.7s1.2,1.5,1.6,2.5c0.4,1,0.6,2,0.6,3.1
			s-0.2,2.2-0.6,3.1c-0.4,1-0.9,1.8-1.6,2.5c-0.7,0.7-1.5,1.3-2.5,1.7S383.2,95.4,382.1,95.4z M382.1,93.5c0.9,0,1.6-0.2,2.3-0.5
			c0.7-0.3,1.3-0.7,1.8-1.3s0.9-1.2,1.1-1.9c0.3-0.7,0.4-1.5,0.4-2.3s-0.1-1.6-0.4-2.3c-0.3-0.7-0.6-1.4-1.1-1.9
			c-0.5-0.5-1.1-1-1.8-1.3c-0.7-0.3-1.5-0.5-2.3-0.5c-0.9,0-1.6,0.2-2.3,0.5c-0.7,0.3-1.3,0.7-1.8,1.3c-0.5,0.5-0.9,1.2-1.1,1.9
			c-0.3,0.7-0.4,1.5-0.4,2.3s0.1,1.6,0.4,2.3c0.3,0.7,0.6,1.4,1.1,1.9s1.1,1,1.8,1.3C380.4,93.3,381.2,93.5,382.1,93.5z"/>
		<path d="M404.5,80h2.7l8.3,12.3h0V80h2v15h-2.6l-8.3-12.3h0V95h-2V80z"/>
		<path d="M433.4,91.9c0.4,0.6,0.8,1,1.4,1.2c0.6,0.3,1.2,0.4,1.8,0.4c0.3,0,0.7-0.1,1-0.2c0.4-0.1,0.7-0.3,1-0.5
			c0.3-0.2,0.5-0.5,0.7-0.8c0.2-0.3,0.3-0.7,0.3-1.1c0-0.6-0.2-1-0.6-1.3s-0.8-0.6-1.4-0.8c-0.5-0.2-1.1-0.4-1.8-0.6
			c-0.6-0.2-1.2-0.5-1.8-0.8c-0.5-0.3-1-0.8-1.4-1.4c-0.4-0.6-0.6-1.3-0.6-2.3c0-0.4,0.1-0.9,0.3-1.4c0.2-0.5,0.5-0.9,0.9-1.4
			s0.9-0.8,1.6-1s1.4-0.4,2.3-0.4c0.8,0,1.6,0.1,2.4,0.3c0.7,0.2,1.4,0.7,2,1.4l-1.7,1.5c-0.3-0.4-0.6-0.7-1.1-1
			c-0.5-0.2-1-0.4-1.6-0.4c-0.6,0-1,0.1-1.4,0.2c-0.4,0.1-0.7,0.3-0.9,0.6s-0.4,0.5-0.5,0.8s-0.1,0.5-0.1,0.7c0,0.6,0.2,1.1,0.6,1.5
			c0.4,0.3,0.8,0.6,1.4,0.8c0.5,0.2,1.1,0.4,1.8,0.6c0.6,0.2,1.2,0.4,1.8,0.7c0.5,0.3,1,0.7,1.4,1.2s0.6,1.2,0.6,2.1
			c0,0.7-0.1,1.4-0.4,1.9c-0.3,0.6-0.6,1.1-1.1,1.5c-0.5,0.4-1,0.7-1.7,0.9c-0.6,0.2-1.3,0.3-2,0.3c-1,0-1.9-0.2-2.7-0.5
			c-0.9-0.3-1.5-0.9-2.1-1.6L433.4,91.9z"/>
	</g>
</g>
</svg>
