<svg width="248" height="67" viewBox="0 0 248 67" fill="none" xmlns="http://www.w3.org/2000/svg">
    <mask id="mask0_72_1630" style="mask-type:luminance" maskUnits="userSpaceOnUse" x="22" y="0" width="39" height="31">
        <path d="M22.0245 0.313477H60.3802V30.3605H22.0245V0.313477Z" fill="white"/>
    </mask>
    <g mask="url(#mask0_72_1630)">
        <path d="M58.6844 7.08966H54.714C53.8014 7.08966 53.0659 7.82517 53.0659 8.73775V12.7014C53.0659 13.1917 52.8344 13.6548 52.4598 13.9544L50.1239 15.8C49.7289 16.1133 49.2317 16.2359 48.7209 16.2359H48.7073H38.9141C38.4101 16.2359 37.9334 15.9975 37.6201 15.6025L34.4057 11.4142C33.8745 10.7127 33.5816 9.86826 33.5884 8.98974V1.97512C33.5884 1.06254 32.8529 0.327026 31.9403 0.327026H25.2526C24.34 0.327026 23.5977 1.06254 23.5977 1.97512V8.64241C23.5977 9.55499 24.34 10.2905 25.2526 10.2905C25.2526 10.2905 27.6635 10.2837 29.6657 10.2701C31.3547 10.2633 32.9415 11.0464 33.9698 12.3745L36.5577 15.7319C36.9527 16.2495 37.2728 17.2098 37.2728 17.8636V27.6295C37.2728 28.5421 38.0083 29.2776 38.9277 29.2776H48.7073C49.6267 29.2776 50.3622 28.5421 50.3622 27.6295V17.8636C50.3622 17.8159 50.3622 17.7682 50.3554 17.7205C50.2941 17.0599 50.587 16.413 51.1114 16.0043L53.0659 14.4652C53.3996 14.1996 53.8491 14.1519 54.2645 14.2745C54.4007 14.3154 54.5574 14.3426 54.7072 14.3426H58.6708C59.5902 14.3426 60.3257 13.6071 60.3257 12.6945V8.73775C60.3325 7.82517 59.597 7.08966 58.6844 7.08966Z"
              fill="#03C29D"/>
    </g>
    <path d="M46.9503 5.87752C46.9503 6.28614 46.8754 6.68794 46.7119 7.06932C46.5553 7.45751 46.3306 7.79121 46.0377 8.08406C45.7381 8.3769 45.4044 8.60164 45.0162 8.76509C44.6348 8.92172 44.233 9.00345 43.8176 9.00345C43.4021 9.00345 43.0003 8.92172 42.6189 8.76509C42.2376 8.60164 41.897 8.3769 41.6042 8.08406C41.3046 7.79121 41.0798 7.45751 40.9232 7.06932C40.7597 6.68794 40.6848 6.28614 40.6848 5.87752C40.6848 5.46209 40.7597 5.06028 40.9232 4.6789C41.0798 4.29753 41.3046 3.95701 41.6042 3.66417C41.897 3.37132 42.2376 3.14658 42.6189 2.98314C43.0003 2.8265 43.4021 2.75159 43.8176 2.75159C44.233 2.75159 44.6348 2.8265 45.0162 2.98314C45.4044 3.14658 45.7381 3.37132 46.0377 3.66417C46.3306 3.95701 46.5553 4.29753 46.7119 4.6789C46.8754 5.06028 46.9503 5.46209 46.9503 5.87752Z"
          fill="#03C29D"/>
    <mask id="mask1_72_1630" style="mask-type:luminance" maskUnits="userSpaceOnUse" x="35" y="23" width="32"
          height="39">
        <path d="M35.972 23.3867H66.6865V61.7424H35.972V23.3867Z" fill="white"/>
    </mask>
    <g mask="url(#mask1_72_1630)">
        <path d="M59.9103 59.4745V55.5246C59.9103 54.6052 59.1748 53.8765 58.2554 53.8765H54.2782C53.7878 53.8765 53.3247 53.6449 53.0251 53.2703L51.1727 50.948C50.8594 50.5462 50.7368 50.0491 50.7368 49.5451V49.5315V39.7655C50.7368 39.2615 50.9752 38.7848 51.3702 38.4784L55.5721 35.2639C56.2736 34.7395 57.1249 34.4467 58.0034 34.4535H65.0385C65.951 34.4535 66.6866 33.718 66.6866 32.8054V26.1381C66.6866 25.2255 65.951 24.49 65.0385 24.49H58.3507C57.4382 24.49 56.6958 25.2255 56.6958 26.1381C56.6958 26.1381 56.7095 28.5421 56.7163 30.5375C56.7299 32.2265 55.9399 33.8065 54.6119 34.8348L51.2408 37.416C50.7232 37.8109 49.7561 38.131 49.1092 38.131H39.3228C38.4102 38.131 37.6678 38.8597 37.6678 39.7791V49.5315C37.6678 50.4441 38.4102 51.1796 39.3228 51.1796H49.1092C49.15 51.1796 49.1977 51.1796 49.2454 51.1728C49.906 51.1115 50.5598 51.4043 50.9684 51.9219L52.5143 53.8765C52.7799 54.2102 52.8276 54.6528 52.705 55.0683C52.6641 55.2113 52.6369 55.3611 52.6369 55.5109V59.4677C52.6369 60.3803 53.3724 61.1158 54.2918 61.1158H58.2554C59.1748 61.1226 59.9103 60.3939 59.9103 59.4745Z"
              fill="#03DFB5"/>
    </g>
    <path d="M64.2622 44.6553C64.2622 45.0708 64.1804 45.4658 64.0238 45.854C63.8672 46.2353 63.6356 46.569 63.3428 46.8619C63.0499 47.1615 62.7094 47.3863 62.328 47.5429C61.9398 47.6996 61.5448 47.7813 61.1294 47.7813C60.714 47.7813 60.3122 47.6996 59.9308 47.5429C59.5426 47.3863 59.2021 47.1615 58.9093 46.8619C58.6164 46.569 58.3917 46.2353 58.2282 45.854C58.0716 45.4658 57.9899 45.0708 57.9899 44.6553C57.9899 44.2399 58.0716 43.8381 58.2282 43.4567C58.3917 43.0754 58.6164 42.7348 58.9093 42.442C59.2021 42.1492 59.5426 41.9244 59.9308 41.7678C60.3122 41.6043 60.714 41.5294 61.1294 41.5294C61.5448 41.5294 61.9398 41.6043 62.328 41.7678C62.7094 41.9244 63.0499 42.1492 63.3428 42.442C63.6356 42.7348 63.8672 43.0754 64.0238 43.4567C64.1804 43.8381 64.2622 44.2399 64.2622 44.6553Z"
          fill="#03DFB5"/>
    <mask id="mask2_72_1630" style="mask-type:luminance" maskUnits="userSpaceOnUse" x="4" y="37" width="39" height="30">
        <path d="M4.59021 37.3342H42.9459V66.9999H4.59021V37.3342Z" fill="white"/>
    </mask>
    <g mask="url(#mask2_72_1630)">
        <path d="M6.899 60.2305H10.8626C11.7752 60.2305 12.5175 59.495 12.5175 58.5824V54.6188C12.5175 54.1285 12.7422 53.6654 13.1168 53.3657L15.4527 51.5201C15.8477 51.2069 16.3517 51.0843 16.8557 51.0843H16.8693H26.6625C27.1733 51.0843 27.6432 51.3226 27.9565 51.7176L31.1709 55.906C31.7021 56.6074 31.995 57.4519 31.9882 58.3304V65.345C31.9882 66.2576 32.7237 66.9931 33.6363 66.9931H40.324C41.2434 66.9931 41.9789 66.2576 41.9789 65.345V58.6778C41.9789 57.7652 41.2434 57.0297 40.324 57.0297C40.324 57.0297 37.9131 57.0365 35.9177 57.0501C34.2219 57.0569 32.6351 56.2737 31.6068 54.9457L29.0189 51.5882C28.6239 51.0706 28.3038 50.1104 28.3038 49.4566V39.7042C28.3038 38.7849 27.5683 38.0562 26.6489 38.0562H16.8693C15.9499 38.0562 15.2144 38.7849 15.2144 39.7042V49.4566C15.2144 49.5043 15.2144 49.5519 15.228 49.5996C15.2825 50.2602 14.9896 50.9072 14.4721 51.3158L12.5175 52.8549C12.177 53.1206 11.7275 53.1682 11.3121 53.0456C11.1759 53.0048 11.0192 52.9775 10.8694 52.9775H6.90581C5.98641 52.9775 5.2509 53.713 5.2509 54.6256V58.5824C5.24409 59.495 5.98641 60.2305 6.899 60.2305Z"
              fill="#1B213B"/>
    </g>
    <path d="M24.8918 61.4428C24.8918 61.8583 24.8169 62.2601 24.6535 62.6414C24.4968 63.0228 24.2721 63.3633 23.9792 63.6562C23.6796 63.949 23.3459 64.1738 22.9577 64.3372C22.5763 64.4938 22.1745 64.5688 21.7591 64.5688C21.3437 64.5688 20.9418 64.4938 20.5605 64.3372C20.1723 64.1738 19.8386 63.949 19.5457 63.6562C19.2461 63.3633 19.0213 63.0228 18.8647 62.6414C18.7013 62.2601 18.6263 61.8583 18.6263 61.4428C18.6263 61.0274 18.7013 60.6324 18.8647 60.251C19.0213 59.8628 19.2461 59.5291 19.5457 59.2363C19.8386 58.9434 20.1723 58.7187 20.5605 58.5553C20.9418 58.3986 21.3437 58.3169 21.7591 58.3169C22.1745 58.3169 22.5763 58.3986 22.9577 58.5553C23.3459 58.7187 23.6796 58.9434 23.9792 59.2363C24.2721 59.5291 24.4968 59.8628 24.6535 60.251C24.8169 60.6324 24.8918 61.0274 24.8918 61.4428Z"
          fill="#1B213B"/>
    <mask id="mask3_72_1630" style="mask-type:luminance" maskUnits="userSpaceOnUse" x="0" y="5" width="31" height="40">
        <path d="M0 5.95239H30.7417V44.308H0V5.95239Z" fill="white"/>
    </mask>
    <g mask="url(#mask3_72_1630)">
        <path d="M6.78306 7.83205V11.7888C6.78306 12.7014 7.51858 13.4369 8.43797 13.4369H12.4084C12.8987 13.4369 13.3618 13.6617 13.6683 14.0362L15.5207 16.3654C15.8271 16.7604 15.9497 17.2575 15.9497 17.7683V17.7751V27.5411C15.9497 28.0518 15.7182 28.5218 15.3164 28.835L11.1144 32.0427C10.4198 32.5739 9.56848 32.8667 8.68995 32.8531H1.6549C0.742324 32.8531 0 33.5886 0 34.5012V41.1685C0 42.0811 0.742324 42.8166 1.6549 42.8166H8.329C9.2484 42.8166 9.98391 42.0811 9.98391 41.1685C9.98391 41.1685 9.9771 38.7713 9.96348 36.769C9.95667 35.0869 10.7399 33.5069 12.0679 32.4785L15.439 29.8974C15.9634 29.5024 16.9236 29.1824 17.5774 29.1824H27.3706C28.2832 29.1824 29.0187 28.4468 29.0187 27.5343V17.7751C29.0187 16.8625 28.2832 16.127 27.3706 16.127H17.5842C17.5365 16.127 17.4889 16.127 17.4412 16.1406C16.7806 16.1951 16.1336 15.9023 15.725 15.3847L14.1791 13.4369C13.9135 13.0964 13.8658 12.6537 13.9884 12.2383C14.0224 12.1021 14.0565 11.9455 14.0565 11.7956V7.84567C14.0565 6.92627 13.3141 6.19757 12.4016 6.19757H8.43797C7.51858 6.18395 6.78306 6.92628 6.78306 7.83205Z"
              fill="#3A4472"/>
    </g>
    <path d="M8.69676 22.6582C8.69676 23.0736 8.62184 23.4686 8.4584 23.85C8.30176 24.2381 8.07702 24.5719 7.78417 24.8647C7.48452 25.1575 7.15082 25.3891 6.76263 25.5457C6.38125 25.7024 5.97944 25.7841 5.56402 25.7841C5.14859 25.7841 4.74678 25.7024 4.3654 25.5457C3.97721 25.3891 3.64351 25.1575 3.35067 24.8647C3.05101 24.5719 2.82627 24.2381 2.66964 23.85C2.50619 23.4686 2.43127 23.0736 2.43127 22.6582C2.43127 22.2427 2.50619 21.8409 2.66964 21.4595C2.82627 21.0782 3.05101 20.7377 3.35067 20.4448C3.64351 20.152 3.97721 19.9272 4.3654 19.7706C4.74678 19.6071 5.14859 19.5322 5.56402 19.5322C5.97944 19.5322 6.38125 19.6071 6.76263 19.7706C7.15082 19.9272 7.48452 20.152 7.78417 20.4448C8.07702 20.7377 8.30176 21.0782 8.4584 21.4595C8.62184 21.8409 8.69676 22.2427 8.69676 22.6582Z"
          fill="#3A4472"/>
    <path d="M95.7251 66.3365V54.9565H102.733C108.147 54.9565 112.056 51.5513 112.056 45.7081C112.056 39.286 108.147 36.807 102.733 36.807H88.799V66.3365H95.7251ZM95.7251 42.9976H101.766C104.006 42.9976 105.205 44.0055 105.205 45.9396C105.205 47.9555 104.006 48.9566 101.766 48.9566H95.7251V42.9976Z"
          fill="#03DFB5"/>
    <path d="M130.828 66.9971C140.853 66.9971 145.532 59.7986 145.532 51.5513C145.532 43.3108 140.853 36.1873 130.828 36.1873C120.728 36.1873 116.084 43.3108 116.084 51.5513C116.084 59.7986 120.728 66.9971 130.828 66.9971ZM130.828 60.7997C126.183 60.7997 123.398 57.163 123.398 51.5513C123.398 45.9805 126.183 42.3778 130.828 42.3778C135.473 42.3778 138.217 45.9805 138.217 51.5513C138.217 57.163 135.473 60.7997 130.828 60.7997Z"
          fill="#03DFB5"/>
    <path d="M167.44 66.3365L170.77 44.0464L174.094 66.3365H185.317L192.366 36.807H185.086L179.821 61.4195L175.531 36.807H166.01L161.713 61.3854L156.448 36.807H149.175L156.217 66.3365H167.44Z"
          fill="#03DFB5"/>
    <path d="M217.21 66.3365V60.1459H203.97V54.65H215.929V48.4935H203.97V42.9976H217.21V36.807H197.044V66.3365H217.21Z"
          fill="#03DFB5"/>
    <path d="M242.17 53.6829C244.765 52.2119 246.385 49.4606 246.385 45.7081C246.385 39.286 242.476 36.807 237.062 36.807H223.128V66.3365H230.054V54.9565H235.666L239.963 66.3365H247.278L242.17 53.6829ZM236.095 42.9976C238.336 42.9976 239.534 44.0055 239.534 45.9396C239.534 47.9555 238.336 48.9566 236.095 48.9566H230.054V42.9976H236.095Z"
          fill="#03DFB5"/>
    <path d="M97.2439 23.7543C102.522 23.7543 105.341 21.0847 105.341 16.9849C105.341 11.9248 101.187 11.0395 97.3937 10.2223C94.3018 9.55486 91.4824 8.94874 91.4824 6.12928C91.4824 3.91593 93.1168 2.49257 96.2428 2.49257C98.7898 2.49257 101.31 3.52093 101.977 6.6741H104.674C103.918 1.9137 100.186 0 96.2768 0C91.7548 0 88.6901 2.43128 88.6901 6.37445C88.6901 10.9237 92.5448 11.741 96.1542 12.4969C99.43 13.1984 102.549 13.8658 102.549 17.1688C102.549 19.927 100.608 21.2618 97.3665 21.2618C94.4857 21.2618 91.2985 20.1449 90.5698 16.4401H87.7503C88.5403 21.6295 92.6673 23.7543 97.2439 23.7543Z"
          fill="#1B213B"/>
    <path d="M113.744 23.4478V15.868C113.744 12.6807 114.255 10.985 115.256 9.86127C115.923 9.09851 116.863 8.64903 117.987 8.64903C120.05 8.64903 121.419 10.2835 121.419 13.137V23.4478H123.994V15.868C123.994 12.9804 124.361 11.0394 125.539 9.76592C126.18 9.09851 127.058 8.64903 128.27 8.64903C130.395 8.64903 131.669 10.2222 131.669 13.137V23.4478H134.243V12.5309C134.243 8.64903 132.459 6.37439 128.665 6.37439C126.602 6.37439 124.6 7.0418 123.36 9.46627C122.843 7.3755 120.868 6.37439 118.716 6.37439C116.897 6.37439 115.44 7.09628 113.744 9.28239V6.67404H111.163V23.4478H113.744Z"
          fill="#1B213B"/>
    <path d="M145.311 23.7543C146.864 23.7543 148.165 23.4751 149.288 22.7804C150.044 22.3241 150.712 21.6908 151.318 20.8122V23.4478H153.899V13.5593C153.899 12.4356 153.899 9.79997 152.135 8.0974C150.957 6.94645 149.166 6.37439 147.225 6.37439C144.01 6.37439 141.068 8.21998 140.49 11.7069H143.071C143.466 9.82721 145.134 8.64903 147.198 8.64903C148.498 8.64903 149.561 9.07127 150.29 9.79997C150.984 10.4946 151.318 11.4957 151.318 12.8033L145.345 13.9543C143.677 14.288 142.403 14.8055 141.491 15.5343C140.401 16.3787 139.856 17.5637 139.856 18.9871C139.856 21.9291 141.947 23.7543 145.311 23.7543ZM145.618 21.4796C143.677 21.4796 142.43 20.4785 142.43 18.9258C142.43 18.2039 142.676 17.625 143.132 17.1687C143.704 16.6239 144.617 16.2289 145.89 15.9837L151.352 14.8941C151.352 17.6863 150.685 19.6545 148.287 20.9008C147.531 21.2958 146.646 21.4796 145.618 21.4796Z"
          fill="#1B213B"/>
    <path d="M162.724 23.4478V14.6217C162.724 12.5309 163.235 11.1007 164.209 10.1609C164.999 9.37773 166.089 8.94869 167.457 8.94869H168.336V6.37439H168.213C165.939 6.37439 164.27 7.09628 162.724 8.98274V6.67404H160.143V23.4478H162.724Z"
          fill="#1B213B"/>
    <path d="M180.951 23.4478V21.1732H179.221C177.341 21.1732 177.219 20.1993 177.219 18.7147V8.94868H180.978V6.67403H177.219V0.306396H174.644V6.67403H171.941V8.94868H174.644V19.2322C174.644 22.5965 176.095 23.4478 178.615 23.4478H180.951Z"
          fill="#1B213B"/>
    <path d="M194.962 23.7543C200.24 23.7543 203.06 21.0847 203.06 16.9849C203.06 11.9248 198.906 11.0395 195.112 10.2223C192.02 9.55486 189.201 8.94874 189.201 6.12928C189.201 3.91593 190.835 2.49257 193.961 2.49257C196.508 2.49257 199.028 3.52093 199.696 6.6741H202.392C201.637 1.9137 197.904 0 193.995 0C189.473 0 186.409 2.43128 186.409 6.37445C186.409 10.9237 190.263 11.741 193.873 12.4969C197.149 13.1984 200.268 13.8658 200.268 17.1688C200.268 19.927 198.327 21.2618 195.085 21.2618C192.204 21.2618 189.017 20.1449 188.288 16.4401H185.469C186.259 21.6295 190.386 23.7543 194.962 23.7543Z"
          fill="#1B213B"/>
    <path d="M210.189 3.79334C211.279 3.79334 212.157 2.94205 212.157 1.87964C212.157 0.851288 211.279 0 210.189 0C209.092 0 208.214 0.851288 208.214 1.87964C208.214 2.94205 209.092 3.79334 210.189 3.79334ZM211.462 23.4479V6.6741H208.881V23.4479H211.462Z"
          fill="#1B213B"/>
    <path d="M225.564 23.4478V21.1732H223.835C221.955 21.1732 221.832 20.1993 221.832 18.7147V8.94868H225.592V6.67403H221.832V0.306396H219.258V6.67403H216.554V8.94868H219.258V19.2322C219.258 22.5965 220.709 23.4478 223.229 23.4478H225.564Z"
          fill="#1B213B"/>
    <path d="M238.425 23.7543C242.579 23.7543 245.126 21.2004 246.155 18.0473H243.397C242.668 19.8997 240.938 21.4796 238.391 21.4796C235.967 21.4796 233.998 19.8111 233.147 17.23C232.963 16.7124 232.841 16.0791 232.813 15.5615H246.461V14.6489C246.461 9.25515 242.579 6.37439 238.364 6.37439C233.174 6.37439 230.266 10.5559 230.266 15.1052C230.266 20.0495 233.603 23.7543 238.425 23.7543ZM233.059 13.2868C233.147 12.7693 233.297 12.1631 233.542 11.6524C234.448 9.73868 236.178 8.64903 238.425 8.64903C240.577 8.64903 242.457 9.71144 243.335 11.6524C243.546 12.1359 243.669 12.742 243.703 13.2868H233.059Z"
          fill="#1B213B"/>
</svg>
