<svg xmlns="http://www.w3.org/2000/svg" width="21.35" height="24.889" viewBox="0 0 21.35 24.889">
    <g id="prefix__lamp" transform="translate(464.533 106.389)">
        <path id="prefix__Path_346" fill="#d3d3d3" stroke="#d3d3d3"
              d="M81.733 72v8.848h-.443a.442.442 0 0 0-.442.442v1.41A10.178 10.178 0 0 0 72 92.793a.442.442 0 0 0 .442.442h6.668a3.1 3.1 0 0 0 6.129 0h6.668a.442.442 0 0 0 .442-.442A10.177 10.177 0 0 0 83.5 82.7v-1.41a.442.442 0 0 0-.442-.442h-.442V72zm.442 23a2.216 2.216 0 0 1-2.168-1.77h4.336A2.216 2.216 0 0 1 82.175 95zm.845-11.464a9.29 9.29 0 0 1 8.435 8.81H72.9a9.29 9.29 0 0 1 8.435-8.81.442.442 0 0 0 .4-.441v-1.362h.885V83.1a.442.442 0 0 0 .4.441z"
              data-name="Path 346" transform="translate(-536.033 -177.889)"/>
    </g>
</svg>
