{
  "accessors": [
    {
      "bufferView": 2,
      "componentType": 5126,
      "count": 80,
      "max": [
        0.12000000476837158,
        0.050875283777713776,
        0.11817694455385208
      ],
      "min": [
        -0.12000000476837158,
        -0.14912471175193787,
        -0.11817694455385208
      ],
      "type": "VEC3"
    },
    {
      "bufferView": 2,
      "byteOffset": 960,
      "componentType": 5126,
      "count": 80,
      "max": [
        1.0,
        1.0,
        0.9848078489303589
      ],
      "min": [
        -1.0,
        -1.0,
        -0.9848079681396484
      ],
      "type": "VEC3"
    },
    {
      "bufferView": 1,
      "componentType": 5126,
      "count": 80,
      "max": [
        5.355225086212158,
        4.558263778686523
      ],
      "min": [
        -4.355226039886475,
        -3.3793435096740723
      ],
      "type": "VEC2"
    },
    {
      "bufferView": 0,
      "componentType": 5125,
      "count": 204,
      "type": "SCALAR"
    },
    {
      "bufferView": 2,
      "byteOffset": 1920,
      "componentType": 5126,
      "count": 3421,
      "max": [
        0.9839808344841003,
        2.1108601093292236,
        1.8149912357330322
      ],
      "min": [
        -1.0743743181228638,
        0.66108238697052,
        -1.8163774013519287
      ],
      "type": "VEC3"
    },
    {
      "bufferView": 2,
      "byteOffset": 42972,
      "componentType": 5126,
      "count": 3421,
      "max": [
        1.0,
        0.939704954624176,
        1.0
      ],
      "min": [
        -1.0,
        -1.0,
        -1.0
      ],
      "type": "VEC3"
    },
    {
      "bufferView": 1,
      "byteOffset": 640,
      "componentType": 5126,
      "count": 3421,
      "max": [
        46.554447174072266,
        20.50907325744629
      ],
      "min": [
        -55.37826919555664,
        -44.351776123046875
      ],
      "type": "VEC2"
    },
    {
      "bufferView": 0,
      "byteOffset": 816,
      "componentType": 5125,
      "count": 6657,
      "type": "SCALAR"
    },
    {
      "bufferView": 2,
      "byteOffset": 84024,
      "componentType": 5126,
      "count": 820,
      "max": [
        1.0514092445373535,
        2.1212451457977295,
        1.8161704540252686
      ],
      "min": [
        -1.0964605808258057,
        0.04749467596411705,
        -1.8174082040786743
      ],
      "type": "VEC3"
    },
    {
      "bufferView": 2,
      "byteOffset": 93864,
      "componentType": 5126,
      "count": 820,
      "max": [
        1.0,
        1.0,
        1.0
      ],
      "min": [
        -1.0,
        -1.0,
        -1.0
      ],
      "type": "VEC3"
    },
    {
      "bufferView": 1,
      "byteOffset": 28008,
      "componentType": 5126,
      "count": 820,
      "max": [
        58.512184143066406,
        59.14353942871094
      ],
      "min": [
        -57.52261734008789,
        -58.14353942871094
      ],
      "type": "VEC2"
    },
    {
      "bufferView": 0,
      "byteOffset": 27444,
      "componentType": 5125,
      "count": 1908,
      "type": "SCALAR"
    },
    {
      "bufferView": 2,
      "byteOffset": 103704,
      "componentType": 5126,
      "count": 2436,
      "max": [
        0.35273128747940063,
        1.6483800411224365,
        1.4225910902023315
      ],
      "min": [
        -0.41934749484062195,
        0.5236706137657166,
        -1.423385739326477
      ],
      "type": "VEC3"
    },
    {
      "bufferView": 2,
      "byteOffset": 132936,
      "componentType": 5126,
      "count": 2436,
      "max": [
        1.0,
        1.0,
        1.0
      ],
      "min": [
        -1.0,
        -1.0,
        -1.0
      ],
      "type": "VEC3"
    },
    {
      "bufferView": 1,
      "byteOffset": 34568,
      "componentType": 5126,
      "count": 2436,
      "max": [
        1.0833333730697632,
        1.0
      ],
      "min": [
        0.0,
        0.0
      ],
      "type": "VEC2"
    },
    {
      "bufferView": 0,
      "byteOffset": 35076,
      "componentType": 5125,
      "count": 5733,
      "type": "SCALAR"
    },
    {
      "bufferView": 2,
      "byteOffset": 162168,
      "componentType": 5126,
      "count": 2936,
      "max": [
        0.23729456961154938,
        0.5340391397476196,
        0.023519709706306458
      ],
      "min": [
        0.19017989933490753,
        -0.14596083760261536,
        -0.023519709706306458
      ],
      "type": "VEC3"
    },
    {
      "bufferView": 2,
      "byteOffset": 197400,
      "componentType": 5126,
      "count": 2936,
      "max": [
        1.0,
        1.0,
        1.0
      ],
      "min": [
        -1.0,
        -0.7623177170753479,
        -1.0
      ],
      "type": "VEC3"
    },
    {
      "bufferView": 1,
      "byteOffset": 54056,
      "componentType": 5126,
      "count": 2936,
      "max": [
        0.9999991059303284,
        1.0
      ],
      "min": [
        0.14999985694885254,
        0.0009999871253967285
      ],
      "type": "VEC2"
    },
    {
      "bufferView": 0,
      "byteOffset": 58008,
      "componentType": 5125,
      "count": 16362,
      "type": "SCALAR"
    },
    {
      "bufferView": 2,
      "byteOffset": 232632,
      "componentType": 5126,
      "count": 3386,
      "max": [
        0.2965184152126312,
        1.5962706804275513,
        1.3732503652572632
      ],
      "min": [
        -0.34744057059288025,
        0.606948733329773,
        -1.3742681741714478
      ],
      "type": "VEC3"
    },
    {
      "bufferView": 2,
      "byteOffset": 273264,
      "componentType": 5126,
      "count": 3386,
      "max": [
        1.0,
        0.9965607523918152,
        0.9899453520774841
      ],
      "min": [
        -0.9993065595626831,
        -0.9699464440345764,
        -0.9899453520774841
      ],
      "type": "VEC3"
    },
    {
      "bufferView": 1,
      "byteOffset": 77544,
      "componentType": 5126,
      "count": 3386,
      "max": [
        163.6091766357422,
        164.48814392089844
      ],
      "min": [
        -162.61439514160156,
        -163.48817443847656
      ],
      "type": "VEC2"
    },
    {
      "bufferView": 0,
      "byteOffset": 123456,
      "componentType": 5125,
      "count": 10812,
      "type": "SCALAR"
    },
    {
      "bufferView": 2,
      "byteOffset": 313896,
      "componentType": 5126,
      "count": 60,
      "max": [
        1.2590173482894897,
        2.346759557723999,
        1.816170334815979
      ],
      "min": [
        -1.3959102630615234,
        0.48775896430015564,
        -1.8174079656600952
      ],
      "type": "VEC3"
    },
    {
      "bufferView": 2,
      "byteOffset": 314616,
      "componentType": 5126,
      "count": 60,
      "max": [
        -0.5734966397285461,
        0.819208025932312,
        3.6273516457185906e-07
      ],
      "min": [
        -0.5736821293830872,
        0.8190780282020569,
        -9.604766819393262e-05
      ],
      "type": "VEC3"
    },
    {
      "bufferView": 1,
      "byteOffset": 104632,
      "componentType": 5126,
      "count": 60,
      "max": [
        66.33575439453125,
        1.0
      ],
      "min": [
        -65.34857177734375,
        -65.79719543457031
      ],
      "type": "VEC2"
    },
    {
      "bufferView": 0,
      "byteOffset": 166704,
      "componentType": 5125,
      "count": 90,
      "type": "SCALAR"
    },
    {
      "bufferView": 2,
      "byteOffset": 315336,
      "componentType": 5126,
      "count": 28,
      "max": [
        1.0290026664733887,
        2.090545177459717,
        1.8161704540252686
      ],
      "min": [
        -1.0116263628005981,
        0.6616809964179993,
        -1.8174082040786743
      ],
      "type": "VEC3"
    },
    {
      "bufferView": 2,
      "byteOffset": 315672,
      "componentType": 5126,
      "count": 28,
      "max": [
        -0.5734268426895142,
        0.8192569017410278,
        0.0
      ],
      "min": [
        -0.573710560798645,
        0.8190581202507019,
        -2.6537884423305513e-07
      ],
      "type": "VEC3"
    },
    {
      "bufferView": 1,
      "byteOffset": 105112,
      "componentType": 5126,
      "count": 28,
      "max": [
        1.0,
        1.0
      ],
      "min": [
        0.0,
        0.0
      ],
      "type": "VEC2"
    },
    {
      "bufferView": 0,
      "byteOffset": 167064,
      "componentType": 5125,
      "count": 42,
      "type": "SCALAR"
    },
    {
      "bufferView": 2,
      "byteOffset": 316008,
      "componentType": 5126,
      "count": 1888,
      "max": [
        1.3036673069000244,
        2.3680646419525146,
        1.8162518739700317
      ],
      "min": [
        -1.4233207702636719,
        0.4418814480304718,
        -1.8174076080322266
      ],
      "type": "VEC3"
    },
    {
      "bufferView": 2,
      "byteOffset": 338664,
      "componentType": 5126,
      "count": 1888,
      "max": [
        0.8193774223327637,
        0.819161057472229,
        1.0
      ],
      "min": [
        -0.8198606371879578,
        -0.8191608190536499,
        -1.0
      ],
      "type": "VEC3"
    },
    {
      "bufferView": 1,
      "byteOffset": 105336,
      "componentType": 5126,
      "count": 1888,
      "max": [
        20.26777458190918,
        45.058467864990234
      ],
      "min": [
        -17.97788429260254,
        -4.8522162437438965
      ],
      "type": "VEC2"
    },
    {
      "bufferView": 0,
      "byteOffset": 167232,
      "componentType": 5125,
      "count": 3312,
      "type": "SCALAR"
    }
  ],
  "asset": {
    "extras": {
      "author": "luisCreante (https://sketchfab.com/luisCreante)",
      "license": "CC-BY-4.0 (http://creativecommons.org/licenses/by/4.0/)",
      "source": "https://sketchfab.com/3d-models/panel-solar-2-2697ecb2854d4962a3db25b00cd86f5d",
      "title": "Panel solar (2)"
    },
    "generator": "Sketchfab-14.32.1",
    "version": "2.0"
  },
  "bufferViews": [
    {
      "buffer": 0,
      "byteLength": 180480,
      "name": "floatBufferViews",
      "target": 34963
    },
    {
      "buffer": 0,
      "byteLength": 120440,
      "byteOffset": 180480,
      "byteStride": 8,
      "name": "floatBufferViews",
      "target": 34962
    },
    {
      "buffer": 0,
      "byteLength": 361320,
      "byteOffset": 300920,
      "byteStride": 12,
      "name": "floatBufferViews",
      "target": 34962
    }
  ],
  "buffers": [
    {
      "byteLength": 662240,
      "uri": "scene.bin"
    }
  ],
  "images": [
    {
      "uri": "textures/05___Default_baseColor.jpeg"
    }
  ],
  "materials": [
    {
      "doubleSided": true,
      "name": "concrete",
      "pbrMetallicRoughness": {
        "baseColorFactor": [
          0.8,
          0.8,
          0.8,
          1.0
        ],
        "metallicFactor": 0.0,
        "roughnessFactor": 0.6
      }
    },
    {
      "doubleSided": true,
      "name": "steel",
      "pbrMetallicRoughness": {
        "baseColorFactor": [
          0.27451,
          0.27451,
          0.27451,
          1.0
        ],
        "metallicFactor": 0.0,
        "roughnessFactor": 0.6
      }
    },
    {
      "doubleSided": true,
      "name": "paint",
      "pbrMetallicRoughness": {
        "baseColorFactor": [
          0.588,
          0.588,
          0.588,
          1.0
        ],
        "metallicFactor": 0.0,
        "roughnessFactor": 0.6
      }
    },
    {
      "doubleSided": true,
      "name": "black_plastic",
      "pbrMetallicRoughness": {
        "baseColorFactor": [
          0.0,
          0.0,
          0.0,
          1.0
        ],
        "metallicFactor": 0.0,
        "roughnessFactor": 0.6
      }
    },
    {
      "doubleSided": true,
      "name": "plastic_red",
      "pbrMetallicRoughness": {
        "baseColorFactor": [
          0.658824,
          0.0,
          0.0470588,
          1.0
        ],
        "metallicFactor": 0.0,
        "roughnessFactor": 0.6
      }
    },
    {
      "doubleSided": true,
      "name": "material",
      "pbrMetallicRoughness": {
        "baseColorFactor": [
          0.8,
          0.8,
          0.8,
          1.0
        ],
        "metallicFactor": 0.0,
        "roughnessFactor": 0.6
      }
    },
    {
      "doubleSided": true,
      "name": "05___Default",
      "pbrMetallicRoughness": {
        "baseColorTexture": {
          "index": 0
        },
        "metallicFactor": 0.0,
        "roughnessFactor": 0.6
      }
    },
    {
      "doubleSided": true,
      "name": "Material__3971_Slot__8",
      "pbrMetallicRoughness": {
        "baseColorFactor": [
          0.0,
          0.0,
          0.0,
          1.0
        ],
        "metallicFactor": 0.0,
        "roughnessFactor": 0.6
      }
    },
    {
      "doubleSided": true,
      "name": "material_8",
      "pbrMetallicRoughness": {
        "baseColorFactor": [
          0.521569,
          0.521569,
          0.521569,
          1.0
        ],
        "metallicFactor": 0.0,
        "roughnessFactor": 0.6
      }
    }
  ],
  "meshes": [
    {
      "name": "Panel_solar__2__concrete_0",
      "primitives": [
        {
          "attributes": {
            "NORMAL": 1,
            "POSITION": 0,
            "TEXCOORD_0": 2
          },
          "indices": 3,
          "material": 0,
          "mode": 4
        }
      ]
    },
    {
      "name": "Panel_solar__2__steel_0",
      "primitives": [
        {
          "attributes": {
            "NORMAL": 5,
            "POSITION": 4,
            "TEXCOORD_0": 6
          },
          "indices": 7,
          "material": 1,
          "mode": 4
        }
      ]
    },
    {
      "name": "Panel_solar__2__paint_0",
      "primitives": [
        {
          "attributes": {
            "NORMAL": 9,
            "POSITION": 8,
            "TEXCOORD_0": 10
          },
          "indices": 11,
          "material": 2,
          "mode": 4
        }
      ]
    },
    {
      "name": "Panel_solar__2__black_plastic_0",
      "primitives": [
        {
          "attributes": {
            "NORMAL": 13,
            "POSITION": 12,
            "TEXCOORD_0": 14
          },
          "indices": 15,
          "material": 3,
          "mode": 4
        }
      ]
    },
    {
      "name": "Panel_solar__2__plastic_red_0",
      "primitives": [
        {
          "attributes": {
            "NORMAL": 17,
            "POSITION": 16,
            "TEXCOORD_0": 18
          },
          "indices": 19,
          "material": 4,
          "mode": 4
        }
      ]
    },
    {
      "name": "Panel_solar__2__gum_0",
      "primitives": [
        {
          "attributes": {
            "NORMAL": 21,
            "POSITION": 20,
            "TEXCOORD_0": 22
          },
          "indices": 23,
          "material": 5,
          "mode": 4
        }
      ]
    },
    {
      "name": "Panel_solar__2___05___Default_0",
      "primitives": [
        {
          "attributes": {
            "NORMAL": 25,
            "POSITION": 24,
            "TEXCOORD_0": 26
          },
          "indices": 27,
          "material": 6,
          "mode": 4
        }
      ]
    },
    {
      "name": "Panel_solar__2__Material__3971_Slot__8_0",
      "primitives": [
        {
          "attributes": {
            "NORMAL": 29,
            "POSITION": 28,
            "TEXCOORD_0": 30
          },
          "indices": 31,
          "material": 7,
          "mode": 4
        }
      ]
    },
    {
      "name": "Panel_solar__2__al_0",
      "primitives": [
        {
          "attributes": {
            "NORMAL": 33,
            "POSITION": 32,
            "TEXCOORD_0": 34
          },
          "indices": 35,
          "material": 8,
          "mode": 4
        }
      ]
    }
  ],
  "nodes": [
    {
      "children": [
        1
      ],
      "matrix": [
        1.0,
        0.0,
        0.0,
        0.0,
        0.0,
        2.220446049250313e-16,
        -1.0,
        0.0,
        0.0,
        1.0,
        2.220446049250313e-16,
        0.0,
        0.0,
        0.0,
        0.0,
        1.0
      ],
      "name": "Sketchfab_model"
    },
    {
      "children": [
        2
      ],
      "matrix": [
        0.009999999776482582,
        0.0,
        0.0,
        0.0,
        0.0,
        0.0,
        0.009999999776482582,
        0.0,
        0.0,
        -0.009999999776482582,
        0.0,
        0.0,
        0.0,
        0.0,
        0.0,
        1.0
      ],
      "name": "12f33414941c4fa8a7a2c81f97a369f7.fbx"
    },
    {
      "children": [
        3
      ],
      "name": "RootNode"
    },
    {
      "children": [
        4,
        5,
        6,
        7,
        8,
        9,
        10,
        11,
        12
      ],
      "matrix": [
        166.66419982910156,
        0.0,
        0.0,
        0.0,
        0.0,
        166.6642608642563,
        2.2392818518100834e-05,
        0.0,
        0.0,
        -2.2392818518100834e-05,
        166.6642608642563,
        0.0,
        0.0,
        0.0,
        0.0,
        1.0
      ],
      "name": "Panel_solar__2_"
    },
    {
      "mesh": 0,
      "name": "Panel_solar__2__concrete_0"
    },
    {
      "mesh": 1,
      "name": "Panel_solar__2__steel_0"
    },
    {
      "mesh": 2,
      "name": "Panel_solar__2__paint_0"
    },
    {
      "mesh": 3,
      "name": "Panel_solar__2__black_plastic_0"
    },
    {
      "mesh": 4,
      "name": "Panel_solar__2__plastic_red_0"
    },
    {
      "mesh": 5,
      "name": "Panel_solar__2__gum_0"
    },
    {
      "mesh": 6,
      "name": "Panel_solar__2___05___Default_0"
    },
    {
      "mesh": 7,
      "name": "Panel_solar__2__Material__3971_Slot__8_0"
    },
    {
      "mesh": 8,
      "name": "Panel_solar__2__al_0"
    }
  ],
  "samplers": [
    {
      "magFilter": 9729,
      "minFilter": 9987,
      "wrapS": 10497,
      "wrapT": 10497
    }
  ],
  "scene": 0,
  "scenes": [
    {
      "name": "Sketchfab_Scene",
      "nodes": [
        0
      ]
    }
  ],
  "textures": [
    {
      "sampler": 0,
      "source": 0
    }
  ]
}
