<svg xmlns="http://www.w3.org/2000/svg" width="175.177" height="94.132" viewBox="0 0 175.177 94.132">
    <g id="Gruppe_4" data-name="Gruppe 4" transform="translate(-117.084 -298.269)">
        <path id="Pfad_10" data-name="Pfad 10"
              d="M232.32,301.3c-3.052-2.012-7.74-3.033-13.932-3.033h-12.22c-6.373,0-11.184,1.082-14.3,3.211-3.2,2.182-5.348,5.8-6.39,10.763-.785,3.792-1.167,9.571-1.167,17.67,0,11,1.257,18.233,3.838,22.122,2.887,4.417,8.693,6.655,17.259,6.655h13.548c7.871,0,13.307-2.031,16.158-6.04,2.637-3.731,3.868-10.148,3.868-20.2v-7.238H209.449v11.391h16.936l-.008.287c-.18,5.991-1.27,7.866-1.73,8.392-.562.613-2.286,1.632-7.574,1.632h-9.311c-4.653,0-6.806-.829-7.793-1.527-1.348-.951-2.23-2.709-2.625-5.225a101.521,101.521,0,0,1-.423-11.644c0-9.573.92-12.618,1.722-14.2,1.362-2.678,4.714-4.108,9.968-4.254,3.04-.054,9.058,0,9.119,0a10.5,10.5,0,0,1,5.789,1.467,6.464,6.464,0,0,1,2.856,5.872l-.039.579H238.91l.01-1.087c.042-7.445-2.179-12.694-6.6-15.6"
              transform="translate(46.938 0)" fill="#50535a"/>
        <path id="Pfad_11" data-name="Pfad 11"
              d="M166.059,358.691h22.112c5.356,0,9.343-1.313,11.857-3.9,2.788-2.9,4.2-7.769,4.2-14.475,0-7.211-2.235-12.4-6.642-15.411-2.95-2.026-7.007-2.89-13.56-2.89H173.278c-9.625,0-10.86-3.262-10.86-6.105,0-4.111,1.6-5.866,5.361-5.866h16.844c4.711,0,6.81,1.859,6.81,6.03V317.5H204.04V315.99c0-11.594-5.9-17.721-17.067-17.721H165.933c-5.12,0-9.031,1.241-11.621,3.69-2.985,2.85-4.5,7.489-4.5,13.784,0,7.007,2.2,12.006,6.547,14.859,2.984,1.91,7.194,2.8,13.248,2.8h11.315c3.505,0,5.57.129,7.122.832,2.442,1.073,3.581,3.006,3.581,6.078,0,2.7-.659,4.546-1.958,5.494a9.039,9.039,0,0,1-5.042,1.109h-15.27c-4.624,0-6.686-1.859-6.686-6.03v-1.5h-12.6l-.007,1.5c-.024,6.127,1.474,10.75,4.451,13.74,2.692,2.7,6.575,4.069,11.544,4.069"
              transform="translate(22.85 0)" fill="#50535a"/>
        <path id="Pfad_12" data-name="Pfad 12" d="M168.5,298.269h-50.26v11.774h18.8v48.648h12.606V310.043H168.5Z"
              transform="translate(0.808 0)" fill="#50535a"/>
        <path id="Pfad_13" data-name="Pfad 13"
              d="M292.261,341.315c-18.03-6.169-39.3-9.984-62.118-10.512-52.214-1.206-96.763,15.144-113.059,38.926,23.639-15.628,63.725-27.5,109.861-30.6a311.817,311.817,0,0,1,65.316,2.182"
              transform="translate(0 22.672)" fill="#e30613"/>
    </g>
</svg>
