<svg version="1.1" xmlns="http://www.w3.org/2000/svg" viewBox="0 0 2438.7646019351323 251.07318787092572"
     width="2438.7646019351323" height="251.07318787092572">
    <!-- svg-source:excalidraw -->

    <defs>
        <style>
            @font-face {
            font-family: "Virgil";
            src: url("https://excalidraw.com/Virgil.woff2");
            }
            @font-face {
            font-family: "Cascadia";
            src: url("https://excalidraw.com/Cascadia.woff2");
            }
        </style>
    </defs>
    <g stroke-linecap="round" transform="translate(10 10) rotate(0 115.55371093750001 115.53659393546286)">
        <path d="M164.34 11.13 C176.36 14.81, 186.32 24.33, 195.71 33.33 C205.1 42.32, 214.74 53.28, 220.68 65.11 C226.63 76.94, 230.18 90.95, 231.36 104.29 C232.55 117.63, 231.25 132.37, 227.79 145.15 C224.34 157.93, 218.16 170.23, 210.64 180.97 C203.12 191.7, 193.28 201.75, 182.69 209.56 C172.1 217.36, 159.79 224.22, 147.11 227.79 C134.43 231.36, 119.9 232.09, 106.61 230.97 C93.33 229.84, 79.48 226.6, 67.42 221.04 C55.36 215.49, 43.44 206.84, 34.24 197.65 C25.03 188.46, 17.92 177.67, 12.2 165.91 C6.49 154.15, 1.36 140.39, -0.04 127.09 C-1.43 113.79, 0.29 98.97, 3.84 86.09 C7.38 73.22, 13.66 60.74, 21.2 49.84 C28.75 38.95, 38.64 28.2, 49.09 20.7 C59.54 13.21, 71.36 8.34, 83.92 4.89 C96.49 1.45, 109.98 -1.38, 124.48 0.04 C138.98 1.45, 162.28 10.23, 170.95 13.38 C179.61 16.53, 177.44 17.09, 176.49 18.93 M91.38 1.51 C103.11 -2.97, 116.55 -2.22, 129.3 -0.35 C142.04 1.51, 156 6.61, 167.86 12.71 C179.72 18.81, 191.19 26.24, 200.48 36.25 C209.76 46.26, 218.48 60.41, 223.58 72.78 C228.68 85.14, 230.82 97.35, 231.06 110.43 C231.29 123.5, 229.04 138.47, 224.99 151.24 C220.94 164.02, 214.52 176.79, 206.76 187.06 C199 197.32, 189.65 205.76, 178.41 212.84 C167.18 219.91, 152.53 226.63, 139.35 229.53 C126.17 232.43, 112.07 232.2, 99.34 230.23 C86.6 228.27, 74.43 223.88, 62.93 217.73 C51.44 211.58, 39.37 203.12, 30.36 193.3 C21.34 183.49, 14.13 171.01, 8.87 158.85 C3.61 146.7, -0.59 133.39, -1.22 120.35 C-1.85 107.31, 0.92 93.08, 5.09 80.63 C9.26 68.17, 15.66 56.21, 23.8 45.61 C31.94 35.01, 42.85 24.35, 53.94 17.05 C65.03 9.74, 84.27 3.68, 90.33 1.77 C96.39 -0.13, 90.05 3.42, 90.31 5.62"
              stroke="#000000" stroke-width="1" fill="none"></path>
    </g>
    <g transform="translate(15 84.53659393546286) rotate(0 110.5 41)">
        <text x="110.5" y="29" font-family="Virgil, Segoe UI Emoji" font-size="32.278455748175176px" fill="#000000"
              text-anchor="middle" style="white-space: pre;" direction="ltr">MQTT Client
        </text>
        <text x="110.5" y="70" font-family="Virgil, Segoe UI Emoji" font-size="32.278455748175176px" fill="#000000"
              text-anchor="middle" style="white-space: pre;" direction="ltr">(Beckhoff)
        </text>
    </g>
    <g stroke-linecap="round">
        <g transform="translate(257.503906248784 114.03255208333337) rotate(0 183.71657266590705 -0.36891600206490693)">
            <path d="M-0.83 -0.18 C60.49 -0.42, 306.82 -0.59, 368.26 -0.63 M0.94 -1.32 C62.02 -1.48, 305.49 0.25, 367.03 0.58"
                  stroke="#000000" stroke-width="1" fill="none"></path>
        </g>
        <g transform="translate(257.503906248784 114.03255208333337) rotate(0 183.71657266590705 -0.36891600206490693)">
            <path d="M27.05 -11.38 C17.03 -8.95, 8.02 -5, 1.05 -0.67 M27.08 -9.66 C15.72 -6.74, 5.75 -2.88, 0 -0.37"
                  stroke="#000000" stroke-width="1" fill="none"></path>
        </g>
        <g transform="translate(257.503906248784 114.03255208333337) rotate(0 183.71657266590705 -0.36891600206490693)">
            <path d="M27.08 9.14 C16.91 4.77, 7.89 1.91, 1.05 -0.67 M27.11 10.86 C15.81 5.67, 5.82 1.41, 0 -0.37"
                  stroke="#000000" stroke-width="1" fill="none"></path>
        </g>
        <g transform="translate(257.503906248784 114.03255208333337) rotate(0 183.71657266590705 -0.36891600206490693)">
            <path d="M338.48 9.76 C347.03 5.82, 356.73 3.01, 368.9 0.09 M338.5 11.48 C349.53 6.43, 361.88 2.23, 367.86 0.39"
                  stroke="#000000" stroke-width="1" fill="none"></path>
        </g>
        <g transform="translate(257.503906248784 114.03255208333337) rotate(0 183.71657266590705 -0.36891600206490693)">
            <path d="M338.6 -10.76 C347.25 -7.89, 356.91 -3.9, 368.9 0.09 M338.63 -9.04 C349.54 -5.97, 361.84 -2.06, 367.86 0.39"
                  stroke="#000000" stroke-width="1" fill="none"></path>
        </g>
    </g>
    <g stroke-linecap="round"
       transform="translate(639.6979166666667 30.15234375) rotate(0 168.64908854166663 85.068359375)">
        <path d="M-0.66 0.7 C121.9 -0.89, 240.83 -1.45, 337.11 1.24 M0.46 -0.38 C106.55 -1.74, 213.28 -1.37, 336.66 0.61 M339.19 0.34 C336.95 59.27, 340.57 116.49, 337.65 170.93 M336.54 -0.47 C334.68 58.48, 334.8 116.44, 337.31 169.84 M337.28 168.88 C246.99 173.51, 153.93 173.43, 0.71 169.84 M337.08 170.37 C259.36 171.61, 181.64 172.24, 0.37 169.99 M-0.2 171.95 C-0.19 109.16, 0.91 45.8, -0.8 0.15 M-0.41 169.99 C-0.83 126.84, -1.37 84.16, 0.65 -0.79"
              stroke="#000000" stroke-width="1" fill="none"></path>
    </g>
    <g transform="translate(644.6979166666667 62.720703125) rotate(0 163.5 52.5)">
        <text x="163.5" y="25" font-family="Virgil, Segoe UI Emoji" font-size="28px" fill="#000000" text-anchor="middle"
              style="white-space: pre;" direction="ltr">NGINX
        </text>
        <text x="163.5" y="60" font-family="Virgil, Segoe UI Emoji" font-size="28px" fill="#000000" text-anchor="middle"
              style="white-space: pre;" direction="ltr">(SSL Termination, Load
        </text>
        <text x="163.5" y="95" font-family="Virgil, Segoe UI Emoji" font-size="28px" fill="#000000" text-anchor="middle"
              style="white-space: pre;" direction="ltr">Balancing)
        </text>
    </g>
    <g stroke-linecap="round">
        <g transform="translate(988.3046874993922 111.54557619529419) rotate(0 179.39460204925348 0.26765645161151497)">
            <path d="M1.11 0.77 C60.61 0.54, 297.12 -0.32, 356.38 -0.4 M0.24 0.13 C60.15 -0.01, 298.72 0.66, 358.55 0.93"
                  stroke="#000000" stroke-width="1" fill="none"></path>
        </g>
        <g transform="translate(988.3046874993922 111.54557619529419) rotate(0 179.39460204925348 0.26765645161151497)">
            <path d="M30.56 -11.31 C21.66 -7.95, 15.79 -4.95, -0.39 1.26 M29.86 -9.31 C21.94 -6.24, 14.81 -4.32, 2.06 -0.09"
                  stroke="#000000" stroke-width="1" fill="none"></path>
        </g>
        <g transform="translate(988.3046874993922 111.54557619529419) rotate(0 179.39460204925348 0.26765645161151497)">
            <path d="M30.63 9.21 C21.55 7.45, 15.66 5.32, -0.39 1.26 M29.94 11.21 C22.12 8.99, 14.97 5.63, 2.06 -0.09"
                  stroke="#000000" stroke-width="1" fill="none"></path>
        </g>
        <g transform="translate(988.3046874993922 111.54557619529419) rotate(0 179.39460204925348 0.26765645161151497)">
            <path d="M331.61 9.37 C336.63 7.09, 344.83 4.96, 357.04 1.41 M330.92 11.37 C337.64 8.75, 345.02 5.38, 359.5 0.07"
                  stroke="#000000" stroke-width="1" fill="none"></path>
        </g>
        <g transform="translate(988.3046874993922 111.54557619529419) rotate(0 179.39460204925348 0.26765645161151497)">
            <path d="M331.68 -11.15 C336.85 -8.31, 345.04 -5.32, 357.04 1.41 M330.99 -9.15 C337.56 -6.49, 344.93 -4.57, 359.5 0.07"
                  stroke="#000000" stroke-width="1" fill="none"></path>
        </g>
    </g>
    <g stroke-linecap="round"
       transform="translate(1359.1282552083335 29.914713541666515) rotate(0 168.64908854166663 85.068359375)">
        <path d="M0 0 C0 0, 0 0, 0 0 M0 0 C0 0, 0 0, 0 0 M-0.58 7.15 C1.78 4.54, 3.72 1.67, 5.06 0.98 M-0.18 6.06 C1.07 4.7, 2.38 2.71, 5.25 0.36 M1.24 12.25 C3.41 7.68, 8.43 4.82, 9.9 0.53 M0.87 11.88 C3.44 8.8, 5.82 5.72, 10.06 -0.32 M0.79 19.57 C5.02 11.05, 10.48 6.26, 15.82 -1.66 M0.86 18.87 C4.49 14.68, 7.82 9.14, 16.23 -0.42 M-0.9 26.05 C5.32 18.14, 11.25 12.59, 19.57 1.61 M1.01 24.29 C6.18 18.05, 11.7 10.34, 21.67 -0.5 M1.65 31.01 C7.27 22.16, 14.79 12.75, 26.17 1.19 M1 30.69 C8.73 21.81, 17.51 11.61, 26.54 0.63 M-0.22 35.94 C9.64 26.21, 18.81 17.51, 31.78 0.15 M-0.08 37.66 C9.9 24.96, 20.13 13.62, 31.84 0.6 M1.73 41.22 C7.94 30.86, 16.56 21.25, 37.02 0.22 M0.58 42.45 C10.59 29.83, 20.53 18.9, 37.08 0.77 M1.29 48.62 C12.47 38.23, 19.26 24.57, 40.87 -1.91 M0.79 49.52 C10.45 37.09, 21.36 22.64, 41.72 0.54 M-0.82 54.37 C16.21 37.9, 30.4 19.69, 46.14 -0.25 M0.03 53.61 C11.35 40.55, 23.87 26.28, 47.1 0.74 M0.38 59.52 C18.83 40.57, 36.03 17.65, 53.37 0.76 M-0.57 61.17 C14.8 44.58, 30.47 27.86, 53.83 -0.07 M-0.51 66.93 C14.32 51.99, 27.65 38.91, 58.29 0.61 M0.43 67.35 C19.46 46.08, 37.5 24.85, 57.66 -0.22 M1.4 71.88 C18.25 52.09, 40.37 29.11, 65.75 -0.99 M0.06 73.66 C17.24 52.23, 35.91 31.82, 62.96 -0.62 M0.06 78.61 C17.66 59.81, 32.33 40.19, 67.16 -1.81 M-0.94 78.56 C17.37 58.15, 35.71 37.62, 68.56 0.61 M1.71 83.42 C19.94 60.97, 40.56 36.19, 74.45 -0.76 M-0.33 85.52 C17.55 64.18, 34.87 45.17, 75.19 0.46 M0.33 90.94 C24.82 60.5, 51.51 31.39, 77.45 0.39 M0.52 91.41 C22.69 63.29, 46.99 35.74, 79.36 0.41 M0.94 97.2 C28.86 62.04, 62.28 25.05, 85.89 1.36 M0.38 98.52 C18.71 75.61, 38.21 51.49, 84.83 -1.26 M-1.68 102.2 C15.76 82.41, 36.59 61.95, 90.8 1.64 M0.33 103.25 C27.75 70.82, 54.95 39.71, 90.41 -0.12 M1.7 108.5 C26.09 80.62, 51.53 53.06, 94.46 0.82 M-1 109.65 C22.79 85.54, 44.92 58.71, 95.47 -1.23 M0.05 114.23 C31.12 78.63, 61.46 47.69, 99.83 0.91 M1.26 116.47 C38.8 70.28, 78.02 25, 99.8 0.19 M-0.45 123.44 C23.64 96.37, 46.65 67.86, 104.5 -1.39 M0.17 122.63 C37.76 79.42, 73.67 39.25, 106.99 -0.91 M0.84 127.14 C43.29 76.29, 89.15 28.84, 110.13 -0.3 M-0.29 128.17 C35.08 88.7, 71.72 46.89, 110.39 -0.02 M-0.28 133.87 C33.43 94.29, 64.19 57.73, 115.69 0.01 M-0.05 133.93 C37.94 93.34, 73.93 51.36, 115.84 -0.03 M-2.06 142.3 C43.58 93.71, 86.22 44.27, 122.25 0.04 M-0.71 140.16 C37.61 98.72, 73.72 56.05, 122.83 0.4 M-1.6 144.22 C32.06 108.9, 66.86 71.7, 127.63 1.53 M0.16 146.52 C28.47 112.59, 58.02 77.2, 126.73 -0.58 M0.56 152.85 C29.25 120.45, 56.68 86.12, 133.6 -1.36 M-0.05 152.5 C28.72 118.26, 57.23 86.77, 132.51 0.06 M0.02 158.23 C50.7 100.87, 98.71 43.08, 137.87 1.38 M0.61 159.47 C36.04 116.88, 71.62 76, 137.64 0.62 M-1.05 163.08 C43.85 114.85, 88.3 66.14, 144.79 0.1 M-0.42 163.66 C48.4 108.54, 96.76 51.9, 142.67 0.07 M-0.95 169.06 C49.68 114.65, 99.3 58.51, 146.97 -0.75 M0.04 169.78 C43.03 119.6, 86.02 69.63, 147.63 0.2 M5.48 171.51 C52.65 115.28, 97.13 61.68, 153.68 0.5 M5.33 169.63 C45.37 124.39, 85.39 79.11, 153.12 -0.83 M12.09 168.82 C59.61 113.98, 108.23 56.53, 158.47 0.76 M11.47 169.66 C50.93 122.36, 90.86 78.01, 158.61 -0.44 M16.5 172.07 C46.71 134.7, 79.07 96.71, 164.07 0.03 M16.66 169.75 C71.8 105.43, 128.81 40.49, 165.29 0.01 M22.47 171.02 C63.02 124.78, 103.85 76.98, 170.77 -0.83 M22.34 169.48 C65.17 120.78, 106.69 71.79, 169.23 -0.08 M28.32 169.57 C78.42 112.48, 126.97 52.93, 173.72 0.99 M26.3 171.13 C79.26 109.39, 131.48 50.69, 174.46 -0.37 M30.43 170.45 C74.09 123.43, 113.33 74.71, 178.85 1.09 M31.71 170.31 C75.18 119.49, 118 71.55, 179.28 -0.05 M39.01 169.21 C85.44 112.43, 138.35 54, 186.38 -0.72 M36.74 170.56 C76.54 127.06, 115.37 81.6, 185.95 -1.07 M40.71 170.41 C101.01 105.1, 157.69 38.91, 189.65 0.7 M42.1 171.36 C97.86 108.13, 150.85 46.7, 190.43 -0.02 M48.34 170.66 C108.88 99.61, 166.26 32.52, 196.33 -0.18 M47.26 169.94 C91.53 122.4, 133.98 72.2, 195.47 0.07 M53.45 171.75 C95.43 120.75, 137.11 73.41, 199.81 -1.33 M53 170.25 C88.1 127.32, 125.89 85.94, 202.06 -0.49 M59.49 169.75 C114.65 103.83, 175.73 36.68, 207.27 1.14 M58.25 170.31 C90.68 134.48, 121.13 98.67, 207.1 0.49 M65.19 171.6 C117.17 110.09, 171.78 46.24, 211.07 0.39 M64.37 171.13 C97.22 130.37, 132.33 90.9, 212.02 -0.29 M70.43 170.49 C127.92 104.84, 183.8 37.11, 216.85 0.51 M68.59 170.97 C112.99 118.42, 158.4 68.64, 217 -1.09 M73.26 169.28 C114.07 126.7, 152.65 80.6, 221.73 0.57 M75.1 170.83 C110.57 128.46, 147.69 84.89, 222.71 -0.81 M79.16 169.62 C122.46 117.98, 169.52 67.05, 228.72 -0.91 M79.96 170.37 C113.94 131.72, 147.32 95.15, 228 -0.41 M84.41 171.39 C132.9 114.23, 181.6 54.71, 231.78 -1.34 M85.6 170.02 C143.26 104.88, 200.87 40.18, 233.31 -0.04 M92.19 168.63 C128.24 129.29, 164.16 85.94, 239.84 0.93 M90.86 170.35 C142.91 108.18, 196.56 47.43, 237.75 0.26 M95.93 169.57 C150.29 108.85, 202.82 46.58, 244.58 0.56 M95.23 170.67 C152.53 105.06, 206.88 42.97, 244.08 -0.28 M102.29 168.59 C133.6 137.69, 160.99 102.88, 248.22 1.46 M100.85 170.18 C143.21 123.13, 183.3 77.59, 249.15 0.22 M107.65 169.65 C144.06 127.25, 181.27 81.96, 254.94 -0.22 M106.54 169.99 C150.38 121.76, 193.62 72.96, 253.8 -0.39 M110.78 168.49 C160.1 113.25, 209.48 54.17, 261.08 0.51 M111.45 170.83 C147.32 129.8, 181.34 89.39, 260.31 0.61 M116.8 169.3 C169.18 108.98, 223.18 49.57, 264.46 -0.3 M117.65 169.92 C156.11 123.81, 196.13 78.06, 265.77 -0.11 M122.39 170.31 C163.58 122.51, 206.85 74.07, 271.65 1.06 M121.82 170.69 C167.91 116.87, 212.91 63.39, 269.83 0.48 M126.6 170.11 C176.88 116.46, 221.77 61.33, 276.44 -1.83 M128.15 171.07 C184.97 104.94, 242.54 38.6, 274.94 -0.91 M133.24 170.49 C171.22 129.49, 207.64 85.32, 280.86 1.39 M133.09 169.83 C171.77 126.22, 211.14 81.52, 280.37 0.2 M137.65 168.98 C172.57 130.71, 209.08 91.26, 287.3 -0.51 M138.3 170.22 C193.84 107.4, 248.27 43.84, 285.91 0.01 M142.2 169.28 C192.08 115.57, 238 58.12, 292.18 0.25 M143.34 169.94 C182.65 127.31, 219.5 84.19, 290.99 0.51 M149.69 170.1 C192.66 115.74, 240.39 63.63, 298.59 -1.02 M148.16 169.65 C191.45 119.98, 235.3 70.55, 296.66 0.3 M155.22 169.39 C211.83 103.32, 267.92 38.22, 303.08 -1.47 M152.91 170.42 C203.84 110.41, 255.46 50.79, 301.36 0.03 M159.84 169.57 C189.25 135.87, 219.61 100, 308.38 -1.59 M160.16 169.55 C201.36 124.46, 243.75 75.52, 307.97 0.16 M165.97 171.94 C221.69 107.45, 275.35 42.22, 313.54 1.04 M164.63 170.37 C193 135.76, 224.52 100.74, 312.72 -0.51 M171.2 170.79 C210.89 123.26, 252.29 75.27, 319.85 0.89 M169.68 170.48 C200.04 136.19, 228.93 102.75, 317.42 -0.22 M173.92 171.78 C201.98 136.44, 231.41 100.95, 324.39 1.03 M175.39 169.81 C230.94 107.5, 286.2 43.06, 323.49 0.9 M180.85 169.03 C227.3 115.47, 277.52 59.79, 329.34 -1.19 M181.32 170.85 C237.1 106.39, 292.2 42.32, 328.8 0.21 M185.31 170.22 C223.8 124.42, 262.66 78.45, 335.57 -0.96 M184.86 171.32 C219.07 131.96, 254.05 92.59, 333.64 -0.19 M191.84 170.33 C229.97 124.06, 268.58 79.35, 336.94 1.12 M190.89 169.51 C230.9 124.28, 271.47 76.97, 337.97 0.53 M197.87 169.86 C243.15 112.99, 293.87 57.49, 338.52 8.07 M196.38 170.64 C224.75 135.67, 255.07 102.34, 337.84 6.71 M201.16 169.13 C237.63 129.76, 272.55 87.78, 339.67 13.64 M201.75 169.97 C230.01 137.73, 259.2 103.29, 338.78 13.41 M205.55 169.32 C242.58 128.81, 277.87 84.31, 337.07 20.28 M207.62 171.27 C254.13 113.35, 303.9 57.31, 339.06 19.87 M211.77 170.86 C260.05 116.98, 305.63 66.35, 339.53 23.57 M211.79 169.21 C244.96 132.3, 275.7 96.71, 338.9 24.9 M218.8 168.98 C253.82 130.25, 289.95 88.63, 338.27 30.41 M217.8 171.29 C252.27 132.06, 286.26 93.53, 338.74 30.75 M224.52 168.56 C259.52 130.7, 291.49 90.29, 339.36 36 M223.44 169.3 C259.82 127.61, 296.76 86.8, 337.62 37.98 M229.05 172.36 C262.14 128.9, 294.17 90.92, 337.27 42.18 M227.64 169.66 C257.67 137.04, 288.27 101.18, 339.12 42.87 M234.73 171.26 C261.56 136.08, 289.72 103.32, 336.22 50.53 M232.87 170.77 C260.73 138.51, 287.83 108.59, 338.11 50.54 M237.49 168.64 C278.63 125.34, 315.08 82.34, 338.85 56.9 M238.07 171.32 C258.63 146.83, 278.67 122.44, 337.97 56.48 M242.82 170.65 C277.31 130.34, 309.08 93.68, 336.94 63.99 M245.04 169.68 C281.76 129.16, 318.36 85.25, 338.72 61.2 M249.22 170.53 C274.47 140.89, 302.13 110.77, 338.73 68.41 M249.34 170.2 C276.92 138.8, 305.07 106.55, 338.83 68.3 M255.49 171.68 C280.69 139.99, 308.71 107.15, 340.33 72.99 M254.03 171.34 C286.64 135.35, 319.2 98.01, 338.08 74.82 M259.38 172.24 C284.53 140.29, 312.88 110.77, 336.99 81.84 M259.91 170.22 C288.96 138.74, 315.13 107.4, 337.34 81.31 M266.39 171.61 C294.01 140.87, 320.98 108, 337.85 84.92 M264.63 170.26 C287.44 144.3, 311.44 116.62, 338.75 86.46 M271.01 171.55 C295.84 141.5, 321.08 113.47, 338.62 92.59 M271.53 170.26 C287.93 149.03, 307.74 127.17, 338.9 92.69 M274.17 170.47 C291.28 151.95, 309.19 130.08, 338.9 96.69 M275.46 169.71 C293.45 150.12, 309.99 130.18, 339.57 99.21 M281.17 171.75 C298.29 150.66, 317.98 128.88, 339.6 104.84 M282.23 171.2 C297.62 149.23, 316.56 130.27, 337.67 105.39 M287.11 170.07 C303.86 148.81, 322.55 128.73, 336.22 109.51 M286.52 169.69 C304.02 148.55, 323.03 128.27, 337.97 111.86 M290.86 171.67 C307.21 152.6, 321.58 139.72, 339.56 118.57 M291.28 170.91 C304.96 154.87, 319.26 138.55, 338.27 116.07 M296.46 168.75 C308.41 156.06, 321.88 144.44, 338.47 123.86 M297.61 170.68 C305.31 161.67, 312.49 151.22, 337.61 122.94 M303.07 171.67 C312.71 156.1, 326.3 143.56, 339.09 128.27 M302.22 169.24 C315.62 153.96, 329.12 138.82, 338.04 128.89 M306.41 171.38 C314.98 160.9, 320.18 153.63, 340.31 134.01 M307.29 170.64 C317.99 158.87, 326.54 146.92, 337.48 134.23 M312.73 171.63 C320.18 162.21, 329.84 154.97, 337.08 141.72 M313.88 171.02 C320.68 161.85, 328.05 152.46, 337.49 141.23 M316.17 171.37 C323.56 164.61, 327.32 160.77, 339.05 147 M317.87 170.03 C325.98 162.62, 333.92 152.77, 339.45 146.73 M324.76 168.98 C329.48 163.05, 332.2 158.75, 339.37 154.98 M323.32 171.07 C328.96 165.19, 332.3 160.71, 337.8 153.72 M329.59 169.12 C330.28 165.97, 332.87 164.12, 339.6 157.85 M328.52 170.71 C331.13 168.7, 333.81 166.21, 338.67 158.63 M334.91 169.69 C335.26 168.72, 335.86 168.84, 337.89 165.99 M334.56 169.85 C335.76 168.28, 337.7 166.39, 338.24 165.63"
              stroke="#82c91e" stroke-width="0.5" fill="none"></path>
        <path d="M-0.22 1.28 C94.22 -0.8, 189.06 -1.77, 337.06 0.28 M0.46 0.04 C110.6 0.52, 220.15 0.3, 337.23 0.4 M339.18 0.85 C339.45 45, 336.08 91.13, 338.12 171.48 M338.25 0.17 C335.38 54.3, 335.54 107.67, 336.96 169.47 M337.84 169.51 C259.85 172.57, 184.22 171.14, 0.92 168.82 M336.74 170.53 C260.56 171.8, 184.63 171.11, -0.24 170.02 M0.28 169.77 C-1.05 106.52, -0.98 42.77, -2 -1.78 M-0.25 170.04 C1.6 136.47, 1.42 102.42, -0.34 -0.21"
              stroke="#000000" stroke-width="1" fill="none"></path>
    </g>
    <g transform="translate(1364.1282552083335 62.483072916666515) rotate(0 163.5 52.5)">
        <text x="163.5" y="25" font-family="Virgil, Segoe UI Emoji" font-size="28px" fill="#000000" text-anchor="middle"
              style="white-space: pre;" direction="ltr">Proxy
        </text>
        <text x="163.5" y="60" font-family="Virgil, Segoe UI Emoji" font-size="28px" fill="#000000" text-anchor="middle"
              style="white-space: pre;" direction="ltr">(Authentication,
        </text>
        <text x="163.5" y="95" font-family="Virgil, Segoe UI Emoji" font-size="28px" fill="#000000" text-anchor="middle"
              style="white-space: pre;" direction="ltr">Authorization, Limits)
        </text>
    </g>
    <g stroke-linecap="round">
        <g transform="translate(1709.2724144339163 114.90531994047603) rotate(0 184.86053456053094 0.32540548738091957)">
            <path d="M-0.72 0.58 C60.73 0.38, 306.65 -0.4, 368.1 -0.35 M1.1 -0.16 C63 -0.27, 308.88 1.14, 370.44 1"
                  stroke="#000000" stroke-width="1" fill="none"></path>
        </g>
        <g transform="translate(1709.2724144339163 114.90531994047603) rotate(0 184.86053456053094 0.32540548738091957)">
            <path d="M28.41 -10.93 C19.95 -8.71, 15.02 -3.25, 0.67 1 M27.19 -10.08 C18.44 -6.27, 9.92 -4.35, -0.59 0.58"
                  stroke="#000000" stroke-width="1" fill="none"></path>
        </g>
        <g transform="translate(1709.2724144339163 114.90531994047603) rotate(0 184.86053456053094 0.32540548738091957)">
            <path d="M28.47 9.59 C19.84 6.72, 14.9 7.09, 0.67 1 M27.25 10.44 C18.3 7.96, 9.76 3.59, -0.59 0.58"
                  stroke="#000000" stroke-width="1" fill="none"></path>
        </g>
        <g transform="translate(1709.2724144339163 114.90531994047603) rotate(0 184.86053456053094 0.32540548738091957)">
            <path d="M343.2 10.03 C348.57 7.5, 357.61 7.86, 371.84 1.43 M341.98 10.88 C350.34 8.31, 359.1 3.93, 370.58 1"
                  stroke="#000000" stroke-width="1" fill="none"></path>
        </g>
        <g transform="translate(1709.2724144339163 114.90531994047603) rotate(0 184.86053456053094 0.32540548738091957)">
            <path d="M343.24 -10.49 C348.75 -7.94, 357.78 -2.48, 371.84 1.43 M342.03 -9.64 C350.55 -5.92, 359.29 -4.01, 370.58 1"
                  stroke="#000000" stroke-width="1" fill="none"></path>
        </g>
    </g>
    <g stroke-linecap="round"
       transform="translate(2091.4664248517993 31.025111607142776) rotate(0 168.64908854166663 85.068359375)">
        <path d="M-0.78 -0.39 C124.68 -0.11, 252.21 -0.16, 337.58 0.09 M-0.21 -0.3 C130.88 0.34, 260.73 0.66, 337.29 0.44 M336.32 -0.39 C338.24 63.25, 338.1 128.7, 338.55 170.17 M336.39 -0.18 C338.64 46.84, 338.74 96.25, 336.63 170.53 M336.57 171.41 C222.94 171.3, 110.77 170.37, -1.3 171.39 M336.73 169.92 C258.11 168.66, 178.58 169.21, 0.06 170.61 M1.07 170.35 C-0.43 106.16, 0.46 37.92, -0.75 -0.24 M0.46 170.06 C-0.92 116.48, -2.15 62.17, -0.65 -0.39"
              stroke="#000000" stroke-width="1" fill="none"></path>
    </g>
    <g transform="translate(2096.4664248517993 63.593470982142776) rotate(0 163.5000000000001 52.5)">
        <text x="163.5" y="25" font-family="Virgil, Segoe UI Emoji" font-size="28px" fill="#000000" text-anchor="middle"
              style="white-space: pre;" direction="ltr">Mosquitto
        </text>
        <text x="163.5" y="60" font-family="Virgil, Segoe UI Emoji" font-size="28px" fill="#000000" text-anchor="middle"
              style="white-space: pre;" direction="ltr">(Broker, Messages,
        </text>
        <text x="163.5" y="95" font-family="Virgil, Segoe UI Emoji" font-size="28px" fill="#000000" text-anchor="middle"
              style="white-space: pre;" direction="ltr">etc.)
        </text>
    </g>
</svg>