<?xml version="1.0" encoding="UTF-8"?>
<svg id="_Ńëîé_1" xmlns="http://www.w3.org/2000/svg" version="1.1" viewBox="0 0 595.3 595.3">
  <!-- Generator: Adobe Illustrator 29.4.0, SVG Export Plug-In . SVG Version: 2.1.0 Build 152)  -->
  <defs>
    <style>
      .st0 {
        fill: #fff;
      }

      .st1, .st2 {
        fill: #72b63c;
      }

      .st2 {
        fill-rule: evenodd;
      }
    </style>
  </defs>
  <circle class="st0" cx="297.6" cy="297.6" r="294.8"/>
  <path class="st1" d="M61.2,293.6c0-3.6.3-7.1.9-10.2.6-3.2,1.4-5.9,2.4-8.1h11.7c-1.1,2.6-2,5.4-2.7,8.4s-1.1,5.9-1.1,8.7.3,6,.9,7.7c.6,1.7,2,2.5,4.1,2.6,1.4,0,2.6-.4,3.4-1.2.9-.8,1.6-2.2,2.3-4,.7-1.8,1.5-4.4,2.4-7.5,1.2-3.8,2.5-6.7,3.9-8.9,1.4-2.2,3.1-3.8,5.1-4.7,2-.9,4.5-1.4,7.4-1.4,5.2,0,9.2,2,12,5.8s4.1,9.4,4,16.7c0,3.2-.3,6.3-.8,9.3s-1.1,5.5-1.7,7.3h-11.8c1-2.6,1.7-5,2.2-7.5s.7-4.9.8-7.2c0-3.1-.2-5.6-.8-7.5-.6-1.9-1.9-2.9-3.9-2.9s-2.2.3-2.9,1c-.7.7-1.4,1.9-2,3.5-.6,1.7-1.3,4-2.1,6.9-1.2,4.5-2.7,7.9-4.4,10.3-1.7,2.4-3.7,4-5.9,4.9-2.2.9-4.7,1.3-7.4,1.3-4.8,0-8.7-2-11.7-5.8s-4.4-9.6-4.3-17.3h0v-.2Z"/>
  <path class="st1" d="M65.6,347.6l58.9,1.8,4.9,14.1-45.2,37.9-4.7-13.6,10.2-8.8-6-17.4-13.4-.5-4.7-13.6h0ZM93.9,360.1l4.8,13.8,15.7-13.2-20.5-.6h0Z"/>
  <polygon class="st1" points="107.4 436.9 137.9 386.4 146.7 397.7 124.4 433 164 419.9 173 431.2 116.6 448.6 107.4 436.9 107.4 436.9"/>
  <polygon class="st1" points="154 485.4 183.5 438.9 217.8 460.7 212.1 469.6 189.4 455.2 183.3 465 203.3 477.7 197.5 486.8 177.5 474.1 171.3 483.8 194 498.2 188.3 507.2 154 485.4 154 485.4"/>
  <polygon class="st1" points="260.9 531.1 264.8 476.2 305.3 479.1 304.6 489.6 277.8 487.7 277 499.3 300.6 500.9 299.8 511.7 276.2 510 275.4 521.5 302.2 523.4 301.4 534 260.9 531.1 260.9 531.1"/>
  <polygon class="st1" points="333.8 531.6 319.7 478.4 331.2 475.4 362.2 501.2 353.8 469.4 367.2 465.8 381.3 519.1 369.8 522.1 338.7 496.4 347.1 528.1 333.8 531.6 333.8 531.6"/>
  <polygon class="st1" points="412.5 504.2 381.7 458.5 415.4 435.8 421.3 444.6 399 459.6 405.5 469.2 425.1 456 431.2 464.9 411.5 478.1 418 487.7 440.2 472.7 446.2 481.5 412.5 504.2 412.5 504.2"/>
  <path class="st1" d="M470.2,459.5l-43.7-33.5,16.8-21.9c4-5.2,8.2-7.9,12.8-8.3,4.6-.4,9.2,1.2,13.7,4.7,2.9,2.3,4.9,5,6,8.2s1.2,6.5.3,9.9c1-.3,1.9-.3,2.8-.3s2.1.3,3.5.7l15.8,3.9-8.7,11.4-14.9-3.6c-1.3-.3-2.4-.3-3.3,0s-1.8,1-2.7,2.2l-3.9,5,13.8,10.6-8.4,10.9h.1ZM456.3,431.5l6.2-8.1c1.6-2.1,2.4-4.2,2.2-6.2-.1-2-1.3-3.9-3.5-5.5-4.4-3.4-8.2-2.9-11.4,1.3l-6.6,8.6,13,10h0Z"/>
  <path class="st1" d="M522.9,368.9c-3,9-7.6,15.1-13.8,18.3-6.1,3.2-13.4,3.3-21.7.5-8.7-2.9-14.7-7.6-17.9-14.1-3.2-6.4-3.3-14.3-.1-23.7,1.1-3.2,2.2-6,3.5-8.4,1.2-2.4,2.6-4.7,4.2-6.8l11.2,3.8c-1.6,2-3.1,4.3-4.2,6.7-1.2,2.4-2.2,4.9-3.1,7.6-1.9,5.6-1.9,10.2-.1,13.6,1.8,3.5,5.5,6.1,11.1,8,5.1,1.7,9.3,1.8,12.6.2,3.3-1.6,5.7-4.8,7.3-9.5,1.1-3.1,1.6-6.2,1.6-9.2l-9.9-3.3-3.8,11.3-8.2-2.8,7.5-22.2,25.9,8.7c.6,2.2.8,5.2.6,8.7-.2,3.6-1,7.8-2.7,12.6h0Z"/>
  <polygon class="st1" points="533.2 303.9 512.9 303.9 478.1 323.8 478.1 309.4 500.9 297 478 284.8 478 270.4 512.9 290.1 533.1 290 533.2 303.9 533.2 303.9"/>
  <path class="st1" d="M297.6,573.9c-152.4,0-276.4-124-276.4-276.4S145.2,21.2,297.6,21.2s276.4,124,276.4,276.4-124,276.4-276.4,276.4h0ZM297.6,38.1c-143.1,0-259.5,116.4-259.5,259.5s116.4,259.5,259.5,259.5,259.5-116.4,259.5-259.5S440.7,38.1,297.6,38.1Z"/>
  <path class="st2" d="M101,204.4c8.3,0,15,6.7,15,15s-6.7,15-15,15-15-6.7-15-15,6.7-15,15-15h0Z"/>
  <path class="st2" d="M494.2,204.4c8.3,0,15,6.7,15,15s-6.7,15-15,15-15-6.7-15-15,6.7-15,15-15h0Z"/>
  <path class="st2" d="M326.3,167.4c-4.7,6.5-9.8,14-15.4,22.8-24.8,39-50.6,52.3-72.1,54.9-26.7,3.2-47.7-10.3-55.2-16-11.7,19.8-18.5,42.8-18.5,67.5,0,73.1,59.3,132.4,132.4,132.4s132.4-59.3,132.4-132.4-44.4-116.1-103.6-129.3h0ZM264.3,400.4l24.1-84.7-52.1,7.3,94.6-130.1-24.9,86.4,52.9-8.4-94.6,129.6h0Z"/>
  <path class="st2" d="M347.6,141.3l.2-.3c65.7,21.2,113.2,82.9,113.2,155.6s-73.3,163.5-163.5,163.5-163.5-73.3-163.5-163.5,13-73.1,34.9-100.9c1.9-3.2,3.2-4.9,3.2-4.9,0,0-19.7-51.5,52.4-77.6,46.4-16.7,103.2-3.1,126.6,4.1-9.1,6-26.8,21.8-53.8,64.3-21,33.1-42.2,45.4-60.5,47.6-26.2,3.1-45.4-14.3-45.4-14.3-.5-.4-.9-.8-1.4-1,16.7-26.8,47.3-47.7,65.8-58.6-19.2,5.6-36.7,15.1-51.8,27.4-20.1,18.3-33.3,38.9-40.7,52.7-8.6,18.7-13.3,39.4-13.3,61.3,0,81.4,66.1,147.4,147.4,147.4s147.4-66.1,147.4-147.4-46.1-125.3-108.8-142.3l.4-.5h0l.4-.5h0c.6-.8,1.3-1.6,1.9-2.4h0c0-.1.3-.5.3-.5h.1c0-.1.3-.5.3-.5h.1c0-.1.3-.5.3-.5h.1c0-.1.3-.5.3-.5.1-.1.3-.3.4-.4l.3-.3h.1c0-.1.3-.4.3-.4l.2-.2.2-.3.2-.2.2-.3.2-.2.2-.3.2-.2.2-.2.2-.2.2-.2.2-.2.2-.2.2-.2.2-.2.2-.2.2-.2.2-.2.2-.2.2-.2.2-.2.2-.2v-.2c.1,0,.3-.2.3-.2l.2-.2h.1c0-.1.2-.4.2-.4h.1c0-.1.2-.4.2-.4h.1c0,0,.2-.4.2-.4h.1c0,0,.2-.4.2-.4h.4Z"/>
</svg>