<?xml version="1.0" standalone="no"?>
<!DOCTYPE svg PUBLIC "-//W3C//DTD SVG 1.1//EN" "http://www.w3.org/Graphics/SVG/1.1/DTD/svg11.dtd" >
<svg xmlns="http://www.w3.org/2000/svg">
    <metadata>Generated by IcoMoon</metadata>
    <defs>
        <font id="lynus" horiz-adv-x="1024">
            <font-face units-per-em="1024" ascent="960" descent="-64"/>
            <missing-glyph horiz-adv-x="1024"/>
            <glyph unicode="&#x20;" horiz-adv-x="512" d=""/>
            <glyph unicode="&#xe900;" glyph-name="AI-ML"
                   d="M937.6 505.6c0.533 5.867 0.533 11.733 0.533 17.067 0 56.533-24.533 108.8-65.6 145.067-3.733 21.867-11.2 43.2-23.467 62.4-21.333 34.133-53.333 59.2-90.667 72-31.467 44.267-82.667 72.533-139.733 72.533-13.867 0-28.267-1.6-41.6-5.333-24.533-6.4-46.4-17.6-65.067-32.533-29.333 23.467-66.133 37.333-106.133 37.333v0 0c-57.067 0-108.8-28.267-139.733-73.067-58.667-19.733-102.933-70.933-113.6-133.333-21.867-18.667-39.467-42.667-51.2-70.4-12.8-29.867-17.6-61.333-14.4-92.267-48.533-59.733-58.667-145.6-18.667-216 10.667-18.667 24.533-35.733 41.067-50.133 11.733-75.733 70.4-136.533 145.6-150.4 33.6-41.6 84.8-67.2 140.8-67.2 19.2 0 38.4 3.2 57.067 9.067 22.4 7.467 42.667 19.2 60.267 33.6 31.467-26.667 72-43.2 116.267-43.2h0.533c56 0 107.2 25.6 140.8 67.2 75.2 14.4 133.867 74.667 145.067 150.4 41.067 35.733 66.133 88 66.133 145.067-0.533 45.333-16.533 88.533-44.267 122.133zM490.667 202.667c0-41.067-26.667-77.867-65.6-90.667-10.133-3.2-20.267-4.8-30.4-4.8-40 0-77.333 25.6-90.667 65.6-5.333-1.067-10.667-1.6-16-1.6 0 0 0 0 0 0s0 0 0 0c-52.8 0-96 43.2-96 96 0 6.4 0.533 12.8 1.6 18.667-21.867 9.067-40 25.067-51.733 45.867-28.8 51.2-11.2 115.733 40 145.067-1.067 2.667-2.133 4.8-3.2 7.467-21.867 54.4 4.267 115.733 58.667 137.6-1.6 5.333-2.667 11.733-2.667 18.133 0 46.933 38.4 85.333 85.333 85.333 1.067 0 2.133-0.533 3.2-0.533 9.6 37.867 43.2 64.533 82.133 64.533 46.933 0 85.333-38.4 85.333-85.333v-501.333zM830.4 285.333c1.067-6.4 1.6-12.267 1.6-18.667 0 0 0 0 0 0 0-52.8-43.2-96-96-96 0 0 0 0 0 0-5.333 0-10.667 0.533-16 1.6-12.8-39.467-49.6-65.6-90.667-65.6 0 0 0 0-0.533 0-52.8 0-95.467 43.2-95.467 96v501.333c0 38.933 26.667 73.067 64.533 82.667 6.933 1.6 13.867 2.667 20.8 2.667 37.867 0 72.533-25.6 82.667-64.533 1.067 0 2.133 0.533 3.2 0.533 0 0 0.533 0 0.533 0 6.4 0 12.8-0.533 19.2-2.133 45.333-10.667 73.6-56 62.933-101.867 40-16.533 66.133-55.467 66.133-98.667 0-16-3.733-32-10.667-46.4 33.067-18.667 53.867-53.867 53.867-92.267-0.533-43.2-26.667-82.133-66.133-98.667z"/>
            <glyph unicode="&#xe901;" glyph-name="areas"
                   d="M42.667 917.333v-938.667h938.667v938.667h-938.667zM896 277.333h-298.667v170.667h-298.667v-85.333h213.333v-170.667h384v-128h-768v298.667h85.333v85.333h-85.333v384h384v-298.667h85.333v298.667h298.667v-554.667z"/>
            <glyph unicode="&#xe902;" glyph-name="arrow_down"
                   d="M737.6 457.067l-182.933-183.467v451.733h-85.333v-451.733l-182.933 183.467-60.8-60.8 286.4-285.867 286.4 285.867z"/>
            <glyph unicode="&#xe903;" glyph-name="arrow_left"
                   d="M789.333 490.667h-451.733l183.467 182.933-60.8 60.8-285.867-286.4 285.867-286.4 60.8 60.8-183.467 182.933h451.733z"/>
            <glyph unicode="&#xe904;" glyph-name="arrow_right"
                   d="M563.733 734.4l-60.8-60.8 183.467-182.933h-451.733v-85.333h451.733l-183.467-182.933 60.8-60.8 285.867 286.4z"/>
            <glyph unicode="&#xe905;" glyph-name="arrow_up"
                   d="M225.6 499.733l60.8-60.8 182.933 183.467v-451.733h85.333v451.733l182.933-183.467 60.8 60.8-286.4 285.867z"/>
            <glyph unicode="&#xe906;" glyph-name="arrow-2_down"
                   d="M512 174.4l-393.067 392.533 60.8 60.8 332.267-332.8 332.267 332.8 60.8-60.8z"/>
            <glyph unicode="&#xe907;" glyph-name="arrow-2_left"
                   d="M630.933 54.933l-392.533 393.067 392.533 393.067 60.8-60.8-332.8-332.267 332.8-332.267z"/>
            <glyph unicode="&#xe908;" glyph-name="arrow-2_right"
                   d="M393.067 54.933l-60.8 60.8 332.8 332.267-332.8 332.267 60.8 60.8 392.533-393.067z"/>
            <glyph unicode="&#xe909;" glyph-name="arrow-2_up"
                   d="M844.267 268.267l-332.267 332.8-332.267-332.8-60.8 60.8 393.067 392.533 393.067-392.533z"/>
            <glyph unicode="&#xe90a;" glyph-name="arrow-direction-left"
                   d="M259.733 405.333h-86.4c7.467-60.8 31.467-118.4 69.333-166.933l60.8 60.8c-22.933 32-37.867 67.733-43.733 106.133zM303.467 596.267l-61.333 61.333c-37.867-48.533-61.333-105.6-69.333-166.4h86.4c6.4 37.867 21.333 73.6 44.267 105.067zM302.933 178.133c48.533-37.867 105.6-61.333 166.4-69.333v86.4c-38.4 6.4-74.133 21.333-105.6 43.733l-60.8-60.8zM753.067 689.6c-66.667 66.133-154.667 101.333-244.8 99.733v0l54.933 54.933-60.267 60.8-157.867-158.4 158.4-158.4 60.267 60.267-55.467 55.467c0 0 0 0 0 0 68.267 1.067 134.4-25.067 184.533-74.667 48.533-48.533 75.2-113.067 75.2-181.333s-26.667-132.8-75.2-181.333c-38.4-38.4-86.4-62.933-138.133-71.467v-86.4c74.667 9.6 144.533 43.2 198.933 97.6 64.533 64.533 99.733 150.4 99.733 241.6s-35.2 177.067-100.267 241.6z"/>
            <glyph unicode="&#xe90b;" glyph-name="arrow-direction-right"
                   d="M521.067 588.267l157.867 158.4-157.867 158.4-60.8-60.8 55.467-54.933c0 0 0 0 0 0-90.133 1.067-178.133-33.6-244.8-100.267-65.067-64-100.267-149.867-100.267-241.067s35.733-177.067 100.267-241.6c53.867-53.867 123.733-88 198.4-97.067v86.4c-52.267 8.533-100.267 33.067-138.133 71.467-48.533 48-75.2 112.533-75.2 180.8s26.667 132.8 75.2 180.8c50.133 50.133 116.8 76.267 184.533 75.2 0 0 0 0 0 0l-55.467-54.933 60.8-60.8zM850.667 490.667c-7.467 60.8-31.467 118.4-69.333 166.4l-60.8-60.8c22.4-31.467 37.333-67.733 43.733-105.6h86.4zM554.667 195.2v-86.4c60.8 7.467 118.4 31.467 166.4 69.333l-60.8 60.8c-31.467-22.4-67.2-37.333-105.6-43.733zM720.533 299.733l60.8-60.8c37.867 48.533 61.333 105.6 69.333 166.933h-86.4c-5.867-38.933-20.8-74.667-43.733-106.133z"/>
            <glyph unicode="&#xe90c;" glyph-name="arrow-down-in-circle"
                   d="M512 917.333c-259.2 0-469.333-210.133-469.333-469.333s210.133-469.333 469.333-469.333c259.2 0 469.333 210.133 469.333 469.333s-210.133 469.333-469.333 469.333zM512 64c-211.733 0-384 172.267-384 384s172.267 384 384 384 384-172.267 384-384-172.267-384-384-384zM512 401.6l-161.6 162.133-60.8-60.8 222.4-221.867 222.4 221.867-60.8 60.8z"/>
            <glyph unicode="&#xe90d;" glyph-name="arrow-left-in-circle"
                   d="M512 917.333c-259.2 0-469.333-210.133-469.333-469.333s210.133-469.333 469.333-469.333 469.333 210.133 469.333 469.333-210.133 469.333-469.333 469.333zM512 64c-211.733 0-384 172.267-384 384s172.267 384 384 384 384-172.267 384-384-172.267-384-384-384zM566.933 670.4l-221.867-222.4 221.867-222.4 60.8 60.8-162.133 161.6 162.133 161.6z"/>
            <glyph unicode="&#xe90e;" glyph-name="arrow-right-in-circle"
                   d="M512 917.333c-259.2 0-469.333-210.133-469.333-469.333s210.133-469.333 469.333-469.333 469.333 210.133 469.333 469.333-210.133 469.333-469.333 469.333zM512 64c-211.733 0-384 172.267-384 384s172.267 384 384 384 384-172.267 384-384-172.267-384-384-384zM396.267 609.6l162.133-161.6-162.133-161.6 60.8-60.8 221.867 222.4-221.867 222.4z"/>
            <glyph unicode="&#xe90f;" glyph-name="arrow-up-in-circle"
                   d="M512 917.333c-259.2 0-469.333-210.133-469.333-469.333s210.133-469.333 469.333-469.333c259.2 0 469.333 210.133 469.333 469.333s-210.133 469.333-469.333 469.333zM512 64c-211.733 0-384 172.267-384 384s172.267 384 384 384 384-172.267 384-384-172.267-384-384-384zM289.6 393.067l60.8-60.8 161.6 162.133 161.6-162.133 60.8 60.8-222.4 221.867z"/>
            <glyph unicode="&#xe910;" glyph-name="auto-mode"
                   d="M512 64c-130.667 0-248.533 64-319.467 170.667h106.133v85.333h-256v-256h85.333v114.667c34.667-49.6 79.467-92.8 130.667-125.867 75.733-48.533 163.2-74.133 253.333-74.133 258.667 0 469.333 210.667 469.333 469.333h-85.333c0-211.733-172.267-384-384-384zM896 832v-114.133c-86.933 124.8-228.267 199.467-384 199.467-258.667 0-469.333-210.667-469.333-469.333h85.333c0 211.733 172.267 384 384 384 130.133 0 248.533-64 319.467-170.667h-106.133v-85.333h256v256h-85.333zM565.333 348.267l19.2-49.6h98.667l-124.267 283.733h-93.867l-124.267-283.733h97.067l19.2 49.6h108.267zM510.933 488.533l27.733-71.467h-55.467l27.733 71.467z"/>
            <glyph unicode="&#xe911;" glyph-name="avatar"
                   d="M512 362.667c106.133 0 192 85.867 192 192s-85.867 192-192 192-192-85.867-192-192 85.867-192 192-192zM512 661.333c58.667 0 106.667-48 106.667-106.667s-48-106.667-106.667-106.667c-58.667 0-106.667 48-106.667 106.667s48 106.667 106.667 106.667zM512 917.333c-259.2 0-469.333-210.133-469.333-469.333s210.133-469.333 469.333-469.333 469.333 210.133 469.333 469.333-210.133 469.333-469.333 469.333zM512 64c-211.733 0-384 172.267-384 384s172.267 384 384 384 384-172.267 384-384-172.267-384-384-384zM426.667 320c-60.267 0-92.267-32-137.067-76.267l60.267-60.267c43.2 43.2 53.333 51.733 76.267 51.733h170.667c22.933 0 33.6-8.533 76.267-51.733l60.267 60.267c-43.733 44.267-75.733 76.267-136 76.267h-170.667z"/>
            <glyph unicode="&#xe912;" glyph-name="awning"
                   d="M849.6 789.333h-675.2l-110.4-531.2v-2.133c0-58.667 48-106.667 106.667-106.667 34.667 0 65.6 17.067 85.333 43.2 19.733-26.133 50.667-43.2 85.333-43.2s65.6 17.067 85.333 43.2c19.733-26.133 50.667-43.2 85.333-43.2s65.6 17.067 85.333 43.2c19.733-26.133 50.667-43.2 85.333-43.2s65.6 17.067 85.333 43.2c19.733-26.133 50.667-43.2 85.333-43.2 58.667 0 106.667 48 106.667 106.667v2.133l-110.4 531.2zM814.4 746.667l93.333-448h-123.733l-56 448h86.4zM741.333 298.667h-124.267l-18.667 448h86.933l56-448zM282.667 298.667l56 448h86.933l-18.667-448h-124.267zM468.267 746.667h86.933l18.667-448h-124.267l18.667 448zM209.6 746.667h86.4l-56-448h-123.733l93.333 448zM170.667 192c-34.667 0-62.933 27.733-64 61.867l0.533 2.133h127.467c0-35.2-28.8-64-64-64zM341.333 192c-34.667 0-63.467 28.267-64 62.933v1.067h128c0-35.2-28.8-64-64-64zM512 192c-35.2 0-64 28.267-64 63.467v0.533h128c0-35.2-28.8-64-64-64zM682.667 192c-35.2 0-64 28.8-64 64h128v-1.067c-0.533-34.667-28.8-62.933-64-62.933zM853.333 192c-35.2 0-64 28.8-64 64h127.467l0.533-2.133c-1.067-34.133-29.333-61.867-64-61.867z"/>
            <glyph unicode="&#xe913;" glyph-name="battery"
                   d="M538.133 550.4l-224-70.4 78.4-49.067-76.8-84.8 224 70.4-78.4 49.067 76.8 84.8zM853.333 554.667v-213.333h85.333v213.333h-85.333zM42.667 219.2h769.067v458.133h-769.067v-458.133zM128 592h598.4v-287.467h-598.4v287.467z"/>
            <glyph unicode="&#xe914;" glyph-name="billing"
                   d="M723.2 576h85.333v-597.333h-85.333v597.333zM467.2 917.333h85.333v-938.667h-85.333v938.667zM211.2 320h85.333v-341.333h-85.333v341.333z"/>
            <glyph unicode="&#xe915;" glyph-name="blinds"
                   d="M896 448h-42.667v-42.667h-682.667v42.667h-42.667v-42.667h-42.667v-85.333h853.333v85.333h-42.667v42.667zM896 106.667h-42.667v-42.667h-682.667v42.667h-42.667v-42.667h-42.667v-85.333h853.333v85.333h-42.667v42.667zM896 277.333h-42.667v-42.667h-682.667v42.667h-42.667v-42.667h-42.667v-85.333h853.333v85.333h-42.667v42.667zM896 618.667h-42.667v-42.667h-682.667v42.667h-42.667v-42.667h-42.667v-85.333h853.333v85.333h-42.667v42.667zM42.667 917.333v-256h938.667v256h-938.667zM896 746.667h-768v85.333h768v-85.333z"/>
            <glyph unicode="&#xe916;" glyph-name="chat"
                   d="M42.667 917.333v-725.333h512l213.333-213.333v213.333h213.333v725.333h-938.667zM896 277.333h-213.333v-92.8l-92.8 92.8h-461.867v554.667h768v-554.667zM213.333 725.333h597.333v-85.333h-597.333v85.333zM213.333 597.333h597.333v-85.333h-597.333v85.333zM213.333 469.333h597.333v-85.333h-597.333v85.333z"/>
            <glyph unicode="&#xe917;" glyph-name="checkmark"
                   d="M362.667 89.067l-286.4 285.867 60.8 60.8 225.6-226.133 524.267 524.8 60.8-60.8z"/>
            <glyph unicode="&#xe918;" glyph-name="co2"
                   d="M338.133 518.4c14.4 0 26.667-6.933 37.333-20.267l36.267 32.533c-8.533 11.2-19.2 19.733-32.533 25.6s-27.733 9.067-44.267 9.067c-18.133 0-34.667-3.733-49.067-11.2s-26.133-18.133-34.133-32c-8-13.867-12.267-29.333-12.267-46.4s4.267-32.533 12.267-46.4c8-13.867 19.733-24 34.133-32 14.4-7.467 30.933-11.2 49.067-11.2 16.533 0 31.467 3.2 44.267 9.067s24 14.4 32.533 25.6l-36.267 32.533c-10.667-13.333-22.933-20.267-37.333-20.267-12.267 0-21.867 3.733-29.333 11.733s-11.2 18.133-11.2 30.933c0 12.8 3.733 23.467 11.2 30.933 8 8 17.6 11.733 29.333 11.733zM693.867 381.867c7.467 6.933 12.8 12.267 15.467 17.067s4.267 9.6 4.267 14.933c0 9.6-4.267 17.6-12.267 23.467s-19.2 9.067-32.533 9.067c-12.267 0-22.4-2.133-30.4-6.4s-13.867-10.133-17.6-17.6l28.267-13.333c3.2 6.4 9.067 9.067 16.533 9.067 3.2 0 5.867-0.533 7.467-1.6s2.667-2.667 2.667-4.8c0-3.733-2.667-8.533-9.067-13.333l-38.933-33.067v-22.4h89.6v27.733h-36.267l12.8 11.2zM564.8 553.6c-14.933 7.467-31.467 11.733-49.6 11.733-18.667 0-35.2-3.733-49.6-11.733-14.933-7.467-26.133-18.133-34.667-32s-12.267-28.8-12.267-45.867c0-17.067 4.267-32.533 12.267-45.867 8.533-13.867 19.733-24 34.667-32 14.933-7.467 31.467-11.733 49.6-11.733 18.667 0 35.2 3.733 49.6 11.733 14.933 7.467 26.133 18.133 34.667 32s12.267 28.8 12.267 45.867c0 17.067-4.267 32.533-12.267 45.867-8.533 13.867-20.267 24-34.667 32zM548.267 452.8c-3.2-6.4-8-11.2-13.867-14.933s-12.267-5.333-19.2-5.333c-6.933 0-13.867 1.6-19.2 5.333s-10.133 8.533-13.867 14.933c-3.2 6.4-5.333 13.867-5.333 22.4s1.6 16 5.333 22.4c3.2 6.4 8 11.2 13.867 14.933s12.267 5.333 19.2 5.333c6.933 0 13.867-1.6 19.2-5.333 5.867-3.733 10.133-8.533 13.867-14.933 3.2-6.4 5.333-13.867 5.333-22.4s-2.133-16-5.333-22.4zM838.4 654.933c-31.467 78.933-108.8 134.4-198.4 134.4-23.467 0-46.4-3.733-68.267-11.2-40 34.133-91.2 53.867-145.067 53.867-79.467 0-150.933-41.067-190.933-106.133-46.4-13.333-88.533-38.933-122.133-75.2-45.867-49.6-70.933-114.133-70.933-181.333 0-134.4 99.733-245.867 229.333-264 27.2-58.133 86.4-98.667 154.667-98.667 31.467 0 61.867 8.533 88 24.533 32-16 67.733-24.533 104-24.533 110.4 0 203.733 76.8 228.267 179.733 77.867 24.533 134.4 97.6 134.4 182.933 0 89.067-60.8 164.267-142.933 185.6zM789.333 362.667c-8 0-15.467 1.067-22.933 2.667 1.067-7.467 1.6-15.467 1.6-23.467 0-82.667-67.2-149.867-149.867-149.867-45.333 0-85.867 20.267-113.6 52.267-12.267-30.933-42.667-52.267-77.867-52.267-46.933 0-85.333 38.4-85.333 85.333 0 4.8 0.533 9.067 1.067 13.867-10.667-2.133-21.867-3.2-33.067-3.2-100.267 0-181.333 81.067-181.333 181.333 0 94.933 73.067 173.333 166.4 180.8 18.133 56 70.4 96.533 132.267 96.533 54.933 0 102.4-32 124.8-78.4 22.933 21.867 54.4 35.733 88.533 35.733 70.933 0 128-57.067 128-128v-2.133c6.933 1.6 13.867 2.133 21.333 2.133 58.667 0 106.667-48 106.667-106.667s-48-106.667-106.667-106.667z"/>
            <glyph unicode="&#xe919;" glyph-name="cold-water"
                   d="M824 213.333c-27.733 0-39.467 6.4-57.6 16-21.867 11.733-48.533 26.667-98.667 26.667-49.6 0-76.8-14.933-98.133-26.667-17.6-9.6-29.867-16-58.133-16-27.733 0-39.467 6.4-57.6 16-21.867 11.733-48.533 26.667-98.667 26.667-49.6 0-76.8-14.933-98.133-26.667-17.6-9.6-29.867-16-58.133-16-27.733 0-39.467 6.4-57.6 16-21.867 11.733-48.533 26.667-98.667 26.667v-85.333c28.267 0 40-6.4 58.133-16 21.867-11.733 48.533-26.667 98.133-26.667 50.133 0 77.333 14.933 98.667 26.667 17.6 9.6 29.333 16 57.6 16s40-6.4 58.133-16c21.867-11.733 48.533-26.667 98.133-26.667 50.133 0 77.333 14.933 98.667 26.667 17.6 9.6 29.333 16 57.6 16s40-6.4 58.133-16c21.867-11.733 48.533-26.667 98.133-26.667s76.8 14.933 98.667 26.667c17.6 9.6 29.867 16 57.6 16v85.333c-49.6 0-76.8-14.933-98.667-26.667-17.6-9.6-29.333-16-57.6-16zM824 64c-27.733 0-39.467 6.4-57.6 16-21.867 11.733-48.533 26.667-98.667 26.667-49.6 0-76.8-14.933-98.133-26.667-17.6-9.6-29.867-16-58.133-16-27.733 0-39.467 6.4-57.6 16-21.867 11.733-48.533 26.667-98.667 26.667-49.6 0-76.8-14.933-98.133-26.667-17.6-9.6-29.867-16-58.133-16-27.733 0-39.467 6.4-57.6 16-21.867 11.733-48.533 26.667-98.667 26.667v-85.333c28.267 0 40-6.4 58.133-16 21.867-11.733 48.533-26.667 98.133-26.667 50.133 0 77.333 14.933 98.667 26.667 17.6 9.6 29.333 16 57.6 16s40-6.4 58.133-16c21.867-11.733 48.533-26.667 98.133-26.667 50.133 0 77.333 14.933 98.667 26.667 17.6 9.6 29.333 16 57.6 16s40-6.4 58.133-16c21.867-11.733 48.533-26.667 98.133-26.667s76.8 14.933 98.667 26.667c17.6 9.6 29.867 16 57.6 16v85.333c-49.6 0-76.8-14.933-98.667-26.667-17.6-9.6-29.333-16-57.6-16zM192 277.333v85.333c-22.933 1.067-34.133 6.933-50.667 16-21.867 11.733-48.533 26.667-98.667 26.667v-85.333c28.267 0 40-6.4 58.133-16 20.267-11.2 45.867-25.067 91.2-26.667zM881.6 378.667c-16-8.533-27.2-14.933-49.6-16v-85.333c44.8 1.6 69.867 15.467 90.667 26.133 17.6 9.6 29.867 16 57.6 16v85.333c-49.6 0.533-76.8-14.4-98.667-26.133zM236.267 402.667l102.933 59.733-25.6-96 41.067-11.2 36.8 137.067 33.6 19.733 65.6-37.333v-38.933l-100.267-100.267 30.4-30.4 69.867 69.867v-118.933h42.667v118.933l70.4-70.4 30.4 30.4-100.8 100.8v38.933l65.067 37.333 33.6-19.733 36.8-137.067 41.067 11.2-25.6 96 102.933-59.733 21.333 36.8-102.933 59.733 96 25.6-11.2 41.067-137.067-36.8-33.6 19.733v75.2l33.6 19.733 137.067-36.8 11.2 41.067-96 25.6 102.933 59.733-21.333 36.8-102.933-59.733 25.6 96-41.067 11.2-36.8-137.067-33.6-19.733-65.067 37.867v38.933l100.267 100.267-30.4 30.4-69.867-69.867v118.933h-42.667v-118.933l-70.4 69.867-30.4-30.4 100.8-100.267v-38.933l-65.067-37.333-33.6 19.733-36.8 137.067-41.067-11.2 25.6-96-103.467 59.733-21.333-36.8 102.933-59.733-96-25.6 11.2-41.067 137.067 36.8 33.6-19.733v-75.2l-33.6-19.733-137.067 36.8-11.2-41.067 96-25.6-102.933-59.733 21.333-37.333zM446.933 624.533l65.067 37.333 65.067-37.333v-75.733l-65.067-37.333-65.067 37.333v75.733z"/>
            <glyph unicode="&#xe91a;" glyph-name="compass_east"
                   d="M320 661.333l45.867-213.333-45.867-213.333 490.667 213.333-490.667 213.333zM449.6 466.133l-11.2 50.667 158.4-68.8-158.4-68.8 11.2 50.667 3.733 18.133-3.733 18.133zM512 917.333c-259.2 0-469.333-210.133-469.333-469.333s210.133-469.333 469.333-469.333c259.2 0 469.333 210.133 469.333 469.333s-210.133 469.333-469.333 469.333zM554.667 66.667v82.667h-85.333v-82.667c-177.6 19.733-318.933 161.067-338.667 338.667h82.667v85.333h-82.667c19.733 177.6 161.067 318.933 338.667 338.667v-82.667h85.333v82.667c191.467-21.333 341.333-184 341.333-381.333s-149.867-360.533-341.333-381.333z"/>
            <glyph unicode="&#xe91b;" glyph-name="compass_north"
                   d="M298.667 256l213.333 45.867 213.333-45.867-213.333 490.667-213.333-490.667zM530.133 385.6l-18.133 3.733-18.133-3.733-50.667-11.2 68.8 158.4 68.8-158.4-50.667 11.2zM512 917.333c-259.2 0-469.333-210.133-469.333-469.333s210.133-469.333 469.333-469.333c259.2 0 469.333 210.133 469.333 469.333s-210.133 469.333-469.333 469.333zM554.667 66.667v82.667h-85.333v-82.667c-177.6 19.733-318.933 161.067-338.667 338.667h82.667v85.333h-82.667c20.8 191.467 184 341.333 381.333 341.333s360.533-149.867 381.333-341.333h-82.667v-85.333h82.667c-19.733-177.6-161.067-318.933-338.667-338.667z"/>
            <glyph unicode="&#xe91c;" glyph-name="compass_south"
                   d="M298.667 640l213.333-490.667 213.333 490.667-213.333-45.867-213.333 45.867zM580.8 521.6l-68.8-158.4-68.8 158.4 50.667-11.2 18.133-3.733 18.133 3.733 50.667 11.2zM512 917.333c-259.2 0-469.333-210.133-469.333-469.333s210.133-469.333 469.333-469.333c259.2 0 469.333 210.133 469.333 469.333s-210.133 469.333-469.333 469.333zM512 64c-197.333 0-360.533 149.867-381.333 341.333h82.667v85.333h-82.667c19.733 177.6 161.067 318.933 338.667 338.667v-82.667h85.333v82.667c177.6-19.733 318.933-161.067 338.667-338.667h-82.667v-85.333h82.667c-20.8-191.467-184-341.333-381.333-341.333z"/>
            <glyph unicode="&#xe91d;" glyph-name="compass_west"
                   d="M213.333 448l490.667-213.333-45.867 213.333 45.867 213.333-490.667-213.333zM574.4 429.867l11.2-50.667-158.4 68.8 158.4 68.8-11.2-50.667-3.733-18.133 3.733-18.133zM512 917.333c-259.2 0-469.333-210.133-469.333-469.333s210.133-469.333 469.333-469.333c259.2 0 469.333 210.133 469.333 469.333s-210.133 469.333-469.333 469.333zM554.667 66.667v82.667h-85.333v-82.667c-191.467 21.333-341.333 184-341.333 381.333s149.867 360.533 341.333 381.333v-82.667h85.333v82.667c177.6-19.733 318.933-161.067 338.667-338.667h-82.667v-85.333h82.667c-19.733-177.6-161.067-318.933-338.667-338.667z"/>
            <glyph unicode="&#xe91e;" glyph-name="connected"
                   d="M469.333 192h85.333v-85.333h-85.333v85.333zM374.933 313.067l54.933-65.6c22.933 19.2 52.267 29.867 82.133 29.867s59.2-10.667 82.133-29.867l54.933 65.6c-38.4 32-86.933 49.6-137.067 49.6s-98.667-17.6-137.067-49.6zM222.4 462.4l58.133-62.4c62.933 58.667 145.6 90.667 231.467 90.667s168.533-32 231.467-90.667l58.133 62.4c-78.933 73.067-181.867 113.6-289.6 113.6s-210.667-40.533-289.6-113.6zM512 789.333c-164.8 0-321.6-62.4-441.067-176l58.667-61.867c104 98.133 239.467 152.533 382.4 152.533s278.4-54.4 381.867-152.533l58.667 61.867c-118.933 113.6-275.733 176-440.533 176z"/>
            <glyph unicode="&#xe91f;" glyph-name="counter-used-water"
                   d="M42.667 917.333l85.333-938.667h768l85.333 938.667h-938.667zM517.867 64c-2.133 0-3.733 0-5.867 0s-3.733 0-5.867 0c-112.533 3.733-180.267 126.933-126.4 226.133l132.267 243.2 132.267-243.2c53.867-99.2-13.867-221.867-126.4-226.133zM866.667 597.333h-709.333l-21.333 234.667h752l-21.333-234.667z"/>
            <glyph unicode="&#xe920;" glyph-name="darkmode"
                   d="M826.667 796.267c-0.533 0.533-1.067 1.067-1.6 1.6-5.333 4.8-10.667 9.067-16 13.867-1.067 1.067-2.133 1.6-3.2 2.667-4.8 3.733-10.133 8-14.933 11.733-1.6 1.067-2.667 2.133-4.267 3.2-4.8 3.2-9.6 6.933-14.4 10.133-1.6 1.067-3.2 2.133-4.8 3.2-4.8 3.2-9.6 6.4-14.4 9.067-1.6 1.067-3.2 2.133-5.333 3.2-4.8 2.667-10.133 5.867-15.467 8.533-1.6 1.067-3.2 1.6-4.8 2.667-5.333 2.667-10.667 5.333-16.533 8-1.067 0.533-2.667 1.067-3.733 1.6-5.867 2.667-11.733 5.333-18.133 8-1.067 0.533-1.6 0.533-2.667 1.067-6.4 2.667-12.8 5.333-19.733 7.467-0.533 0-0.533 0.533-1.067 0.533-6.933 2.667-13.867 4.8-20.8 6.933 0 0 0 0 0 0-21.333 6.4-43.733 11.2-66.133 14.4 0 0 0 0 0 0-7.467 1.067-14.4 2.133-21.867 2.667-0.533 0-0.533 0-1.067 0-6.933 0.533-14.4 1.067-21.867 1.6-0.533 0-0.533 0-1.067 0-6.4-1.067-13.333-1.067-20.8-1.067s-14.4 0-21.867-0.533c-0.533 0-0.533 0-1.067 0-7.467-0.533-14.4-1.067-21.867-1.6-0.533 0-0.533 0-1.067 0-7.467-0.533-14.933-1.6-21.867-2.667 0 0 0 0 0 0-22.4-3.2-44.267-8-65.6-14.4 0 0 0 0 0 0-6.933-2.133-13.867-4.267-20.8-6.933-0.533 0-0.533-0.533-1.067-0.533-6.4-2.133-13.333-4.8-19.733-7.467-1.067-0.533-1.6-0.533-2.667-1.067-5.867-2.667-12.267-5.333-18.133-8-1.067-0.533-2.667-1.067-3.733-1.6-5.333-2.667-11.2-5.333-16.533-8-1.6-1.067-3.2-1.6-4.8-2.667-5.333-2.667-10.133-5.333-15.467-8.533-1.6-1.067-3.2-2.133-5.333-3.2-4.8-3.2-9.6-5.867-14.4-9.067-1.6-1.067-3.2-2.133-4.8-3.2-4.8-3.2-9.6-6.4-14.4-10.133-1.6-1.067-2.667-2.133-4.267-3.2-4.8-3.733-10.133-7.467-14.933-11.733-1.067-1.067-2.133-1.6-3.2-2.667-5.333-4.267-10.667-9.067-16-13.867-0.533-0.533-1.067-1.067-1.6-1.6-11.733-10.667-22.933-21.333-33.067-33.067-0.533-0.533-1.067-1.067-1.6-1.6-4.8-5.333-9.067-10.667-13.867-16-1.067-1.067-1.6-2.133-2.667-3.2-3.733-4.8-8-10.133-11.733-14.933-1.067-1.6-2.133-2.667-3.2-4.267-3.2-4.8-6.933-9.6-10.133-14.4-1.067-1.6-2.133-3.2-3.2-4.8-3.2-4.8-6.4-9.6-9.067-14.4-1.067-1.6-2.133-3.2-3.2-5.333-2.667-4.8-5.867-10.133-8.533-15.467-1.067-1.6-1.6-3.2-2.667-4.8-2.667-5.333-5.333-10.667-8-16.533-0.533-1.067-1.067-2.667-1.6-3.733-2.667-5.867-5.333-11.733-8-18.133-0.533-1.067-0.533-1.6-1.067-2.667-2.667-6.4-5.333-12.8-7.467-19.733 0-0.533-0.533-0.533-0.533-1.067-2.667-6.933-4.8-13.867-6.933-20.8 0 0 0 0 0 0-6.4-21.333-11.2-43.733-14.4-66.133 0 0 0 0 0 0-1.067-7.467-2.133-14.4-2.667-21.867 0 0 0-0.533 0-0.533-0.533-6.933-1.067-14.4-1.6-21.867 0-0.533 0-0.533 0-1.067 1.067-5.867 1.067-12.8 1.067-20.267s0-14.4 0.533-21.867c0-0.533 0-0.533 0-1.067 0.533-7.467 1.067-14.4 1.6-21.867 0 0 0-0.533 0-0.533 0.533-7.467 1.6-14.933 2.667-21.867 0 0 0 0 0 0 3.2-22.4 8-44.8 14.4-66.133 0 0 0 0 0 0 2.133-6.933 4.267-13.867 6.933-20.8 0-0.533 0.533-0.533 0.533-1.067 2.133-6.4 4.8-13.333 7.467-19.733 0.533-1.067 0.533-1.6 1.067-2.667 2.667-5.867 5.333-12.267 8-18.133 0.533-1.067 1.067-2.667 1.6-3.733 2.667-5.333 5.333-11.2 8-16.533 0.533-1.6 1.6-3.2 2.667-4.8 2.667-5.333 5.333-10.133 8.533-15.467 1.067-1.6 2.133-3.2 3.2-5.333 3.2-4.8 5.867-9.6 9.067-14.4 1.067-1.6 2.133-3.2 3.2-4.8 3.2-4.8 6.4-9.6 10.133-14.4 1.067-1.6 2.133-2.667 3.2-4.267 3.733-4.8 7.467-10.133 11.733-14.933 1.067-1.067 1.6-2.133 2.667-3.2 4.267-5.333 9.067-10.667 13.867-16 0.533-0.533 1.067-1.067 1.6-1.6 85.867-94.933 210.133-154.667 348.267-154.667 259.2 0 469.333 210.133 469.333 469.333-1.6 138.667-61.333 262.933-156.267 348.8zM512 64c-106.133 0-202.133 43.2-271.467 112.533l542.933 542.933c69.333-69.333 112.533-165.333 112.533-271.467 0-211.733-172.267-384-384-384z"/>
            <glyph unicode="&#xe921;" glyph-name="devices-library"
                   d="M896 917.333h-305.067v-240l-80.533-111.467h-73.6c-38.933 59.2-105.6 97.067-179.733 97.067-117.867-0.533-214.4-96.533-214.4-214.933s96.533-214.4 214.4-214.4c74.133 0 140.8 37.867 179.733 97.067h73.6l80.533-111.467v-240h390.4v390.4h-209.067l-56.533 78.4 57.067 78.933h208.533v390.4h-85.333zM896 612.267h-166.933l-118.933-164.267 118.4-164.267h167.467v-219.733h-219.733v181.867l-122.133 169.6h-171.733c-14.4-56-65.067-97.067-125.333-97.067-70.933 0.533-129.067 58.133-129.067 129.6s58.133 129.067 129.067 129.067c60.267 0 110.933-41.067 125.333-97.067h171.733l122.133 169.6v182.4h219.733v-219.733z"/>
            <glyph unicode="&#xe922;" glyph-name="devices"
                   d="M981.333 405.333v85.333h-426.667v85.333h128v341.333h-341.333v-341.333h128v-85.333h-426.667v-85.333h128v-85.333h-128v-341.333h341.333v341.333h-128v85.333h512v-85.333h-128v-341.333h341.333v341.333h-128v85.333h128zM426.667 832h170.667v-170.667h-170.667v170.667zM298.667 234.667v-170.667h-170.667v170.667h170.667zM896 234.667v-170.667h-170.667v170.667h170.667z"/>
            <glyph unicode="&#xe923;" glyph-name="documentation"
                   d="M981.333 789.333h-938.667v-277.333h64v-533.333h810.667v533.333h64v277.333zM128 704h768v-106.667h-768v106.667zM832 64h-640v448h640v-448zM434.667 448h155.2v-85.333h-155.2v85.333z"/>
            <glyph unicode="&#xe924;" glyph-name="download"
                   d="M853.333 277.333v-213.333h-682.667v213.333h-85.333v-298.667h853.333v298.667zM798.4 481.6l-60.8 60.8-182.933-183.467v451.733h-85.333v-451.733l-182.933 183.467-60.8-60.8 286.4-285.867z"/>
            <glyph unicode="&#xe925;" glyph-name="drag"
                   d="M819.733 605.867l-60.267-60.267 54.933-54.933h-259.733v259.733l55.467-55.467 60.267 60.267-158.4 158.4-157.867-158.4 60.267-60.267 54.933 55.467v-259.733h-259.733l55.467 54.933-60.267 60.267-158.4-157.867 158.4-158.4 60.267 60.267-55.467 55.467h259.733v-259.733l-54.933 54.933-60.267-60.267 157.867-157.867 158.4 157.867-60.267 60.267-55.467-54.933v259.733h259.733l-54.933-55.467 60.267-60.267 157.867 158.4z"/>
            <glyph unicode="&#xe926;" glyph-name="electric-charging-boiler"
                   d="M981.333 277.333v42.667h-298.667v538.133l-23.467 11.733c-3.733 2.133-96.533 47.467-296.533 47.467s-292.8-45.333-296.533-46.933l-23.467-12.267v-794.133l17.067-12.8c2.667-2.133 28.267-20.267 77.867-37.867 65.067-22.933 140.8-34.667 225.067-34.667s160 11.733 225.067 34.667c50.133 17.6 75.2 36.267 77.867 37.867l17.067 12.8v85.333h298.667v42.667h-298.667v85.333h298.667zM597.333 109.867c-32-16-107.733-45.867-234.667-45.867s-203.2 29.867-234.667 45.867v692.8c35.733 11.2 112 29.333 234.667 29.333s198.933-18.133 234.667-29.333v-692.8zM362.667 268.267l73.067 73.067-30.4 30.4-73.067-73.067 30.4-30.4zM277.333 618.667h64l-10.667-85.333 117.333 128h-64l10.667 85.333-117.333-128zM213.333 298.667c0-82.133 67.2-149.333 149.333-149.333s149.333 67.2 149.333 149.333-67.2 149.333-149.333 149.333-149.333-67.2-149.333-149.333zM469.333 298.667c0-58.667-48-106.667-106.667-106.667s-106.667 48-106.667 106.667 48 106.667 106.667 106.667 106.667-48 106.667-106.667z"/>
            <glyph unicode="&#xe927;" glyph-name="electric-charging-station"
                   d="M42.667-21.333h554.667v85.333h-554.667v-85.333zM960 640v64h-42.667v-64h-42.667v64h-42.667v-64h-21.333v-85.333h42.667v-298.667c0-35.2-28.8-64-64-64s-64 28.8-64 64v448h-128v213.333h-554.667v-810.667h554.667v512h42.667v-362.667c0-82.133 67.2-149.333 149.333-149.333s149.333 67.2 149.333 149.333v298.667h42.667v85.333h-21.333zM512 192h-384v640h384v-640zM256 298.667l234.667 256h-128l21.333 170.667-234.667-256h128l-21.333-170.667z"/>
            <glyph unicode="&#xe928;" glyph-name="electrical_voltage"
                   d="M512 917.333c-259.2 0-469.333-210.133-469.333-469.333s210.133-469.333 469.333-469.333c259.2 0 469.333 210.133 469.333 469.333s-210.133 469.333-469.333 469.333zM512 64c-211.733 0-384 172.267-384 384s172.267 384 384 384 384-172.267 384-384-172.267-384-384-384zM512 330.133l-133.867 267.2h-94.933l181.333-362.667h95.467l181.333 362.667h-95.467l-133.867-267.2z"/>
            <glyph unicode="&#xe929;" glyph-name="electrical-power-consumption_tarif_1"
                   d="M832 554.667h-298.667l64 362.667-490.667-576h298.667l-64-362.667 490.667 576zM447.467 333.867l9.067 50.133 26.133 128h257.067l-329.067-386.133 36.8 208zM619.733 147.733h50.133v-126.4h57.6v126.4h50.133v44.8h-157.867v-44.8zM789.867 192.533v-43.733h29.333v-127.467h57.6v171.2h-86.933z"/>
            <glyph unicode="&#xe92a;" glyph-name="electrical-power-consumption_tarif_2"
                   d="M872.533 66.133l24.533 22.4c11.733 10.667 19.2 19.733 23.467 28.267 3.733 8 5.867 17.067 5.867 26.667 0 10.667-2.667 19.733-9.067 28.267-5.867 8-13.867 14.4-24.533 18.667s-22.4 6.4-35.733 6.4c-17.6 0-33.067-3.733-45.333-10.667s-21.867-16.533-28.8-28.8l43.733-21.867c2.667 4.8 5.867 9.067 10.667 11.733s9.6 4.267 14.933 4.267c5.333 0 9.6-1.067 12.267-3.733s4.267-5.867 4.267-10.133c0-3.2-1.067-6.933-2.667-10.667s-5.333-8-10.667-12.8l-61.867-57.067v-35.733h137.067v44.8h-58.133zM619.733 147.733h50.133v-126.4h57.6v126.4h50.133v44.8h-157.867v-44.8zM832 554.667h-298.667l64 362.667-490.667-576h298.667l-64-362.667 490.667 576zM447.467 333.867l9.067 50.133 26.133 128h257.067l-329.067-386.133 36.8 208z"/>
            <glyph unicode="&#xe92b;" glyph-name="electrical-power-consumption_tarif_3"
                   d="M914.667 107.2c-6.933 8.533-17.067 14.4-30.4 17.6l32 32.533v35.733h-127.467v-43.733h61.333l-25.067-25.6v-35.733h22.933c13.333 0 20.267-3.733 20.267-11.733 0-4.267-2.133-7.467-5.867-9.6-4.267-2.133-9.6-3.2-16-3.2-7.467 0-15.467 1.067-23.467 3.2s-15.467 5.333-22.4 9.067l-19.733-42.667c9.067-4.8 19.2-9.067 31.467-11.733 11.733-2.667 24-3.733 36.267-3.733 17.6 0 32 2.667 43.733 8.533 11.733 5.333 20.267 12.8 26.133 21.867s8.533 18.667 8.533 28.8c-1.6 11.2-4.8 21.867-12.267 30.4zM832 554.667h-298.667l64 362.667-490.667-576h298.667l-64-362.667 490.667 576zM447.467 333.867l9.067 50.133 26.133 128h257.067l-329.067-386.133 36.8 208zM619.733 147.733h50.133v-126.4h57.6v126.4h50.133v44.8h-157.867v-44.8z"/>
            <glyph unicode="&#xe92c;" glyph-name="electrical-power-consumption_tarif_4"
                   d="M832 554.667h-298.667l64 362.667-490.667-576h298.667l-64-362.667 490.667 576zM447.467 333.867l9.067 50.133 26.133 128h257.067l-329.067-386.133 36.8 208zM777.6 192.533h-157.867v-44.8h50.133v-126.4h57.6v126.4h50.133v44.8zM909.333 95.467v26.133h-54.4v-26.133h-22.933l64.533 97.067h-59.2l-72.533-105.067v-36.8h88.533v-29.333h56v29.333h22.933v44.8h-22.933z"/>
            <glyph unicode="&#xe92d;" glyph-name="electrical-power-production_tarif_1"
                   d="M832 554.667h-298.667l64 362.667-490.667-576h298.667l-64-362.667 490.667 576zM198.933 384l329.067 386.133-36.8-208-5.333-32-29.333-146.133h-257.6zM619.733 147.733h50.133v-126.4h57.6v126.4h50.133v44.8h-157.867v-44.8zM789.867 192.533v-43.733h29.333v-127.467h57.6v171.2h-86.933z"/>
            <glyph unicode="&#xe92e;" glyph-name="electrical-power-production_tarif_2"
                   d="M832 554.667h-298.667l64 362.667-490.667-576h298.667l-64-362.667 490.667 576zM198.933 384l329.067 386.133-36.8-208-5.333-32-29.333-146.133h-257.6zM872.533 66.133l24.533 22.4c11.733 10.667 19.2 19.733 23.467 28.267 3.733 8 5.867 17.067 5.867 26.667 0 10.667-3.2 19.733-9.067 28.267-5.867 8-13.867 14.4-24.533 18.667s-22.4 6.4-35.733 6.4c-17.6 0-33.067-3.733-45.333-10.667-12.8-6.933-21.867-16.533-28.8-28.8l43.733-21.867c2.667 4.8 5.867 9.067 10.667 11.733s9.6 4.267 14.933 4.267c5.333 0 9.6-1.067 12.267-3.733 2.667-2.133 4.267-5.867 4.267-10.133 0-3.2-1.067-6.933-2.667-10.667s-5.333-8-10.667-12.8l-61.867-57.067v-35.733h137.067v44.8h-58.133zM619.733 147.733h50.133v-126.4h57.6v126.4h50.133v44.8h-157.867v-44.8z"/>
            <glyph unicode="&#xe92f;" glyph-name="electrical-power-production_tarif_3"
                   d="M619.733 147.733h50.133v-126.4h57.6v126.4h50.133v44.8h-157.867v-44.8zM914.667 107.2c-6.933 8.533-17.067 14.4-30.4 17.6l32 32.533v35.733h-127.467v-43.733h61.333l-25.067-25.6v-35.733h22.933c13.333 0 20.267-3.733 20.267-11.733 0-4.267-2.133-7.467-5.867-9.6-4.267-2.133-9.6-3.2-16-3.2-7.467 0-15.467 1.067-23.467 3.2s-15.467 5.333-22.4 9.067l-19.733-42.667c9.067-4.8 19.2-9.067 31.467-11.733 11.733-2.667 24-3.733 36.267-3.733 17.6 0 32 2.667 43.733 8.533 11.733 5.333 20.267 12.8 26.133 21.867s8.533 18.667 8.533 28.8c-1.6 11.2-4.8 21.867-12.267 30.4zM832 554.667h-298.667l64 362.667-490.667-576h298.667l-64-362.667 490.667 576zM198.933 384l329.067 386.133-36.8-208-5.333-32-29.333-146.133h-257.6z"/>
            <glyph unicode="&#xe930;" glyph-name="electrical-power-production_tarif_4"
                   d="M832 554.667h-298.667l64 362.667-490.667-576h298.667l-64-362.667 490.667 576zM198.933 384l329.067 386.133-36.8-208-5.333-32-29.333-146.133h-257.6zM909.333 95.467v26.133h-54.4v-26.133h-22.933l64.533 97.067h-59.2l-72.533-105.067v-36.8h88.533v-29.333h56v29.333h22.933v44.8h-22.933zM777.6 192.533h-157.867v-44.8h50.133v-126.4h57.6v126.4h50.133v44.8z"/>
            <glyph unicode="&#xe931;" glyph-name="electricity_meter"
                   d="M512 448c-259.2 0-469.333-210.133-469.333-469.333h938.667c0 259.2-210.133 469.333-469.333 469.333zM409.067 64h-271.467c38.933 170.667 192 298.667 374.4 298.667s335.467-128 374.4-298.667h-356.8l-158.4 158.4-60.267-60.267 98.133-98.133zM448 490.667l234.667 256h-128l21.333 170.667-234.667-256h128l-21.333-170.667z"/>
            <glyph unicode="&#xe932;" glyph-name="electricity"
                   d="M149.333 341.333h298.667l-64-362.667 490.667 576h-298.667l64 362.667-490.667-576z"/>
            <glyph unicode="&#xe933;" glyph-name="eventlist"
                   d="M512 320c-94.4 0-170.667-76.267-170.667-170.667s76.267-170.667 170.667-170.667 170.667 76.267 170.667 170.667c0 94.4-76.267 170.667-170.667 170.667zM512 64c-46.933 0-85.333 38.4-85.333 85.333s38.4 85.333 85.333 85.333 85.333-38.4 85.333-85.333-38.4-85.333-85.333-85.333zM618.667 362.667l42.667 554.667h-298.667l42.667-554.667h213.333zM569.067 832l-29.333-384h-55.467l-29.333 384h114.133z"/>
            <glyph unicode="&#xe934;" glyph-name="fault"
                   d="M367.467 382.4l84.267-83.733-83.733-83.733 60.267-60.267 83.733 83.733 83.733-83.733 60.267 60.267-83.733 83.733 83.733 83.733-60.267 60.267-83.733-83.733-83.733 84.267-60.8-60.8zM554.667 896h-85.333l-426.667-832 64-64h810.667l64 64-426.667 832zM149.333 85.333l362.667 706.667 362.667-706.667h-725.333z"/>
            <glyph unicode="&#xe935;" glyph-name="favourites"
                   d="M738.667 767.467c41.6 0 80.533-16 110.4-45.867 60.267-60.267 60.8-158.933 0.533-219.733l-146.667-146.667-190.933-191.467-191.467 191.467-146.667 147.2c-59.733 60.267-59.733 158.933 1.067 219.2 29.333 29.333 68.8 45.867 110.4 45.867s80.533-16 110.4-45.867l116.267-116.267 116.8 116.8c29.333 28.8 68.267 45.333 109.867 45.333zM738.667 852.8c-61.867 0-123.2-23.467-170.667-70.4l-56-56.533-56.533 56c-46.933 46.933-108.8 70.4-170.667 70.4s-123.2-23.467-170.667-70.4c-94.4-94.4-94.4-246.933 0-341.333 0 0 0 0 0 0v0l397.867-397.333 397.333 397.333c0 0 0 0 0 0 94.4 94.4 94.4 246.933 0 341.333-46.933 47.467-108.8 70.933-170.667 70.933v0z"/>
            <glyph unicode="&#xe936;" glyph-name="forward"
                   d="M547.733 746.667h-78.4v-204.267l-262.933 204.267h-78.4v-597.333h78.4l262.933 204.267v-204.267h78.4l348.267 270.4v56.533l-348.267 270.4zM213.333 262.4v371.2l238.933-185.6-238.933-185.6zM554.667 262.4v371.2l238.933-185.6-238.933-185.6z"/>
            <glyph unicode="&#xe937;" glyph-name="general"
                   d="M512 637.867c-104.533 0-189.867-85.333-189.867-189.867s85.333-189.867 189.867-189.867 189.867 85.333 189.867 189.867-85.333 189.867-189.867 189.867zM512 343.467c-57.6 0-104.533 46.933-104.533 104.533s46.933 104.533 104.533 104.533 104.533-46.933 104.533-104.533-46.933-104.533-104.533-104.533zM919.467 575.467l-59.2 17.067 29.867 53.867 30.933 56-154.667 154.667-56-30.933-53.867-29.867-17.067 59.2-18.133 61.867h-218.667l-17.6-61.867-17.067-59.2-53.867 29.867-56 30.933-154.667-154.667 30.933-56 29.867-53.867-59.2-17.067-62.4-18.133v-219.733l61.867-17.6 59.2-17.067-29.867-53.867-30.933-56 154.667-154.667 56 30.933 53.867 29.867 17.067-59.2 17.6-61.867h219.733l17.6 61.867 17.067 59.2 53.867-29.867 56-30.933 154.667 154.667-30.933 56-29.867 53.867 59.2 17.067 61.867 17.6v219.733l-61.867 18.133zM896 402.667l-121.067-34.667c-10.133-2.667-18.133-10.133-22.4-19.733v0c-4.267-9.6-3.2-20.8 1.6-29.867l60.8-109.867-64-64-109.867 60.8c-5.333 2.667-10.667 4.267-16.533 4.267-4.267 0-9.067-1.067-13.333-2.667-9.6-4.267-17.067-12.267-19.733-22.4l-34.667-121.067h-90.667l-34.133 121.6c-2.667 10.133-10.133 18.133-19.733 22.4-4.267 1.6-8.533 2.667-13.333 2.667-5.867 0-11.733-1.6-16.533-4.267l-109.867-60.8-64 64 60.8 109.867c5.333 9.067 5.867 20.267 1.6 29.867s-12.267 17.067-22.4 19.733l-120.533 34.133v90.667l121.067 34.667c10.133 2.667 18.133 10.133 22.4 19.733v0c4.267 9.6 3.2 20.8-1.6 29.867l-61.333 109.867 64 64 109.867-60.8c5.333-2.667 10.667-4.267 16.533-4.267 4.267 0 9.067 1.067 13.333 2.667 9.6 4.267 17.067 12.267 19.733 22.4l34.667 120.533h90.667l34.667-121.067c2.667-10.133 10.133-18.133 19.733-22.4 4.267-1.6 8.533-2.667 13.333-2.667 5.867 0 11.733 1.6 16.533 4.267l109.867 60.8 64-64-60.8-109.867c-5.333-9.067-5.867-20.267-1.6-29.867s12.267-17.067 22.4-19.733l121.067-34.667v-90.133z"/>
            <glyph unicode="&#xe938;" glyph-name="generator"
                   d="M42.667-21.333h170.667v85.333h-170.667v-85.333zM341.333 917.333h-298.667v-85.333h298.667v85.333zM810.667-21.333h170.667v85.333h-170.667v-85.333zM43.733 789.333v-682.667h937.6v682.667h-937.6zM896 192h-766.933v512h766.933v-512zM448 234.667l234.667 256h-128l21.333 170.667-234.667-256h128l-21.333-170.667zM256 661.333h-85.333v-85.333h85.333v85.333z"/>
            <glyph unicode="&#xe939;" glyph-name="heating_meter"
                   d="M448 489.6h85.333c0 24 5.867 33.6 15.467 49.067 11.733 19.2 27.2 45.867 27.2 93.333s-16 74.133-27.2 93.333c-9.6 16-15.467 25.6-15.467 49.067 0 24 5.867 33.6 15.467 49.6 11.2 19.2 27.2 45.333 27.2 92.8h-85.333c0-23.467-5.867-33.067-15.467-49.067-11.2-19.2-27.2-45.867-27.2-93.333s16-73.6 27.2-92.8c9.6-16 15.467-25.6 15.467-49.6s-5.867-33.6-15.467-49.067c-11.2-19.2-27.2-45.867-27.2-93.333zM640 490.133h85.333c0 24 5.867 33.6 15.467 49.6 11.733 19.2 27.2 45.867 27.2 92.8 0 47.467-16 74.133-27.2 93.333-9.6 16-15.467 25.6-15.467 49.067 0 24 5.867 33.6 15.467 49.6 11.2 19.2 27.2 45.333 27.2 92.8h-85.333c0-23.467-5.867-33.067-15.467-49.067-11.733-19.2-27.2-45.867-27.2-93.333s16-73.6 27.2-92.8c9.6-16 15.467-25.6 15.467-49.6 0-23.467-5.867-33.067-15.467-49.067-11.2-19.2-27.2-45.867-27.2-93.333zM256 490.667h85.333c0 24 5.867 33.6 15.467 49.6 11.2 19.2 27.2 45.333 27.2 92.8s-16 73.6-27.2 92.8c-9.6 16-15.467 25.067-15.467 49.067s5.867 33.6 15.467 49.6c11.2 19.2 27.2 45.333 27.2 92.8h-85.333c0-23.467-5.867-33.067-15.467-49.067-11.2-19.2-27.2-45.867-27.2-93.333s16-73.6 27.2-92.8c9.6-16 15.467-25.067 15.467-49.067 0-23.467-5.867-33.067-15.467-49.067-11.2-19.2-27.2-45.867-27.2-93.333zM512 448c-259.2 0-469.333-210.133-469.333-469.333h938.667c0 259.2-210.133 469.333-469.333 469.333zM409.067 64h-271.467c38.933 170.667 192 298.667 374.4 298.667s335.467-128 374.4-298.667h-356.8l-158.4 158.4-60.267-60.267 98.133-98.133z"/>
            <glyph unicode="&#xe93a;" glyph-name="heating-capacity-consumption_tarif_1"
                   d="M170.667 917.333l-106.667-106.667h64c0-66.133-17.067-97.6-37.333-133.867-22.4-40.533-48-86.933-48-174.933 0-88.533 25.6-134.4 48-175.467 20.267-36.267 37.333-67.733 37.333-133.333h85.333c0 88-25.6 133.867-48 174.933-20.267 36.267-37.333 67.733-37.333 133.867s17.067 97.067 37.333 133.333c22.4 40.533 48 86.933 48 175.467v0h64l-106.667 106.667zM320 810.667h64c0-66.133-17.067-97.6-37.333-133.867-22.4-40.533-48-86.933-48-175.467s25.6-134.4 48-175.467c20.267-36.267 37.333-67.733 37.333-133.867h85.333c0 88.533-25.6 134.4-48 175.467-20.267 36.267-37.333 67.733-37.333 133.867s17.067 97.6 37.333 133.867c22.4 40.533 48 86.933 48 175.467v0h64l-106.667 106.667-106.667-106.667zM789.867 192.533v-43.733h29.333v-127.467h57.6v171.2h-86.933zM619.733 147.733h50.133v-126.4h57.6v126.4h50.133v44.8h-157.867v-44.8zM576 810.667h64c0-66.133-17.067-97.6-37.333-133.867-22.4-40.533-48-86.933-48-174.933 0-88.533 25.6-134.4 48-175.467 9.067-16 17.6-31.467 24-49.067h89.067c-9.6 37.867-24.533 65.067-38.4 90.667-20.267 36.267-37.333 67.733-37.333 133.867s17.067 97.067 37.333 133.333c22.4 40.533 48 86.933 48 175.467v0h64l-106.667 106.667-106.667-106.667z"/>
            <glyph unicode="&#xe93b;" glyph-name="heating-capacity-consumption_tarif_2"
                   d="M426.667 917.333l-106.667-106.667h64c0-66.133-17.067-97.6-37.333-133.867-22.4-40.533-48-86.933-48-175.467s25.6-134.4 48-175.467c20.267-36.267 37.333-67.733 37.333-133.867h85.333c0 88.533-25.6 134.4-48 175.467-20.267 36.267-37.333 67.733-37.333 133.867s17.067 97.6 37.333 133.867c22.4 40.533 48 86.933 48 175.467v0h64l-106.667 106.667zM170.667 917.333l-106.667-106.667h64c0-66.133-17.067-97.6-37.333-133.867-22.4-40.533-48-86.933-48-174.933 0-88.533 25.6-134.4 48-175.467 20.267-36.267 37.333-67.733 37.333-133.333h85.333c0 88-25.6 133.867-48 174.933-20.267 36.267-37.333 67.733-37.333 133.867s17.067 97.067 37.333 133.333c22.4 40.533 48 86.933 48 175.467v0h64l-106.667 106.667zM715.733 277.333c-9.6 37.867-24.533 65.067-38.4 90.667-20.267 36.267-37.333 67.733-37.333 133.867s17.067 97.067 37.333 133.333c22.4 40.533 48 86.933 48 175.467v0h64l-106.667 106.667-106.667-106.667h64c0-66.133-17.067-97.6-37.333-133.867-22.4-40.533-48-86.933-48-174.933 0-88.533 25.6-134.4 48-175.467 9.067-16 17.6-31.467 24-49.067h89.067zM872.533 66.133l24.533 22.4c11.733 10.667 19.2 19.733 23.467 28.267 3.733 8 5.867 17.067 5.867 26.667 0 10.667-2.667 19.733-9.067 28.267-5.867 8-13.867 14.4-24.533 18.667s-22.4 6.4-35.733 6.4c-17.6 0-33.067-3.733-45.333-10.667s-21.867-16.533-28.8-28.8l43.733-21.867c2.667 4.8 5.867 9.067 10.667 11.733s9.6 4.267 14.933 4.267c5.333 0 9.6-1.067 12.267-3.733s4.267-5.867 4.267-10.133c0-3.2-1.067-6.933-2.667-10.667s-5.333-8-10.667-12.8l-61.867-57.067v-35.733h137.067v44.8h-58.133zM619.733 147.733h50.133v-126.4h57.6v126.4h50.133v44.8h-157.867v-44.8z"/>
            <glyph unicode="&#xe93c;" glyph-name="heating-capacity"
                   d="M277.333 810.667l-106.667-106.667h64c0-66.133-17.067-97.6-37.333-133.867-22.4-40.533-48-86.933-48-174.933 0-88.533 25.6-134.4 48-175.467 20.267-36.267 37.333-67.733 37.333-133.333h85.333c0 88-25.6 133.867-48 174.933-20.267 36.267-37.333 67.733-37.333 133.867s17.067 97.067 37.333 133.333c22.4 40.533 48 86.933 48 175.467v0h64l-106.667 106.667zM832 704v0h64l-106.667 106.667-106.667-106.667h64c0-66.133-17.067-97.6-37.333-133.867-22.4-40.533-48-86.933-48-174.933s25.6-134.4 48-174.933c20.267-36.267 37.333-67.733 37.333-133.867h85.333c0 88-25.6 134.4-48 174.933-20.267 36.267-37.333 67.733-37.333 133.867s17.067 97.067 37.333 133.333c22.4 41.067 48 86.933 48 175.467zM533.333 810.667l-106.667-106.667h64c0-66.133-17.067-97.6-37.333-133.867-22.4-40.533-48-86.933-48-175.467s25.6-134.4 48-175.467c20.267-36.267 37.333-67.733 37.333-133.867h85.333c0 88.533-25.6 134.4-48 175.467-20.267 36.267-37.333 67.733-37.333 133.867s17.067 97.6 37.333 133.867c22.4 40.533 48 86.933 48 175.467v0h64l-106.667 106.667z"/>
            <glyph unicode="&#xe93d;" glyph-name="home"
                   d="M512 805.867l320-269.333v-472.533h-640v472.533l320 269.333zM512 917.333l-405.333-341.333v-597.333h810.667v597.333l-405.333 341.333zM597.333 384c0-47.128-38.205-85.333-85.333-85.333s-85.333 38.205-85.333 85.333c0 47.128 38.205 85.333 85.333 85.333s85.333-38.205 85.333-85.333zM346.667 426.667c15.467 59.733 62.933 107.2 122.667 122.667v86.933c-107.2-18.133-191.467-102.4-209.6-209.6h86.933zM554.667 636.267v-86.933c73.6-19.2 128-85.867 128-165.333 0-93.867-76.8-170.667-170.667-170.667-79.467 0-146.133 54.4-165.333 128h-86.933c20.267-121.067 125.867-213.333 252.267-213.333 141.333 0 256 114.667 256 256 0 126.4-92.267 232-213.333 252.267z"/>
            <glyph unicode="&#xe93e;" glyph-name="hot-water"
                   d="M824 213.333c-27.733 0-39.467 6.4-57.6 16-21.867 11.733-48.533 26.667-98.667 26.667-49.6 0-76.8-14.933-98.133-26.667-17.6-9.6-29.867-16-58.133-16-27.733 0-39.467 6.4-57.6 16-21.867 11.733-48.533 26.667-98.667 26.667-49.6 0-76.8-14.933-98.133-26.667-17.6-9.6-29.867-16-58.133-16-27.733 0-39.467 6.4-57.6 16-21.867 11.733-48.533 26.667-98.667 26.667v-85.333c28.267 0 40-6.4 58.133-16 21.867-11.733 48.533-26.667 98.133-26.667 50.133 0 77.333 14.933 98.667 26.667 17.6 9.6 29.333 16 57.6 16s40-6.4 58.133-16c21.867-11.733 48.533-26.667 98.133-26.667 50.133 0 77.333 14.933 98.667 26.667 17.6 9.6 29.333 16 57.6 16s40-6.4 58.133-16c21.867-11.733 48.533-26.667 98.133-26.667s76.8 14.933 98.667 26.667c17.6 9.6 29.867 16 57.6 16v85.333c-49.6 0-76.8-14.933-98.667-26.667-17.6-9.6-29.333-16-57.6-16zM824 64c-27.733 0-39.467 6.4-57.6 16-21.867 11.733-48.533 26.667-98.667 26.667-49.6 0-76.8-14.933-98.133-26.667-17.6-9.6-29.867-16-58.133-16-27.733 0-39.467 6.4-57.6 16-21.867 11.733-48.533 26.667-98.667 26.667-49.6 0-76.8-14.933-98.133-26.667-17.6-9.6-29.867-16-58.133-16-27.733 0-39.467 6.4-57.6 16-21.867 11.733-48.533 26.667-98.667 26.667v-85.333c28.267 0 40-6.4 58.133-16 21.867-11.733 48.533-26.667 98.133-26.667 50.133 0 77.333 14.933 98.667 26.667 17.6 9.6 29.333 16 57.6 16s40-6.4 58.133-16c21.867-11.733 48.533-26.667 98.133-26.667 50.133 0 77.333 14.933 98.667 26.667 17.6 9.6 29.333 16 57.6 16s40-6.4 58.133-16c21.867-11.733 48.533-26.667 98.133-26.667s76.8 14.933 98.667 26.667c17.6 9.6 29.867 16 57.6 16v85.333c-49.6 0-76.8-14.933-98.667-26.667-17.6-9.6-29.333-16-57.6-16zM192 277.333v85.333c-22.933 1.067-34.133 6.933-50.667 16-21.867 11.733-48.533 26.667-98.667 26.667v-85.333c28.267 0 40-6.4 58.133-16 20.267-11.2 45.867-25.067 91.2-26.667zM881.6 378.667c-16-8.533-27.2-14.933-49.6-16v-85.333c44.8 1.6 69.867 15.467 90.667 26.133 17.6 9.6 29.867 16 57.6 16v85.333c-49.6 0.533-76.8-14.4-98.667-26.133zM256 277.333h42.667c0 45.867 17.6 67.733 37.867 93.333 22.4 27.733 47.467 59.2 47.467 120s-25.067 92.267-47.467 120c-20.267 25.6-37.867 47.467-37.867 93.333s17.6 67.733 37.867 93.333c22.4 27.733 47.467 59.2 47.467 120h-42.667c0-45.867-17.6-67.733-37.867-93.333-22.4-27.733-47.467-59.2-47.467-120s25.067-92.267 47.467-120c20.267-25.6 37.867-47.467 37.867-93.333s-17.6-67.733-37.867-93.333c-22.4-27.733-47.467-59.2-47.467-120zM448 277.333h42.667c0 45.867 17.6 67.733 37.867 93.333 22.4 27.733 47.467 59.2 47.467 120s-25.067 92.267-47.467 120c-20.267 25.6-37.867 47.467-37.867 93.333s17.6 67.733 37.867 93.333c22.4 27.733 47.467 59.2 47.467 120h-42.667c0-45.867-17.6-67.733-37.867-93.333-22.4-27.733-47.467-59.2-47.467-120s25.067-92.267 47.467-120c20.267-25.6 37.867-47.467 37.867-93.333s-17.6-67.733-37.867-93.333c-22.4-27.733-47.467-59.2-47.467-120zM640 277.333h42.667c0 45.867 17.6 67.733 37.867 93.333 22.4 27.733 47.467 59.2 47.467 120s-25.067 92.267-47.467 120c-20.267 25.6-37.867 47.467-37.867 93.333s17.6 67.733 37.867 93.333c22.4 27.733 47.467 59.2 47.467 120h-42.667c0-45.867-17.6-67.733-37.867-93.333-22.4-27.733-47.467-59.2-47.467-120s25.067-92.267 47.467-120c20.267-25.6 37.867-47.467 37.867-93.333s-17.6-67.733-37.867-93.333c-22.4-27.733-47.467-59.2-47.467-120z"/>
            <glyph unicode="&#xe93f;" glyph-name="house-consumption"
                   d="M661.333 554.667h-85.333v-426.667h85.333v426.667zM320 128h85.333v234.667h-85.333v-234.667zM512 917.333l-405.333-341.333v-597.333h810.667v597.333l-405.333 341.333zM832 64h-640v472.533l320 269.333 320-269.333v-472.533zM448 128h85.333v298.667h-85.333v-298.667z"/>
            <glyph unicode="&#xe940;" glyph-name="humidity"
                   d="M776.533 430.4l-264.533 486.933-264.533-486.933c-107.733-197.867 28.267-444.267 253.333-451.733 3.733 0 7.467 0 11.2 0s7.467 0 11.2 0c225.6 8 361.067 253.867 253.333 451.733zM699.2 172.8c-37.867-66.667-102.933-106.133-178.667-108.8-2.667 0-5.867 0-8.533 0s-5.867 0-8.533 0c-75.733 2.667-140.8 42.133-178.667 108.8-38.933 67.733-39.467 148.8-2.667 217.067l189.867 348.8 189.867-348.8c36.8-68.267 35.733-149.333-2.667-217.067zM587.733 236.267c-16-27.733-40.533-43.2-72-44.267-1.6 0-2.667 0-4.267 0v-85.333c2.133 0 4.8 0 6.933 0 60.267 2.133 112.533 33.6 142.933 86.933 5.867 9.6 10.133 20.267 13.867 30.933l-80.533 27.733c-1.067-5.333-3.733-10.667-6.933-16z"/>
            <glyph unicode="&#xe941;" glyph-name="imprint"
                   d="M981.333 490.667h-330.133v101.867c33.6 35.733 52.8 82.667 52.8 132.267 0 83.733-56 159.467-136.533 184-36.267 11.2-75.733 11.2-111.467 0-80-24.533-136-100.267-136-184 0-49.6 19.2-96.533 52.8-132.267v-101.867h-330.133v-362.667h85.333v-149.333h768v149.333h85.333v362.667zM810.667 64h-597.333v64h597.333v-64zM896 213.333h-768v192h330.133v225.067l-14.933 12.8c-24 20.8-37.867 50.133-37.867 81.6 0 46.933 31.467 88.533 75.733 102.4h0.533c19.733 6.4 41.067 6.4 60.267 0h0.533c44.8-13.333 75.733-55.467 75.733-102.4 0-31.467-13.867-60.8-37.867-81.6l-14.933-12.8v-225.067h330.667v-192z"/>
            <glyph unicode="&#xe942;" glyph-name="inactive-mode"
                   d="M811.733 208.533l-739.2 738.667-60.267-60.267 139.2-139.2c-67.733-81.067-108.8-185.6-108.8-299.733h85.333c0 90.667 31.467 173.867 84.267 239.467l539.2-539.733c-65.6-52.267-148.8-83.733-239.467-83.733-130.667 0-248.533 64-319.467 170.667h106.133v85.333h-256v-256h85.333v114.133c34.667-49.6 79.467-92.267 130.667-125.333 75.733-48.533 163.2-74.133 253.333-74.133 114.133 0 218.667 41.067 300.267 108.8l139.2-139.2 60.267 60.267-200 200zM512 832c130.133 0 248.533-64 319.467-170.667v0h-106.133v-85.333h256v256h-85.333v-114.133c-86.933 124.8-228.267 199.467-384 199.467-83.733 0-162.667-21.867-230.933-60.8l62.933-62.933c51.2 24.533 107.733 38.4 168 38.4zM920.533 217.067c38.933 68.267 60.8 147.2 60.8 230.933h-85.333c0-60.267-13.867-117.333-38.4-168l62.933-62.933z"/>
            <glyph unicode="&#xe943;" glyph-name="info-in-circle"
                   d="M512 917.333c-259.2 0-469.333-210.133-469.333-469.333s210.133-469.333 469.333-469.333 469.333 210.133 469.333 469.333-210.133 469.333-469.333 469.333zM512 64c-211.733 0-384 172.267-384 384s172.267 384 384 384 384-172.267 384-384-172.267-384-384-384zM469.333 576h85.333v-384h-85.333v384zM565.333 682.667c0-29.455-23.878-53.333-53.333-53.333s-53.333 23.878-53.333 53.333c0 29.455 23.878 53.333 53.333 53.333s53.333-23.878 53.333-53.333z"/>
            <glyph unicode="&#xe944;" glyph-name="language"
                   d="M539.733 916.267c0 0-0.533 0.533-0.533 0.533v-0.533c-9.067 0.533-18.133 1.067-27.2 1.067s-18.133-0.533-26.667-0.533v0.533c0 0-0.533-0.533-0.533-0.533-246.933-14.933-442.133-219.2-442.133-468.8 0-259.2 210.133-469.333 469.333-469.333s469.333 210.133 469.333 469.333c0 249.6-195.2 453.867-441.6 468.267zM844.267 640h-140.267c-14.933 64.533-37.333 122.667-65.6 170.667 87.467-30.933 160-91.733 205.867-170.667zM896 448c0-36.8-5.333-72.533-14.933-106.667h-161.6c4.267 34.667 6.4 69.867 6.4 106.667 0 36.267-2.133 72-6.4 106.667h161.6c9.6-34.133 14.933-69.867 14.933-106.667zM512 64c0 0 0 0 0 0s0 0 0 0c-45.333 36.267-82.133 106.133-104.533 192h208.533c-21.867-85.867-58.667-155.733-104-192zM390.933 341.333c-4.8 34.133-6.933 70.4-6.933 106.667 0 36.8 2.667 72.533 6.933 106.667h242.133c4.267-34.133 6.933-69.867 6.933-106.667 0-36.267-2.667-72.533-6.933-106.667h-242.133zM128 448c0 36.8 5.333 72.533 14.933 106.667h161.6c-3.733-34.667-5.867-70.4-5.867-106.667 0-36.8 2.133-72 6.4-106.667h-162.133c-9.6 34.133-14.933 69.867-14.933 106.667zM512 832c0 0 0 0 0 0s0 0 0 0c45.867-36.267 82.667-105.6 105.067-192h-209.6c21.867 86.4 58.667 155.733 104.533 192zM385.067 810.667c-28.267-48-50.133-106.133-65.067-170.667h-140.267c45.867 78.933 118.4 139.733 205.333 170.667zM179.733 256h139.733c14.933-65.067 36.8-122.667 65.067-170.133-86.933 30.4-159.467 91.733-204.8 170.133zM639.467 85.867c28.267 47.467 50.133 105.6 65.067 170.133h139.733c-45.333-78.4-117.867-139.733-204.8-170.133z"/>
            <glyph unicode="&#xe945;" glyph-name="light-bulb"
                   d="M426.667-21.333h170.667v85.333h-170.667v-85.333zM554.667 917.333h-85.333v-170.667h85.333v170.667zM352.533 704l-109.867 130.667-65.067-54.4 109.867-130.667 65.067 54.4zM225.6 541.867l-168.533 29.867-14.933-84.267 168.533-29.867 14.933 84.267zM84.267 250.133l42.667-74.133 147.733 85.333-42.667 74.133-147.733-85.333zM846.4 780.267l-65.067 54.933-109.867-131.2 65.067-54.933 109.867 131.2zM813.333 457.6l168.533 29.867-14.933 84.267-168.533-29.867 14.933-84.267zM749.333 261.867l147.733-85.333 42.667 74.133-147.733 85.333-42.667-74.133zM512 704c-141.333 0-256-114.667-256-256 0-73.067 32-142.4 85.333-190.933v-150.4h341.333v150.4c53.333 48 85.333 117.333 85.333 190.933 0 141.333-114.667 256-256 256zM597.333 300.267v-108.267h-42.667v256h-85.333v-256h-42.667v108.267c-51.2 29.333-85.333 84.8-85.333 147.733 0 94.4 76.267 170.667 170.667 170.667s170.667-76.267 170.667-170.667c0-62.933-34.133-118.4-85.333-147.733z"/>
            <glyph unicode="&#xe946;" glyph-name="light-switch_off"
                   d="M512 661.333c-117.867 0-213.333-95.467-213.333-213.333s95.467-213.333 213.333-213.333c117.867 0 213.333 95.467 213.333 213.333s-95.467 213.333-213.333 213.333zM512 320c-70.4 0-128 57.6-128 128s57.6 128 128 128 128-57.6 128-128-57.6-128-128-128z"/>
            <glyph unicode="&#xe947;" glyph-name="light-switch_on"
                   d="M810.667 490.667h170.667v-85.333h-170.667v85.333zM693.014 689.267l120.678 120.678 60.339-60.339-120.678-120.678-60.339 60.339zM469.333 917.333h85.333v-170.667h-85.333v170.667zM150.048 749.7l60.339 60.339 120.678-120.678-60.339-60.339-120.678 120.678zM42.667 490.667h170.667v-85.333h-170.667v85.333zM149.954 146.394l120.678 120.678 60.339-60.339-120.678-120.678-60.339 60.339zM469.333 149.333h85.333v-170.667h-85.333v170.667zM692.921 206.639l60.339 60.339 120.678-120.678-60.339-60.339-120.678 120.678zM512 661.333c-117.867 0-213.333-95.467-213.333-213.333s95.467-213.333 213.333-213.333c117.867 0 213.333 95.467 213.333 213.333s-95.467 213.333-213.333 213.333zM512 320c-70.4 0-128 57.6-128 128s57.6 128 128 128c70.4 0 128-57.6 128-128s-57.6-128-128-128z"/>
            <glyph unicode="&#xe948;" glyph-name="location"
                   d="M522.667 917.333c-3.733 0-6.933 0-10.667 0s-6.933 0-10.667 0c-251.733-7.467-397.867-289.6-264-502.933l117.333-186.667 157.333-249.067 156.8 249.067 117.333 186.667c134.4 213.333-11.733 495.467-263.467 502.933zM714.133 459.733l-117.333-186.667-84.8-134.4-84.8 134.4-117.333 186.667c-47.467 75.2-50.667 166.933-8.533 245.867 41.067 76.267 116.267 123.2 201.6 126.4h18.133c85.333-3.2 160.533-50.133 201.067-126.4 42.133-78.933 38.933-170.667-8-245.867zM512 746.667c-82.133 0-149.333-67.2-149.333-149.333s67.2-149.333 149.333-149.333 149.333 67.2 149.333 149.333-67.2 149.333-149.333 149.333zM512 533.333c-35.2 0-64 28.8-64 64s28.8 64 64 64c35.2 0 64-28.8 64-64s-28.8-64-64-64z"/>
            <glyph unicode="&#xe949;" glyph-name="log-out"
                   d="M768 405.333v85.333h-558.4l182.933 182.933-60.267 60.8-285.867-286.4 286.4-286.4 60.267 60.267-183.467 183.467h558.4zM426.667 874.667v-85.333h469.333v-682.667h-469.333v-85.333h554.667v853.333h-554.667z"/>
            <glyph unicode="&#xe94a;" glyph-name="main-connection"
                   d="M652.8 917.333h-281.6l-285.867-190.4v-172.267h85.333v106.667h170.667v-120l-170.667-448v-114.667h85.333v83.733l256 170.667 256-170.667v-83.733h85.333v114.667l-170.667 448v120h170.667v-106.667h85.333v172.267l-285.867 190.4zM426.667 832h170.667v-85.333h-170.667v85.333zM426.667 661.333h170.667v-85.333h-170.667v85.333zM268.8 746.667l72.533 48.533v-48.533h-72.533zM300.8 194.667l54.4 142.933 80-53.333-134.4-89.6zM386.133 419.2l27.2 71.467h197.333l27.2-71.467-125.867-83.733-125.867 83.733zM723.2 194.667l-134.4 89.6 80 53.333 54.4-142.933zM682.667 746.667v48.533l72.533-48.533h-72.533z"/>
            <glyph unicode="&#xe94b;" glyph-name="manual-mode"
                   d="M490.667 323.733h41.6l61.867 104 1.067-129.067h86.933l-1.067 283.733h-78.4l-90.133-151.467-92.267 151.467h-78.4v-283.733h86.933v124.267l61.867-99.2zM512 64c-130.667 0-248.533 64-319.467 170.667h106.133v85.333h-256v-256h85.333v114.667c34.667-49.6 79.467-92.8 130.667-125.867 75.733-48.533 163.2-74.133 253.333-74.133 258.667 0 469.333 210.667 469.333 469.333h-85.333c0-211.733-172.267-384-384-384zM896 832v-114.133c-86.933 124.8-228.267 199.467-384 199.467-258.667 0-469.333-210.667-469.333-469.333h85.333c0 211.733 172.267 384 384 384 130.133 0 248.533-64 319.467-170.667h-106.133v-85.333h256v256h-85.333z"/>
            <glyph unicode="&#xe94c;" glyph-name="members"
                   d="M298.667 329.067c-60.267 0-92.267-32-137.067-76.267l60.8-60.8c43.2 43.2 53.333 51.733 76.267 51.733h170.667c22.933 0 33.6-8.533 76.267-51.733l60.267 60.267c-44.267 44.267-76.267 76.267-137.067 76.267h-170.133zM832 563.733c0 106.133-85.867 192-192 192-17.067 0-34.133-2.133-50.133-6.4 20.8-22.933 37.867-49.6 50.133-78.933 0 0 0 0 0 0 58.667 0 106.667-48 106.667-106.667s-48-106.667-106.667-106.667c0 0 0 0 0 0-12.267-28.8-29.333-55.467-50.133-78.933 16-4.267 32.533-6.4 50.133-6.4 106.133 0 192 85.867 192 192zM384 371.733c106.133 0 192 85.867 192 192s-85.867 192-192 192-192-85.867-192-192 86.4-192 192-192zM384 670.4c58.667 0 106.667-48 106.667-106.667s-48-106.667-106.667-106.667-106.667 48-106.667 106.667c0 58.667 48 106.667 106.667 106.667zM725.333 329.067h-75.2l152-137.067 60.267 60.267c-44.8 44.267-76.8 76.8-137.067 76.8z"/>
            <glyph unicode="&#xe94d;" glyph-name="minus" d="M149.333 490.667h725.333v-85.333h-725.333v85.333z"/>
            <glyph unicode="&#xe94e;" glyph-name="mixing-valve"
                   d="M42.667 170.667h85.333v341.333h-85.333v-341.333zM682.667 810.667h-341.333v-85.333h341.333v85.333zM896 512v-341.333h85.333v341.333h-85.333zM640 682.667h-256v-213.333h-213.333v-256h180.267c22.933-50.133 85.867-85.333 161.067-85.333 75.733 0 138.133 35.2 161.067 85.333h180.267v256h-213.333v213.333zM341.333 298.667h-85.333v85.333h85.333v-85.333zM682.667 384h85.333v-85.333h-85.333v85.333zM469.333 597.333h85.333v-85.333h-85.333v85.333zM597.333 256c0-17.067-34.133-42.667-85.333-42.667s-85.333 25.6-85.333 42.667v170.667h170.667v-170.667zM512 277.333c23.467 0 42.667 19.2 42.667 42.667s-19.2 42.667-42.667 42.667-42.667-19.2-42.667-42.667 19.2-42.667 42.667-42.667z"/>
            <glyph unicode="&#xe94f;" glyph-name="moon"
                   d="M512-21.333c-258.667 0-469.333 210.667-469.333 469.333 0 113.067 40.533 222.4 114.667 307.733 73.6 84.267 174.4 139.733 284.267 156.267l46.933-55.467c-11.733-35.733-18.133-73.067-18.133-109.867 0-187.733 152.533-340.267 340.267-340.267 36.8 0 73.6 5.867 109.867 18.133l55.467-46.933c-16.533-109.867-72-211.2-156.8-284.267-84.8-74.133-194.133-114.667-307.2-114.667zM390.4 812.267c-65.067-21.867-123.2-60.267-168.533-112.533-60.267-69.867-93.867-159.467-93.867-251.733 0-211.733 172.267-384 384-384 92.267 0 181.867 33.6 251.733 93.867 52.267 45.333 91.2 103.467 112.533 168.533-21.867-3.2-43.733-5.333-65.6-5.333-234.667 0-425.6 190.933-425.6 425.6 0 21.867 1.6 43.733 5.333 65.6z"/>
            <glyph unicode="&#xe950;" glyph-name="motion-sensor"
                   d="M753.6 689.6l-60.267-60.267c48-48.533 74.667-113.067 74.667-181.333s-26.667-132.8-75.2-180.8l60.267-60.267c64.533 64 100.267 149.867 100.267 241.067s-35.733 177.067-99.733 241.6zM361.067 598.933c-40-40.533-62.4-94.4-62.4-150.933s22.4-110.4 62.4-150.933l60.267 60.267c-24 24.533-37.333 56.533-37.333 90.667s13.333 66.133 37.867 90.133l-60.8 60.8zM240.533 720l-60.8 59.733c-88.533-89.067-137.067-206.933-137.067-331.733s48.533-242.667 137.067-331.733l60.8 59.733c-72.533 73.067-112.533 169.6-112.533 272s40 198.933 112.533 272zM331.2 628.8l-60.8 60.8c-64-64.533-99.733-150.4-99.733-241.6s35.733-177.067 99.733-241.6l60.267 60.267c-48 48.533-74.667 113.067-74.667 181.333s26.667 132.8 75.2 180.8zM662.933 598.933l-60.267-60.267c24.533-24 37.867-56.533 37.867-90.133s-13.333-66.133-37.867-90.133l60.267-60.267c40.533 40.533 62.4 93.867 62.4 150.933 0 55.467-22.4 109.333-62.4 149.867zM844.267 779.733l-60.8-59.733c72.533-73.067 112.533-169.6 112.533-272s-40-198.933-112.533-272l60.8-60.267c88.533 89.6 137.067 207.467 137.067 332.267s-48.533 242.667-137.067 331.733zM512 533.333c-46.933 0-85.333-38.4-85.333-85.333s38.4-85.333 85.333-85.333 85.333 38.4 85.333 85.333c0 46.933-38.4 85.333-85.333 85.333zM512 405.333c-23.467 0-42.667 19.2-42.667 42.667s19.2 42.667 42.667 42.667 42.667-19.2 42.667-42.667c0-23.467-19.2-42.667-42.667-42.667z"/>
            <glyph unicode="&#xe951;" glyph-name="motor"
                   d="M426.667 789.333h-256v-85.333h256v85.333zM682.667 533.333h-384v-85.333h384v85.333zM682.667 405.333h-384v-85.333h384v85.333zM810.667 618.667v42.667h-640v-149.333h-128v-298.667h128v-149.333h640v42.667h170.667v512h-170.667zM170.667 298.667h-42.667v128h42.667v-128zM725.333 149.333h-469.333v426.667h469.333v-426.667zM896 192h-85.333v341.333h85.333v-341.333zM682.667 277.333h-384v-85.333h384v85.333z"/>
            <glyph unicode="&#xe952;" glyph-name="mqtt"
                   d="M42.667 896v-256h938.667v256h-938.667zM128 725.333v85.333h85.333v-85.333h-85.333zM896 725.333h-597.333v85.333h597.333v-85.333zM42.667 320h938.667v256h-938.667v-256zM896 490.667v-85.333h-597.333v85.333h597.333zM128 490.667h85.333v-85.333h-85.333v85.333zM42.667 0h938.667v256h-938.667v-256zM896 170.667v-85.333h-597.333v85.333h597.333zM128 170.667h85.333v-85.333h-85.333v85.333z"/>
            <glyph unicode="&#xe953;" glyph-name="music"
                   d="M894.4 917.333l-554.667-42.667h-83.733v-611.733c-19.2 9.067-41.067 14.4-64 14.4-82.133 0-149.333-67.2-149.333-149.333s67.2-149.333 149.333-149.333 149.333 67.2 149.333 149.333v426.667h1.6l553.067 42.667v-291.733c-19.2 9.067-41.067 14.4-64 14.4-82.133 0-149.333-67.2-149.333-149.333s67.2-149.333 149.333-149.333 149.333 67.2 149.333 149.333v746.667h-86.933zM192 64c-35.2 0-64 28.8-64 64s28.8 64 64 64 64-28.8 64-64-28.8-64-64-64zM832 106.667c-35.2 0-64 28.8-64 64s28.8 64 64 64 64-28.8 64-64-28.8-64-64-64zM896 682.667h-1.6l-553.067-42.667v149.333h1.6l553.067 42.667v-149.333z"/>
            <glyph unicode="&#xe954;" glyph-name="next"
                   d="M640 746.667v-204.267l-262.933 204.267h-78.4v-597.333h78.4l262.933 204.267v-204.267h85.333v597.333h-85.333zM384 262.4v371.2l238.933-185.6-238.933-185.6z"/>
            <glyph unicode="&#xe955;"
                   d="M912 704c0-79.529-64.471-144-144-144s-144 64.471-144 144c0 79.529 64.471 144 144 144s144-64.471 144-144z"/>
            <glyph unicode="&#xe956;"
                   d="M512 64c-30.4 0-54.933 24.533-54.933 54.933h-85.333c0-77.333 62.933-140.267 140.267-140.267s140.267 62.933 140.267 140.267h-85.333c0-30.4-24.533-54.933-54.933-54.933z"/>
            <glyph unicode="&#xe957;"
                   d="M822.4 508.8c-17.067-4.8-35.733-7.467-54.4-7.467-10.133 0-20.8 0.533-30.4 2.133 2.133-41.6 6.4-78.4 16.533-114.667 13.333-46.4 35.2-88.533 69.867-132.8h-624c35.2 44.267 57.067 86.4 69.867 132.8 18.133 63.467 18.133 128.533 18.133 219.2 0 123.733 100.267 224 224 224 30.4 0 59.733-6.4 86.4-17.067 16.533 25.6 38.933 46.933 65.067 62.933-44.8 25.067-96.533 39.467-151.467 39.467-170.667 0-309.333-138.667-309.333-309.333s0-234.667-117.333-352l21.333-85.333h810.667l21.333 85.333c-91.2 91.2-111.467 150.4-116.267 252.8z"/>
            <glyph unicode="&#xe958;" glyph-name="notification-bell"
                   d="M512 64c-30.4 0-54.933 24.533-54.933 54.933h-85.333c0-77.333 62.933-140.267 140.267-140.267s140.267 62.933 140.267 140.267h-85.333c0-30.4-24.533-54.933-54.933-54.933zM821.333 608c0 170.667-138.667 309.333-309.333 309.333s-309.333-138.667-309.333-309.333 0-234.667-117.333-352l21.333-85.333h810.667l21.333 85.333c-117.333 117.333-117.333 181.333-117.333 352zM512 256h-312c35.2 44.267 57.067 86.4 69.867 132.8 18.133 63.467 18.133 128.533 18.133 219.2 0 123.733 100.267 224 224 224s224-100.267 224-224c0-90.667 0-155.733 18.133-219.2 13.333-46.4 35.2-88.533 69.867-132.8h-312z"/>
            <glyph unicode="&#xe959;" glyph-name="notification"
                   d="M512 64c-30.4 0-54.933 24.533-54.933 54.933h-85.333c0-77.333 62.933-140.267 140.267-140.267s140.267 62.933 140.267 140.267h-85.333c0-30.4-24.533-54.933-54.933-54.933zM821.333 608c0 170.667-138.667 309.333-309.333 309.333s-309.333-138.667-309.333-309.333 0-234.667-117.333-352l21.333-85.333h810.667l21.333 85.333c-117.333 117.333-117.333 181.333-117.333 352zM512 256h-312c35.2 44.267 57.067 86.4 69.867 132.8 18.133 63.467 18.133 128.533 18.133 219.2 0 123.733 100.267 224 224 224s224-100.267 224-224c0-90.667 0-155.733 18.133-219.2 13.333-46.4 35.2-88.533 69.867-132.8h-312z"/>
            <glyph unicode="&#xe95a;" glyph-name="ok"
                   d="M512 917.333c-259.2 0-469.333-210.133-469.333-469.333s210.133-469.333 469.333-469.333c259.2 0 469.333 210.133 469.333 469.333s-210.133 469.333-469.333 469.333zM512 64c-211.733 0-384 172.267-384 384s172.267 384 384 384 384-172.267 384-384-172.267-384-384-384zM448 378.667l-118.933 119.467-60.8-60.8 179.733-179.2 307.733 309.333-60.267 60.267-247.467-249.067z"/>
            <glyph unicode="&#xe95b;" glyph-name="paperclip"
                   d="M914.667 534.933l-410.667-410.667c-38.933-38.933-90.667-60.267-145.6-60.267s-106.667 21.333-145.6 60.267c-38.933 38.933-60.267 90.667-60.267 145.6s21.333 106.667 60.267 145.6l380.267 380.267c48 48 125.867 48 173.867 0s48-125.867 0-173.867l-380.8-380.267c-15.467-15.467-41.067-15.467-57.067 0-7.467 7.467-11.733 17.6-11.733 28.267s4.267 20.8 11.733 28.267l381.333 381.333-59.733 60.267-381.333-381.333c-23.467-23.467-36.8-55.467-36.8-88.533s12.8-65.067 36.8-88.533c49.067-49.067 128.533-49.067 177.6 0l380.8 380.267c81.067 81.067 81.067 213.333 0 294.933-81.067 81.067-213.333 81.067-294.933 0l-380.8-380.8c-54.933-54.933-85.333-128-85.333-205.867s30.4-150.933 85.333-205.867c54.933-54.933 128-85.333 205.867-85.333s150.933 30.4 205.867 85.333l410.667 410.667-59.733 60.267z"/>
            <glyph unicode="&#xe95c;" glyph-name="pause"
                   d="M554.667 810.667v-725.333h256v725.333h-256zM725.333 170.667h-85.333v554.667h85.333v-554.667zM213.333 85.333h256v725.333h-256v-725.333zM298.667 725.333h85.333v-554.667h-85.333v554.667z"/>
            <glyph unicode="&#xe95d;" glyph-name="permission"
                   d="M746.667 533.333v149.333c0 129.6-105.067 234.667-234.667 234.667s-234.667-105.067-234.667-234.667v-149.333h-85.333v-554.667h640v554.667h-85.333zM362.667 682.667c0 82.133 67.2 149.333 149.333 149.333s149.333-67.2 149.333-149.333v-149.333h-298.667v149.333zM746.667 64h-469.333v384h469.333v-384zM469.333 192h85.333v85.333h21.333v85.333h-128v-85.333h21.333z"/>
            <glyph unicode="&#xe95e;" glyph-name="photovoltaic"
                   d="M554.667 149.333h409.6l-72 768h-760.533l-72-768h409.6v-85.333h-149.333v-85.333h384v85.333h-149.333v85.333zM846.4 490.667h-166.4l-5.333 170.667h155.733l16-170.667zM822.4 746.667h-150.4l-2.667 85.333h145.067l8-85.333zM586.667 746.667h-149.333l2.667 85.333h144.533l2.133-85.333zM351.467 746.667h-149.867l8 85.333h145.067l-3.2-85.333zM193.6 661.333h155.733l-5.333-170.667h-166.4l16 170.667zM434.667 661.333h155.2l5.333-170.667h-165.867l5.333 170.667zM597.333 405.333l5.333-170.667h-181.333l5.333 170.667h170.667zM688.533 234.667l-5.333 170.667h171.733l16-170.667h-182.4zM169.6 405.333h171.733l-5.333-170.667h-182.4l16 170.667z"/>
            <glyph unicode="&#xe95f;" glyph-name="play"
                   d="M313.6 42.667h-78.933v810.667h78.933l475.733-373.867v-62.933l-475.733-373.867zM320 739.733v-583.467l371.2 291.733-371.2 291.733z"/>
            <glyph unicode="&#xe960;" glyph-name="plus"
                   d="M874.667 490.667h-320v320h-85.333v-320h-320v-85.333h320v-320h85.333v320h320z"/>
            <glyph unicode="&#xe961;" glyph-name="previous"
                   d="M646.933 746.667l-262.933-204.267v204.267h-85.333v-597.333h85.333v204.267l262.933-204.267h78.4v597.333h-78.4zM640 262.4l-238.933 185.6 238.933 185.6v-371.2z"/>
            <glyph unicode="&#xe962;" glyph-name="pump"
                   d="M810.667 618.667v42.667h-384v256h-256v-405.333h-128v-298.667h128v-149.333h640v42.667h170.667v512h-170.667zM170.667 298.667h-42.667v128h42.667v-128zM256 832h85.333v-42.667h-85.333v42.667zM426.667 149.333h-170.667v554.667h85.333v-512h85.333v-42.667zM725.333 149.333h-213.333v42.667h170.667v85.333h-256v42.667h256v85.333h-256v42.667h256v85.333h-256v42.667h298.667v-426.667zM896 192h-85.333v341.333h85.333v-341.333z"/>
            <glyph unicode="&#xe963;" glyph-name="push_button"
                   d="M640 787.2v-93.333c88.533-46.4 149.333-139.2 149.333-245.867 0-153.067-124.267-277.333-277.333-277.333s-277.333 124.267-277.333 277.333c0 106.667 60.8 199.467 149.333 245.867v93.333c-137.067-51.733-234.667-184.533-234.667-339.2 0-200 162.667-362.667 362.667-362.667s362.667 162.667 362.667 362.667c0 154.667-97.6 287.467-234.667 339.2zM469.333 874.667h85.333v-426.667h-85.333v426.667z"/>
            <glyph unicode="&#xe964;" glyph-name="push_reset"
                   d="M512 810.667c-107.733 0-209.067-48.533-277.333-129.067v86.4h-85.333v-234.667h234.667v85.333h-90.667c52.267 66.133 132.8 106.667 218.667 106.667 153.067 0 277.333-124.267 277.333-277.333s-124.267-277.333-277.333-277.333-277.333 124.267-277.333 277.333h-85.333c0-200 162.667-362.667 362.667-362.667s362.667 162.667 362.667 362.667-162.667 362.667-362.667 362.667z"/>
            <glyph unicode="&#xe965;" glyph-name="rainfall"
                   d="M469.333 21.333h85.333v170.667h-85.333v-170.667zM256 64h85.333v170.667h-85.333v-170.667zM682.667 64h85.333v170.667h-85.333v-170.667zM825.6 751.467c-21.333 94.933-106.133 165.867-206.933 165.867-58.133 0-111.467-23.467-149.867-62.4-25.067 9.6-52.267 14.4-79.467 14.4-124.267 0-226.133-99.733-229.333-223.467-68.8-28.8-117.333-97.067-117.333-176.533 0-106.133 85.867-192 192-192h501.333c135.467 0 245.333 109.867 245.333 245.333 0 104-64 193.067-155.733 228.8zM736 362.667c-5.333 0-14.933 0-14.933 0h-486.4c-58.667 0-106.667 48-106.667 106.667s48 106.667 106.667 106.667c9.6 0 18.667-1.6 27.2-3.733-10.667 20.267-17.067 43.2-17.067 67.733 0 79.467 64.533 144 144 144 42.667 0 80.533-18.133 106.667-47.467 14.4 54.933 64 95.467 123.2 95.467 69.867 0 126.4-56.533 126.4-126.4 0-8-0.533-15.467-2.133-22.933 85.333-3.733 153.067-73.6 153.067-160 0-88.533-71.467-160-160-160z"/>
            <glyph unicode="&#xe966;" glyph-name="repository"
                   d="M405.333 661.333v-682.133h469.333v682.133h-469.333zM789.333 64.533h-298.667v511.467h298.667v-511.467zM704 788.8h-426.667v-638.933h85.333v553.6h341.333zM576 916.8h-426.667v-638.933h85.333v553.6h341.333z"/>
            <glyph unicode="&#xe967;" glyph-name="reverse"
                   d="M817.6 746.667l-262.933-204.267v204.267h-78.4l-348.267-270.4v-56.533l348.267-270.4h78.4v204.267l262.933-204.267h78.4v597.333h-78.4zM469.333 262.4l-238.933 185.6 238.933 185.6v-371.2zM810.667 262.4l-238.933 185.6 238.933 185.6v-371.2z"/>
            <glyph unicode="&#xe968;" glyph-name="scenes"
                   d="M288 490.667h693.333v-85.333h-693.333v85.333zM288 746.667h693.333v-85.333h-693.333v85.333zM288 234.667h693.333v-85.333h-693.333v85.333zM85.333 256h128v-128h-128v128zM85.333 512h128v-128h-128v128zM85.333 768h128v-128h-128v128z"/>
            <glyph unicode="&#xe969;" glyph-name="search"
                   d="M979.733 41.067l-252.8 252.8c52.267 65.6 83.733 148.8 83.733 239.467 0 212.267-171.733 384-384 384s-384-171.733-384-384 171.733-384 384-384c90.667 0 173.867 31.467 239.467 84.267l252.8-252.8 60.8 60.267zM128 533.333c0 164.8 133.867 298.667 298.667 298.667s298.667-133.867 298.667-298.667-133.867-298.667-298.667-298.667-298.667 133.867-298.667 298.667z"/>
            <glyph unicode="&#xe96a;" glyph-name="searching"
                   d="M469.333 192h85.333v-85.333h-85.333v85.333zM801.6 462.4c-65.067 60.267-146.133 98.133-232.533 109.867l157.333-157.333c5.867-4.8 11.733-9.6 17.6-14.933l57.6 62.4zM179.2 841.067l-60.267-60.267 75.2-75.2c-43.733-25.6-85.333-56.533-123.2-92.267l58.667-61.867c38.4 36.8 81.6 67.2 127.467 91.2l96.533-96.533c-48-19.2-92.8-46.933-131.733-83.2l58.667-62.933c40.533 37.333 88.533 64 140.8 78.4l117.333-117.333c-9.067 1.067-17.6 1.6-26.667 1.6-50.133 0-98.667-17.6-137.067-49.6l54.933-65.6c22.933 19.2 52.267 29.867 82.133 29.867s59.2-10.667 82.133-29.867l26.667 31.467 202.667-202.667 60.267 60.267-704.533 704.533zM441.6 699.733c22.933 2.667 46.933 4.267 70.4 4.267 142.933 0 278.4-54.4 381.867-152.533l58.667 61.867c-118.933 113.6-275.733 176-440.533 176-49.067 0-97.067-5.333-144-16.533l73.6-73.067z"/>
            <glyph unicode="&#xe96b;" glyph-name="send"
                   d="M42.667 597.333l422.4-196.267 196.267-422.4 320 938.667-938.667-320zM753.067 749.333l-265.067-265.067-216.533 100.8 481.6 164.267zM649.067 207.467l-100.8 216.533 265.067 265.067-164.267-481.6z"/>
            <glyph unicode="&#xe96c;" glyph-name="settings"
                   d="M512 637.867c-104.533 0-189.867-85.333-189.867-189.867s85.333-189.867 189.867-189.867 189.867 85.333 189.867 189.867-85.333 189.867-189.867 189.867zM512 343.467c-57.6 0-104.533 46.933-104.533 104.533s46.933 104.533 104.533 104.533 104.533-46.933 104.533-104.533-46.933-104.533-104.533-104.533zM919.467 575.467l-59.2 17.067 29.867 53.867 30.933 56-154.667 154.667-56-30.933-53.867-29.867-17.067 59.2-18.133 61.867h-218.667l-17.6-61.867-17.067-59.2-53.867 29.867-56 30.933-154.667-154.667 30.933-56 29.867-53.867-59.2-17.067-62.4-18.133v-219.733l61.867-17.6 59.2-17.067-29.867-53.867-30.933-56 154.667-154.667 56 30.933 53.867 29.867 17.067-59.2 17.6-61.867h219.733l17.6 61.867 17.067 59.2 53.867-29.867 56-30.933 154.667 154.667-30.933 56-29.867 53.867 59.2 17.067 61.867 17.6v219.733l-61.867 18.133zM896 402.667l-121.067-34.667c-10.133-2.667-18.133-10.133-22.4-19.733s-3.2-20.8 1.6-29.867l60.8-109.867-64-64-109.867 60.8c-5.333 2.667-10.667 4.267-16.533 4.267-4.267 0-9.067-1.067-13.333-2.667-9.6-4.267-17.067-12.267-19.733-22.4l-34.667-121.067h-90.667l-34.133 121.6c-2.667 10.133-10.133 18.133-19.733 22.4-4.267 1.6-8.533 2.667-13.333 2.667-5.867 0-11.733-1.6-16.533-4.267l-109.867-60.8-64 64 60.8 109.867c5.333 9.067 5.867 20.267 1.6 29.867s-12.267 17.067-22.4 19.733l-120.533 34.133v90.667l121.067 34.667c10.133 2.667 18.133 10.133 22.4 19.733v0c4.267 9.6 3.2 20.8-1.6 29.867l-61.333 109.867 64 64 109.867-60.8c5.333-2.667 10.667-4.267 16.533-4.267 4.267 0 9.067 1.067 13.333 2.667 9.6 4.267 17.067 12.267 19.733 22.4l34.667 120.533h90.667l34.667-121.067c2.667-10.133 10.133-18.133 19.733-22.4 4.267-1.6 8.533-2.667 13.333-2.667 5.867 0 11.733 1.6 16.533 4.267l109.867 60.8 64-64-60.8-109.867c-5.333-9.067-5.867-20.267-1.6-29.867s12.267-17.067 22.4-19.733l121.067-34.667v-90.133z"/>
            <glyph unicode="&#xe96d;" glyph-name="shutter1"
                   d="M213.333 106.667h597.333v85.333h-597.333v-85.333zM213.333-21.333h597.333v85.333h-597.333v-85.333zM213.333 234.667h597.333v85.333h-597.333v-85.333zM213.333 362.667h597.333v85.333h-597.333v-85.333zM213.333 490.667h597.333v85.333h-597.333v-85.333zM42.667 917.333v-298.667h42.667v-640h85.333v640h682.667v-640h85.333v640h42.667v298.667h-938.667zM896 704h-768v128h768v-128z"/>
            <glyph unicode="&#xe96e;" glyph-name="shutter2"
                   d="M213.333 234.667h597.333v85.333h-597.333v-85.333zM213.333 106.667h597.333v85.333h-597.333v-85.333zM213.333 362.667h597.333v85.333h-597.333v-85.333zM213.333-21.333h597.333v85.333h-597.333v-85.333zM853.333 789.333h-298.667v-42.667h298.667v42.667zM42.667 917.333v-298.667h42.667v-640h85.333v640h682.667v-640h85.333v640h42.667v298.667h-938.667zM896 704h-768v128h768v-128zM213.333 490.667h597.333v85.333h-597.333v-85.333zM213.333 789.333h-42.667v-42.667h42.667v42.667z"/>
            <glyph unicode="&#xe96f;" glyph-name="socket-switch"
                   d="M512 853.333c-164.8 0-298.667-133.867-298.667-298.667 0-82.133 33.6-156.8 87.467-211.2l30.4 30.4c-46.4 46.4-75.2 110.4-75.2 180.8 0 141.333 114.667 256 256 256s256-114.667 256-256c0-70.4-28.8-134.4-75.2-180.8l30.4-30.4c53.867 54.4 87.467 129.067 87.467 211.2 0 164.8-133.867 298.667-298.667 298.667zM618.667 341.333v64h-42.667v-128h-128v128h-42.667v-128h-66.133v-179.733l78.933-76.267h29.867v-42.667h42.667v42.667h42.667v-42.667h42.667v42.667h29.867l78.4 76.267v179.733h-65.6v64zM642.133 234.667v-118.933l-53.333-51.733h-153.6l-53.333 51.733v118.933h260.267zM640 554.667c0-23.564-19.103-42.667-42.667-42.667s-42.667 19.103-42.667 42.667c0 23.564 19.103 42.667 42.667 42.667s42.667-19.103 42.667-42.667zM469.333 554.667c0-23.564-19.103-42.667-42.667-42.667s-42.667 19.103-42.667 42.667c0 23.564 19.103 42.667 42.667 42.667s42.667-19.103 42.667-42.667zM149.333 917.333v-725.333h149.867v42.667h-107.2v640h640v-640h-106.667v-42.667h149.333v725.333z"/>
            <glyph unicode="&#xe970;" glyph-name="stop"
                   d="M213.333 746.667v-597.333h597.333v597.333h-597.333zM725.333 234.667h-426.667v426.667h426.667v-426.667z"/>
            <glyph unicode="&#xe971;" glyph-name="support"
                   d="M512 917.333c-259.2 0-469.333-210.133-469.333-469.333s210.133-469.333 469.333-469.333 469.333 210.133 469.333 469.333-210.133 469.333-469.333 469.333zM512 64c-211.733 0-384 172.267-384 384s172.267 384 384 384 384-172.267 384-384-172.267-384-384-384zM518.4 302.933c-16.533 0-30.4-5.333-41.067-15.467-10.667-10.667-16-23.467-16-39.467 0-15.467 5.333-28.8 16-39.467s24.533-16 41.067-16c16 0 29.867 5.333 40.533 16s16 24 16 39.467c0 15.467-5.333 28.8-16 39.467-11.2 10.133-24.533 15.467-40.533 15.467zM637.867 669.333c-31.467 22.933-74.133 34.667-127.467 34.667-43.733 0-82.133-7.467-114.133-22.4-32.533-14.933-58.667-36.8-79.467-64.533l69.333-44.8c26.133 36.8 65.067 54.933 116.267 54.933 27.2 0 48.533-6.4 65.067-18.667 16-12.267 24.533-28.8 24.533-48.533 0-14.4-4.267-27.2-12.267-38.4-8.533-11.2-20.8-24.533-38.4-39.467-22.4-19.733-39.467-38.4-51.2-55.467s-17.6-38.4-17.6-64h90.667c0 17.067 4.267 32 13.333 44.267s22.4 26.667 40.533 42.667c14.933 13.333 26.667 25.067 35.733 35.2s16.533 22.933 23.467 37.333c6.4 14.933 9.6 32 9.6 51.2-0.533 41.067-16.533 73.067-48 96z"/>
            <glyph unicode="&#xe972;" glyph-name="television"
                   d="M170.667 64h682.667v85.333h-682.667v-85.333zM42.667 789.333v-597.333h938.667v597.333h-938.667zM896 277.333h-768v426.667h768v-426.667z"/>
            <glyph unicode="&#xe973;" glyph-name="temperature_difference"
                   d="M782.933 908.8h-96l-126.933-290.133h349.867l-126.933 290.133zM733.867 819.733l51.2-125.333h-101.867l50.667 125.333zM490.667 362.667v426.667c0 70.933-57.067 128-128 128s-128-57.067-128-128v-426.667c-51.733-38.933-85.333-100.8-85.333-170.667 0-117.867 95.467-213.333 213.333-213.333s213.333 95.467 213.333 213.333c0 69.867-33.6 131.733-85.333 170.667zM362.667 64c-70.4 0-128 57.6-128 128 0 40.533 18.667 77.867 51.2 102.4l34.133 25.6v469.333c0 23.467 19.2 42.667 42.667 42.667s42.667-19.2 42.667-42.667v-469.333l34.133-25.6c32.533-24.533 51.2-61.867 51.2-102.4 0-70.4-57.6-128-128-128z"/>
            <glyph unicode="&#xe974;" glyph-name="temperature_forward"
                   d="M490.667 362.667v426.667c0 70.933-57.067 128-128 128s-128-57.067-128-128v-426.667c-51.733-38.933-85.333-100.8-85.333-170.667 0-117.867 95.467-213.333 213.333-213.333s213.333 95.467 213.333 213.333c0 69.867-33.6 131.733-85.333 170.667zM362.667 64c-70.4 0-128 57.6-128 128 0 40.533 18.667 77.867 51.2 102.4l34.133 25.6v469.333c0 23.467 19.2 42.667 42.667 42.667s42.667-19.2 42.667-42.667v-469.333l34.133-25.6c32.533-24.533 51.2-61.867 51.2-102.4 0-70.4-57.6-128-128-128zM755.733 755.733l-60.267-60.267 76.267-76.8h-89.067c-70.4 0-128-57.6-128-128v-85.333h85.333v85.333c0 23.467 19.2 42.667 42.667 42.667h89.067l-76.267-76.267 60.267-60.267 179.2 179.2-179.2 179.733z"/>
            <glyph unicode="&#xe975;" glyph-name="temperature_return"
                   d="M490.667 362.667v426.667c0 70.933-57.067 128-128 128s-128-57.067-128-128v-426.667c-51.733-38.933-85.333-100.8-85.333-170.667 0-117.867 95.467-213.333 213.333-213.333s213.333 95.467 213.333 213.333c0 69.867-33.6 131.733-85.333 170.667zM362.667 64c-70.4 0-128 57.6-128 128 0 40.533 18.667 77.867 51.2 102.4l34.133 25.6v469.333c0 23.467 19.2 42.667 42.667 42.667s42.667-19.2 42.667-42.667v-469.333l34.133-25.6c32.533-24.533 51.2-61.867 51.2-102.4 0-70.4-57.6-128-128-128zM810.667 618.667h-89.067l76.267 76.267-60.267 60.267-179.2-179.2 179.733-179.733 60.267 60.267-76.8 76.8h89.067c23.467 0 42.667-19.2 42.667-42.667v-85.333h85.333v85.333c0 70.4-57.6 128-128 128z"/>
            <glyph unicode="&#xe976;" glyph-name="temperature"
                   d="M512 832c23.467 0 42.667-19.2 42.667-42.667v-469.333l34.133-25.6c32.533-24.533 51.2-61.867 51.2-102.4 0-70.4-57.6-128-128-128s-128 57.6-128 128c0 40.533 18.667 77.867 51.2 102.4l34.133 25.6v469.333c0 23.467 19.2 42.667 42.667 42.667zM512 917.333c-70.933 0-128-57.067-128-128v-426.667c-51.733-38.933-85.333-100.8-85.333-170.667 0-117.867 95.467-213.333 213.333-213.333s213.333 95.467 213.333 213.333c0 69.867-33.6 131.733-85.333 170.667v426.667c0 70.933-57.067 128-128 128v0z"/>
            <glyph unicode="&#xe977;" glyph-name="terms-and-conditions"
                   d="M954.667 765.333c-51.733 20.8-118.4 32.533-186.667 32.533-74.133 0-144.533-13.333-198.4-37.333-24.533-11.2-43.2-23.467-57.6-35.733-14.4 12.267-33.067 24.533-57.6 35.733-53.867 24-124.267 37.333-198.4 37.333-68.267 0-134.933-11.733-186.667-32.533l-26.667-10.667v-604.267l58.667 23.467c42.133 17.067 97.067 26.133 154.667 26.133 132.267 0 213.333-46.933 213.333-72.533h85.333c0 25.6 81.067 72.533 213.333 72.533 57.6 0 112.533-9.6 154.667-26.133l58.667-23.467v604.267l-26.667 10.667zM469.333 241.067c-4.8 2.667-9.6 4.8-14.933 6.933-53.867 24-124.267 37.333-198.4 37.333-44.8 0-88.533-4.8-128-14.4v424.533c37.333 11.2 81.6 17.067 128 17.067 132.267 0 213.333-46.933 213.333-72.533v-398.933zM896 271.467c-39.467 9.067-83.2 14.4-128 14.4-74.133 0-144.533-13.333-198.4-37.333-5.333-2.133-10.133-4.8-14.933-6.933v398.4c0 25.6 81.067 72.533 213.333 72.533 46.4 0 90.667-5.867 128-17.067v-424z"/>
            <glyph unicode="&#xe978;" glyph-name="thermostat"
                   d="M490.667 362.667v426.667c0 70.933-57.067 128-128 128s-128-57.067-128-128v-426.667c-51.733-38.933-85.333-100.8-85.333-170.667 0-117.867 95.467-213.333 213.333-213.333s213.333 95.467 213.333 213.333c0 69.867-33.6 131.733-85.333 170.667zM362.667 64c-70.4 0-128 57.6-128 128 0 40.533 18.667 77.867 51.2 102.4l34.133 25.6v469.333c0 23.467 19.2 42.667 42.667 42.667s42.667-19.2 42.667-42.667v-469.333l34.133-25.6c32.533-24.533 51.2-61.867 51.2-102.4 0-70.4-57.6-128-128-128zM725.333 917.333c-82.133 0-149.333-67.2-149.333-149.333s67.2-149.333 149.333-149.333 149.333 67.2 149.333 149.333-67.2 149.333-149.333 149.333zM725.333 704c-35.2 0-64 28.8-64 64s28.8 64 64 64 64-28.8 64-64-28.8-64-64-64z"/>
            <glyph unicode="&#xe979;" glyph-name="ticket"
                   d="M768 608h-512v-320h512v320zM682.667 373.333h-341.333v149.333h341.333v-149.333zM981.333 533.333v234.667h-938.667v-234.667c46.933 0 85.333-38.4 85.333-85.333s-38.4-85.333-85.333-85.333v-234.667h938.667v234.667c-46.933 0-85.333 38.4-85.333 85.333s38.4 85.333 85.333 85.333zM896 595.733c-51.2-29.333-85.333-84.8-85.333-147.733s34.133-118.4 85.333-147.733v-86.933h-768v86.933c51.2 29.333 85.333 84.8 85.333 147.733s-34.133 118.4-85.333 147.733v86.933h768v-86.933z"/>
            <glyph unicode="&#xe97a;" glyph-name="time"
                   d="M512 917.333c-259.2 0-469.333-210.133-469.333-469.333s210.133-469.333 469.333-469.333 469.333 210.133 469.333 469.333-210.133 469.333-469.333 469.333zM512 64c-211.733 0-384 172.267-384 384s172.267 384 384 384 384-172.267 384-384-172.267-384-384-384zM554.667 746.667h-85.333v-316.267l182.933-183.467 60.8 60.8-158.4 157.867z"/>
            <glyph unicode="&#xe97b;" glyph-name="total-electrical-power_tarif_1"
                   d="M832 554.667h-298.667l64 362.667-490.667-576h298.667l-64-362.667 490.667 576zM619.733 147.733h50.133v-126.4h57.6v126.4h50.133v44.8h-157.867v-44.8zM789.867 192.533v-43.733h29.333v-127.467h57.6v171.2h-86.933z"/>
            <glyph unicode="&#xe97c;" glyph-name="total-electrical-power_tarif_2"
                   d="M872.533 66.133l24.533 22.4c11.733 10.667 19.2 19.733 23.467 28.267 3.733 8 5.867 17.067 5.867 26.667 0 10.667-3.2 19.733-9.067 28.267-5.867 8-13.867 14.4-24.533 18.667s-22.4 6.4-35.733 6.4c-17.6 0-33.067-3.733-45.333-10.667-12.8-6.933-21.867-16.533-28.8-28.8l43.733-21.867c2.667 4.8 5.867 9.067 10.667 11.733s9.6 4.267 14.933 4.267c5.333 0 9.6-1.067 12.267-3.733 2.667-2.133 4.267-5.867 4.267-10.133 0-3.2-1.067-6.933-2.667-10.667s-5.333-8-10.667-12.8l-61.867-57.067v-35.733h137.067v44.8h-58.133zM832 554.667h-298.667l64 362.667-490.667-576h298.667l-64-362.667 490.667 576zM619.733 147.733h50.133v-126.4h57.6v126.4h50.133v44.8h-157.867v-44.8z"/>
            <glyph unicode="&#xe97d;" glyph-name="total-electrical-power_tarif_3"
                   d="M832 554.667h-298.667l64 362.667-490.667-576h298.667l-64-362.667 490.667 576zM914.667 107.2c-6.933 8.533-17.067 14.4-30.4 17.6l32 32.533v35.733h-127.467v-43.733h61.333l-25.067-25.6v-35.733h22.933c13.333 0 20.267-3.733 20.267-11.733 0-4.267-2.133-7.467-5.867-9.6-4.267-2.133-9.6-3.2-16-3.2-7.467 0-15.467 1.067-23.467 3.2s-15.467 5.333-22.4 9.067l-19.733-42.667c9.067-4.8 19.2-9.067 31.467-11.733 11.733-2.667 24-3.733 36.267-3.733 17.6 0 32 2.667 43.733 8.533 11.733 5.333 20.267 12.8 26.133 21.867s8.533 18.667 8.533 28.8c-1.6 11.2-4.8 21.867-12.267 30.4zM619.733 147.733h50.133v-126.4h57.6v126.4h50.133v44.8h-157.867v-44.8z"/>
            <glyph unicode="&#xe97e;" glyph-name="total-electrical-power_tarif_4"
                   d="M777.6 192.533h-157.867v-44.8h50.133v-126.4h57.6v126.4h50.133v44.8zM832 554.667h-298.667l64 362.667-490.667-576h298.667l-64-362.667 490.667 576zM909.333 95.467v26.133h-54.4v-26.133h-22.933l64.533 97.067h-59.2l-72.533-105.067v-36.8h88.533v-29.333h56v29.333h22.933v44.8h-22.933z"/>
            <glyph unicode="&#xe97f;" glyph-name="trash"
                   d="M938.667 746.667h-256v170.667h-341.333v-170.667h-256v-85.333h85.333v-682.667h682.667v682.667h85.333v85.333zM426.667 832h170.667v-85.333h-170.667v85.333zM768 64h-512v597.333h512v-597.333z"/>
            <glyph unicode="&#xe980;" glyph-name="upload"
                   d="M853.333 277.333v-213.333h-682.667v213.333h-85.333v-298.667h853.333v298.667zM469.333 643.733v-451.733h85.333v451.733l182.933-183.467 60.8 60.8-286.4 285.867-286.4-285.867 60.8-60.8z"/>
            <glyph unicode="&#xe981;" glyph-name="value-flow"
                   d="M512 192c-110.4 0-204.267 69.867-240.533 168l89.067-45.333 38.933 76.267-216 109.333-110.4-216 75.733-38.933 43.2 83.733c48-130.133 173.333-222.933 320-222.933 121.067 0 234.667 65.6 295.467 170.667l-73.6 42.667c-45.867-78.4-131.2-127.467-221.867-127.467zM875.2 650.133l-43.2-83.733c-48 130.133-173.333 222.933-320 222.933-121.067 0-234.667-65.6-295.467-170.667l73.6-42.667c45.867 78.933 131.2 128 221.867 128 110.4 0 204.267-69.867 240.533-168l-89.6 45.333-38.933-76.267 216-109.867 110.4 216-75.2 38.933z"/>
            <glyph unicode="&#xe982;" glyph-name="variables"
                   d="M874.667 554.667h-298.667l64 362.667-490.667-576h298.667l-64-362.667 490.667 576zM333.867 426.667l167.467 196.267-9.6-53.333-17.6-100.267h216l-167.467-196.267 9.6 53.333 17.6 100.267h-216z"/>
            <glyph unicode="&#xe983;" glyph-name="ventilation"
                   d="M512 426.667v85.333c-124.8 0-188.267-22.933-249.067-45.333-57.067-20.267-110.4-40-220.267-40v-85.333c124.8 0 188.267 22.933 249.067 45.333 57.067 20.267 110.4 40 220.267 40zM512 298.667v85.333c-124.8 0-188.267-22.933-249.067-45.333-57.067-20.267-110.4-40-220.267-40v-85.333c124.8 0 188.267 22.933 249.067 45.333 57.067 20.267 110.4 40 220.267 40zM512 917.333l-405.333-341.333v-85.333h85.333v45.867l320 268.8 320-269.333v-472h-640v106.667h-85.333v-192h810.667v597.333l-405.333 341.333z"/>
            <glyph unicode="&#xe984;" glyph-name="ventilator"
                   d="M746.667 597.333c-48 0-93.867-14.4-132.267-40.533-26.667 25.067-62.933 40.533-102.4 40.533-11.733 0-23.467-1.6-34.667-4.267-18.667 25.6-29.333 56.533-29.333 89.6 0 82.133 67.2 149.333 149.333 149.333 54.4 0 64-22.4 64-149.333v-42.667h85.333v42.667c0 56 0 108.8-16.533 150.933-14.4 38.4-49.6 83.733-132.8 83.733-129.6 0-234.667-105.067-234.667-234.667 0-48 14.4-93.867 40.533-132.267-25.067-26.667-40.533-62.933-40.533-102.4 0-11.733 1.6-23.467 4.267-34.667-25.6-18.667-56.533-29.333-89.6-29.333-82.133 0-149.333 67.2-149.333 149.333 0 54.4 22.4 64 149.333 64h42.667v85.333h-42.667c-56 0-108.8 0-150.933-16.533-38.4-14.4-83.733-49.6-83.733-132.8 0-129.6 105.067-234.667 234.667-234.667 48 0 93.867 14.4 132.267 40.533 26.667-25.067 62.933-40.533 102.4-40.533 11.733 0 23.467 1.6 34.667 4.267 19.2-25.6 29.333-56.533 29.333-89.6 0-82.133-67.2-149.333-149.333-149.333-54.4 0-64 22.4-64 149.333v42.667h-85.333v-42.667c0-56 0-108.8 16.533-150.933 14.933-37.867 49.6-83.733 132.8-83.733 129.6 0 234.667 105.067 234.667 234.667 0 48-14.4 93.867-40.533 132.267 25.067 26.667 40.533 62.933 40.533 102.4 0 11.733-1.6 23.467-4.267 34.667 25.6 18.667 56.533 29.333 89.6 29.333 82.133 0 149.333-67.2 149.333-149.333 0-54.4-22.4-64-149.333-64h-42.667v-85.333h42.667c56 0 108.8 0 150.933 16.533 37.867 14.933 83.733 49.6 83.733 132.8 0 129.6-105.067 234.667-234.667 234.667zM512 384c-35.2 0-64 28.8-64 64s28.8 64 64 64 64-28.8 64-64c0-35.2-28.8-64-64-64z"/>
            <glyph unicode="&#xe985;" glyph-name="volume-minus"
                   d="M618.667 490.667v-85.333h362.667v85.333h-362.667zM241.067 682.667h-198.4v-469.333h198.4l213.333-170.667h78.933v810.667h-78.933l-213.333-170.667zM448 156.8l-177.067 141.867h-142.933v298.667h142.933l177.067 141.867v-582.4z"/>
            <glyph unicode="&#xe986;" glyph-name="volume-plus"
                   d="M241.067 682.667h-198.4v-469.333h198.4l213.333-170.667h78.933v810.667h-78.933l-213.333-170.667zM448 156.8l-177.067 141.867h-142.933v298.667h142.933l177.067 141.867v-582.4zM842.667 490.667v138.667h-85.333v-138.667h-138.667v-85.333h138.667v-138.667h85.333v138.667h138.667v85.333h-138.667z"/>
            <glyph unicode="&#xe987;" glyph-name="warning"
                   d="M469.333 288h85.333v330.667h-85.333v-330.667zM512 234.667c-29.333 0-53.333-24-53.333-53.333s24-53.333 53.333-53.333 53.333 24 53.333 53.333-24 53.333-53.333 53.333zM554.667 896h-85.333l-426.667-832 64-64h810.667l64 64-426.667 832zM149.333 85.333l362.667 706.667 362.667-706.667h-725.333z"/>
            <glyph unicode="&#xe988;" glyph-name="water_level"
                   d="M682.667 722.667v-204.267h85.333v204.267l68.8-68.8 60.267 60.267-171.733 171.733-172.267-172.267 60.267-60.267 69.333 69.333zM468.8 349.333c12.8 9.067 18.667 13.333 34.667 13.333s21.867-4.267 34.667-13.333c17.067-12.267 41.067-29.333 84.8-29.333s67.2 17.067 84.267 29.333c12.8 9.067 18.667 13.333 35.2 13.333s21.867-4.267 34.667-13.333c17.067-12.267 41.067-29.333 84.267-29.333 43.733 0 67.2 17.067 84.267 29.333 12.8 9.067 18.667 13.333 35.2 13.333v85.333c-43.733 0-67.2-17.067-84.267-29.333-12.8-9.067-18.667-13.333-35.2-13.333s-21.867 4.267-34.667 13.333c-17.067 12.267-41.067 29.333-84.8 29.333s-67.2-17.067-84.267-29.333c-12.8-9.067-18.667-13.333-35.2-13.333s-21.867 4.267-35.2 13.333c-17.067 12.267-41.067 29.333-84.267 29.333s-67.2-17.067-84.267-29.333c-12.8-9.067-18.667-13.333-35.2-13.333v426.667h-340.8v-853.333h341.333c43.733 0 67.2 17.067 84.8 29.333 12.8 9.067 18.667 13.333 34.667 13.333s21.867-4.267 34.667-13.333c17.067-12.267 41.067-29.333 84.8-29.333s67.2 17.067 84.267 29.333c12.8 9.067 18.667 13.333 35.2 13.333s21.867-4.267 34.667-13.333c17.067-12.267 41.067-29.333 84.267-29.333 43.733 0 67.2 17.067 84.267 29.333 12.8 9.067 18.667 13.333 35.2 13.333v85.333c-43.733 0-67.2-17.067-84.267-29.333-12.8-9.067-18.667-13.333-35.2-13.333s-21.867 4.267-34.667 13.333c-17.067 12.267-41.067 29.333-84.8 29.333s-67.2-17.067-84.267-29.333c-12.8-9.067-18.667-13.333-35.2-13.333s-21.867 4.267-35.2 13.333c-17.067 12.267-41.067 29.333-84.267 29.333s-67.2-17.067-84.267-29.333c-12.8-9.067-18.667-13.333-35.2-13.333v85.333c43.733 0 67.2 17.067 84.8 29.333 12.8 9.067 18.667 13.333 34.667 13.333s21.867-4.267 34.667-13.333c17.067-12.267 41.067-29.333 84.8-29.333s67.2 17.067 84.267 29.333c12.8 9.067 18.667 13.333 35.2 13.333s21.867-4.267 34.667-13.333c17.067-12.267 41.067-29.333 84.267-29.333 43.733 0 67.2 17.067 84.267 29.333 12.8 9.067 18.667 13.333 35.2 13.333v85.333c-43.733 0-67.2-17.067-84.267-29.333-12.8-9.067-18.667-13.333-35.2-13.333s-21.867 4.267-34.667 13.333c-17.067 12.267-41.067 29.333-84.8 29.333s-67.2-17.067-84.267-29.333c-12.8-9.067-18.667-13.333-35.2-13.333s-21.867 4.267-35.2 13.333c-17.067 12.267-41.067 29.333-84.267 29.333s-67.2-17.067-84.267-29.333c-12.8-9.067-18.667-13.333-35.2-13.333v85.333c44.8 0 68.267 17.067 85.867 29.333zM298.667 704h-128v-85.333h128v-42.667h-85.333v-85.333h85.333v-42.667h-128v-85.333h128v-42.667h-85.333v-85.333h85.333v-42.667h-128v-85.333h128v-42.667h-170.667v682.667h170.667v-42.667z"/>
            <glyph unicode="&#xe989;" glyph-name="weather-station"
                   d="M832 469.333c-67.733 0-124.8-45.333-142.933-106.667h-49.067v128h-85.333v170.667h192v-85.333h102.933l128 128-128 128h-102.933v-85.333h-192v85.333h-85.333v-85.333h-153.067l-85.333 85.333h-188.267v-256h188.267l85.333 85.333h153.067v-170.667h-85.333v-128h-91.733c-18.133 61.867-75.2 106.667-142.933 106.667h-64v-298.667h64c67.733 0 124.8 45.333 142.933 106.667h91.733v-128h85.333v-170.667h85.333v170.667h85.333v128h49.067c18.133-61.333 75.733-106.667 142.933-106.667 82.133 0 149.333 67.2 149.333 149.333s-67.2 149.333-149.333 149.333zM832 729.067l25.067-25.067-25.067-25.067v50.133zM195.733 661.333h-67.733v85.333h67.733l42.667-42.667-42.667-42.667zM170.667 259.733v120.533c25.067-8.533 42.667-32.533 42.667-60.267s-17.6-51.733-42.667-60.267zM554.667 277.333v-42.667h-85.333v170.667h85.333v-128zM832 256c-35.2 0-64 28.8-64 64s28.8 64 64 64 64-28.8 64-64c0-35.2-28.8-64-64-64z"/>
            <glyph unicode="&#xe98a;" glyph-name="windspeed"
                   d="M446.4 597.333c34.667 0 68.8 14.4 93.867 38.933 51.733 51.733 51.2 135.467-0.533 187.2-51.733 51.2-135.467 51.2-186.667-0.533l-29.867-30.4 60.267-60.267 29.867 30.4c9.067 9.067 20.8 13.867 33.067 13.867 0 0 0 0 0 0 12.267 0 24.533-4.8 33.067-13.867 18.133-18.133 18.133-48 0-66.667-8.533-8.533-20.8-13.333-33.067-13.333 0 0 0 0 0 0h-403.733v-85.333h403.2c0 0 0.533 0 0.533 0zM596.8 298.667c0 0 0 0 0 0h-554.133v-85.333h554.133c0 0 0 0 0 0 12.267 0 24.533-4.8 33.067-13.867 18.133-18.133 18.133-48 0-66.667-18.133-18.133-48-18.133-66.667 0l-29.867 30.4-60.267-60.267 29.867-30.4c25.6-26.133 59.733-38.933 93.867-38.933 33.6 0 67.733 12.8 93.333 38.4 51.733 51.2 51.733 135.467 0.533 187.2-24.533 25.067-58.667 39.467-93.867 39.467zM936.533 668.8c-60.267 60.8-158.4 60.8-218.667 1.067l-30.4-29.867 60.267-60.8 30.4 29.867c27.2 27.2 70.933 26.667 98.133-0.533 12.8-13.333 20.267-30.4 20.267-49.067s-7.467-35.733-20.267-49.067c-12.8-12.8-30.4-20.267-48.533-20.267h-785.067v-85.333h784.533c41.067 0 79.467 16 108.267 44.8 29.333 29.333 45.333 67.733 45.867 109.333s-16 80.533-44.8 109.867z"/>
            <glyph unicode="&#xe98b;" glyph-name="workbench"
                   d="M42.667 917.333v-938.667h938.667v938.667h-938.667zM128 832h128c0-70.4-57.6-128-128-128v128zM128 64v128c70.4 0 128-57.6 128-128h-128zM896 64h-128c0 70.4 57.6 128 128 128v-128zM896 277.333c-117.867 0-213.333-95.467-213.333-213.333h-341.333c0 117.867-95.467 213.333-213.333 213.333v341.333c117.867 0 213.333 95.467 213.333 213.333h341.333c0-117.867 95.467-213.333 213.333-213.333v-341.333zM896 704c-70.4 0-128 57.6-128 128h128v-128zM256 298.667h512v298.667h-512v-298.667zM341.333 512h341.333v-128h-341.333v128z"/>
            <glyph unicode="&#xe98c;" glyph-name="x-in-circle"
                   d="M512 917.333c-259.2 0-469.333-210.133-469.333-469.333s210.133-469.333 469.333-469.333 469.333 210.133 469.333 469.333-210.133 469.333-469.333 469.333zM512 64c-211.733 0-384 172.267-384 384s172.267 384 384 384 384-172.267 384-384-172.267-384-384-384zM662.933 659.2l-150.933-150.933-150.933 150.933-60.267-60.267 150.933-150.933-150.933-150.933 60.267-60.267 150.933 150.933 150.933-150.933 60.267 60.267-150.933 150.933 150.933 150.933z"/>
            <glyph unicode="&#xe98d;" glyph-name="x"
                   d="M798.4 674.133l-60.267 60.267-226.133-226.133-226.133 226.133-60.267-60.267 226.133-226.133-226.133-226.133 60.267-60.267 226.133 226.133 226.133-226.133 60.267 60.267-226.133 226.133z"/>
            <glyph unicode="&#xe98e;" glyph-name="fresh_water"
                   d="M363.25 654.625h-190.333v37.917c0 6.25-2.583 12-6.667 16.083-0.333 0.333-0.667 0.667-1.083 0.917-4 3.583-9.333 5.75-15.083 5.75h-96.333c-6.25 0-11.917-2.583-16.083-6.667v0 0c-4.083-4.083-6.667-9.833-6.667-16.083v-303.917c0-6.25 2.583-12 6.667-16.083 0.333-0.333 0.667-0.667 1.083-0.917 4-3.583 9.333-5.75 15.083-5.75h96.333c6.25 0 11.917 2.583 16.083 6.667v0 0c4.083 4.083 6.667 9.833 6.667 16.083v44.25h135.417c11.833-53.167 45.75-90.417 89.083-112.167 31-15.583 66.833-23.25 102.75-23.167 35.833 0 71.833 7.75 103.333 22.833 46 22.083 82.417 59.833 95 112.583h7.083c21.167-0.833 36.833-5.833 47.583-14.667 10.083-8.333 16-20.667 18.083-36.75v-64.667c0-7.083 5.75-12.833 12.833-12.833h196.083c7.083-0.083 12.833 5.667 12.833 12.75v140.083c0 0.75-0.083 1.417-0.167 2.167-9.417 55-30.167 99.917-63.667 133.167-33.333 33.083-79 54.25-138.5 62.167-0.917 0.167-1.833 0.333-2.833 0.333h-149.417l-25.917 88.25c-1.667 5.583-6.75 9.167-12.25 9.167v0h-42.833v96.75h104.667c15.333 0 29.167 6.25 39.25 16.333s16.333 24 16.333 39.25c0 15.333-6.25 29.167-16.333 39.25s-24 16.333-39.25 16.333h-310.583c-15.333 0-29.167-6.25-39.25-16.333s-16.333-24-16.333-39.25c0-15.333 6.25-29.167 16.333-39.25s24-16.333 39.25-16.333h98.833v-96.75h-51.167c-6.167 0-11.333-4.333-12.583-10.167zM861.5 245.875c-22.25-103.333-89.083-154.917-89.083-206.583s22.25-103.333 89.083-103.333c66.833 0 89.083 51.667 89.083 103.333s-66.833 103.333-89.083 206.583z"/>
            </font>
</defs>
</svg>
